<svg width="40" height="41" viewBox="0 0 40 41" fill="none" xmlns="http://www.w3.org/2000/svg">
<path d="M19.9905 40.0016H20.0095C31.0507 40.0016 40 31.0507 40 20.011V20.0016C40.0016 8.95405 31.0475 0 20.0016 0C8.95405 0 0 8.95405 0 20V20.0095C0 31.0507 8.95089 40.0016 19.9905 40.0016Z" fill="white"/>
<path d="M21.8823 32.695V21.6096H25.6026L26.1591 17.2887H21.8807V14.5299C21.8807 13.2798 22.2275 12.427 24.0215 12.427L26.3088 12.4254V8.56161C25.9132 8.50959 24.5543 8.39136 22.9747 8.39136C19.6769 8.39136 17.4178 10.4044 17.4178 14.1027V17.2887H13.6896V21.6096H17.421V32.695H21.8823Z" fill="#F37021"/>
</svg>
