<svg width="40" height="41" viewBox="0 0 40 41" fill="none" xmlns="http://www.w3.org/2000/svg">
<path d="M19.9905 40.0016H20.0095C31.0507 40.0016 40 31.0507 40 20.011V20.0016C40.0016 8.95405 31.0475 0 20.0016 0C8.95405 0 0 8.95405 0 20V20.0095C0 31.0507 8.95089 40.0016 19.9905 40.0016Z" fill="white"/>
<path fill-rule="evenodd" clip-rule="evenodd" d="M19.2559 27.8757H20.7724C20.7724 27.8757 21.2296 27.8253 21.4645 27.5731C21.6804 27.3413 21.6726 26.9078 21.6726 26.9078C21.6726 26.9078 21.6426 24.8742 22.5869 24.5731C23.5186 24.2783 24.7135 26.5389 25.9793 27.4091C26.9378 28.0665 27.6645 27.923 27.6645 27.923L31.0522 27.8757C31.0522 27.8757 32.8241 27.767 31.9839 26.3734C31.9145 26.2599 31.4952 25.3424 29.4648 23.4586C27.3398 21.4865 27.6251 21.8065 30.1836 18.3952C31.7411 16.3174 32.3654 15.05 32.1699 14.5077C31.9839 13.9907 30.8379 14.1262 30.8379 14.1262L27.0229 14.1499C27.0229 14.1499 26.7407 14.112 26.5311 14.2366C26.3261 14.3595 26.1953 14.6464 26.1953 14.6464C26.1953 14.6464 25.5915 16.2528 24.786 17.6211C23.0882 20.5044 22.4088 20.6573 22.1313 20.4792C21.485 20.0614 21.6473 18.8019 21.6473 17.908C21.6473 15.1131 22.0714 13.9481 20.8213 13.6454C20.4067 13.5461 20.1009 13.4799 19.0415 13.4689C17.6811 13.4547 16.5287 13.4736 15.8761 13.792C15.4426 14.0048 15.1068 14.4778 15.3117 14.5046C15.564 14.5377 16.1346 14.6591 16.4373 15.0705C16.8282 15.6017 16.8141 16.7967 16.8141 16.7967C16.8141 16.7967 17.0379 20.0867 16.2891 20.4949C15.7752 20.7755 15.069 20.2033 13.5556 17.5865C12.78 16.2465 12.1936 14.7647 12.1936 14.7647C12.1936 14.7647 12.0801 14.4872 11.8799 14.339C11.6355 14.1593 11.2934 14.1026 11.2934 14.1026L7.66926 14.1262C7.66926 14.1262 7.12539 14.142 6.92519 14.3785C6.74705 14.5897 6.911 15.0248 6.911 15.0248C6.911 15.0248 9.74855 21.6631 12.9613 25.0098C15.9108 28.0775 19.2559 27.8757 19.2559 27.8757Z" fill="#F37021"/>
</svg>
