<svg width="40" height="41" viewBox="0 0 40 41" fill="none" xmlns="http://www.w3.org/2000/svg">
<path d="M19.9905 40.0016H20.0095C31.0507 40.0016 40 31.0507 40 20.011V20.0016C40.0016 8.95405 31.0475 0 20.0016 0C8.95405 0 0 8.95405 0 20V20.0095C0 31.0507 8.95089 40.0016 19.9905 40.0016Z" fill="white"/>
<path d="M20.0016 11.593C22.7398 11.593 23.0646 11.6041 24.146 11.6529C25.1454 11.6987 25.6893 11.8658 26.0503 12.0061C26.5295 12.1921 26.87 12.4143 27.2295 12.7738C27.5889 13.1332 27.8112 13.4737 27.9972 13.9529C28.1375 14.3139 28.3046 14.8578 28.3503 15.8572C28.3992 16.9387 28.4102 17.2634 28.4102 20.0016C28.4102 22.7399 28.3992 23.0646 28.3503 24.146C28.3046 25.1455 28.1375 25.6894 27.9972 26.0504C27.8112 26.5296 27.5889 26.8701 27.2295 27.2295C26.87 27.5889 26.5295 27.8112 26.0503 27.9972C25.6893 28.1375 25.1454 28.3046 24.146 28.3503C23.0646 28.3992 22.7398 28.4102 20.0016 28.4102C17.2634 28.4102 16.9386 28.3992 15.8572 28.3503C14.8577 28.3046 14.3139 28.1375 13.9529 27.9972C13.4737 27.8112 13.1331 27.5889 12.7737 27.2295C12.4143 26.8701 12.192 26.5296 12.006 26.0504C11.8657 25.6894 11.6986 25.1455 11.6529 24.146C11.604 23.0646 11.593 22.7399 11.593 20.0016C11.593 17.2634 11.604 16.9387 11.6529 15.8572C11.6986 14.8578 11.8657 14.3139 12.006 13.9529C12.192 13.4737 12.4143 13.1332 12.7737 12.7738C13.1331 12.4143 13.4737 12.1921 13.9529 12.0061C14.3139 11.8658 14.8577 11.6987 15.8572 11.6529C16.9386 11.6025 17.2618 11.593 20.0016 11.593ZM20.0016 9.7439C17.2161 9.7439 16.8661 9.75493 15.7736 9.80538C14.6812 9.85582 13.9371 10.0292 13.2845 10.2815C12.6098 10.5431 12.0375 10.8947 11.4685 11.4638C10.8978 12.0344 10.5478 12.6067 10.2861 13.2798C10.0323 13.9324 9.85893 14.6781 9.81006 15.769C9.75962 16.863 9.74858 17.2114 9.74858 19.9969C9.74858 22.7824 9.75962 23.1324 9.81006 24.2249C9.86051 25.3173 10.0339 26.0614 10.2861 26.714C10.5478 27.3887 10.8994 27.961 11.4685 28.5301C12.0391 29.1007 12.6114 29.4507 13.2845 29.7124C13.9371 29.9662 14.6828 30.1396 15.7736 30.1884C16.8677 30.2389 17.2161 30.2499 20.0016 30.2499C22.7871 30.2499 23.1371 30.2389 24.2295 30.1884C25.322 30.138 26.0661 29.9646 26.7187 29.7124C27.3934 29.4507 27.9657 29.0991 28.5347 28.5301C29.1054 27.9594 29.4554 27.3872 29.7171 26.714C29.9709 26.0614 30.1443 25.3157 30.1931 24.2249C30.2436 23.1308 30.2546 22.7824 30.2546 19.9969C30.2546 17.2114 30.2436 16.8614 30.1931 15.769C30.1427 14.6765 29.9693 13.9324 29.7171 13.2798C29.4554 12.6051 29.1038 12.0329 28.5347 11.4638C27.9641 10.8931 27.3918 10.5431 26.7187 10.2815C26.0661 10.0277 25.3204 9.85425 24.2295 9.80538C23.1355 9.75651 22.7855 9.7439 20.0016 9.7439Z" fill="#F37021"/>
<path d="M20.0016 14.7349C17.0931 14.7349 14.7348 17.0932 14.7348 20.0017C14.7348 22.9102 17.0931 25.2685 20.0016 25.2685C22.9101 25.2685 25.2684 22.9102 25.2684 20.0017C25.2684 17.0932 22.9101 14.7349 20.0016 14.7349ZM20.0016 23.4193C18.113 23.4193 16.5823 21.8886 16.5823 20.0001C16.5823 18.1115 18.113 16.5808 20.0016 16.5808C21.8901 16.5808 23.4208 18.1115 23.4208 20.0001C23.4208 21.8886 21.8886 23.4193 20.0016 23.4193Z" fill="#F37021"/>
<path d="M25.4749 15.758C26.1549 15.758 26.7061 15.2068 26.7061 14.5268C26.7061 13.8469 26.1549 13.2957 25.4749 13.2957C24.7949 13.2957 24.2437 13.8469 24.2437 14.5268C24.2437 15.2068 24.7949 15.758 25.4749 15.758Z" fill="#F37021"/>
</svg>
