<svg width="303" height="187" viewBox="0 0 303 187" fill="none" xmlns="http://www.w3.org/2000/svg">
<path d="M48.0002 65L49.3482 64.3422L48.0002 65ZM300.5 96.5L301.97 96.7972L300.5 96.5ZM0.000183105 179L14.4414 169.437L15.5026 186.725L0.000183105 179ZM182 0.5C182 1.51371 181.97 2.52135 181.912 3.52268L178.917 3.34677C178.972 2.40378 179 1.4548 179 0.5H182ZM181.211 9.49116C180.862 11.4693 180.402 13.4184 179.837 15.3365L176.959 14.489C177.493 12.6753 177.928 10.8352 178.257 8.97016L181.211 9.49116ZM177.84 20.9902C177.081 22.828 176.228 24.6332 175.288 26.404L172.638 24.9972C173.535 23.3082 174.346 21.5905 175.067 19.8457L177.84 20.9902ZM172.254 31.5494C171.179 33.2052 170.028 34.8273 168.808 36.4141L166.43 34.586C167.603 33.0593 168.708 31.5019 169.738 29.9155L172.254 31.5494ZM165.013 40.9971C163.705 42.4673 162.339 43.9034 160.92 45.3041L158.813 43.1692C160.187 41.8123 161.508 40.4232 162.771 39.0034L165.013 40.9971ZM156.575 49.3441C155.097 50.6401 153.574 51.9016 152.012 53.1272L150.16 50.7672C151.681 49.574 153.161 48.3473 154.597 47.0884L156.575 49.3441ZM147.262 56.6629C145.655 57.7977 144.015 58.8969 142.348 59.9594L140.736 57.4294C142.364 56.3918 143.964 55.319 145.531 54.2123L147.262 56.6629ZM137.289 63.0231C135.581 64.0059 133.851 64.9514 132.104 65.8582L130.722 63.1954C132.431 62.3083 134.124 61.3837 135.793 60.4229L137.289 63.0231ZM126.803 68.4669C125.013 69.3014 123.21 70.0957 121.4 70.8485L120.248 68.0785C122.02 67.3418 123.784 66.5645 125.536 65.7478L126.803 68.4669ZM115.897 73.0016C114.033 73.6854 112.167 74.3245 110.304 74.9175L109.394 72.0589C111.215 71.4791 113.04 70.8541 114.863 70.1852L115.897 73.0016ZM104.629 76.5843C102.701 77.1029 100.782 77.5702 98.8787 77.9846L98.2406 75.0533C100.096 74.6494 101.968 74.1936 103.85 73.6873L104.629 76.5843ZM93.0602 79.0938C91.0747 79.4174 89.113 79.6793 87.1826 79.8776L86.876 76.8933C88.7449 76.7013 90.6479 76.4473 92.5777 76.1329L93.0602 79.0938ZM81.26 80.288C79.2169 80.3578 77.2198 80.3482 75.2791 80.2558L75.4217 77.2592C77.2751 77.3474 79.1902 77.357 81.1575 77.2897L81.26 80.288ZM69.2985 79.678C67.2431 79.3696 65.2711 78.9497 63.3989 78.4126L64.2262 75.5289C65.9608 76.0265 67.8041 76.4202 69.7437 76.7112L69.2985 79.678ZM57.7115 76.2592C55.8019 75.3304 54.0481 74.2318 52.4809 72.9532L54.3774 70.6287C55.747 71.7461 57.3008 72.7234 59.0236 73.5613L57.7115 76.2592ZM48.2411 68.3803C47.6492 67.5208 47.1184 66.6134 46.6521 65.6578L49.3482 64.3422C49.749 65.1635 50.2045 65.942 50.712 66.6789L48.2411 68.3803ZM46.6521 65.6578C46.1561 64.6414 45.7102 63.6369 45.3135 62.6444L48.0993 61.5311C48.4672 62.4518 48.883 63.3888 49.3482 64.3422L46.6521 65.6578ZM43.4868 56.6766C43.0326 54.5001 42.8336 52.3884 42.8814 50.3436L45.8806 50.4137C45.8385 52.2143 46.013 54.0967 46.4235 56.0637L43.4868 56.6766ZM43.8889 43.9567C44.5089 41.897 45.4039 39.9385 46.5489 38.0818L49.1024 39.6564C48.0866 41.3037 47.3025 43.0247 46.7616 44.8215L43.8889 43.9567ZM50.4625 33.0705C51.8625 31.6117 53.4355 30.2317 55.1645 28.9285L56.9702 31.3242C55.3551 32.5416 53.9046 33.8165 52.627 35.1478L50.4625 33.0705ZM60.3609 25.501C62.1018 24.4909 63.9522 23.5353 65.9027 22.633L67.1622 25.3559C65.2876 26.2229 63.5201 27.1364 61.8665 28.0959L60.3609 25.501ZM71.6272 20.2424C73.4802 19.5436 75.4042 18.884 77.3935 18.263L78.2874 21.1267C76.3496 21.7316 74.4807 22.3725 72.6858 23.0494L71.6272 20.2424ZM83.3523 16.5671C85.2817 16.0675 87.2618 15.5998 89.2886 15.1636L89.9198 18.0964C87.9313 18.5244 85.9915 18.9827 84.1043 19.4713L83.3523 16.5671ZM95.3023 13.9851C97.2846 13.633 99.3047 13.3083 101.359 13.011L101.789 15.9801C99.7648 16.273 97.7764 16.5926 95.827 16.9389L95.3023 13.9851ZM107.4 12.2264C109.409 11.9943 111.445 11.7866 113.507 11.6032L113.773 14.5914C111.737 14.7726 109.726 14.9776 107.745 15.2066L107.4 12.2264ZM119.57 11.1384C121.59 11.0077 123.63 10.8991 125.689 10.8127L125.815 13.81C123.778 13.8956 121.76 14.0029 119.764 14.1321L119.57 11.1384ZM131.77 10.6224C133.793 10.5804 135.832 10.559 137.882 10.558L137.884 13.558C135.853 13.559 133.835 13.5802 131.832 13.6218L131.77 10.6224ZM143.976 10.6146C145.999 10.653 148.032 10.7107 150.073 10.7878L149.96 13.7857C147.938 13.7093 145.924 13.6521 143.919 13.6141L143.976 10.6146ZM156.17 11.0745C158.191 11.1881 160.218 11.3204 162.248 11.4712L162.026 14.463C160.013 14.3134 158.004 14.1823 156.001 14.0698L156.17 11.0745ZM168.333 11.9783C170.352 12.1647 172.373 12.3694 174.393 12.5922L174.064 15.5742C172.062 15.3532 170.059 15.1504 168.057 14.9656L168.333 11.9783ZM180.451 13.3154C182.468 13.5745 184.482 13.8518 186.493 14.1471L186.057 17.1153C184.064 16.8226 182.067 16.5478 180.068 16.2909L180.451 13.3154ZM192.509 15.0874C194.523 15.4211 196.53 15.7731 198.529 16.1433L197.982 19.0931C196.002 18.7264 194.014 18.3776 192.018 18.047L192.509 15.0874ZM204.503 17.3094C206.507 17.7208 208.5 18.1509 210.48 18.5995L209.818 21.5254C207.857 21.0813 205.884 20.6555 203.899 20.2481L204.503 17.3094ZM216.407 20.0071C218.395 20.5016 220.367 21.0152 222.323 21.5479L221.534 24.4424C219.601 23.9156 217.65 23.4076 215.683 22.9184L216.407 20.0071ZM228.19 23.2204C230.156 23.8059 232.101 24.4116 234.023 25.0372L233.095 27.8899C231.197 27.2723 229.276 26.6741 227.334 26.0955L228.19 23.2204ZM239.811 27.0067C241.748 27.6957 243.658 28.4061 245.538 29.1378L244.45 31.9336C242.598 31.2129 240.715 30.5127 238.805 29.8333L239.811 27.0067ZM251.207 31.4477C253.107 32.2582 254.971 33.0922 256.798 33.9494L255.523 36.6651C253.73 35.8236 251.898 35.0042 250.03 34.207L251.207 31.4477ZM262.286 36.6564C264.134 37.6148 265.936 38.5995 267.688 39.6104L266.188 42.2089C264.477 41.2215 262.714 40.2583 260.904 39.3195L262.286 36.6564ZM272.893 42.7875C274.661 43.9304 276.368 45.1039 278.009 46.3078L276.234 48.7266C274.644 47.5596 272.986 46.4196 271.265 45.307L272.893 42.7875ZM282.823 50.0901C284.436 51.4503 285.968 52.8463 287.413 54.2782L285.301 56.4091C283.917 55.0371 282.444 53.6951 280.889 52.3834L282.823 50.0901ZM291.623 58.852C292.968 60.4622 294.206 62.114 295.33 63.8074L292.831 65.4668C291.771 63.87 290.599 62.3059 289.32 60.7748L291.623 58.852ZM298.466 69.2372C299.397 71.1254 300.191 73.0598 300.838 75.0398L297.987 75.9716C297.386 74.1324 296.646 72.3301 295.775 70.5648L298.466 69.2372ZM302.331 81.1272C302.672 83.185 302.858 85.2842 302.881 87.4237L299.881 87.4564C299.86 85.4699 299.687 83.5238 299.371 81.6176L302.331 81.1272ZM302.501 93.6258C302.362 94.6747 302.186 95.7318 301.97 96.7972L299.03 96.2028C299.232 95.2031 299.397 94.2131 299.527 93.233L302.501 93.6258ZM301.97 96.7972C301.767 97.805 301.543 98.8006 301.299 99.7841L298.387 99.0629C298.62 98.1217 298.835 97.1684 299.03 96.2028L301.97 96.7972ZM299.602 105.543C298.939 107.474 298.194 109.355 297.371 111.185L294.635 109.955C295.42 108.208 296.131 106.413 296.765 104.569L299.602 105.543ZM294.647 116.571C293.656 118.327 292.588 120.032 291.446 121.689L288.976 119.986C290.068 118.402 291.088 116.773 292.035 115.096L294.647 116.571ZM287.809 126.505C286.54 128.046 285.201 129.54 283.798 130.989L281.643 128.902C282.992 127.509 284.277 126.074 285.494 124.597L287.809 126.505ZM279.447 135.156C277.962 136.478 276.418 137.758 274.82 138.998L272.981 136.628C274.528 135.427 276.02 134.19 277.453 132.915L279.447 135.156ZM269.984 142.515C268.347 143.632 266.662 144.714 264.93 145.761L263.378 143.194C265.064 142.174 266.703 141.122 268.293 140.037L269.984 142.515ZM259.737 148.727C258.006 149.661 256.236 150.564 254.429 151.439L253.123 148.738C254.892 147.882 256.622 146.999 258.313 146.087L259.737 148.727ZM248.971 153.944C247.177 154.725 245.351 155.481 243.494 156.212L242.395 153.421C244.22 152.702 246.013 151.96 247.773 151.193L248.971 153.944ZM237.903 158.308C236.051 158.969 234.173 159.608 232.269 160.226L231.343 157.372C233.22 156.763 235.071 156.134 236.895 155.483L237.903 158.308ZM226.592 161.983C224.7 162.542 222.785 163.082 220.851 163.603L220.071 160.706C221.983 160.191 223.874 159.658 225.742 159.106L226.592 161.983ZM215.115 165.078C213.196 165.55 211.258 166.005 209.303 166.444L208.646 163.517C210.582 163.083 212.5 162.632 214.399 162.165L215.115 165.078ZM203.526 167.685C201.589 168.082 199.638 168.465 197.673 168.833L197.12 165.885C199.069 165.519 201.003 165.14 202.922 164.746L203.526 167.685ZM191.858 169.876C189.911 170.21 187.952 170.53 185.983 170.838L185.519 167.874C187.474 167.569 189.419 167.25 191.351 166.919L191.858 169.876ZM180.136 171.713C178.181 171.992 176.217 172.26 174.245 172.516L173.858 169.541C175.818 169.286 177.77 169.02 179.712 168.743L180.136 171.713ZM168.377 173.246C166.416 173.478 164.448 173.7 162.475 173.913L162.154 170.93C164.117 170.719 166.074 170.498 168.023 170.266L168.377 173.246ZM156.591 174.516C154.625 174.708 152.656 174.891 150.683 175.066L150.419 172.077C152.383 171.904 154.343 171.722 156.299 171.531L156.591 174.516ZM144.786 175.561C142.819 175.718 140.849 175.867 138.877 176.009L138.663 173.016C140.626 172.875 142.588 172.727 144.548 172.571L144.786 175.561ZM132.97 176.411C131.001 176.538 129.031 176.658 127.063 176.771L126.89 173.776C128.852 173.663 130.815 173.544 132.777 173.417L132.97 176.411ZM121.146 177.093C119.176 177.194 117.208 177.289 115.243 177.379L115.106 174.382C117.066 174.293 119.028 174.198 120.993 174.097L121.146 177.093ZM109.318 177.633C107.347 177.712 105.38 177.786 103.419 177.856L103.312 174.858C105.269 174.788 107.231 174.714 109.197 174.635L109.318 177.633ZM97.4874 178.053C95.5161 178.115 93.5513 178.172 91.5943 178.226L91.5123 175.227C93.4658 175.173 95.4267 175.116 97.394 175.055L97.4874 178.053ZM85.6566 178.378C83.6848 178.425 81.7222 178.469 79.7699 178.51L79.7065 175.511C81.6563 175.47 83.6161 175.426 85.5848 175.378L85.6566 178.378ZM73.8271 178.628C71.8528 178.665 69.8905 178.7 67.9416 178.733L67.8909 175.733C69.8383 175.7 71.7987 175.666 73.7709 175.629L73.8271 178.628ZM62.0006 178.829C60.0213 178.86 58.0574 178.89 56.1105 178.919L56.0655 175.919C58.0121 175.89 59.9753 175.861 61.9537 175.83L62.0006 178.829ZM50.1808 179.008C48.1926 179.038 46.2244 179.067 44.2775 179.098L44.2302 176.099C46.1782 176.068 48.1473 176.038 50.1357 176.008L50.1808 179.008ZM38.3751 179.196C36.3735 179.23 34.3975 179.267 32.4487 179.306L32.3886 176.307C34.3405 176.267 36.3192 176.231 38.3229 176.196L38.3751 179.196ZM26.6002 179.433C24.5799 179.481 22.593 179.533 20.6415 179.59L20.5545 176.591C22.5119 176.534 24.5041 176.482 26.5289 176.434L26.6002 179.433ZM14.7532 179.78C12.7581 179.852 10.8058 179.931 8.89902 180.017L8.76337 177.02C10.6804 176.933 12.6419 176.854 14.6452 176.782L14.7532 179.78Z" fill="#F37021"/>
</svg>
