<svg width="574" height="323" viewBox="0 0 574 323" fill="none" xmlns="http://www.w3.org/2000/svg">
<path d="M246 211L245.392 209.629L246 211ZM498.5 317.5L515.063 322.567L511.17 305.69L498.5 317.5ZM61.1398 0.771152C60.3283 1.33921 59.4862 1.95269 58.6174 2.61068L60.4286 5.00225C61.2693 4.36555 62.0811 3.77422 62.8602 3.22885L61.1398 0.771152ZM53.751 6.5367C52.2496 7.8193 50.6965 9.20997 49.1066 10.7056L51.1622 12.8907C52.7181 11.4271 54.2355 10.0685 55.6996 8.81773L53.751 6.5367ZM44.6592 15.0742C43.2513 16.5164 41.8258 18.0339 40.3921 19.6246L42.6206 21.6331C44.0275 20.0721 45.4257 18.5837 46.8059 17.1698L44.6592 15.0742ZM36.3189 24.3222C35.0171 25.8826 33.7156 27.5014 32.4211 29.1775L34.7954 31.0113C36.0665 29.3655 37.3444 27.776 38.6225 26.244L36.3189 24.3222ZM28.7095 34.1737C27.5217 35.837 26.3455 37.5489 25.1867 39.3083L27.6921 40.9585C28.8298 39.2312 29.9845 37.5505 31.1509 35.9172L28.7095 34.1737ZM21.8642 44.5681C20.801 46.3248 19.7583 48.1234 18.7406 49.9629L21.3657 51.4151C22.3641 49.6104 23.3873 47.8455 24.4308 46.1214L21.8642 44.5681ZM15.8371 55.4655C14.9142 57.3023 14.0185 59.1759 13.1543 61.0854L15.8874 62.3224C16.7345 60.4507 17.6126 58.6137 18.5178 56.8124L15.8371 55.4655ZM10.7018 66.8174C9.93147 68.727 9.19429 70.6693 8.49399 72.6435L11.3214 73.6465C12.0072 71.7132 12.7293 69.8106 13.4839 67.9396L10.7018 66.8174ZM6.53909 78.5578C5.935 80.5285 5.36891 82.5285 4.84425 84.5569L7.74867 85.3081C8.26204 83.3234 8.81604 81.3661 9.40736 79.437L6.53909 78.5578ZM3.41841 90.6297C2.99233 92.6486 2.60829 94.6935 2.26939 96.7639L5.22999 97.2485C5.56139 95.2239 5.93698 93.224 6.35375 91.2492L3.41841 90.6297ZM1.4047 102.935C1.16603 104.981 0.97227 107.05 0.826197 109.141L3.81891 109.35C3.96171 107.306 4.15115 105.283 4.38449 103.282L1.4047 102.935ZM0.536409 115.37C0.512243 116.408 0.5 117.451 0.5 118.5H3.5C3.5 117.475 3.51197 116.455 3.5356 115.44L0.536409 115.37ZM0.5 118.5C0.5 119.516 0.524717 120.531 0.573743 121.543L3.57023 121.398C3.52353 120.434 3.5 119.467 3.5 118.5H0.5ZM1.15559 127.588C1.44349 129.587 1.82452 131.576 2.29531 133.552L5.21365 132.857C4.76345 130.967 4.39963 129.067 4.12495 127.16L1.15559 127.588ZM3.9562 139.389C4.58539 141.29 5.29666 143.177 6.08686 145.048L8.85051 143.881C8.09051 142.081 7.40757 140.269 6.80422 138.446L3.9562 139.389ZM8.64336 150.519C9.55304 152.294 10.5334 154.052 11.5817 155.792L14.1515 154.244C13.1375 152.561 12.1905 150.862 11.313 149.15L8.64336 150.519ZM14.8617 160.863C15.9955 162.501 17.1897 164.121 18.4418 165.723L20.805 163.875C19.5877 162.318 18.4282 160.744 17.3286 159.155L14.8617 160.863ZM22.2638 170.346C23.5674 171.84 24.9219 173.316 26.3253 174.771L28.4849 172.689C27.1152 171.268 25.7944 169.829 24.5245 168.374L22.2638 170.346ZM30.6038 179.004C32.0457 180.367 33.5311 181.709 35.0581 183.031L37.0217 180.763C35.5267 179.469 34.0737 178.155 32.6641 176.824L30.6038 179.004ZM39.6615 186.853C41.2134 188.09 42.8026 189.306 44.4274 190.501L46.2048 188.084C44.6105 186.912 43.0521 185.719 41.531 184.507L39.6615 186.853ZM49.3289 193.968C50.9629 195.079 52.6287 196.17 54.3248 197.24L55.9249 194.702C54.2578 193.651 52.6212 192.579 51.0164 191.487L49.3289 193.968ZM59.4485 200.351C61.1616 201.352 62.9024 202.333 64.6693 203.29L66.0991 200.653C64.3602 199.71 62.6476 198.746 60.9626 197.761L59.4485 200.351ZM69.9626 206.054C71.7378 206.946 73.5369 207.817 75.3584 208.664L76.6239 205.944C74.8296 205.109 73.0578 204.252 71.3098 203.374L69.9626 206.054ZM80.813 211.105C82.6345 211.888 84.4764 212.648 86.3374 213.386L87.4426 210.597C85.6082 209.87 83.7929 209.12 81.998 208.348L80.813 211.105ZM91.9415 215.515C93.8017 216.192 95.6792 216.846 97.573 217.476L98.5202 214.63C96.6527 214.008 94.8014 213.363 92.9673 212.696L91.9415 215.515ZM103.277 219.287C105.177 219.862 107.092 220.413 109.02 220.94L109.81 218.046C107.908 217.526 106.02 216.983 104.146 216.416L103.277 219.287ZM114.804 222.436C116.737 222.908 118.682 223.355 120.639 223.778L121.272 220.845C119.342 220.429 117.423 219.987 115.516 219.521L114.804 222.436ZM126.488 224.959C128.443 225.327 130.409 225.669 132.383 225.985L132.858 223.023C130.91 222.711 128.971 222.373 127.042 222.011L126.488 224.959ZM138.293 226.851C140.264 227.113 142.243 227.349 144.229 227.558L144.544 224.575C142.584 224.368 140.632 224.136 138.688 223.878L138.293 226.851ZM150.184 228.104C152.166 228.259 154.153 228.387 156.146 228.487L156.297 225.491C154.332 225.392 152.372 225.266 150.417 225.113L150.184 228.104ZM162.128 228.706C164.114 228.751 166.105 228.769 168.099 228.759L168.083 225.759C166.117 225.769 164.155 225.751 162.196 225.707L162.128 228.706ZM174.081 228.643C176.069 228.577 178.059 228.482 180.05 228.359L179.864 225.364C177.902 225.486 175.94 225.579 173.981 225.645L174.081 228.643ZM186.014 227.902C187.996 227.721 189.979 227.511 191.961 227.272L191.602 224.293C189.649 224.529 187.695 224.736 185.742 224.914L186.014 227.902ZM197.886 226.467C199.856 226.169 201.824 225.842 203.791 225.484L203.254 222.532C201.317 222.885 199.378 223.207 197.438 223.5L197.886 226.467ZM209.654 224.325C211.603 223.908 213.55 223.461 215.493 222.983L214.776 220.07C212.863 220.54 210.947 220.981 209.027 221.391L209.654 224.325ZM221.271 221.464C223.19 220.928 225.104 220.36 227.013 219.76L226.114 216.898C224.236 217.488 222.352 218.047 220.463 218.575L221.271 221.464ZM232.687 217.878C234.567 217.222 236.44 216.533 238.307 215.812L237.226 213.014C235.39 213.723 233.547 214.4 231.698 215.046L232.687 217.878ZM243.852 213.567C244.773 213.176 245.692 212.778 246.608 212.371L245.392 209.629C244.49 210.029 243.587 210.421 242.681 210.805L243.852 213.567ZM246.608 212.371C247.537 211.959 248.465 211.551 249.391 211.147L248.192 208.397C247.26 208.804 246.326 209.214 245.392 209.629L246.608 212.371ZM254.94 208.77C256.785 207.993 258.626 207.231 260.463 206.485L259.334 203.705C257.486 204.456 255.633 205.223 253.775 206.005L254.94 208.77ZM265.962 204.292C267.811 203.569 269.655 202.86 271.495 202.168L270.438 199.36C268.586 200.057 266.729 200.77 264.868 201.499L265.962 204.292ZM277.168 200.075C279.054 199.393 280.935 198.728 282.811 198.078L281.829 195.243C279.94 195.897 278.047 196.567 276.148 197.253L277.168 200.075ZM288.423 196.177C290.304 195.553 292.18 194.946 294.05 194.355L293.146 191.494C291.262 192.09 289.374 192.701 287.48 193.329L288.423 196.177ZM299.829 192.572C301.749 191.994 303.663 191.433 305.572 190.888L304.748 188.003C302.826 188.552 300.898 189.117 298.965 189.699L299.829 192.572ZM311.278 189.303C313.197 188.784 315.11 188.282 317.016 187.797L316.275 184.89C314.355 185.379 312.428 185.884 310.495 186.407L311.278 189.303ZM322.877 186.349C324.824 185.884 326.764 185.435 328.697 185.004L328.043 182.076C326.095 182.511 324.141 182.963 322.18 183.431L322.877 186.349ZM334.472 183.759C336.433 183.351 338.387 182.961 340.332 182.588L339.767 179.642C337.807 180.018 335.838 180.411 333.862 180.821L334.472 183.759ZM346.251 181.5C348.215 181.155 350.171 180.828 352.119 180.517L351.646 177.555C349.683 177.868 347.712 178.198 345.732 178.546L346.251 181.5ZM357.935 179.636C359.941 179.348 361.938 179.079 363.925 178.827L363.548 175.851C361.544 176.105 359.531 176.376 357.509 176.666L357.935 179.636ZM369.869 178.123C371.84 177.907 373.801 177.707 375.752 177.525L375.474 174.538C373.506 174.722 371.528 174.923 369.541 175.141L369.869 178.123ZM381.696 177.021C383.707 176.868 385.708 176.733 387.696 176.616L387.52 173.622C385.514 173.739 383.497 173.876 381.468 174.03L381.696 177.021ZM393.628 176.32C395.608 176.238 397.577 176.174 399.533 176.128L399.462 173.129C397.488 173.175 395.502 173.24 393.504 173.322L393.628 176.32ZM405.569 176.04C407.567 176.03 409.552 176.038 411.524 176.064L411.563 173.064C409.573 173.038 407.57 173.03 405.553 173.04L405.569 176.04ZM417.398 176.195C419.428 176.259 421.443 176.343 423.442 176.445L423.596 173.449C421.577 173.346 419.542 173.261 417.493 173.197L417.398 176.195ZM429.394 176.808C431.362 176.947 433.314 177.105 435.25 177.28L435.521 174.293C433.565 174.115 431.593 173.956 429.606 173.815L429.394 176.808ZM441.262 177.888C443.252 178.11 445.224 178.351 447.177 178.611L447.572 175.637C445.598 175.374 443.605 175.131 441.595 174.907L441.262 177.888ZM452.995 179.446C455.003 179.756 456.991 180.086 458.957 180.435L459.482 177.481C457.493 177.128 455.483 176.795 453.453 176.481L452.995 179.446ZM464.793 181.538C466.745 181.93 468.674 182.341 470.58 182.77L471.239 179.844C469.31 179.409 467.358 178.994 465.384 178.597L464.793 181.538ZM476.433 184.163C478.36 184.646 480.261 185.149 482.138 185.669L482.94 182.779C481.039 182.251 479.114 181.743 477.163 181.253L476.433 184.163ZM487.88 187.343C489.802 187.93 491.696 188.537 493.56 189.163L494.515 186.318C492.624 185.684 490.705 185.069 488.757 184.474L487.88 187.343ZM499.107 191.109C501.016 191.81 502.892 192.529 504.733 193.268L505.85 190.484C503.98 189.734 502.077 189.003 500.14 188.293L499.107 191.109ZM510.156 195.54C512.012 196.351 513.831 197.182 515.61 198.032L516.903 195.324C515.093 194.46 513.244 193.616 511.358 192.791L510.156 195.54ZM520.904 200.671C522.688 201.599 524.428 202.547 526.125 203.512L527.608 200.905C525.879 199.921 524.106 198.955 522.289 198.01L520.904 200.671ZM531.224 206.548C532.926 207.609 534.577 208.687 536.177 209.783L537.872 207.308C536.236 206.187 534.548 205.085 532.811 204.002L531.224 206.548ZM540.99 213.246C542.592 214.458 544.133 215.687 545.611 216.931L547.543 214.635C546.023 213.357 544.442 212.096 542.8 210.854L540.99 213.246ZM550.01 220.849C551.478 222.235 552.87 223.636 554.185 225.05L556.381 223.007C555.021 221.544 553.583 220.097 552.07 218.668L550.01 220.849ZM557.987 229.437C559.259 231.018 560.436 232.611 561.516 234.213L564.003 232.535C562.874 230.861 561.647 229.2 560.325 227.557L557.987 229.437ZM564.545 239.187C565.49 240.926 566.321 242.669 567.036 244.414L569.812 243.276C569.054 241.426 568.175 239.584 567.18 237.754L564.545 239.187ZM568.908 249.939C569.414 251.829 569.782 253.715 570.008 255.593L572.986 255.235C572.743 253.21 572.348 251.184 571.806 249.162L568.908 249.939ZM570.255 261.322C570.188 263.238 569.967 265.143 569.59 267.032L572.531 267.62C572.941 265.571 573.18 263.504 573.253 261.427L570.255 261.322ZM568.024 272.534C567.372 274.29 566.574 276.029 565.626 277.748L568.254 279.196C569.271 277.351 570.131 275.477 570.836 273.579L568.024 272.534ZM562.466 282.658C561.36 284.151 560.131 285.626 558.776 287.077L560.969 289.125C562.398 287.594 563.7 286.032 564.877 284.443L562.466 282.658ZM554.597 291.124C553.161 292.388 551.62 293.629 549.973 294.847L551.756 297.259C553.469 295.994 555.076 294.699 556.579 293.376L554.597 291.124ZM545.208 298.109C543.565 299.152 541.836 300.174 540.02 301.172L541.465 303.801C543.334 302.774 545.118 301.72 546.816 300.641L545.208 298.109ZM534.893 303.812C533.138 304.66 531.312 305.488 529.416 306.294L530.59 309.055C532.529 308.231 534.398 307.383 536.198 306.514L534.893 303.812ZM523.986 308.47C522.182 309.151 520.321 309.814 518.403 310.458L519.358 313.302C521.31 312.647 523.206 311.971 525.046 311.277L523.986 308.47ZM512.638 312.285C510.825 312.826 508.967 313.351 507.061 313.86L507.836 316.759C509.768 316.242 511.655 315.709 513.496 315.159L512.638 312.285Z" fill="#F37021"/>
</svg>
