<svg width="143" height="83" viewBox="0 0 143 83" fill="none" xmlns="http://www.w3.org/2000/svg">
<path d="M71.5 34L71.3131 33.5362L71.5 34ZM22.5 77L26.9891 80.6306L27.8887 74.9276L22.5 77ZM26.9724 78.1983C27.9723 78.3486 28.9645 78.4947 29.9492 78.6368L30.092 77.647C29.1093 77.5053 28.119 77.3594 27.121 77.2094L26.9724 78.1983ZM32.8806 79.0507C33.8502 79.1846 34.8122 79.3144 35.7667 79.4403L35.8974 78.4488C34.945 78.3233 33.9849 78.1937 33.0174 78.0601L32.8806 79.0507ZM38.615 79.8067C39.6444 79.9359 40.665 80.0602 41.6766 80.18L41.7941 79.1869C40.7848 79.0675 39.7666 78.9433 38.7394 78.8145L38.615 79.8067ZM44.6849 80.5251C45.6788 80.6355 46.6638 80.7413 47.6401 80.8425L47.7432 79.8478C46.7694 79.7468 45.7868 79.6413 44.7953 79.5312L44.6849 80.5251ZM50.5426 81.1325C51.5043 81.225 52.4572 81.3129 53.4014 81.3964L53.4894 80.4003C52.5478 80.317 51.5975 80.2293 50.6383 80.1371L50.5426 81.1325ZM56.4776 81.6551C57.4926 81.736 58.4971 81.8117 59.4913 81.8821L59.562 80.8846C58.5708 80.8144 57.5692 80.7389 56.5571 80.6582L56.4776 81.6551ZM62.4428 82.0779C63.4163 82.1381 64.3795 82.1931 65.3325 82.2431L65.3849 81.2445C64.435 81.1946 63.4749 81.1398 62.5044 81.0798L62.4428 82.0779ZM68.3059 82.3842C69.336 82.4279 70.3537 82.4655 71.3591 82.4973L71.3906 81.4977C70.3889 81.4662 69.3748 81.4287 68.3483 81.3851L68.3059 82.3842ZM74.3384 82.5747C75.3193 82.5947 76.288 82.6088 77.2445 82.6173L77.2534 81.6173C76.3007 81.6089 75.3359 81.5948 74.3588 81.5749L74.3384 82.5747ZM80.1979 82.6253C81.233 82.6216 82.2534 82.611 83.259 82.5937L83.2418 81.5939C82.2408 81.6111 81.225 81.6216 80.1943 81.6253L80.1979 82.6253ZM86.232 82.5217C87.2084 82.4911 88.1703 82.4539 89.1177 82.4102L89.0717 81.4113C88.1292 81.4547 87.1723 81.4918 86.2007 81.5222L86.232 82.5217ZM92.1401 82.2464C93.1641 82.1823 94.1703 82.1104 95.1589 82.0309L95.0787 81.0341C94.0962 81.1131 93.0959 81.1846 92.0776 81.2483L92.1401 82.2464ZM98.0719 81.7697C99.0707 81.6707 100.05 81.5636 101.011 81.4487L100.892 80.4558C99.9386 80.5699 98.9656 80.6763 97.9733 80.7746L98.0719 81.7697ZM104.038 81.0519C105.026 80.9108 105.991 80.761 106.936 80.6027L106.771 79.6165C105.834 79.7734 104.876 79.922 103.897 80.062L104.038 81.0519ZM109.862 80.0726C110.879 79.8739 111.87 79.6649 112.834 79.446L112.612 78.4708C111.658 78.6874 110.678 78.8944 109.671 79.0911L109.862 80.0726ZM115.647 78.7597C116.663 78.4941 117.646 78.2166 118.598 77.928L118.308 76.971C117.369 77.2558 116.398 77.5298 115.394 77.7923L115.647 78.7597ZM121.411 77.0107C122.386 76.6692 123.324 76.3149 124.224 75.9486L123.847 75.0224C122.963 75.3822 122.041 75.7307 121.081 76.0669L121.411 77.0107ZM126.961 74.7452C127.9 74.2993 128.791 73.8388 129.637 73.3648L129.148 72.4925C128.323 72.955 127.451 73.4053 126.532 73.842L126.961 74.7452ZM132.173 71.8119C133.054 71.2222 133.872 70.6154 134.63 69.9934L133.995 69.2206C133.264 69.8208 132.472 70.4084 131.617 70.981L132.173 71.8119ZM136.832 67.9695C137.561 67.2148 138.211 66.4424 138.784 65.6551L137.975 65.067C137.431 65.8147 136.812 66.5516 136.113 67.2745L136.832 67.9695ZM140.381 63.0353C140.848 62.0988 141.215 61.148 141.485 60.1878L140.523 59.9163C140.269 60.8151 139.925 61.7076 139.486 62.5895L140.381 63.0353ZM142.022 57.1809C142.101 56.1627 142.078 55.142 141.96 54.1246L140.967 54.2402C141.078 55.1954 141.099 56.1515 141.025 57.1035L142.022 57.1809ZM141.334 51.131C141.045 50.171 140.673 49.2198 140.222 48.282L139.321 48.7152C139.75 49.6088 140.103 50.5119 140.377 51.4197L141.334 51.131ZM138.733 45.6549C138.194 44.8317 137.593 44.023 136.936 43.2322L136.167 43.8716C136.802 44.6348 137.379 45.413 137.896 46.2029L138.733 45.6549ZM134.885 41.0068C134.177 40.3108 133.424 39.6326 132.626 38.9748L131.99 39.7465C132.766 40.3863 133.498 41.0448 134.183 41.7195L134.885 41.0068ZM130.251 37.1701C129.443 36.604 128.6 36.0573 127.724 35.5319L127.21 36.3896C128.066 36.903 128.889 37.4368 129.676 37.9889L130.251 37.1701ZM125.083 34.0667C124.213 33.6202 123.314 33.1937 122.39 32.789L121.989 33.705C122.895 34.1017 123.775 34.5194 124.627 34.9565L125.083 34.0667ZM119.588 31.6588C118.668 31.3186 117.727 30.9991 116.764 30.702L116.469 31.6574C117.414 31.9493 118.338 32.2628 119.241 32.5967L119.588 31.6588ZM113.87 29.892C112.914 29.6514 111.94 29.4322 110.949 29.2358L110.755 30.2168C111.729 30.4099 112.686 30.6253 113.626 30.8618L113.87 29.892ZM107.998 28.7267C107.02 28.5826 106.027 28.4603 105.021 28.3611L104.923 29.3563C105.913 29.4539 106.89 29.5742 107.852 29.716L107.998 28.7267ZM102.041 28.1376C101.053 28.0866 100.053 28.0577 99.0428 28.0518L99.037 29.0517C100.032 29.0576 101.016 29.0861 101.989 29.1363L102.041 28.1376ZM96.0543 28.1012C95.0672 28.1396 94.071 28.1999 93.0664 28.283L93.1488 29.2796C94.1389 29.1977 95.1206 29.1382 96.0931 29.1005L96.0543 28.1012ZM90.087 28.5943C89.1103 28.7175 88.1265 28.8624 87.1363 29.0297L87.3028 30.0157C88.2793 29.8507 89.2493 29.7079 90.2122 29.5864L90.087 28.5943ZM84.1789 29.5927C83.2211 29.7956 82.2579 30.0196 81.29 30.2654L81.5361 31.2347C82.4911 30.9922 83.4413 30.7711 84.3862 30.571L84.1789 29.5927ZM78.3725 31.0687C77.4378 31.3461 76.4993 31.644 75.5574 31.963L75.8782 32.9102C76.8081 32.5953 77.7345 32.3012 78.657 32.0274L78.3725 31.0687ZM72.7322 32.9798C72.2599 33.1599 71.7868 33.3453 71.3131 33.5362L71.6869 34.4638C72.1548 34.2752 72.622 34.0921 73.0885 33.9142L72.7322 32.9798ZM71.3131 33.5362C70.8364 33.7283 70.3578 33.9158 69.8775 34.0988L70.2335 35.0333C70.7197 34.8481 71.2042 34.6582 71.6869 34.4638L71.3131 33.5362ZM66.9752 35.1424C66.0005 35.4726 65.0203 35.7847 64.0358 36.0789L64.3222 37.037C65.318 36.7394 66.3097 36.4236 67.296 36.0895L66.9752 35.1424ZM61.0644 36.9098C60.0672 37.1699 59.067 37.412 58.0655 37.6365L58.2842 38.6123C59.2969 38.3853 60.3082 38.1405 61.3168 37.8775L61.0644 36.9098ZM55.043 38.2598C54.0285 38.451 53.014 38.6243 52.001 38.7799L52.1528 39.7683C53.177 39.611 54.2026 39.4358 55.2283 39.2424L55.043 38.2598ZM48.943 39.1968C47.9161 39.3192 46.8921 39.4234 45.8728 39.5097L45.9571 40.5061C46.9878 40.4188 48.0231 40.3135 49.0613 40.1898L48.943 39.1968ZM42.7938 39.7169C41.7589 39.7685 40.7304 39.8015 39.71 39.8161L39.7243 40.816C40.7566 40.8012 41.7969 40.7678 42.8436 40.7156L42.7938 39.7169ZM36.6254 39.8041C35.5874 39.7808 34.5599 39.7381 33.5448 39.6763L33.484 40.6744C34.5121 40.7371 35.5524 40.7803 36.603 40.8038L36.6254 39.8041ZM30.4737 39.4271C29.4391 39.3216 28.4202 39.1955 27.4192 39.0491L27.2744 40.0385C28.2903 40.1872 29.3236 40.3151 30.3723 40.4219L30.4737 39.4271ZM24.3834 38.5319C23.3572 38.3313 22.3539 38.108 21.376 37.8625L21.1324 38.8324C22.1281 39.0824 23.1487 39.3095 24.1916 39.5133L24.3834 38.5319ZM18.4176 37.0268C17.421 36.7121 16.4574 36.3719 15.5299 36.0069L15.1637 36.9374C16.1138 37.3113 17.0992 37.6591 18.1164 37.9804L18.4176 37.0268ZM12.7249 34.7727C11.7835 34.3102 10.8911 33.8181 10.0516 33.2973L9.52444 34.1471C10.3938 34.6865 11.3153 35.1943 12.284 35.6702L12.7249 34.7727ZM7.56786 31.5469C6.75612 30.8944 6.01741 30.2074 5.35703 29.487L4.6199 30.1628C5.31721 30.9234 6.09346 31.6448 6.94138 32.3263L7.56786 31.5469ZM3.53385 27.096C3.00174 26.2375 2.56838 25.3404 2.24055 24.4058L1.29692 24.7368C1.64986 25.743 2.11531 26.7055 2.68387 27.6228L3.53385 27.096ZM1.58116 21.4982C1.52739 21.0082 1.5 20.5087 1.5 20H0.5C0.5 20.5447 0.529325 21.0805 0.587133 21.6073L1.58116 21.4982ZM1.5 20C1.5 19.5227 1.53558 19.0578 1.60456 18.6047L0.615952 18.4542C0.539322 18.9575 0.5 19.4728 0.5 20H1.5ZM2.44013 15.945C2.8401 15.123 3.3613 14.3398 3.99075 13.5935L3.22635 12.9488C2.55003 13.7506 1.98122 14.6026 1.54094 15.5074L2.44013 15.945ZM6.03189 11.5943C6.74526 11.0048 7.5293 10.4439 8.37394 9.91073L7.84012 9.06514C6.96439 9.61798 6.14518 10.2035 5.39488 10.8235L6.03189 11.5943ZM10.8965 8.48548C11.7424 8.05577 12.6273 7.64808 13.5437 7.26156L13.155 6.34017C12.2192 6.73489 11.3127 7.15243 10.4436 7.59394L10.8965 8.48548ZM16.2664 6.20488C17.1745 5.88022 18.1031 5.57366 19.0456 5.28441L18.7522 4.32842C17.7964 4.62174 16.8534 4.93305 15.9297 5.26323L16.2664 6.20488ZM21.8633 4.47973C22.8078 4.2289 23.7591 3.99407 24.7111 3.77449L24.4864 2.80007C23.5244 3.02194 22.5624 3.2594 21.6067 3.51324L21.8633 4.47973ZM27.5814 3.15704C28.5518 2.96274 29.516 2.7837 30.4676 2.61909L30.2972 1.63372C29.3374 1.79975 28.3645 1.98039 27.3851 2.1765L27.5814 3.15704ZM33.3697 2.15406C34.3669 2.0067 35.3409 1.87538 36.283 1.75903L36.1605 0.76657C35.2107 0.883857 34.2289 1.01624 33.2235 1.1648L33.3697 2.15406ZM39.1979 1.43461C40.2375 1.33181 41.2172 1.24906 42.1221 1.18449L42.0509 0.187023C41.1367 0.252261 40.1479 0.335783 39.0995 0.439462L39.1979 1.43461ZM45.0605 1.02626C45.5984 1.00843 46.0805 1 46.5 1V0C46.0675 0 45.5743 0.00868639 45.0274 0.0268083L45.0605 1.02626Z" fill="#F37021"/>
</svg>
