<svg width="582" height="129" viewBox="0 0 582 129" fill="none" xmlns="http://www.w3.org/2000/svg">
<path d="M333.356 56.5L333.841 55.0807L333.356 56.5ZM0.356201 129L16.5824 122.941L3.22226 111.918L0.356201 129ZM7.38032 122.979C8.70746 121.447 10.0476 119.93 11.4007 118.428L9.17208 116.42C7.80557 117.936 6.45243 119.468 5.11255 121.016L7.38032 122.979ZM15.5059 113.963C16.8921 112.486 18.2916 111.025 19.7046 109.58L17.5598 107.482C16.1322 108.942 14.7183 110.418 13.3181 111.911L15.5059 113.963ZM23.992 105.288C25.437 103.871 26.8957 102.472 28.3682 101.09L26.3151 98.9023C24.8266 100.299 23.3523 101.714 21.892 103.145L23.992 105.288ZM32.8378 96.9863C34.3428 95.6351 35.8617 94.3017 37.3948 92.9865L35.4414 90.7096C33.8911 92.0396 32.3552 93.3878 30.8336 94.754L32.8378 96.9863ZM42.0428 89.0909C43.6071 87.8102 45.1857 86.5482 46.7788 85.3052L44.9333 82.94C43.3216 84.1975 41.7247 85.4742 40.1424 86.7696L42.0428 89.0909ZM51.6028 81.6326C53.2248 80.4281 54.8613 79.2431 56.5126 78.0778L54.7828 75.6267C53.1117 76.806 51.4555 78.0053 49.8143 79.2241L51.6028 81.6326ZM61.5076 74.6437C63.1856 73.5202 64.8784 72.4169 66.5861 71.334L64.9795 68.8004C63.2507 69.8967 61.5371 71.0136 59.8386 72.1509L61.5076 74.6437ZM71.743 68.1538C73.4749 67.1156 75.2218 66.0982 76.9837 65.1019L75.507 62.4905C73.7229 63.4993 71.9541 64.5295 70.2006 65.5807L71.743 68.1538ZM82.2925 62.1885C84.0727 61.2409 85.8679 60.3146 87.6782 59.4098L86.3371 56.7263C84.5037 57.6425 82.6857 58.5807 80.8829 59.5403L82.2925 62.1885ZM93.1354 56.7697C94.9591 55.9163 96.7978 55.0844 98.6516 54.2745L97.4505 51.5254C95.573 52.3457 93.7109 53.1882 91.8639 54.0525L93.1354 56.7697ZM104.244 51.9169C106.107 51.1595 107.985 50.424 109.878 49.7106L108.82 46.9033C106.903 47.6258 105.001 48.3707 103.114 49.1377L104.244 51.9169ZM115.577 47.6459C117.479 46.9843 119.396 46.3447 121.328 45.7275L120.415 42.8698C118.459 43.4948 116.518 44.1425 114.592 44.8124L115.577 47.6459ZM127.117 43.9582C129.054 43.3929 131.005 42.8497 132.971 42.329L132.203 39.429C130.213 39.9561 128.237 40.506 126.277 41.0784L127.117 43.9582ZM138.832 40.8542C140.793 40.3865 142.767 39.9407 144.757 39.5173L144.132 36.5831C142.119 37.0116 140.12 37.4627 138.136 37.9361L138.832 40.8542ZM150.691 38.3289C152.668 37.9575 154.66 37.6078 156.665 37.2801L156.181 34.3194C154.153 34.6509 152.138 35.0046 150.137 35.3805L150.691 38.3289ZM162.662 36.3722C164.651 36.0947 166.654 35.8384 168.67 35.6038L168.323 32.6239C166.284 32.8611 164.259 33.1203 162.247 33.401L162.662 36.3722ZM174.714 34.9696C176.711 34.7826 178.72 34.6166 180.743 34.4717L180.529 31.4794C178.484 31.6258 176.453 31.7937 174.434 31.9827L174.714 34.9696ZM186.82 34.1025C188.82 34.0025 190.833 33.9229 192.858 33.864L192.771 30.8652C190.725 30.9248 188.691 31.0052 186.671 31.1062L186.82 34.1025ZM198.955 33.7495C200.955 33.7324 202.967 33.7352 204.992 33.7581L205.026 30.7583C202.981 30.7352 200.949 30.7324 198.929 30.7496L198.955 33.7495ZM211.094 33.8871C213.092 33.9488 215.102 34.0298 217.123 34.1303L217.272 31.134C215.232 31.0325 213.203 30.9508 211.186 30.8885L211.094 33.8871ZM223.218 34.4903C225.213 34.6266 227.219 34.7817 229.236 34.9558L229.494 31.9669C227.459 31.7913 225.435 31.6348 223.422 31.4973L223.218 34.4903ZM235.311 35.5339C237.302 35.7409 239.303 35.9661 241.316 36.2097L241.676 33.2315C239.647 32.9858 237.629 32.7587 235.622 32.55L235.311 35.5339ZM247.361 36.9926C249.348 37.2666 251.345 37.5582 253.353 37.8678L253.81 34.9029C251.786 34.5909 249.774 34.2969 247.771 34.0208L247.361 36.9926ZM259.358 38.8421C261.341 39.1796 263.335 39.5345 265.338 39.9067L265.886 36.9572C263.868 36.5822 261.86 36.2247 259.862 35.8846L259.358 38.8421ZM271.296 41.059C273.277 41.4573 275.268 41.8724 277.269 42.3046L277.902 39.3722C275.887 38.937 273.882 38.519 271.887 38.1179L271.296 41.059ZM283.17 43.6218C285.146 44.0773 287.132 44.5491 289.128 45.0375L289.841 42.1236C287.832 41.6319 285.833 41.1569 283.844 40.6984L283.17 43.6218ZM294.98 46.5104C296.935 47.016 298.899 47.5372 300.872 48.0743L301.66 45.1796C299.675 44.6392 297.698 44.1147 295.731 43.606L294.98 46.5104ZM306.727 49.7069C308.659 50.2584 310.599 50.825 312.548 51.4068L313.406 48.5321C311.446 47.947 309.494 47.377 307.55 46.8221L306.727 49.7069ZM318.413 53.195C320.32 53.7887 322.236 54.3968 324.159 55.0195L325.083 52.1652C323.149 51.5392 321.223 50.9277 319.305 50.3306L318.413 53.195ZM329.954 56.9308C330.924 57.2566 331.897 57.5861 332.871 57.9193L333.841 55.0807C332.862 54.7458 331.885 54.4145 330.91 54.087L329.954 56.9308ZM332.871 57.9193C333.852 58.2548 334.83 58.5838 335.806 58.9065L336.748 56.0582C335.782 55.7387 334.813 55.4129 333.841 55.0807L332.871 57.9193ZM341.633 60.7673C343.588 61.3695 345.533 61.9463 347.468 62.4983L348.291 59.6133C346.376 59.0672 344.451 58.4963 342.516 57.9002L341.633 60.7673ZM353.383 64.1167C355.36 64.6345 357.325 65.1263 359.28 65.5928L359.976 62.6748C358.043 62.2134 356.099 61.7269 354.144 61.2147L353.383 64.1167ZM365.269 66.9508C367.266 67.3799 369.252 67.7825 371.226 68.1594L371.789 65.2126C369.837 64.8401 367.874 64.442 365.899 64.0177L365.269 66.9508ZM377.272 69.2399C379.29 69.5758 381.295 69.8849 383.287 70.1677L383.709 67.1975C381.741 66.918 379.759 66.6126 377.765 66.2806L377.272 69.2399ZM389.372 70.9559C391.408 71.1941 393.43 71.405 395.438 71.5895L395.712 68.6021C393.729 68.4199 391.732 68.2115 389.721 67.9762L389.372 70.9559ZM401.543 72.0727C403.593 72.2088 405.628 72.3174 407.647 72.3995L407.769 69.4019C405.775 69.3209 403.766 69.2137 401.741 69.0793L401.543 72.0727ZM413.752 72.5682C415.812 72.5983 417.855 72.6009 419.882 72.577L419.847 69.5772C417.846 69.6008 415.829 69.5982 413.796 69.5685L413.752 72.5682ZM425.965 72.4249C428.03 72.3458 430.076 72.2395 432.105 72.1069L431.91 69.1133C429.908 69.2441 427.888 69.3491 425.85 69.4271L425.965 72.4249ZM438.188 71.6272C440.237 71.4378 442.266 71.2218 444.277 70.9806L443.919 68.002C441.936 68.24 439.933 68.453 437.912 68.6399L438.188 71.6272ZM450.348 70.168C452.372 69.8688 454.376 69.5443 456.359 69.1958L455.84 66.241C453.883 66.5849 451.906 66.9051 449.909 67.2002L450.348 70.168ZM462.396 68.0491C464.409 67.6377 466.401 67.202 468.37 66.7435L467.689 63.8217C465.747 64.2741 463.782 64.704 461.795 65.1097L462.396 68.0491ZM474.29 65.2794C476.287 64.7565 478.26 64.2105 480.208 63.6432L479.369 60.7628C477.447 61.3226 475.501 61.8613 473.53 62.3772L474.29 65.2794ZM486.056 61.8538C488.007 61.2276 489.933 60.5805 491.832 59.9144L490.839 57.0835C488.965 57.7408 487.065 58.3793 485.139 58.9973L486.056 61.8538ZM497.599 57.8039C499.525 57.0696 501.422 56.3165 503.289 55.5468L502.146 52.7731C500.303 53.5328 498.431 54.276 496.53 55.0007L497.599 57.8039ZM508.902 53.1468C510.785 52.3123 512.635 51.4619 514.454 50.5981L513.167 47.8883C511.371 48.741 509.544 49.5804 507.686 50.4042L508.902 53.1468ZM519.96 47.8946C521.803 46.9594 523.611 46.0119 525.382 45.0549L523.956 42.4154C522.207 43.3604 520.422 44.2959 518.602 45.2192L519.96 47.8946ZM530.721 42.0818C532.513 41.0537 534.264 40.018 535.975 38.9778L534.417 36.4145C532.727 37.4417 530.997 38.4644 529.228 39.4797L530.721 42.0818ZM541.148 35.7422C542.9 34.6156 544.604 33.4876 546.26 32.3622L544.574 29.8809C542.938 30.9923 541.255 32.1063 539.525 33.219L541.148 35.7422ZM551.28 28.857C552.98 27.6378 554.622 26.4265 556.206 25.2285L554.396 22.8359C552.832 24.0189 551.211 25.2151 549.532 26.4192L551.28 28.857ZM561.034 21.479C562.682 20.1641 564.256 18.873 565.754 17.6131L563.823 15.3172C562.344 16.5608 560.791 17.8354 559.163 19.1336L561.034 21.479ZM570.396 13.6003C572.023 12.1548 573.536 10.768 574.933 9.45351L572.877 7.26873C571.5 8.5642 570.009 9.93165 568.404 11.3576L570.396 13.6003ZM579.301 5.21544C580.067 4.4489 580.779 3.72279 581.436 3.04135L579.277 0.958655C578.631 1.62778 577.932 2.34146 577.179 3.09548L579.301 5.21544Z" fill="#F37021"/>
</svg>
