<svg width="101" height="71" viewBox="0 0 101 71" fill="none" xmlns="http://www.w3.org/2000/svg">
<path d="M5.50002 31L5.68701 30.5363L5.50002 31ZM89.5 31L89.1865 30.6105L89.5 31ZM5.50002 68L10.7775 70.3414L10.1664 64.6003L5.50002 68ZM10.1835 67.9018C11.1475 67.7491 12.1661 67.5723 13.2355 67.3701L13.0497 66.3875C11.9896 66.588 10.9808 66.7631 10.0271 66.9141L10.1835 67.9018ZM16.2862 66.7523C17.262 66.542 18.2715 66.3129 19.3124 66.0642L19.0799 65.0915C18.0462 65.3386 17.044 65.5661 16.0756 65.7747L16.2862 66.7523ZM22.3353 65.3082C23.3104 65.0537 24.3085 64.7832 25.3282 64.496L25.0571 63.5334C24.0436 63.8189 23.0516 64.0877 22.0828 64.3406L22.3353 65.3082ZM28.3058 63.6275C29.2775 63.3344 30.266 63.0269 31.2702 62.7044L30.9644 61.7523C29.966 62.0729 28.9831 62.3787 28.017 62.6701L28.3058 63.6275ZM34.219 61.7293C35.184 61.4009 36.1615 61.0592 37.1507 60.7038L36.8126 59.7627C35.8288 60.1162 34.8565 60.456 33.8968 60.7826L34.219 61.7293ZM40.0643 59.6293C41.0201 59.2678 41.9853 58.8937 42.9591 58.5068L42.5899 57.5774C41.6212 57.9623 40.6611 58.3344 39.7105 58.694L40.0643 59.6293ZM45.8345 57.3369C46.7795 56.9434 47.7315 56.5379 48.69 56.1201L48.2905 55.2034C47.3371 55.6189 46.39 56.0223 45.4501 56.4138L45.8345 57.3369ZM51.525 54.8569C52.458 54.4319 53.3963 53.9955 54.3391 53.5472L53.9097 52.6441C52.9719 53.09 52.0386 53.5241 51.1106 53.9468L51.525 54.8569ZM57.1315 52.1914C58.0514 51.7354 58.975 51.2681 59.9017 50.7895L59.4427 49.901C58.521 50.3771 57.6023 50.8419 56.6873 51.2955L57.1315 52.1914ZM62.6488 49.3414C63.5544 48.8544 64.4624 48.3564 65.3722 47.8472L64.8838 46.9746C63.979 47.481 63.0759 47.9763 62.1752 48.4607L62.6488 49.3414ZM68.0709 46.3068C68.9594 45.7896 69.8491 45.2617 70.7396 44.7229L70.2219 43.8673C69.3363 44.4032 68.4515 44.9282 67.5678 45.4426L68.0709 46.3068ZM73.3797 43.0942C74.2506 42.5465 75.1217 41.9882 75.9925 41.4192L75.4455 40.5821C74.5796 41.1479 73.7134 41.703 72.8474 42.2476L73.3797 43.0942ZM78.5769 39.6981C79.4294 39.1194 80.2812 38.5303 81.1319 37.9306L80.5557 37.1133C79.7099 37.7096 78.863 38.2953 78.0153 38.8707L78.5769 39.6981ZM83.6563 36.1168C84.4866 35.5088 85.3155 34.8904 86.1424 34.2616L85.5371 33.4656C84.715 34.0908 83.891 34.7055 83.0655 35.31L83.6563 36.1168ZM88.5953 32.3607C89.002 32.0396 89.4081 31.7159 89.8135 31.3895L89.1865 30.6105C88.7835 30.9349 88.3798 31.2567 87.9756 31.5759L88.5953 32.3607ZM89.8135 31.3895C90.2504 31.0379 90.6656 30.6919 91.0595 30.3515L90.4056 29.5949C90.0211 29.9272 89.6149 30.2657 89.1865 30.6105L89.8135 31.3895ZM93.1819 28.3635C93.9782 27.5453 94.6419 26.7601 95.1779 26.0064L94.363 25.4268C93.8621 26.1311 93.233 26.8772 92.4653 27.666L93.1819 28.3635ZM96.6148 23.2771C96.9911 22.1162 97.0135 21.0305 96.6892 20.0328L95.7382 20.3419C95.9878 21.1098 95.9849 21.9773 95.6635 22.9688L96.6148 23.2771ZM94.8034 17.4242C94.0758 16.8248 93.1798 16.2959 92.1445 15.8296L91.7338 16.7413C92.7113 17.1816 93.5256 17.6672 94.1675 18.196L94.8034 17.4242ZM89.2797 14.7888C88.3724 14.5218 87.397 14.2824 86.3612 14.0692L86.1595 15.0486C87.1725 15.2571 88.1206 15.4901 88.9974 15.7482L89.2797 14.7888ZM83.4318 13.5572C82.4771 13.4167 81.4836 13.2935 80.4553 13.1869L80.3522 14.1815C81.3676 14.2868 82.347 14.4083 83.2862 14.5465L83.4318 13.5572ZM77.4354 12.9272C76.4753 12.8603 75.491 12.8058 74.4856 12.7631L74.4431 13.7622C75.4402 13.8045 76.4154 13.8586 77.366 13.9247L77.4354 12.9272ZM71.4909 12.6713C70.5092 12.6523 69.511 12.6433 68.4987 12.644L68.4993 13.644C69.5053 13.6433 70.4968 13.6523 71.4715 13.6711L71.4909 12.6713ZM65.5243 12.6726C64.5337 12.6906 63.5322 12.7172 62.5219 12.7518L62.5562 13.7512C63.5614 13.7168 64.5575 13.6904 65.5425 13.6724L65.5243 12.6726ZM59.5582 12.8753C58.5669 12.9237 57.5692 12.9794 56.5668 13.0421L56.6292 14.0401C57.6272 13.9777 58.6204 13.9223 59.607 13.8741L59.5582 12.8753ZM53.6012 13.2468C52.6107 13.3215 51.6175 13.4026 50.6234 13.4899L50.7109 14.4861C51.701 14.3991 52.6901 14.3183 53.6764 14.2439L53.6012 13.2468ZM47.6568 13.7683C46.6667 13.8672 45.6772 13.9719 44.6902 14.0822L44.8012 15.076C45.7844 14.9662 46.7699 14.8619 47.7562 14.7634L47.6568 13.7683ZM41.7278 14.4308C40.7371 14.5532 39.7505 14.6811 38.7699 14.8141L38.9043 15.805C39.881 15.6726 40.8636 15.5452 41.8505 15.4232L41.7278 14.4308ZM35.8179 15.2326C34.825 15.3795 33.8402 15.5316 32.8655 15.6885L33.0243 16.6758C33.9948 16.5196 34.9755 16.3682 35.9643 16.2218L35.8179 15.2326ZM29.934 16.18C28.9362 16.3542 27.9515 16.5334 26.9822 16.7171L27.1685 17.6996C28.1329 17.5168 29.1128 17.3385 30.106 17.1651L29.934 16.18ZM24.0883 17.2889C23.0827 17.4959 22.0974 17.7078 21.135 17.9242L21.3543 18.8998C22.3106 18.6848 23.29 18.4742 24.2899 18.2683L24.0883 17.2889ZM18.2325 18.6078C17.2454 18.8515 16.2883 19.0999 15.3647 19.3526L15.6286 20.3171C16.5435 20.0668 17.4925 19.8205 18.4722 19.5786L18.2325 18.6078ZM12.4568 20.1968C11.4514 20.5072 10.4981 20.823 9.60293 21.1433L9.93977 22.0848C10.8195 21.7701 11.7587 21.4589 12.7519 21.1522L12.4568 20.1968ZM6.80527 22.2421C5.7782 22.689 4.86546 23.1444 4.08437 23.6069L4.59387 24.4674C5.33061 24.0311 6.20457 23.594 7.20421 23.1591L6.80527 22.2421ZM1.65702 25.5419C1.24044 26.05 0.965128 26.5977 0.905342 27.1796C0.844577 27.7709 1.01234 28.3415 1.38187 28.8734L2.2031 28.3028C1.9494 27.9376 1.86722 27.6017 1.9001 27.2818C1.93396 26.9523 2.09587 26.5839 2.43036 26.1759L1.65702 25.5419ZM3.81132 30.7802C4.25787 31.0121 4.75808 31.2399 5.31304 31.4637L5.68701 30.5363C5.15655 30.3224 4.68597 30.1076 4.27224 29.8928L3.81132 30.7802ZM5.31304 31.4637C5.78234 31.653 6.2598 31.8295 6.74505 31.9937L7.06552 31.0464C6.59779 30.8882 6.13819 30.7182 5.68701 30.5363L5.31304 31.4637ZM9.69366 32.8209C10.6717 33.0431 11.6755 33.223 12.7026 33.363L12.8376 32.3721C11.8377 32.2359 10.8629 32.061 9.91518 31.8457L9.69366 32.8209ZM15.7397 33.6587C16.7356 33.7192 17.7499 33.7471 18.7807 33.744L18.7778 32.744C17.7668 32.747 16.7738 32.7197 15.8003 32.6606L15.7397 33.6587ZM21.8168 33.6501C22.8125 33.5928 23.8213 33.5097 24.8418 33.4025L24.7373 32.408C23.7316 32.5137 22.7384 32.5954 21.7593 32.6518L21.8168 33.6501ZM27.8504 33.0223C28.8368 32.8775 29.8325 32.7121 30.8362 32.5275L30.6553 31.544C29.6629 31.7266 28.6791 31.8899 27.7051 32.0329L27.8504 33.0223ZM33.8016 31.9319C34.7775 31.7199 35.7596 31.4913 36.7467 31.2471L36.5066 30.2764C35.5283 30.5184 34.5555 30.7448 33.5893 30.9547L33.8016 31.9319ZM39.6719 30.4827C40.6369 30.2174 41.6058 29.9384 42.5773 29.6468L42.2898 28.689C41.3254 28.9785 40.3641 29.2553 39.4068 29.5184L39.6719 30.4827ZM45.4634 28.7462C46.4176 28.4374 47.3735 28.1174 48.3301 27.787L48.0036 26.8417C47.053 27.1701 46.1033 27.4881 45.1555 27.7948L45.4634 28.7462ZM51.1775 26.7742C52.1199 26.4295 53.0622 26.0755 54.0033 25.7133L53.644 24.78C52.708 25.1403 51.771 25.4923 50.834 25.835L51.1775 26.7742ZM56.812 24.6064C57.7449 24.2303 58.6759 23.8469 59.6039 23.4568L59.2164 22.5349C58.2928 22.9231 57.3664 23.3047 56.4381 23.6789L56.812 24.6064ZM62.3788 22.2674C63.3021 21.8641 64.2215 21.455 65.1363 21.041L64.724 20.13C63.8131 20.5422 62.8977 20.9495 61.9786 21.351L62.3788 22.2674ZM67.8759 19.78C68.7908 19.3519 69.7 18.9197 70.6024 18.484L70.1677 17.5835C69.2688 18.0174 68.3633 18.4479 67.4521 18.8742L67.8759 19.78ZM73.3139 17.1555C74.2206 16.7047 75.1194 16.2513 76.0094 15.7962L75.554 14.9059C74.6674 15.3593 73.772 15.811 72.8687 16.2601L73.3139 17.1555ZM78.6886 14.4072C79.5871 13.9351 80.4751 13.4622 81.3514 12.9895L80.8766 12.1094C80.0035 12.5804 79.1187 13.0516 78.2235 13.522L78.6886 14.4072ZM83.9977 11.5434C84.8888 11.0502 85.7659 10.5583 86.6278 10.069L86.134 9.19938C85.2753 9.68694 84.4014 10.177 83.5135 10.6685L83.9977 11.5434ZM89.2418 8.56577C90.1272 8.05003 90.9938 7.53853 91.8399 7.03266L91.3268 6.17434C90.4839 6.67826 89.6206 7.18784 88.7385 7.70166L89.2418 8.56577ZM94.4222 5.46801C95.3046 4.92603 96.1604 4.39264 96.9875 3.86972L96.4532 3.02447C95.6297 3.54504 94.7776 4.07615 93.8989 4.61591L94.4222 5.46801ZM99.5324 2.23557C99.9567 1.95861 100.372 1.68549 100.777 1.41653L100.223 0.583475C99.8207 0.850935 99.408 1.1226 98.9858 1.39814L99.5324 2.23557Z" fill="#F37021"/>
</svg>
