<svg width="809" height="103" viewBox="0 0 809 103" fill="none" xmlns="http://www.w3.org/2000/svg">
    <circle cx="596" cy="14" r="12.5" stroke="#F37021" stroke-width="3"/>
    <path d="M791.5 70.5L791.256 69.02L791.5 70.5ZM442 102.943L439.35 85.8267L455.498 92.0891L442 102.943ZM609.759 16.5226C610.76 16.6983 611.755 16.8749 612.744 17.0525L612.213 20.0053C611.229 19.8284 610.238 19.6524 609.241 19.4774L609.759 16.5226ZM618.603 18.1291C620.584 18.5013 622.54 18.8773 624.47 19.2567L623.892 22.2004C621.969 21.8226 620.022 21.4482 618.049 21.0775L618.603 18.1291ZM630.293 20.4265C632.276 20.8337 634.231 21.2444 636.16 21.6584L635.53 24.5916C633.61 24.1795 631.663 23.7706 629.689 23.3652L630.293 20.4265ZM641.929 22.9238C643.915 23.3687 645.871 23.8169 647.798 24.268L647.114 27.189C645.196 26.7401 643.249 26.2941 641.273 25.8512L641.929 22.9238ZM653.582 25.6513C655.541 26.1297 657.468 26.6109 659.365 27.0944L658.624 30.0014C656.736 29.5204 654.819 29.0416 652.87 28.5656L653.582 25.6513ZM665.162 28.6038C667.105 29.1208 669.016 29.6398 670.894 30.1606L670.093 33.0516C668.225 32.5336 666.324 32.0173 664.391 31.503L665.162 28.6038ZM676.637 31.7865C678.589 32.3504 680.503 32.9157 682.382 33.4816L681.517 36.3542C679.649 35.7914 677.745 35.2294 675.804 34.6686L676.637 31.7865ZM688.078 35.2326C690.002 35.836 691.887 36.4396 693.735 37.0424L692.804 39.8944C690.967 39.2951 689.093 38.695 687.181 38.0951L688.078 35.2326ZM699.411 38.9319C701.339 39.5863 703.223 40.239 705.066 40.8889L704.068 43.7181C702.236 43.072 700.363 42.4232 698.447 41.7727L699.411 38.9319ZM710.687 42.9085C712.598 43.6076 714.461 44.3023 716.279 44.9913L715.216 47.7966C713.408 47.1115 711.556 46.4208 709.656 45.7258L710.687 42.9085ZM721.845 47.1361C723.744 47.8798 725.59 48.6149 727.388 49.3399L726.265 52.1221C724.477 51.4006 722.64 50.6692 720.751 49.9296L721.845 47.1361ZM732.909 51.5963C734.799 52.3781 736.631 53.145 738.408 53.8947L737.243 56.659C735.47 55.9113 733.644 55.1471 731.762 54.3684L732.909 51.5963ZM743.886 56.2186C745.767 57.0203 747.58 57.7953 749.339 58.5435L748.165 61.3041C746.405 60.5557 744.586 59.7783 742.709 58.9785L743.886 56.2186ZM754.83 60.8598C756.726 61.6498 758.551 62.3964 760.313 63.0952L759.208 65.884C757.424 65.177 755.583 64.4235 753.677 63.629L754.83 60.8598ZM765.832 65.1908C767.754 65.8821 769.6 66.4989 771.385 67.0343L770.523 69.9079C768.677 69.354 766.779 68.7195 764.817 68.0137L765.832 65.1908ZM777.03 68.4866C778.986 68.8957 780.878 69.1815 782.727 69.3339L782.481 72.3237C780.492 72.1599 778.477 71.8542 776.416 71.423L777.03 68.4866ZM788.431 69.3615C789.374 69.2885 790.315 69.1753 791.256 69.02L791.744 71.98C790.717 72.1495 789.691 72.273 788.662 72.3526L788.431 69.3615ZM791.256 69.02C792.257 68.8548 793.201 68.6786 794.088 68.4921L794.705 71.428C793.771 71.6241 792.785 71.8083 791.744 71.98L791.256 69.02ZM799.459 67.0125C801.573 66.2447 803.041 65.4102 804.003 64.5741L805.971 66.8376C804.638 67.9971 802.804 68.9895 800.483 69.8323L799.459 67.0125ZM805.461 60.8983C805.206 59.7116 804.38 58.301 802.881 56.7155L805.06 54.654C806.739 56.4289 807.976 58.3193 808.394 60.2696L805.461 60.8983ZM798.715 53.1512C797.309 52.1307 795.722 51.1066 793.984 50.0922L795.497 47.5014C797.304 48.5568 798.977 49.6346 800.477 50.723L798.715 53.1512ZM788.971 47.3978C787.322 46.5781 785.593 45.776 783.803 44.9992L784.997 42.2471C786.831 43.0432 788.608 43.867 790.306 44.7115L788.971 47.3978ZM778.509 42.8435C776.743 42.1694 774.942 41.5241 773.121 40.9138L774.074 38.0692C775.934 38.6926 777.774 39.3518 779.579 40.0409L778.509 42.8435ZM767.659 39.207C765.818 38.6729 763.972 38.1798 762.14 37.7335L762.849 34.8187C764.726 35.2756 766.613 35.78 768.495 36.3257L767.659 39.207ZM756.555 36.5143C754.641 36.1468 752.761 35.8401 750.935 35.6009L751.325 32.6263C753.215 32.8739 755.153 33.1904 757.12 33.5682L756.555 36.5143ZM745.308 35.0752C744.345 35.0254 743.408 35 742.5 35V32C743.464 32 744.453 32.027 745.463 32.0792L745.308 35.0752ZM742.5 35C741.529 35 740.553 35.0007 739.574 35.0022L739.57 32.0022C740.55 32.0007 741.527 32 742.5 32V35ZM733.654 35.0206C731.7 35.0298 729.732 35.042 727.752 35.0577L727.728 32.0578C729.712 32.0421 731.683 32.0298 733.64 32.0206L733.654 35.0206ZM721.821 35.1142C719.867 35.136 717.902 35.1612 715.927 35.1899L715.883 32.1902C717.862 32.1614 719.83 32.1362 721.787 32.1144L721.821 35.1142ZM709.993 35.2863C708.038 35.3214 706.074 35.3601 704.102 35.4025L704.038 32.4032C706.013 32.3607 707.981 32.322 709.939 32.2868L709.993 35.2863ZM698.17 35.5408C696.213 35.59 694.25 35.6429 692.28 35.6998L692.193 32.701C694.167 32.6441 696.134 32.591 698.094 32.5418L698.17 35.5408ZM686.353 35.8821C684.394 35.9461 682.43 36.0142 680.46 36.0863L680.35 33.0883C682.324 33.016 684.292 32.9479 686.255 32.8837L686.353 35.8821ZM674.54 36.3152C672.579 36.3951 670.614 36.4791 668.645 36.5676L668.51 33.5706C670.483 33.482 672.453 33.3977 674.418 33.3177L674.54 36.3152ZM662.732 36.846C660.768 36.9427 658.803 37.0439 656.835 37.1497L656.674 34.1541C658.646 34.048 660.616 33.9466 662.584 33.8496L662.732 36.846ZM650.929 37.4811C648.964 37.5959 646.999 37.7155 645.033 37.8399L644.843 34.8459C646.814 34.7211 648.785 34.6013 650.754 34.4862L650.929 37.4811ZM639.135 38.2279C637.168 38.3623 635.203 38.5016 633.238 38.6462L633.018 35.6543C634.988 35.5093 636.959 35.3696 638.93 35.2349L639.135 38.2279ZM627.349 39.0954C625.382 39.2509 623.417 39.4117 621.455 39.578L621.201 36.5887C623.169 36.4219 625.14 36.2606 627.113 36.1047L627.349 39.0954ZM615.576 40.0935C613.608 40.272 611.644 40.4562 609.684 40.6462L609.394 37.6602C611.361 37.4696 613.331 37.2848 615.305 37.1058L615.576 40.0935ZM603.816 41.2341C601.849 41.4378 599.886 41.6475 597.93 41.8635L597.601 38.8816C599.564 38.6649 601.533 38.4544 603.507 38.25L603.816 41.2341ZM592.076 42.5308C590.108 42.7623 588.148 43.0002 586.196 43.245L585.823 40.2682C587.783 40.0226 589.751 39.7837 591.725 39.5514L592.076 42.5308ZM580.359 43.9999C578.392 44.2622 576.435 44.5316 574.487 44.8083L574.065 41.8381C576.022 41.5602 577.988 41.2897 579.962 41.0262L580.359 43.9999ZM568.667 45.6613C566.704 45.958 564.752 46.2625 562.811 46.5749L562.335 43.613C564.285 43.2991 566.247 42.9931 568.219 42.695L568.667 45.6613ZM557.008 47.5389C555.051 47.8742 553.107 48.218 551.178 48.5704L550.639 45.6192C552.579 45.2648 554.534 44.9191 556.501 44.582L557.008 47.5389ZM545.392 49.6614C543.444 50.0404 541.513 50.4286 539.6 50.8262L538.989 47.8889C540.916 47.4887 542.859 47.098 544.818 46.7166L545.392 49.6614ZM533.833 52.0643C531.902 52.493 529.989 52.9318 528.097 53.3809L527.405 50.4621C529.311 50.0094 531.238 49.5673 533.183 49.1356L533.833 52.0643ZM522.356 54.792C520.447 55.2777 518.561 55.7746 516.699 56.283L515.909 53.389C517.788 52.8758 519.691 52.3744 521.616 51.8846L522.356 54.792ZM510.994 57.8995C509.092 58.4586 507.219 59.0306 505.375 59.6158L504.468 56.7563C506.333 56.1645 508.226 55.5863 510.148 55.0214L510.994 57.8995ZM499.8 61.4567C497.912 62.1055 496.059 62.7692 494.243 63.4482L493.193 60.6382C495.035 59.9494 496.913 59.2766 498.825 58.6196L499.8 61.4567ZM488.793 65.5774C486.953 66.3287 485.157 67.0973 483.405 67.8836L482.177 65.1467C483.961 64.3457 485.789 63.5637 487.659 62.8001L488.793 65.5774ZM478.085 70.3963C476.305 71.2813 474.58 72.1868 472.912 73.1134L471.455 70.4908C473.165 69.5409 474.931 68.6142 476.749 67.7101L478.085 70.3963ZM467.909 76.0638C466.225 77.1201 464.611 78.2014 463.071 79.3081L461.321 76.872C462.915 75.7262 464.581 74.6099 466.315 73.5223L467.909 76.0638ZM458.471 82.8757C456.956 84.1482 455.533 85.4512 454.207 86.7852L452.08 84.6701C453.473 83.2682 454.963 81.9046 456.542 80.5782L458.471 82.8757ZM450.369 91.0684C449.151 92.5885 448.051 94.1456 447.073 95.7405L444.515 94.1721C445.563 92.4643 446.736 90.8048 448.028 89.1923L450.369 91.0684Z" fill="#F37021"/>
    <path d="M131 28.4999L130.513 27.0811L131 28.4999ZM3 101L16.8065 90.5414L0.845846 83.814L3 101ZM8.94987 94.0327C10.0991 92.6744 11.4803 91.2027 13.1179 89.6262L11.0373 87.465C9.33599 89.1028 7.88316 90.6488 6.65961 92.095L8.94987 94.0327ZM17.6921 85.5288C19.1565 84.2991 20.7568 83.0222 22.5009 81.7011L20.6895 79.3097C18.9079 80.6591 17.2682 81.9673 15.7629 83.2313L17.6921 85.5288ZM27.4918 78.0801C29.1088 76.9537 30.8236 75.8006 32.6402 74.6223L31.0077 72.1054C29.1646 73.3009 27.4223 74.4724 25.777 75.6185L27.4918 78.0801ZM37.8707 71.3353C39.5688 70.3 41.3426 69.2479 43.1943 68.1798L41.6953 65.5811C39.8232 66.6609 38.0286 67.7254 36.3091 68.7737L37.8707 71.3353ZM48.6047 65.1374C50.3674 64.1704 52.1924 63.1919 54.0815 62.2023L52.6893 59.5448C50.7837 60.5431 48.9418 61.5308 47.1619 62.5071L48.6047 65.1374ZM59.6104 59.3675C61.4146 58.4618 63.2715 57.5478 65.1824 56.6258L63.8788 53.9239C61.954 54.8525 60.083 55.7735 58.2645 56.6864L59.6104 59.3675ZM70.7918 53.9699C72.6271 53.1169 74.5081 52.2576 76.4358 51.3926L75.2076 48.6556C73.268 49.5259 71.3749 50.3907 69.5273 51.2494L70.7918 53.9699ZM82.1139 48.8871C83.9775 48.0783 85.8816 47.2649 87.8269 46.4471L86.6643 43.6815C84.7085 44.5037 82.7938 45.3217 80.9195 46.1351L82.1139 48.8871ZM93.5771 44.0665C95.4704 43.2944 97.4003 42.5188 99.3675 41.7399L98.263 38.9506C96.2865 39.7332 94.3472 40.5126 92.4444 41.2886L93.5771 44.0665ZM105.152 39.4812C107.051 38.75 108.983 38.0161 110.948 37.2797L109.895 34.4705C107.922 35.21 105.982 35.9471 104.074 36.6815L105.152 39.4812ZM116.788 35.1197C118.719 34.4144 120.682 33.7071 122.675 32.9977L121.669 30.1714C119.668 30.8834 117.698 31.5935 115.759 32.3016L116.788 35.1197ZM128.507 30.9474C129.493 30.6049 130.486 30.262 131.487 29.9188L130.513 27.0811C129.509 27.4256 128.512 27.7697 127.523 28.1134L128.507 30.9474ZM131.487 29.9188C132.385 29.6104 133.298 29.3058 134.224 29.0048L133.296 26.1518C132.355 26.4576 131.428 26.7674 130.513 27.0811L131.487 29.9188ZM139.938 27.2427C141.78 26.7034 143.669 26.1769 145.601 25.6631L144.83 22.7638C142.875 23.2837 140.963 23.8168 139.095 24.3635L139.938 27.2427ZM151.434 24.1827C153.306 23.7287 155.216 23.2856 157.16 22.8529L156.509 19.9245C154.546 20.3611 152.619 20.8085 150.727 21.2671L151.434 24.1827ZM163.032 21.6001C164.934 21.2111 166.865 20.8313 168.826 20.4607L168.269 17.5129C166.294 17.8862 164.348 18.2688 162.431 18.661L163.032 21.6001ZM174.735 19.3865C176.653 19.0513 178.596 18.7242 180.563 18.4051L180.083 15.4438C178.104 15.7648 176.149 16.094 174.219 16.4314L174.735 19.3865ZM186.511 17.4756C188.437 17.1857 190.384 16.9029 192.352 16.6272L191.936 13.6562C189.958 13.9333 188 14.2175 186.064 14.5091L186.511 17.4756ZM198.317 15.8211C200.254 15.5687 202.21 15.3227 204.184 15.083L203.822 12.1049C201.84 12.3456 199.876 12.5926 197.929 12.8463L198.317 15.8211ZM210.132 14.3857C212.089 14.1643 214.063 13.9488 216.051 13.7392L215.737 10.7557C213.741 10.9661 211.76 11.1824 209.795 11.4047L210.132 14.3857ZM221.98 13.1358C223.956 12.9417 225.947 12.7532 227.95 12.57L227.677 9.58246C225.667 9.76623 223.67 9.95543 221.687 10.1502L221.98 13.1358ZM233.86 12.0485C235.843 11.8798 237.837 11.7161 239.844 11.5574L239.607 8.56678C237.595 8.72593 235.594 8.89008 233.606 9.05933L233.86 12.0485ZM245.768 11.1057C247.743 10.9605 249.729 10.8201 251.724 10.6842L251.521 7.69109C249.52 7.82736 247.529 7.96821 245.548 8.11372L245.768 11.1057ZM257.7 10.2925C259.669 10.1684 261.647 10.0486 263.634 9.93294L263.46 6.93801C261.468 7.05391 259.485 7.17402 257.511 7.29843L257.7 10.2925ZM269.618 9.59855C271.594 9.49271 273.577 9.39087 275.567 9.29296L275.419 6.29658C273.425 6.3947 271.438 6.49677 269.458 6.60285L269.618 9.59855ZM281.527 9.01237C283.517 8.92283 285.514 8.83709 287.516 8.75508L287.394 5.75759C285.387 5.83976 283.386 5.92567 281.392 6.0154L281.527 9.01237ZM293.459 8.52327C295.446 8.44958 297.438 8.37944 299.435 8.3128L299.335 5.31447C297.334 5.38124 295.338 5.4515 293.348 5.52533L293.459 8.52327ZM305.407 8.12423C307.389 8.06517 309.376 8.00945 311.367 7.957L311.287 4.95804C309.294 5.01058 307.304 5.0664 305.318 5.12556L305.407 8.12423ZM317.35 7.80936C319.334 7.76368 321.322 7.72116 323.313 7.68172L323.254 4.68231C321.26 4.72181 319.268 4.7644 317.281 4.81015L317.35 7.80936ZM329.282 7.57283C331.274 7.53957 333.268 7.50932 335.265 7.48201L335.224 4.48229C333.224 4.50964 331.227 4.53994 329.232 4.57325L329.282 7.57283ZM341.228 7.4092C343.218 7.3878 345.209 7.36924 347.201 7.35345L347.178 4.35355C345.182 4.36935 343.188 4.38794 341.196 4.40938L341.228 7.4092ZM353.177 7.31441C355.167 7.30414 357.157 7.29657 359.148 7.29164L359.14 4.29165C357.147 4.29659 355.154 4.30417 353.162 4.31445L353.177 7.31441ZM365.121 7.28469C367.113 7.28496 369.104 7.28781 371.096 7.29317L371.104 4.29318C369.11 4.28782 367.116 4.28497 365.121 4.28469L365.121 7.28469ZM377.069 7.3167C379.06 7.32701 381.05 7.33976 383.038 7.35489L383.061 4.35498C381.07 4.33983 379.078 4.32706 377.085 4.31674L377.069 7.3167ZM389.017 7.40755C391.01 7.42746 393.001 7.44971 394.99 7.47422L395.027 4.47445C393.036 4.44991 391.042 4.42764 389.047 4.4077L389.017 7.40755ZM400.954 7.55456C402.952 7.58374 404.947 7.61515 406.939 7.64873L406.99 4.64916C404.996 4.61554 402.998 4.58409 400.998 4.55488L400.954 7.55456ZM412.907 7.75589C414.9 7.79389 416.891 7.834 418.877 7.87616L418.941 4.87683C416.952 4.83463 414.96 4.79448 412.964 4.75644L412.907 7.75589ZM424.86 8.00955C426.85 8.05604 428.835 8.10453 430.816 8.15496L430.892 5.15593C428.91 5.10545 426.922 5.0569 424.93 5.01036L424.86 8.00955ZM436.801 8.31357C438.798 8.36857 440.789 8.42549 442.775 8.48425L442.863 5.48557C440.876 5.42674 438.882 5.36977 436.883 5.31471L436.801 8.31357ZM448.721 8.66625C450.728 8.72971 452.728 8.795 454.721 8.86205L454.822 5.86375C452.827 5.79663 450.825 5.73127 448.816 5.66775L448.721 8.66625ZM460.679 9.0684C462.677 9.1396 464.667 9.21251 466.649 9.28706L466.762 6.28918C464.778 6.21455 462.786 6.14157 460.786 6.07031L460.679 9.0684ZM472.634 9.51809C474.62 9.59672 476.597 9.67695 478.564 9.7587L478.689 6.76129C476.719 6.67946 474.74 6.59915 472.752 6.52044L472.634 9.51809ZM484.572 10.0143C486.568 10.1011 488.554 10.1895 490.528 10.2793L490.664 7.28242C488.688 7.19253 486.701 7.10407 484.703 7.0171L484.572 10.0143ZM496.492 10.5565C498.5 10.6518 500.496 10.7485 502.479 10.8465L502.627 7.85017C500.642 7.75205 498.645 7.65524 496.634 7.55985L496.492 10.5565ZM508.392 11.1447C510.415 11.2487 512.423 11.354 514.415 11.4605L514.575 8.46477C512.581 8.35816 510.571 8.25276 508.546 8.14867L508.392 11.1447ZM520.347 11.7835C522.361 11.8952 524.359 12.0081 526.339 12.1221L526.511 9.12704C524.529 9.01297 522.529 8.89996 520.513 8.78811L520.347 11.7835ZM532.295 12.4711C534.3 12.5908 536.287 12.7114 538.253 12.8329L538.438 9.83863C536.47 9.71698 534.481 9.5962 532.473 9.47643L532.295 12.4711ZM544.232 13.2091C546.232 13.3372 548.209 13.4661 550.163 13.5957L550.362 10.6022C548.406 10.4725 546.426 10.3435 544.423 10.2152L544.232 13.2091ZM556.159 14.0004C558.159 14.1379 560.133 14.276 562.078 14.4144L562.291 11.422C560.343 11.2833 558.368 11.1451 556.365 11.0075L556.159 14.0004ZM568.077 14.8493C570.086 14.9977 572.062 15.1464 574.003 15.2951L574.232 12.3039C572.289 12.1549 570.31 12.0061 568.298 11.8575L568.077 14.8493ZM579.979 15.7619C580.956 15.8396 581.922 15.9174 582.879 15.995L583.121 13.0049C582.163 12.9271 581.195 12.8492 580.217 12.7713L579.979 15.7619Z" fill="#A7A9AC"/>
</svg>
