<svg width="422" height="368" viewBox="0 0 422 368" fill="none" xmlns="http://www.w3.org/2000/svg">
<path d="M185.5 241.5L185.938 242.935L185.5 241.5ZM267 360L282.724 367.263L281.152 350.014L267 360ZM60.6398 0.271152C59.8283 0.839208 58.9862 1.45269 58.1174 2.11068L59.9286 4.50225C60.7693 3.86555 61.5811 3.27422 62.3602 2.72885L60.6398 0.271152ZM53.251 6.0367C51.7496 7.3193 50.1965 8.70997 48.6066 10.2056L50.6622 12.3907C52.2181 10.9271 53.7355 9.56846 55.1996 8.31773L53.251 6.0367ZM44.1592 14.5742C42.7513 16.0164 41.3258 17.5339 39.8921 19.1246L42.1206 21.1331C43.5275 19.5721 44.9257 18.0837 46.3059 16.6698L44.1592 14.5742ZM35.8189 23.8222C34.5171 25.3826 33.2156 27.0014 31.9211 28.6775L34.2954 30.5113C35.5665 28.8655 36.8444 27.276 38.1225 25.744L35.8189 23.8222ZM28.2095 33.6737C27.0217 35.337 25.8455 37.0489 24.6867 38.8083L27.1921 40.4585C28.3298 38.7312 29.4845 37.0505 30.6509 35.4172L28.2095 33.6737ZM21.3642 44.0681C20.301 45.8248 19.2583 47.6234 18.2406 49.4629L20.8657 50.9151C21.8641 49.1104 22.8873 47.3455 23.9308 45.6214L21.3642 44.0681ZM15.3371 54.9655C14.4142 56.8023 13.5185 58.6759 12.6543 60.5854L15.3874 61.8224C16.2345 59.9507 17.1126 58.1137 18.0178 56.3124L15.3371 54.9655ZM10.2018 66.3174C9.43147 68.227 8.69429 70.1693 7.99399 72.1435L10.8214 73.1465C11.5072 71.2132 12.2293 69.3106 12.9839 67.4396L10.2018 66.3174ZM6.03909 78.0578C5.435 80.0285 4.86891 82.0285 4.34425 84.0569L7.24867 84.8081C7.76204 82.8234 8.31604 80.8661 8.90736 78.937L6.03909 78.0578ZM2.91841 90.1297C2.49233 92.1486 2.10829 94.1935 1.76939 96.2639L4.72999 96.7485C5.06139 94.7239 5.43698 92.724 5.85375 90.7492L2.91841 90.1297ZM0.904696 102.435C0.666031 104.481 0.47227 106.55 0.326197 108.641L3.31891 108.85C3.46171 106.806 3.65115 104.783 3.88449 102.782L0.904696 102.435ZM0.0364091 114.87C0.0122427 115.908 0 116.951 0 118H3C3 116.975 3.01197 115.955 3.0356 114.94L0.0364091 114.87ZM0 118C0 118.992 0.0124464 119.985 0.037267 120.98L3.03633 120.905C3.01213 119.935 3 118.967 3 118H0ZM0.333063 126.944C0.479653 128.923 0.67435 130.905 0.916601 132.887L3.89444 132.523C3.65792 130.588 3.4679 128.654 3.32487 126.723L0.333063 126.944ZM1.77879 138.792C2.11057 140.746 2.48813 142.698 2.91096 144.646L5.84269 144.009C5.42946 142.106 5.06056 140.198 4.73646 138.29L1.77879 138.792ZM4.30636 150.443C4.81328 152.36 5.36402 154.271 5.95808 156.174L8.82174 155.28C8.24078 153.419 7.70227 151.551 7.20667 149.676L4.30636 150.443ZM7.85966 161.827C8.53292 163.693 9.24819 165.55 10.005 167.393L12.7803 166.254C12.0399 164.45 11.3402 162.635 10.6816 160.809L7.85966 161.827ZM12.3852 172.856C13.216 174.656 14.0871 176.442 14.998 178.212L17.6656 176.84C16.7743 175.108 15.922 173.36 15.1091 171.599L12.3852 172.856ZM17.8381 183.454C18.8204 185.178 19.8414 186.884 20.9008 188.57L23.4412 186.975C22.4047 185.325 21.4057 183.655 20.4446 181.969L17.8381 183.454ZM24.1807 193.552C25.3064 195.184 26.4694 196.795 27.6692 198.383L30.0629 196.574C28.8892 195.021 27.7515 193.445 26.6502 191.848L24.1807 193.552ZM31.3651 203.06C32.6287 204.589 33.9282 206.094 35.2632 207.573L37.4899 205.562C36.1845 204.116 34.9137 202.645 33.6779 201.149L31.3651 203.06ZM39.3581 211.911C40.7511 213.323 42.1785 214.707 43.64 216.062L45.6795 213.862C44.2509 212.538 42.8555 211.185 41.4937 209.804L39.3581 211.911ZM48.1018 220.016C49.615 221.297 51.1611 222.547 52.7398 223.765L54.5723 221.39C53.0299 220.2 51.519 218.978 50.0402 217.726L48.1018 220.016ZM57.5471 227.302C59.171 228.44 60.8262 229.545 62.5123 230.615L64.1194 228.081C62.4724 227.037 60.8555 225.957 59.2691 224.845L57.5471 227.302ZM67.6171 233.69C69.3361 234.673 71.0847 235.619 72.8625 236.529L74.2287 233.858C72.4924 232.97 70.7846 232.045 69.1056 231.086L67.6171 233.69ZM78.2401 239.124C80.0424 239.943 81.8725 240.724 83.73 241.467L84.8433 238.681C83.0289 237.956 81.2414 237.193 79.481 236.393L78.2401 239.124ZM89.3099 243.549C91.1769 244.197 93.0697 244.807 94.9878 245.377L95.8417 242.501C93.9674 241.944 92.1181 241.348 90.2941 240.715L89.3099 243.549ZM100.757 246.948C102.668 247.423 104.603 247.858 106.561 248.253L107.154 245.312C105.24 244.926 103.348 244.5 101.48 244.037L100.757 246.948ZM112.424 249.302C114.377 249.608 116.352 249.874 118.348 250.1L118.684 247.118C116.731 246.898 114.798 246.638 112.888 246.338L112.424 249.302ZM124.271 250.642C126.232 250.781 128.212 250.881 130.212 250.941L130.302 247.942C128.342 247.883 126.402 247.786 124.482 247.65L124.271 250.642ZM136.194 251C138.152 250.98 140.128 250.923 142.12 250.826L141.976 247.83C140.021 247.924 138.084 247.981 136.164 248L136.194 251ZM148.06 250.428C150.023 250.26 152.002 250.055 153.996 249.812L153.633 246.834C151.674 247.073 149.731 247.274 147.804 247.439L148.06 250.428ZM159.86 248.992C161.81 248.686 163.774 248.343 165.752 247.964L165.187 245.018C163.241 245.391 161.31 245.728 159.394 246.029L159.86 248.992ZM171.538 246.758C173.456 246.326 175.387 245.86 177.33 245.359L176.581 242.454C174.667 242.947 172.767 243.406 170.88 243.831L171.538 246.758ZM183.051 243.794C184.01 243.516 184.973 243.229 185.938 242.935L185.062 240.065C184.11 240.356 183.162 240.638 182.216 240.912L183.051 243.794ZM185.938 242.935C186.915 242.636 187.89 242.342 188.863 242.052L188.006 239.177C187.027 239.469 186.045 239.765 185.062 240.065L185.938 242.935ZM194.674 240.362C196.602 239.815 198.522 239.285 200.433 238.771L199.654 235.874C197.73 236.392 195.797 236.925 193.855 237.476L194.674 240.362ZM206.139 237.277C208.106 236.777 210.063 236.293 212.01 235.827L211.312 232.91C209.351 233.379 207.38 233.866 205.399 234.37L206.139 237.277ZM217.878 234.467C219.824 234.03 221.76 233.611 223.685 233.209L223.071 230.272C221.132 230.678 219.182 231.1 217.222 231.539L217.878 234.467ZM229.504 232.037C231.503 231.65 233.491 231.281 235.467 230.931L234.943 227.977C232.952 228.33 230.948 228.702 228.934 229.092L229.504 232.037ZM241.359 229.932C243.311 229.617 245.251 229.319 247.179 229.039L246.747 226.07C244.804 226.352 242.848 226.652 240.881 226.97L241.359 229.932ZM253.189 228.216C255.189 227.959 257.175 227.721 259.147 227.501L258.815 224.52C256.826 224.741 254.824 224.981 252.807 225.24L253.189 228.216ZM265.021 226.898C267.037 226.708 269.038 226.538 271.023 226.387L270.795 223.396C268.792 223.548 266.773 223.72 264.739 223.911L265.021 226.898ZM277.022 225.985C279.006 225.871 280.972 225.776 282.923 225.699L282.805 222.702C280.837 222.779 278.851 222.875 276.849 222.99L277.022 225.985ZM288.935 225.523C290.957 225.483 292.959 225.464 294.943 225.465L294.944 222.465C292.941 222.464 290.918 222.483 288.876 222.523L288.935 225.523ZM300.835 225.528C302.868 225.571 304.881 225.635 306.871 225.719L306.999 222.722C304.987 222.636 302.953 222.572 300.897 222.529L300.835 225.528ZM312.845 226.041C314.822 226.169 316.776 226.319 318.706 226.489L318.969 223.501C317.016 223.329 315.039 223.177 313.039 223.047L312.845 226.041ZM324.748 227.096C326.735 227.32 328.695 227.567 330.628 227.835L331.04 224.863C329.082 224.592 327.096 224.342 325.084 224.115L324.748 227.096ZM336.533 228.733C338.532 229.064 340.498 229.419 342.433 229.797L343.008 226.852C341.045 226.469 339.05 226.109 337.024 225.773L336.533 228.733ZM348.183 231.006C350.182 231.457 352.143 231.933 354.066 232.433L354.82 229.529C352.866 229.021 350.873 228.538 348.844 228.08L348.183 231.006ZM359.72 234.002C361.683 234.583 363.602 235.189 365.476 235.82L366.433 232.976C364.523 232.334 362.568 231.716 360.571 231.125L359.72 234.002ZM371.014 237.802C372.922 238.528 374.778 239.281 376.58 240.058L377.768 237.303C375.924 236.508 374.028 235.739 372.081 234.999L371.014 237.802ZM381.912 242.503C383.75 243.4 385.525 244.324 387.234 245.274L388.691 242.651C386.934 241.675 385.112 240.727 383.227 239.807L381.912 242.503ZM392.24 248.244C393.973 249.343 395.624 250.469 397.194 251.621L398.968 249.202C397.342 248.008 395.634 246.844 393.846 245.71L392.24 248.244ZM401.792 255.267C403.311 256.572 404.731 257.903 406.049 259.257L408.198 257.164C406.815 255.744 405.33 254.352 403.747 252.991L401.792 255.267ZM409.94 263.688C411.174 265.257 412.277 266.85 413.247 268.46L415.817 266.911C414.779 265.189 413.604 263.495 412.299 261.834L409.94 263.688ZM415.863 273.583C416.622 275.39 417.219 277.213 417.652 279.046L420.572 278.357C420.099 276.355 419.45 274.374 418.628 272.42L415.863 273.583ZM418.462 284.722C418.556 286.613 418.476 288.514 418.217 290.419L421.19 290.823C421.474 288.735 421.562 286.649 421.458 284.573L418.462 284.722ZM416.947 295.99C416.376 297.77 415.644 299.552 414.746 301.332L417.424 302.684C418.39 300.77 419.183 298.842 419.804 296.906L416.947 295.99ZM411.762 306.345C410.716 307.867 409.542 309.384 408.238 310.891L410.507 312.854C411.88 311.267 413.122 309.663 414.234 308.044L411.762 306.345ZM404.17 315.155C402.802 316.464 401.33 317.763 399.752 319.049L401.648 321.374C403.284 320.04 404.815 318.689 406.244 317.323L404.17 315.155ZM395.09 322.593C393.513 323.713 391.853 324.82 390.106 325.914L391.698 328.456C393.492 327.333 395.201 326.194 396.827 325.039L395.09 322.593ZM385.07 328.894C383.376 329.843 381.614 330.779 379.782 331.701L381.131 334.381C383.001 333.439 384.802 332.483 386.536 331.512L385.07 328.894ZM374.436 334.263C372.685 335.063 370.878 335.85 369.014 336.625L370.166 339.395C372.06 338.608 373.898 337.807 375.682 336.993L374.436 334.263ZM363.341 338.878C361.57 339.549 359.754 340.21 357.892 340.859L358.879 343.692C360.767 343.034 362.608 342.364 364.405 341.683L363.341 338.878ZM352.167 342.771C350.297 343.369 348.384 343.956 346.429 344.532L347.276 347.409C349.253 346.828 351.188 346.233 353.081 345.628L352.167 342.771ZM340.79 346.126C338.872 346.647 336.916 347.157 334.921 347.656L335.649 350.567C337.663 350.063 339.638 349.548 341.576 349.021L340.79 346.126ZM329.078 349.06C327.204 349.492 325.299 349.914 323.361 350.327L323.986 353.261C325.94 352.845 327.861 352.419 329.752 351.983L329.078 349.06ZM317.453 351.534C315.473 351.922 313.462 352.3 311.42 352.668L311.951 355.621C314.009 355.25 316.035 354.869 318.03 354.478L317.453 351.534ZM305.7 353.657C303.767 353.978 301.806 354.289 299.818 354.592L300.269 357.558C302.27 357.253 304.244 356.939 306.191 356.616L305.7 353.657ZM293.773 355.472C291.815 355.744 289.833 356.008 287.825 356.262L288.202 359.238C290.222 358.982 292.216 358.717 294.186 358.443L293.773 355.472ZM282.011 356.966C280.05 357.192 278.066 357.41 276.058 357.62L276.37 360.604C278.388 360.393 280.383 360.174 282.355 359.946L282.011 356.966Z" fill="#F37021"/>
</svg>
