<svg width="157" height="128" viewBox="0 0 157 128" fill="none" xmlns="http://www.w3.org/2000/svg">
<path d="M9.00002 63.5L9.37052 63.1642L9.00002 63.5ZM154.5 78.5L154.977 78.6501L154.5 78.5ZM96.5 125L101.677 127.557L101.302 121.795L96.5 125ZM37.7643 0.0590342C37.3161 0.298624 36.8607 0.547108 36.399 0.80426L36.8856 1.67789C37.3423 1.4235 37.7926 1.17779 38.2357 0.940966L37.7643 0.0590342ZM33.6847 2.37456C32.813 2.89745 31.926 3.44729 31.0287 4.02275L31.5685 4.86452C32.4574 4.29445 33.336 3.74987 34.1991 3.23211L33.6847 2.37456ZM28.4164 5.75254C27.5658 6.33383 26.7103 6.93635 25.8541 7.55904L26.4422 8.36778C27.2904 7.75096 28.1379 7.15407 28.9806 6.57818L28.4164 5.75254ZM23.3528 9.43579C22.5336 10.07 21.7173 10.7219 20.9075 11.3905L21.5442 12.1616C22.3457 11.4999 23.1538 10.8545 23.965 10.2265L23.3528 9.43579ZM18.5251 13.4246C17.7436 14.1149 16.9719 14.8206 16.2134 15.5408L16.9019 16.2659C17.6514 15.5543 18.4143 14.8567 19.1871 14.1741L18.5251 13.4246ZM13.9821 17.7426C13.2508 18.4935 12.5361 19.2583 11.8417 20.036L12.5875 20.7021C13.272 19.9356 13.9768 19.1814 14.6985 18.4403L13.9821 17.7426ZM9.80567 22.4272C9.14231 23.2463 8.5035 24.078 7.89303 24.9213L8.70309 25.5077C9.30239 24.6797 9.93014 23.8624 10.5828 23.0566L9.80567 22.4272ZM6.12644 27.5234C5.56004 28.4168 5.02773 29.3219 4.53371 30.2375L5.41379 30.7123C5.89604 29.8185 6.41641 28.9336 6.97102 28.0588L6.12644 27.5234ZM3.14534 33.0727C2.71775 34.0454 2.33605 35.0286 2.00501 36.021L2.95363 36.3374C3.27439 35.3758 3.64486 34.4213 4.06079 33.4751L3.14534 33.0727ZM1.15871 39.0701C0.92988 40.1053 0.759414 41.149 0.652494 42.1997L1.64736 42.301C1.75019 41.2904 1.9143 40.285 2.13514 39.2859L1.15871 39.0701ZM0.527547 45.3711C0.552577 46.4215 0.644661 47.4769 0.808617 48.5359L1.79684 48.3829C1.63961 47.3673 1.55128 46.3551 1.52726 45.3473L0.527547 45.3711ZM1.49759 51.6422C1.78531 52.6346 2.13936 53.6283 2.56342 54.6222L3.48321 54.2298C3.07475 53.2724 2.73434 52.3168 2.45804 51.3638L1.49759 51.6422ZM3.96595 57.4569C4.46879 58.3482 5.03063 59.2385 5.65404 60.1273L6.47273 59.5531C5.86743 58.6901 5.32313 57.8274 4.83689 56.9655L3.96595 57.4569ZM7.57656 62.6279C7.9142 63.031 8.26511 63.4336 8.62953 63.8358L9.37052 63.1642C9.01465 62.7716 8.6723 62.3787 8.34319 61.9858L7.57656 62.6279ZM8.62953 63.8358C8.97101 64.2126 9.32611 64.5766 9.6944 64.9281L10.3849 64.2048C10.0338 63.8696 9.69555 63.5229 9.37052 63.1642L8.62953 63.8358ZM12.0474 66.8818C12.8592 67.4688 13.7169 68.0111 14.6176 68.5112L15.103 67.6369C14.2351 67.155 13.4111 66.6339 12.6334 66.0715L12.0474 66.8818ZM17.3332 69.8393C18.2486 70.2324 19.1988 70.5908 20.1817 70.9165L20.4962 69.9672C19.5386 69.6499 18.6151 69.3015 17.7279 68.9204L17.3332 69.8393ZM23.0825 71.7613C24.0357 72.0035 25.0144 72.2201 26.0169 72.4125L26.2054 71.4304C25.2209 71.2415 24.2616 71.0291 23.3288 70.7921L23.0825 71.7613ZM29.0291 72.9093C29.9946 73.0442 30.9791 73.1598 31.9812 73.2571L32.0779 72.2618C31.0889 72.1657 30.1183 72.0518 29.1675 71.9189L29.0291 72.9093ZM35.0027 73.4936C35.9831 73.5527 36.9781 73.5965 37.9866 73.6259L38.0158 72.6264C37.017 72.5972 36.0323 72.5538 35.0629 72.4954L35.0027 73.4936ZM41.0036 73.6719C41.9895 73.6738 42.9868 73.6635 43.9945 73.6417L43.9729 72.642C42.9726 72.6636 41.9832 72.6738 41.0055 72.6719L41.0036 73.6719ZM47.0045 73.5448C47.9912 73.503 48.9867 73.4513 49.99 73.3905L49.9296 72.3924C48.9319 72.4528 47.9425 72.5041 46.9622 72.5457L47.0045 73.5448ZM52.9937 73.1838C53.9791 73.1082 54.9712 73.0247 55.969 72.9339L55.8784 71.938C54.885 72.0284 53.8977 72.1115 52.9172 72.1868L52.9937 73.1838ZM58.9666 72.6418C59.9503 72.5398 60.9388 72.4316 61.9314 72.3176L61.8173 71.3241C60.8281 71.4377 59.8433 71.5456 58.8635 71.6472L58.9666 72.6418ZM64.9208 71.9591C65.9036 71.8365 66.8896 71.7089 67.8783 71.5769L67.746 70.5857C66.76 70.7173 65.7768 70.8445 64.797 70.9668L64.9208 71.9591ZM70.8506 71.1685C71.8357 71.0295 72.8227 70.8867 73.8108 70.7407L73.6647 69.7514C72.6785 69.8971 71.6937 70.0396 70.7109 70.1783L70.8506 71.1685ZM76.7712 70.2946C77.7571 70.1433 78.7437 69.9894 79.7301 69.8333L79.5738 68.8456C78.5888 69.0014 77.6038 69.1551 76.6195 69.3062L76.7712 70.2946ZM82.6841 69.36C83.6694 69.2002 84.6539 69.0389 85.637 68.8766L85.4741 67.89C84.4918 68.0522 83.5083 68.2133 82.5241 68.3729L82.6841 69.36ZM88.5907 68.3854C89.5738 68.2209 90.5548 68.0559 91.533 67.8909L91.3667 66.9048C90.3887 67.0698 89.4082 67.2347 88.4257 67.3991L88.5907 68.3854ZM94.4925 67.3909C95.4757 67.2246 96.4553 67.059 97.4308 66.8944L97.2645 65.9084C96.2888 66.0729 95.3089 66.2386 94.3258 66.4049L94.4925 67.3909ZM100.391 66.3969C101.377 66.2321 102.357 66.0691 103.332 65.9085L103.169 64.9218C102.194 65.0826 101.213 65.2457 100.226 65.4106L100.391 66.3969ZM106.291 65.4257C107.28 65.2661 108.262 65.1097 109.237 64.9571L109.082 63.9691C108.106 64.122 107.122 64.2786 106.131 64.4384L106.291 65.4257ZM112.194 64.5026C113.188 64.353 114.173 64.2083 115.147 64.0691L115.006 63.0791C114.029 63.2187 113.042 63.3638 112.046 63.5137L112.194 64.5026ZM118.109 63.6596C119.107 63.5264 120.093 63.4002 121.066 63.2817L120.945 62.289C119.968 62.408 118.978 62.5347 117.976 62.6684L118.109 63.6596ZM124.038 62.9399C125.038 62.8323 126.022 62.7343 126.989 62.647L126.899 61.651C125.926 61.7389 124.937 61.8375 123.931 61.9457L124.038 62.9399ZM129.984 62.4075C130.982 62.3389 131.958 62.2838 132.911 62.2433L132.869 61.2442C131.906 61.2851 130.921 61.3407 129.915 61.4099L129.984 62.4075ZM135.927 62.165C136.949 62.1568 137.939 62.1692 138.894 62.2038L138.93 61.2045C137.959 61.1692 136.954 61.1567 135.919 61.165L135.927 62.165ZM141.805 62.3902C142.842 62.4886 143.826 62.6203 144.756 62.7877L144.933 61.8036C143.973 61.6306 142.96 61.4954 141.9 61.3947L141.805 62.3902ZM147.615 63.473C148.6 63.7783 149.494 64.1405 150.291 64.563L150.759 63.6794C149.898 63.2232 148.946 62.8385 147.911 62.5178L147.615 63.473ZM152.591 66.203C153.27 66.8615 153.814 67.6111 154.216 68.4618L155.12 68.0349C154.665 67.0711 154.049 66.2238 153.287 65.4851L152.591 66.203ZM154.97 71.1772C155.073 72.0447 155.074 72.9934 154.966 74.0298L155.961 74.1338C156.075 73.034 156.076 72.0105 155.963 71.06L154.97 71.1772ZM154.45 76.8506C154.327 77.3353 154.185 77.8349 154.023 78.3499L154.977 78.6501C155.144 78.1181 155.292 77.6001 155.419 77.0959L154.45 76.8506ZM154.023 78.3499C153.87 78.8368 153.713 79.3188 153.552 79.7961L154.499 80.1156C154.663 79.6319 154.822 79.1434 154.977 78.6501L154.023 78.3499ZM152.53 82.6319C152.165 83.5816 151.785 84.5113 151.39 85.4212L152.307 85.8195C152.708 84.8964 153.094 83.9535 153.464 82.9905L152.53 82.6319ZM150.129 88.1579C149.684 89.0716 149.223 89.964 148.748 90.8355L149.626 91.3141C150.108 90.4293 150.576 89.5235 151.028 88.5963L150.129 88.1579ZM147.245 93.4473C146.718 94.3159 146.177 95.1622 145.622 95.9865L146.452 96.5447C147.015 95.7074 147.565 94.848 148.1 93.966L147.245 93.4473ZM143.881 98.4464C143.275 99.261 142.656 100.052 142.025 100.821L142.797 101.455C143.438 100.675 144.068 99.8708 144.683 99.0434L143.881 98.4464ZM140.057 103.104C139.376 103.856 138.684 104.585 137.982 105.29L138.691 105.995C139.404 105.279 140.107 104.539 140.798 103.774L140.057 103.104ZM135.806 107.374C135.057 108.059 134.299 108.718 133.534 109.354L134.173 110.123C134.95 109.477 135.72 108.808 136.481 108.113L135.806 107.374ZM131.173 111.225C130.364 111.836 129.549 112.422 128.729 112.984L129.295 113.809C130.127 113.238 130.954 112.643 131.776 112.023L131.173 111.225ZM126.204 114.633C125.339 115.17 124.473 115.682 123.606 116.168L124.095 117.04C124.975 116.547 125.854 116.028 126.731 115.483L126.204 114.633ZM120.945 117.586C120.036 118.045 119.13 118.477 118.228 118.884L118.64 119.796C119.554 119.383 120.474 118.944 121.396 118.479L120.945 117.586ZM115.449 120.068C114.499 120.448 113.556 120.801 112.626 121.128L112.957 122.071C113.901 121.74 114.857 121.382 115.821 120.996L115.449 120.068ZM109.762 122.062C108.773 122.361 107.802 122.63 106.854 122.869L107.099 123.839C108.062 123.595 109.048 123.323 110.051 123.02L109.762 122.062ZM103.916 123.538C102.893 123.745 101.905 123.917 100.958 124.056L101.104 125.045C102.069 124.903 103.074 124.728 104.114 124.518L103.916 123.538Z" fill="#F37021"/>
</svg>
