<svg width="234" height="127" viewBox="0 0 234 127" fill="none" xmlns="http://www.w3.org/2000/svg">
<path d="M223.5 63.5L223.888 63.8153L223.5 63.5ZM39.5 101.5L39.355 101.021L39.5 101.5ZM1.5 126.5L6.02831 122.918L0.662417 120.788L1.5 126.5ZM3.20982 124.159C3.51786 123.666 3.87807 123.142 4.29414 122.592L3.49649 121.989C3.06388 122.561 2.68669 123.109 2.36188 123.629L3.20982 124.159ZM5.49917 121.11C5.89712 120.653 6.33004 120.182 6.79954 119.7L6.08325 119.002C5.60099 119.497 5.15525 119.982 4.74453 120.454L5.49917 121.11ZM8.16991 118.362C8.62222 117.94 9.10144 117.513 9.60851 117.08L8.95925 116.319C8.44143 116.761 7.95145 117.198 7.4884 117.63L8.16991 118.362ZM11.0953 115.86C11.5863 115.473 12.0994 115.083 12.6353 114.69L12.0442 113.883C11.499 114.283 10.9765 114.68 10.4761 115.075L11.0953 115.86ZM14.2062 113.578C14.7235 113.225 15.2593 112.87 15.8143 112.514L15.2749 111.672C14.7116 112.033 14.1674 112.393 13.6417 112.753L14.2062 113.578ZM17.4555 111.496C17.9958 111.171 18.5524 110.846 19.1255 110.521L18.6328 109.651C18.0521 109.98 17.488 110.309 16.9401 110.639L17.4555 111.496ZM20.8204 109.589C21.3782 109.292 21.9505 108.995 22.5373 108.699L22.0871 107.806C21.4933 108.105 20.9142 108.406 20.3494 108.707L20.8204 109.589ZM24.2739 107.847C24.8458 107.575 25.4305 107.303 26.0284 107.033L25.617 106.122C25.0129 106.395 24.4218 106.669 23.8436 106.945L24.2739 107.847ZM27.7994 106.256C28.3832 106.006 28.9786 105.758 29.5859 105.512L29.2104 104.585C28.5973 104.834 27.996 105.084 27.4063 105.336L27.7994 106.256ZM31.3874 104.801C31.9821 104.573 32.5874 104.346 33.2035 104.122L32.8611 103.182C32.2396 103.409 31.6288 103.637 31.0288 103.868L31.3874 104.801ZM35.0341 103.472C35.6354 103.264 36.2465 103.058 36.8674 102.854L36.5558 101.904C35.9298 102.11 35.3137 102.317 34.7074 102.527L35.0341 103.472ZM38.7091 102.266C39.0187 102.17 39.3307 102.074 39.645 101.979L39.355 101.021C39.0383 101.117 38.7239 101.214 38.4119 101.311L38.7091 102.266ZM39.645 101.979C39.9426 101.888 40.247 101.801 40.558 101.715L40.2931 100.751C39.9741 100.838 39.6613 100.929 39.355 101.021L39.645 101.979ZM42.5033 101.23C43.1231 101.09 43.7644 100.957 44.4266 100.831L44.2401 99.8487C43.5674 99.9764 42.9146 100.112 42.2825 100.255L42.5033 101.23ZM46.4263 100.483C47.057 100.382 47.7038 100.286 48.3663 100.196L48.2312 99.2051C47.5616 99.2965 46.9072 99.393 46.2684 99.4951L46.4263 100.483ZM50.3777 99.9424C51.0195 99.8677 51.6743 99.7971 52.3416 99.7303L52.2421 98.7353C51.5698 98.8026 50.9096 98.8738 50.2621 98.9491L50.3777 99.9424ZM54.345 99.5443C54.9998 99.4879 55.6653 99.4348 56.3413 99.3846L56.2673 98.3874C55.5876 98.4378 54.9182 98.4912 54.2593 98.548L54.345 99.5443ZM58.3286 99.2474C58.9972 99.2046 59.6751 99.1643 60.3621 99.1263L60.3069 98.1278C59.6172 98.1659 58.9363 98.2064 58.2646 98.2495L58.3286 99.2474ZM62.3309 99.0249C62.995 98.9931 63.6668 98.9633 64.3462 98.9351L64.3049 97.936C63.6235 97.9642 62.9494 97.9942 62.283 98.0261L62.3309 99.0249ZM66.3534 98.8578C67.0102 98.8343 67.6735 98.8122 68.3431 98.7914L68.312 97.7919C67.641 97.8127 66.9761 97.8349 66.3176 97.8584L66.3534 98.8578ZM70.3704 98.7327C71.0292 98.7149 71.6936 98.6982 72.3635 98.6825L72.34 97.6827C71.6691 97.6985 71.0035 97.7152 70.3434 97.733L70.3704 98.7327ZM74.3631 98.6384C75.0348 98.6246 75.7116 98.6115 76.3932 98.5991L76.3751 97.5993C75.6927 97.6117 75.0151 97.6248 74.3425 97.6386L74.3631 98.6384ZM78.3824 98.565C79.0459 98.5542 79.7137 98.5439 80.3856 98.534L80.3709 97.5341C79.6985 97.544 79.0302 97.5543 78.3662 97.5651L78.3824 98.565ZM82.4137 98.5054C83.0741 98.4965 83.7382 98.4878 84.406 98.4793L84.3932 97.4794C83.7253 97.4879 83.0609 97.4966 82.4002 97.5055L82.4137 98.5054ZM86.4093 98.4542C87.0806 98.446 87.7552 98.4378 88.4331 98.4296L88.421 97.4296C87.7431 97.4379 87.0684 97.4461 86.397 97.4543L86.4093 98.4542ZM90.4324 98.4052C91.0969 98.3971 91.7642 98.3888 92.4344 98.3803L92.4217 97.3803C91.7517 97.3888 91.0845 97.3971 90.4201 97.4053L90.4324 98.4052ZM94.4531 98.354C95.1198 98.3451 95.7891 98.3359 96.4609 98.3262L96.4466 97.3263C95.7752 97.336 95.1062 97.3452 94.4397 97.3541L94.4531 98.354ZM98.4611 98.2965C99.1301 98.2861 99.8014 98.2753 100.475 98.2639L100.458 97.2641C99.7851 97.2754 99.1142 97.2863 98.4456 97.2966L98.4611 98.2965ZM102.491 98.2282C103.155 98.2159 103.821 98.203 104.489 98.1894L104.469 97.1896C103.802 97.2032 103.136 97.2161 102.472 97.2284L102.491 98.2282ZM106.499 98.1463C107.17 98.1312 107.844 98.1153 108.518 98.0986L108.494 97.0989C107.82 97.1156 107.147 97.1315 106.476 97.1466L106.499 98.1463ZM110.519 98.0466C111.186 98.0284 111.855 98.0093 112.525 97.9892L112.495 96.9896C111.826 97.0097 111.158 97.0288 110.491 97.047L110.519 98.0466ZM114.539 97.9258C115.207 97.9038 115.877 97.8808 116.547 97.8566L116.511 96.8573C115.842 96.8814 115.173 96.9044 114.506 96.9264L114.539 97.9258ZM118.552 97.7811C119.221 97.7547 119.891 97.7272 120.561 97.6984L120.518 96.6993C119.849 96.728 119.18 96.7555 118.512 96.7818L118.552 97.7811ZM122.574 97.6082C123.241 97.5771 123.909 97.5446 124.578 97.5107L124.527 96.512C123.86 96.5458 123.193 96.5782 122.527 96.6093L122.574 97.6082ZM126.584 97.4049C127.254 97.3682 127.924 97.33 128.594 97.2903L128.534 96.2921C127.866 96.3317 127.198 96.3698 126.53 96.4064L126.584 97.4049ZM130.6 97.1668C131.268 97.1241 131.937 97.0798 132.605 97.0339L132.537 96.0362C131.87 96.0821 131.203 96.1263 130.536 96.1688L130.6 97.1668ZM134.611 96.891C135.28 96.8416 135.948 96.7905 136.616 96.7376L136.538 95.7407C135.871 95.7935 135.204 95.8445 134.537 95.8937L134.611 96.891ZM138.621 96.5734C139.289 96.5168 139.957 96.4583 140.624 96.3979L140.534 95.4019C139.869 95.4622 139.203 95.5205 138.537 95.577L138.621 96.5734ZM142.625 96.2106C143.293 96.146 143.961 96.0794 144.628 96.0107L144.526 95.0159C143.861 95.0844 143.195 95.1508 142.529 95.2152L142.625 96.2106ZM146.629 95.7979C147.296 95.7248 147.961 95.6495 148.626 95.5719L148.51 94.5787C147.848 94.6559 147.184 94.731 146.52 94.8038L146.629 95.7979ZM150.622 95.332C151.29 95.2493 151.956 95.1642 152.622 95.0768L152.491 94.0853C151.828 94.1724 151.164 94.2572 150.499 94.3396L150.622 95.332ZM154.615 94.8069C155.278 94.7144 155.94 94.6195 156.601 94.5219L156.455 93.5326C155.797 93.6298 155.137 93.7244 154.477 93.8165L154.615 94.8069ZM158.596 94.2189C159.26 94.1151 159.923 94.0085 160.585 93.8992L160.422 92.9126C159.763 93.0214 159.103 93.1275 158.441 93.2309L158.596 94.2189ZM162.564 93.5627C163.226 93.4471 163.887 93.3285 164.545 93.207L164.363 92.2236C163.708 92.3445 163.051 92.4625 162.392 92.5776L162.564 93.5627ZM166.528 92.8308C167.188 92.7023 167.845 92.5707 168.5 92.4359L168.299 91.4564C167.647 91.5905 166.993 91.7214 166.337 91.8492L166.528 92.8308ZM170.462 92.0215C171.123 91.8781 171.781 91.7314 172.437 91.5813L172.214 90.6065C171.562 90.7558 170.907 90.9017 170.25 91.0442L170.462 92.0215ZM174.398 91.1204C175.049 90.9633 175.698 90.8027 176.344 90.6384L176.098 89.6693C175.455 89.8325 174.811 89.9922 174.163 90.1483L174.398 91.1204ZM178.3 90.1278C178.951 89.9532 179.6 89.7748 180.246 89.5924L179.974 88.63C179.333 88.8112 178.688 88.9884 178.041 89.1619L178.3 90.1278ZM182.174 89.0334C182.82 88.8413 183.463 88.645 184.102 88.4445L183.803 87.4903C183.168 87.6893 182.53 87.8841 181.889 88.075L182.174 89.0334ZM186.027 87.825C186.665 87.6141 187.3 87.399 187.931 87.1793L187.603 86.2349C186.977 86.4528 186.347 86.6662 185.714 86.8754L186.027 87.825ZM189.826 86.5024C190.462 86.2692 191.094 86.0312 191.722 85.7884L191.361 84.8557C190.739 85.0964 190.112 85.3323 189.481 85.5636L189.826 86.5024ZM193.593 85.0454C194.215 84.7918 194.833 84.5332 195.446 84.2696L195.051 83.3508C194.444 83.6119 193.832 83.8681 193.215 84.1194L193.593 85.0454ZM197.302 83.45C197.916 83.1715 198.525 82.8877 199.129 82.5984L198.697 81.6965C198.099 81.9827 197.497 82.2636 196.889 82.5393L197.302 83.45ZM200.931 81.7117C201.537 81.4055 202.138 81.0935 202.733 80.7756L202.262 79.8935C201.673 80.2078 201.08 80.5163 200.48 80.8192L200.931 81.7117ZM204.501 79.8041C205.087 79.4735 205.666 79.1369 206.24 78.7941L205.727 77.9356C205.161 78.2742 204.588 78.6067 204.01 78.9334L204.501 79.8041ZM207.969 77.731C208.54 77.3701 209.104 77.0029 209.661 76.629L209.105 75.7984C208.554 76.1673 207.998 76.5297 207.435 76.8859L207.969 77.731ZM211.319 75.4847C211.872 75.092 212.417 74.6925 212.956 74.2859L212.354 73.4878C211.823 73.8885 211.285 74.2824 210.74 74.6696L211.319 75.4847ZM214.551 73.0451C215.076 72.6234 215.595 72.1945 216.106 71.7584L215.457 70.9977C214.954 71.4272 214.443 71.8496 213.925 72.2651L214.551 73.0451ZM217.627 70.4191C218.126 69.9652 218.618 69.5038 219.101 69.0347L218.405 68.3168C217.929 68.7783 217.446 69.2324 216.954 69.6791L217.627 70.4191ZM220.53 67.6035C220.998 67.1181 221.459 66.625 221.911 66.1239L221.168 65.454C220.724 65.9467 220.271 66.4316 219.81 66.9089L220.53 67.6035ZM223.242 64.5969C223.459 64.3384 223.675 64.0778 223.888 63.8153L223.112 63.1847C222.902 63.4427 222.691 63.6988 222.477 63.9529L223.242 64.5969ZM223.888 63.8153C224.11 63.5421 224.328 63.2698 224.541 62.9984L223.756 62.38C223.545 62.6472 223.331 62.9155 223.112 63.1847L223.888 63.8153ZM225.773 61.3806C226.177 60.8312 226.564 60.2855 226.934 59.7436L226.108 59.1799C225.745 59.7119 225.365 60.2479 224.967 60.7881L225.773 61.3806ZM228.054 58.0299C228.417 57.4503 228.76 56.8751 229.084 56.3041L228.214 55.8108C227.897 56.3689 227.562 56.9318 227.207 57.4995L228.054 58.0299ZM230.052 54.4984C230.362 53.8826 230.65 53.272 230.916 52.6665L230.001 52.2643C229.742 52.853 229.462 53.4476 229.159 54.048L230.052 54.4984ZM231.681 50.7788C231.923 50.1252 232.139 49.4777 232.329 48.8363L231.371 48.5513C231.187 49.1711 230.978 49.7978 230.743 50.4315L231.681 50.7788ZM232.837 46.8799C232.989 46.1956 233.112 45.5187 233.206 44.849L232.215 44.7099C232.125 45.3531 232.007 46.0043 231.861 46.6635L232.837 46.8799ZM233.407 42.8112C233.445 42.1225 233.454 41.4421 233.433 40.77L232.433 40.8013C232.453 41.444 232.445 42.0952 232.408 42.7551L233.407 42.8112ZM233.275 38.7172C233.191 38.0332 233.076 37.3585 232.932 36.6931L231.955 36.905C232.092 37.5409 232.202 38.1855 232.282 38.8391L233.275 38.7172ZM232.408 34.711C232.203 34.0578 231.97 33.4144 231.71 32.7807L230.785 33.1608C231.034 33.7684 231.258 34.3847 231.453 35.0097L232.408 34.711ZM230.854 30.9215C230.546 30.3173 230.213 29.7226 229.857 29.1372L229.003 29.6576C229.347 30.2221 229.667 30.7948 229.964 31.3756L230.854 30.9215ZM228.73 27.428C228.34 26.8777 227.928 26.3363 227.497 25.8035L226.72 26.4328C227.138 26.9498 227.537 27.4744 227.915 28.0067L228.73 27.428ZM226.172 24.2615C225.719 23.7631 225.248 23.2727 224.76 22.7903L224.057 23.5009C224.532 23.9716 224.991 24.4494 225.432 24.9345L226.172 24.2615ZM223.281 21.3946C222.784 20.9466 222.272 20.5059 221.747 20.0723L221.11 20.8434C221.625 21.2682 222.125 21.6996 222.612 22.1377L223.281 21.3946ZM220.153 18.8083C219.62 18.4023 219.076 18.003 218.521 17.6102L217.944 18.4265C218.489 18.8127 219.024 19.205 219.547 19.6036L220.153 18.8083ZM216.85 16.4687C216.288 16.0979 215.717 15.7334 215.137 15.375L214.611 16.2257C215.183 16.579 215.746 16.9382 216.299 17.3034L216.85 16.4687ZM213.408 14.3399C212.827 14.0028 212.239 13.6715 211.644 13.3459L211.164 14.2233C211.752 14.5449 212.333 14.872 212.906 15.2047L213.408 14.3399ZM209.859 12.3977C209.264 12.09 208.662 11.7877 208.055 11.491L207.616 12.3894C208.216 12.683 208.811 12.9819 209.4 13.2861L209.859 12.3977ZM206.228 10.6215C205.62 10.3397 205.007 10.0631 204.391 9.79182L203.988 10.7071C204.599 10.9759 205.205 11.2498 205.807 11.5288L206.228 10.6215ZM202.533 8.99512C201.914 8.73608 201.291 8.48216 200.666 8.23334L200.296 9.1625C200.916 9.40922 201.533 9.66094 202.147 9.91769L202.533 8.99512ZM198.784 7.50276C198.155 7.26458 197.524 7.03145 196.892 6.80333L196.553 7.74399C197.18 7.97035 197.806 8.20165 198.43 8.43792L198.784 7.50276ZM194.988 6.13296C194.352 5.91436 193.715 5.70076 193.078 5.49216L192.767 6.44252C193.4 6.64963 194.032 6.86168 194.663 7.07867L194.988 6.13296ZM191.154 4.87742C190.512 4.67699 189.869 4.48161 189.228 4.29126L188.943 5.24994C189.58 5.439 190.218 5.63305 190.857 5.8321L191.154 4.87742ZM187.289 3.73006C186.638 3.54662 185.99 3.36837 185.344 3.19526L185.085 4.16119C185.727 4.33317 186.371 4.51025 187.017 4.69248L187.289 3.73006ZM183.397 2.68702C182.739 2.5199 182.084 2.35818 181.434 2.20184L181.2 3.17416C181.847 3.3295 182.497 3.49018 183.15 3.65623L183.397 2.68702ZM179.478 1.74508C178.814 1.59465 178.155 1.44992 177.503 1.31087L177.294 2.28893C177.943 2.42707 178.597 2.57087 179.257 2.72033L179.478 1.74508ZM175.526 0.903458C174.863 0.771414 174.207 0.645417 173.559 0.525434L173.377 1.50872C174.021 1.62788 174.672 1.75303 175.331 1.88419L175.526 0.903458ZM171.56 0.169812C171.231 0.113757 170.904 0.0593264 170.58 0.00651616L170.42 0.993484C170.741 1.0459 171.065 1.09994 171.392 1.15559L171.56 0.169812Z" fill="#F37021"/>
</svg>
