<svg width="304" height="229" viewBox="0 0 304 229" fill="none" xmlns="http://www.w3.org/2000/svg">
<path d="M189 149.5L189.935 150.673L189 149.5ZM1.5 118.499H3H1.5ZM304 220.499L289.627 210.833L288.443 228.113L304 220.499ZM102.229 0.517009C101.101 0.342327 100.008 0.211158 98.9502 0.122697L98.7003 3.11227C99.6842 3.19452 100.707 3.31706 101.77 3.48168L102.229 0.517009ZM92.6113 0.135529C90.3026 0.366676 88.2042 0.861734 86.315 1.61148L87.4216 4.39993C89.0223 3.76471 90.8447 3.3274 92.9102 3.12061L92.6113 0.135529ZM80.7375 5.09439C79.1277 6.58517 77.8265 8.36109 76.809 10.371L79.4856 11.726C80.3575 10.0036 81.4511 8.52241 82.7759 7.29548L80.7375 5.09439ZM74.7029 16.4555C74.2742 18.4281 74.0183 20.5332 73.9197 22.7485L76.9167 22.8819C77.0089 20.8105 77.2468 18.8763 77.6345 17.0927L74.7029 16.4555ZM74.0275 29.0217C74.1724 31.02 74.4175 33.088 74.7561 35.2146L77.7188 34.7429C77.3923 32.6919 77.1578 30.7092 77.0197 28.8047L74.0275 29.0217ZM75.9448 41.3212C76.3938 43.2918 76.9117 45.3025 77.4942 47.3462L80.3793 46.5239C79.8104 44.5281 79.3061 42.5693 78.8698 40.6547L75.9448 41.3212ZM79.3071 53.1979C79.9447 55.1087 80.633 57.042 81.3688 58.9924L84.1757 57.9335C83.4529 56.0176 82.7777 54.1207 82.1529 52.2483L79.3071 53.1979ZM83.6495 64.7303C84.4302 66.6012 85.251 68.483 86.1094 70.3713L88.8404 69.1297C87.9946 67.2691 87.1863 65.416 86.4181 63.575L83.6495 64.7303ZM88.7281 75.9143C89.6245 77.7433 90.5538 79.5745 91.5138 81.4037L94.1702 80.0096C93.2228 78.2044 92.306 76.3979 91.4219 74.594L88.7281 75.9143ZM94.4407 86.8048C95.4356 88.5842 96.4577 90.3581 97.5051 92.1226L100.085 90.5913C99.0506 88.849 98.0414 87.0975 97.0593 85.3408L94.4407 86.8048ZM100.71 97.3673C101.799 99.0994 102.912 100.819 104.045 102.522L106.543 100.859C105.424 99.1781 104.325 97.4805 103.25 95.7701L100.71 97.3673ZM107.519 107.594C108.701 109.271 109.902 110.928 111.121 112.561L113.525 110.767C112.323 109.156 111.138 107.522 109.972 105.866L107.519 107.594ZM114.871 117.439C116.155 119.059 117.454 120.649 118.768 122.206L121.061 120.271C119.768 118.739 118.487 117.172 117.222 115.576L114.871 117.439ZM122.798 126.826C124.192 128.371 125.599 129.874 127.016 131.333L129.168 129.242C127.777 127.811 126.395 126.334 125.025 124.816L122.798 126.826ZM131.412 135.676C132.925 137.11 134.449 138.488 135.978 139.806L137.936 137.533C136.444 136.248 134.956 134.901 133.475 133.498L131.412 135.676ZM140.75 143.699C142.432 144.994 144.12 146.21 145.809 147.34L147.477 144.847C145.847 143.756 144.214 142.579 142.58 141.322L140.75 143.699ZM151.124 150.602C152.994 151.644 154.864 152.572 156.727 153.374L157.913 150.618C156.151 149.86 154.373 148.978 152.584 147.981L151.124 150.602ZM162.645 155.493C164.731 156.083 166.806 156.499 168.86 156.722L169.184 153.739C167.311 153.536 165.402 153.155 163.462 152.606L162.645 155.493ZM175.247 156.765C177.379 156.55 179.472 156.095 181.513 155.382L180.524 152.549C178.712 153.182 176.851 153.588 174.946 153.78L175.247 156.765ZM187.272 152.577C188.176 152.002 189.064 151.368 189.935 150.673L188.065 148.327C187.275 148.957 186.473 149.53 185.662 150.046L187.272 152.577ZM189.935 150.673C190.807 149.978 191.637 149.281 192.426 148.581L190.436 146.336C189.687 146.999 188.898 147.663 188.065 148.327L189.935 150.673ZM196.737 144.288C198.206 142.625 199.457 140.951 200.496 139.267L197.943 137.691C197.002 139.216 195.856 140.755 194.489 142.302L196.737 144.288ZM203.221 133.514C203.922 131.411 204.306 129.307 204.391 127.212L201.394 127.091C201.321 128.897 200.989 130.723 200.375 132.565L203.221 133.514ZM203.727 120.821C203.227 118.801 202.46 116.815 201.457 114.872L198.791 116.248C199.698 118.005 200.377 119.771 200.815 121.542L203.727 120.821ZM198.085 109.591C196.88 108.009 195.52 106.457 194.02 104.939L191.886 107.047C193.305 108.484 194.58 109.939 195.699 111.409L198.085 109.591ZM189.491 100.797C187.964 99.5254 186.338 98.2795 184.622 97.061L182.885 99.5071C184.543 100.685 186.108 101.884 187.572 103.103L189.491 100.797ZM179.485 93.6586C177.801 92.6152 176.051 91.5947 174.24 90.5986L172.794 93.2273C174.562 94.1999 176.268 95.1943 177.905 96.2087L179.485 93.6586ZM168.853 87.7948C167.051 86.9061 165.199 86.0398 163.304 85.1974L162.086 87.9388C163.946 88.7657 165.761 89.6151 167.526 90.4855L168.853 87.7948ZM157.743 82.8438C155.885 82.0953 153.992 81.3689 152.068 80.6656L151.038 83.4833C152.932 84.1757 154.795 84.8905 156.622 85.6265L157.743 82.8438ZM146.327 78.6662C144.428 78.0367 142.504 77.4293 140.558 76.8452L139.696 79.7185C141.615 80.2946 143.511 80.8934 145.383 81.5138L146.327 78.6662ZM134.702 75.1748C132.768 74.6517 130.817 74.1515 128.852 73.6753L128.145 76.5908C130.085 77.0609 132.01 77.5545 133.918 78.0707L134.702 75.1748ZM122.932 72.322C120.963 71.8989 118.984 71.5 116.997 71.1262L116.442 74.0745C118.404 74.4435 120.358 74.8373 122.302 75.255L122.932 72.322ZM111.022 70.0822C109.028 69.7604 107.029 69.4644 105.028 69.1953L104.628 72.1685C106.603 72.4341 108.576 72.7262 110.544 73.0439L111.022 70.0822ZM99.0045 68.467C96.9924 68.2513 94.9819 68.0637 92.9761 67.9051L92.7396 70.8958C94.7172 71.0521 96.7 71.2372 98.6848 71.4499L99.0045 68.467ZM86.9087 67.5137C84.8866 67.4132 82.8724 67.3434 80.8694 67.3055L80.8125 70.305C82.784 70.3423 84.7675 70.411 86.7598 70.51L86.9087 67.5137ZM74.7704 67.2897C72.7341 67.3186 70.7131 67.3822 68.711 67.4818L68.8601 70.4781C70.8254 70.3803 72.8109 70.3178 74.8129 70.2894L74.7704 67.2897ZM62.6406 67.9004C60.5945 68.0822 58.5727 68.3043 56.5795 68.5682L56.9733 71.5423C58.9221 71.2843 60.901 71.0667 62.9061 70.8886L62.6406 67.9004ZM50.6038 69.502C48.5597 69.8724 46.5518 70.2911 44.5853 70.7598L45.2808 73.6781C47.1915 73.2227 49.1457 72.815 51.1388 72.4539L50.6038 69.502ZM38.6912 72.3547C36.718 72.9564 34.7955 73.6153 32.9296 74.3334L34.0071 77.1332C35.8026 76.4422 37.6574 75.8063 39.5662 75.2242L38.6912 72.3547ZM27.2546 76.7894C25.3764 77.7005 23.5706 78.6834 21.8451 79.7405L23.4124 82.2986C25.0492 81.2957 26.7685 80.3596 28.5639 79.4886L27.2546 76.7894ZM16.7774 83.2469C15.1283 84.5363 13.5789 85.9128 12.1393 87.3795L14.2802 89.481C15.6234 88.1127 17.0741 86.8231 18.6252 85.6103L16.7774 83.2469ZM8.10365 92.1286C6.88505 93.7976 5.78994 95.5596 4.82798 97.4171L7.49194 98.7968C8.38236 97.0774 9.39651 95.4453 10.5265 93.8977L8.10365 92.1286ZM2.39272 103.155C1.73722 105.094 1.21084 107.118 0.820516 109.228L3.77046 109.774C4.13538 107.801 4.62616 105.916 5.23478 104.115L2.39272 103.155ZM0.0920559 115.305C0.0308926 116.352 3.57628e-07 117.416 0 118.499H3C3 117.473 3.02926 116.467 3.08694 115.48L0.0920559 115.305ZM0 118.499C-3.57628e-07 119.554 0.0711311 120.602 0.211146 121.644L3.18443 121.245C3.06198 120.334 3 119.418 3 118.499H0ZM1.80512 127.677C2.54004 129.539 3.48922 131.369 4.63453 133.168L7.16507 131.557C6.11142 129.902 5.25311 128.241 4.59551 126.576L1.80512 127.677ZM8.28674 138.06C9.55337 139.538 10.952 140.996 12.4736 142.434L14.5343 140.254C13.0809 138.88 11.7559 137.498 10.5646 136.108L8.28674 138.06ZM17.0301 146.395C18.5541 147.621 20.1675 148.833 21.865 150.032L23.5953 147.581C21.9444 146.415 20.3814 145.241 18.9104 144.058L17.0301 146.395ZM26.8155 153.34C28.4493 154.376 30.1457 155.403 31.9014 156.419L33.404 153.822C31.6811 152.825 30.0195 151.82 28.4224 150.807L26.8155 153.34ZM37.1537 159.335C38.8632 160.248 40.6201 161.152 42.4216 162.047L43.7569 159.36C41.9798 158.477 40.2487 157.587 38.566 156.689L37.1537 159.335ZM47.7768 164.623C49.5562 165.453 51.3733 166.275 53.226 167.089L54.433 164.342C52.5995 163.537 50.8026 162.724 49.0442 161.904L47.7768 164.623ZM58.6473 169.408C60.4683 170.167 62.3197 170.919 64.1996 171.663L65.3047 168.874C63.4404 168.136 61.6053 167.39 59.8011 166.639L58.6473 169.408ZM69.6833 173.786C71.5261 174.484 73.3934 175.175 75.2835 175.859L76.3051 173.039C74.4279 172.359 72.5741 171.673 70.7451 170.981L69.6833 173.786ZM80.8379 177.83C82.6989 178.477 84.5798 179.118 86.479 179.753L87.4303 176.908C85.542 176.277 83.6725 175.64 81.8231 174.997L80.8379 177.83ZM92.083 181.592C93.9598 182.197 95.8526 182.796 97.7602 183.389L98.6508 180.524C96.7527 179.934 94.8697 179.338 93.003 178.737L92.083 181.592ZM103.401 185.113C105.291 185.681 107.194 186.243 109.109 186.8L109.947 183.919C108.04 183.365 106.145 182.805 104.264 182.24L103.401 185.113ZM114.779 188.422C116.679 188.957 118.589 189.487 120.509 190.011L121.299 187.117C119.387 186.595 117.484 186.068 115.592 185.535L114.779 188.422ZM126.207 191.544C128.113 192.049 130.027 192.549 131.948 193.043L132.696 190.138C130.782 189.645 128.875 189.147 126.976 188.644L126.207 191.544ZM137.679 194.496C139.591 194.974 141.509 195.447 143.431 195.914L144.139 192.999C142.223 192.533 140.312 192.062 138.407 191.586L137.679 194.496ZM149.187 197.294C151.106 197.747 153.027 198.195 154.952 198.638L155.624 195.714C153.706 195.273 151.79 194.826 149.878 194.374L149.187 197.294ZM160.727 199.948C162.652 200.379 164.579 200.804 166.506 201.223L167.144 198.292C165.223 197.874 163.301 197.45 161.382 197.02L160.727 199.948ZM172.292 202.467C174.225 202.876 176.158 203.28 178.089 203.679L178.695 200.741C176.769 200.343 174.842 199.94 172.914 199.532L172.292 202.467ZM183.878 204.857C185.821 205.247 187.761 205.631 189.697 206.01L190.272 203.065C188.341 202.688 186.407 202.305 184.469 201.916L183.878 204.857ZM195.493 207.126C197.444 207.497 199.389 207.861 201.328 208.22L201.873 205.27C199.939 204.912 197.999 204.549 196.053 204.179L195.493 207.126ZM207.135 209.278C209.091 209.629 211.039 209.973 212.979 210.312L213.494 207.356C211.559 207.019 209.616 206.675 207.666 206.325L207.135 209.278ZM218.799 211.311C220.76 211.643 222.71 211.968 224.649 212.286L225.135 209.326C223.201 209.008 221.255 208.684 219.3 208.353L218.799 211.311ZM230.483 213.227C232.449 213.539 234.402 213.844 236.341 214.142L236.795 211.176C234.862 210.88 232.914 210.576 230.953 210.264L230.483 213.227ZM242.183 215.022C244.157 215.314 246.115 215.598 248.054 215.875L248.477 212.905C246.543 212.629 244.591 212.346 242.623 212.054L242.183 215.022ZM253.899 216.69C255.885 216.962 257.849 217.224 259.79 217.478L260.179 214.503C258.244 214.25 256.285 213.989 254.305 213.718L253.899 216.69ZM265.623 218.222C267.627 218.471 269.602 218.71 271.548 218.939L271.899 215.96C269.96 215.732 267.991 215.493 265.994 215.245L265.623 218.222ZM277.372 219.603C279.391 219.826 281.373 220.037 283.316 220.236L283.622 217.252C281.687 217.054 279.713 216.844 277.702 216.622L277.372 219.603ZM289.208 220.815C291.207 221.002 293.158 221.175 295.058 221.334L295.308 218.344C293.418 218.186 291.477 218.014 289.488 217.828L289.208 220.815Z" fill="#F37021"/>
</svg>
