<svg width="383" height="153" viewBox="0 0 383 153" fill="none" xmlns="http://www.w3.org/2000/svg">
<path d="M41.4997 43.5001L42.0115 42.0901L41.4997 43.5001ZM209.5 10.0001L209.843 8.53981L209.5 10.0001ZM98.9996 143L113.558 152.384L114.405 135.084L98.9996 143ZM108.089 144.918C110.11 145 112.121 145.076 114.121 145.145L114.224 142.146C112.23 142.078 110.226 142.003 108.212 141.92L108.089 144.918ZM120.088 145.33C122.128 145.387 124.158 145.436 126.175 145.478L126.238 142.479C124.227 142.437 122.205 142.388 120.171 142.331L120.088 145.33ZM132.259 145.584C134.276 145.612 136.28 145.633 138.272 145.646L138.292 142.646C136.307 142.633 134.31 142.612 132.301 142.584L132.259 145.584ZM144.245 145.665C146.303 145.664 148.348 145.656 150.379 145.639L150.355 142.639C148.331 142.656 146.294 142.664 144.244 142.665L144.245 145.665ZM156.432 145.567C158.436 145.536 160.427 145.497 162.403 145.45L162.333 142.451C160.364 142.497 158.381 142.536 156.385 142.568L156.432 145.567ZM168.484 145.282C170.527 145.218 172.556 145.145 174.569 145.064L174.449 142.066C172.444 142.147 170.424 142.219 168.389 142.284L168.484 145.282ZM180.562 144.798C182.583 144.699 184.588 144.592 186.577 144.478L186.404 141.483C184.425 141.597 182.428 141.703 180.416 141.801L180.562 144.798ZM192.683 144.097C194.701 143.961 196.701 143.818 198.684 143.666L198.454 140.674C196.481 140.826 194.49 140.969 192.482 141.104L192.683 144.097ZM204.659 143.178C206.715 143 208.751 142.812 210.767 142.616L210.477 139.63C208.471 139.826 206.446 140.012 204.4 140.189L204.659 143.178ZM216.755 142.001C218.764 141.784 220.753 141.557 222.72 141.322L222.364 138.343C220.408 138.577 218.43 138.802 216.432 139.019L216.755 142.001ZM228.805 140.557C230.81 140.292 232.791 140.018 234.749 139.735L234.32 136.766C232.374 137.047 230.405 137.319 228.412 137.582L228.805 140.557ZM240.736 138.828C242.771 138.506 244.778 138.173 246.758 137.831L246.247 134.875C244.281 135.215 242.288 135.545 240.267 135.865L240.736 138.828ZM252.616 136.773C254.66 136.389 256.673 135.993 258.654 135.586L258.051 132.647C256.086 133.051 254.089 133.443 252.061 133.825L252.616 136.773ZM264.554 134.322C266.551 133.876 268.514 133.418 270.443 132.949L269.734 130.034C267.824 130.499 265.88 130.952 263.9 131.394L264.554 134.322ZM276.363 131.446C278.323 130.926 280.244 130.395 282.124 129.851L281.291 126.969C279.433 127.506 277.534 128.032 275.595 128.546L276.363 131.446ZM288.029 128.065C289.96 127.454 291.845 126.829 293.683 126.191L292.7 123.357C290.889 123.985 289.03 124.602 287.123 125.205L288.029 128.065ZM299.507 124.067C301.418 123.335 303.271 122.587 305.065 121.825L303.892 119.064C302.132 119.811 300.312 120.546 298.433 121.266L299.507 124.067ZM310.701 119.292C312.588 118.393 314.398 117.477 316.131 116.543L314.708 113.902C313.022 114.811 311.256 115.705 309.411 116.583L310.701 119.292ZM321.396 113.506C323.224 112.374 324.945 111.219 326.557 110.043L324.788 107.619C323.243 108.748 321.585 109.86 319.817 110.955L321.396 113.506ZM331.36 106.185C332.966 104.758 334.421 103.301 335.72 101.814L333.461 99.84C332.252 101.223 330.888 102.591 329.367 103.943L331.36 106.185ZM339.444 96.7928C340.593 94.9183 341.506 93.0027 342.17 91.0502L339.33 90.0837C338.743 91.8085 337.929 93.5234 336.886 95.2246L339.444 96.7928ZM343.429 84.7541C343.56 82.6379 343.404 80.5037 342.957 78.3598L340.02 78.9718C340.414 80.8604 340.549 82.7262 340.434 84.568L343.429 84.7541ZM340.938 72.3226C340.096 70.4958 339.047 68.6713 337.79 66.8518L335.321 68.5571C336.49 70.2479 337.451 71.9224 338.213 73.5776L340.938 72.3226ZM333.974 62.0442C332.67 60.5906 331.231 59.1397 329.657 57.6928L327.627 59.9018C329.137 61.2891 330.507 62.6716 331.741 64.0474L333.974 62.0442ZM324.904 53.661C323.378 52.4598 321.756 51.2612 320.037 50.066L318.324 52.5291C319.998 53.6928 321.572 54.8562 323.048 56.0184L324.904 53.661ZM314.934 46.7061C313.261 45.6603 311.511 44.6174 309.685 43.5778L308.201 46.1849C309.993 47.2053 311.707 48.2273 313.344 49.2502L314.934 46.7061ZM304.365 40.6728C302.618 39.7568 300.811 38.8437 298.942 37.9339L297.629 40.6313C299.472 41.5286 301.253 42.4282 302.972 43.3297L304.365 40.6728ZM293.409 35.3325C291.633 34.5252 289.808 33.7208 287.932 32.9194L286.753 35.6781C288.609 36.4708 290.413 37.2661 292.168 38.0636L293.409 35.3325ZM282.155 30.5249C280.373 29.8078 278.549 29.0934 276.684 28.382L275.615 31.1849C277.463 31.8901 279.27 32.5979 281.035 33.3081L282.155 30.5249ZM270.977 26.2608C269.085 25.5756 267.154 24.8934 265.184 24.2144L264.206 27.0506C266.163 27.7247 268.079 28.4018 269.955 29.0815L270.977 26.2608ZM259.574 22.325C257.67 21.698 255.731 21.0739 253.758 20.4529L252.857 23.3145C254.819 23.9317 256.745 24.5518 258.636 25.1745L259.574 22.325ZM247.902 18.6498C246.04 18.0888 244.149 17.5304 242.229 16.9748L241.395 19.8566C243.305 20.4092 245.185 20.9645 247.036 21.5222L247.902 18.6498ZM236.381 15.3165C234.411 14.7691 232.412 14.2244 230.383 13.6828L229.609 16.5812C231.628 17.1203 233.617 17.6623 235.577 18.207L236.381 15.3165ZM224.702 12.1934C222.784 11.6995 220.84 11.2082 218.872 10.7197L218.149 13.6314C220.109 14.1179 222.044 14.607 223.954 15.0987L224.702 12.1934ZM212.89 9.26229C211.881 9.02076 210.865 8.77993 209.843 8.53981L209.157 11.4603C210.175 11.6995 211.187 11.9394 212.192 12.1799L212.89 9.26229ZM209.843 8.53981C208.947 8.32931 208.008 8.12197 207.028 7.9179L206.416 10.8549C207.374 11.0543 208.288 11.2562 209.157 11.4603L209.843 8.53981ZM201.118 6.80809C199.238 6.48788 197.253 6.17676 195.172 5.87533L194.742 8.84434C196.801 9.14263 198.762 9.44993 200.615 9.7655L201.118 6.80809ZM189.192 5.06812C187.301 4.83002 185.349 4.59907 183.34 4.37564L183.008 7.35726C185.004 7.5792 186.942 7.80845 188.817 8.04462L189.192 5.06812ZM177.4 3.753C175.446 3.55988 173.447 3.3735 171.41 3.19415L171.147 6.1826C173.174 6.36105 175.162 6.54644 177.105 6.73846L177.4 3.753ZM165.526 2.70437C163.564 2.55007 161.572 2.4021 159.552 2.26072L159.343 5.2534C161.354 5.3942 163.338 5.54153 165.291 5.69514L165.526 2.70437ZM153.622 1.8693C151.659 1.74737 149.674 1.63159 147.672 1.52217L147.508 4.51771C149.503 4.62672 151.481 4.74207 153.436 4.86353L153.622 1.8693ZM141.713 1.21794C139.745 1.12447 137.764 1.03714 135.772 0.956143L135.65 3.95367C137.635 4.03439 139.61 4.12142 141.57 4.21456L141.713 1.21794ZM129.804 0.733731C127.83 0.666818 125.849 0.606185 123.861 0.552015L123.78 3.5509C125.76 3.60489 127.735 3.66532 129.702 3.73201L129.804 0.733731ZM117.897 0.409303C115.915 0.368501 113.931 0.334253 111.946 0.306737L111.904 3.30645C113.882 3.33387 115.86 3.368 117.835 3.40867L117.897 0.409303ZM105.99 0.244553C104 0.230633 102.011 0.223682 100.027 0.223881L100.028 3.22388C102.004 3.22368 103.986 3.23061 105.969 3.24448L105.99 0.244553ZM94.0758 0.246247C92.0783 0.26117 90.0885 0.283625 88.1091 0.313801L88.1549 3.31345C90.1263 3.2834 92.1083 3.26103 94.0982 3.24616L94.0758 0.246247ZM82.1544 0.42887C80.1536 0.475877 78.1666 0.531169 76.1962 0.594951L76.2932 3.59338C78.2545 3.52989 80.2327 3.47485 82.2249 3.42804L82.1544 0.42887ZM70.2287 0.816544C68.2303 0.900567 66.2527 0.993886 64.2993 1.09673L64.457 4.09258C66.3995 3.99032 68.3664 3.89749 70.3547 3.8139L70.2287 0.816544ZM58.3071 1.44742C56.3066 1.57675 54.3363 1.71691 52.4001 1.86817L52.6338 4.85905C54.5559 4.70889 56.5128 4.56968 58.5006 4.44117L58.3071 1.44742ZM46.4151 2.38195C44.3829 2.57297 42.3956 2.77762 40.4584 2.99625L40.7948 5.97732C42.7123 5.76093 44.6809 5.55818 46.6958 5.36878L46.4151 2.38195ZM34.5897 3.7231C32.5281 4.00284 30.5358 4.30097 28.62 4.61806L29.1098 7.5778C30.9942 7.26592 32.9576 6.97207 34.9931 6.69585L34.5897 3.7231ZM22.6799 5.71439C20.5984 6.14309 18.6339 6.6004 16.7995 7.08763L17.5696 9.9871C19.3415 9.51647 21.2503 9.0718 23.2851 8.65272L22.6799 5.71439ZM10.9863 8.89647C8.83236 9.68865 6.94047 10.5548 5.36455 11.506L6.91477 14.0744C8.28135 13.2496 9.98821 12.46 12.0218 11.7121L10.9863 8.89647ZM0.615905 16.2608C-0.404961 18.4928 -0.0952811 20.8659 1.35792 23.2042L3.90595 21.6207C2.86355 19.9434 2.82782 18.6374 3.34411 17.5085L0.615905 16.2608ZM5.76474 27.9088C7.16447 29.0408 8.83059 30.2009 10.7705 31.3918L12.34 28.8351C10.4841 27.6958 8.92871 26.6093 7.65119 25.5761L5.76474 27.9088ZM15.9787 34.322C17.6581 35.1965 19.4821 36.0901 21.4551 37.0032L22.7151 34.2807C20.7791 33.3846 18.9975 32.5115 17.3642 31.6611L15.9787 34.322ZM26.903 39.413C28.6439 40.1512 30.4787 40.902 32.4096 41.6655L33.5127 38.8757C31.6027 38.1205 29.7908 37.379 28.0742 36.651L26.903 39.413ZM38.0029 43.8119C38.9768 44.1752 39.9718 44.5412 40.9879 44.9101L42.0115 42.0901C41.0033 41.7242 40.0167 41.3612 39.0514 41.0011L38.0029 43.8119ZM40.9879 44.9101C41.9298 45.2519 42.8757 45.5874 43.8258 45.9165L44.8078 43.0818C43.8715 42.7574 42.9394 42.4269 42.0115 42.0901L40.9879 44.9101ZM49.5737 47.8158C51.4872 48.4182 53.4159 48.9963 55.3589 49.5507L56.182 46.6658C54.2645 46.1187 52.3618 45.5484 50.4746 44.9542L49.5737 47.8158ZM61.2055 51.1367C63.145 51.6362 65.0977 52.1132 67.0628 52.5681L67.7395 49.6455C65.7978 49.1959 63.869 48.7247 61.9537 48.2315L61.2055 51.1367ZM72.9826 53.8651C74.9415 54.2705 76.9118 54.655 78.8928 55.0191L79.4351 52.0685C77.4756 51.7083 75.5272 51.3281 73.5905 50.9274L72.9826 53.8651ZM84.8568 56.0493C86.8328 56.3691 88.8185 56.6696 90.8132 56.9511L91.2325 53.9806C89.2574 53.7018 87.2918 53.4044 85.3362 53.0878L84.8568 56.0493ZM96.8076 57.7376C98.7957 57.979 100.792 58.2024 102.796 58.4082L103.102 55.4239C101.117 55.2199 99.1386 54.9986 97.1692 54.7594L96.8076 57.7376ZM108.81 58.9718C110.806 59.1412 112.81 59.2938 114.819 59.4302L115.022 56.4371C113.029 56.3018 111.043 56.1505 109.064 55.9825L108.81 58.9718ZM120.844 59.7896C122.846 59.8929 124.853 59.9805 126.865 60.053L126.973 57.0549C124.976 56.983 122.985 56.896 120.999 56.7936L120.844 59.7896ZM132.895 60.2249C134.9 60.2672 136.908 60.2949 138.92 60.3086L138.941 57.3087C136.943 57.2951 134.948 57.2675 132.958 57.2256L132.895 60.2249ZM144.951 60.3077C146.956 60.2937 148.964 60.2662 150.975 60.2255L150.914 57.2261C148.917 57.2665 146.922 57.2939 144.93 57.3078L144.951 60.3077ZM157.001 60.0648C159.006 59.9986 161.013 59.9198 163.021 59.8288L162.885 56.8319C160.889 56.9224 158.895 57.0007 156.902 57.0665L157.001 60.0648ZM169.039 59.5199C171.043 59.4052 173.047 59.2788 175.051 59.1409L174.845 56.148C172.852 56.285 170.86 56.4108 168.868 56.5248L169.039 59.5199ZM181.059 58.6939C183.06 58.5339 185.061 58.3629 187.06 58.1814L186.789 55.1937C184.8 55.3743 182.81 55.5443 180.82 55.7034L181.059 58.6939ZM193.056 57.6053C195.054 57.4028 197.05 57.1901 199.045 56.9676L198.712 53.9861C196.728 54.2075 194.741 54.4191 192.753 54.6206L193.056 57.6053ZM205.026 56.2703C207.02 56.0279 209.012 55.7759 211.001 55.5149L210.61 52.5404C208.631 52.8002 206.649 53.051 204.664 53.2922L205.026 56.2703ZM216.966 54.7033C218.957 54.4231 220.944 54.134 222.926 53.8365L222.481 50.8697C220.507 51.1659 218.529 51.4536 216.548 51.7326L216.966 54.7033ZM228.874 52.9168C230.861 52.6006 232.842 52.2763 234.818 51.9442L234.321 48.9857C232.354 49.3163 230.381 49.6393 228.402 49.9541L228.874 52.9168ZM240.748 50.9216C242.73 50.5711 244.706 50.2131 246.675 49.8481L246.128 46.8984C244.167 47.2619 242.2 47.6184 240.226 47.9674L240.748 50.9216ZM252.586 48.7269C254.563 48.3436 256.533 47.9535 258.493 47.5569L257.899 44.6165C255.946 45.0114 253.984 45.4 252.015 45.7817L252.586 48.7269ZM264.388 46.3406C266.359 45.9257 268.321 45.5047 270.272 45.0781L269.632 42.1473C267.688 42.5723 265.733 42.9917 263.77 43.4049L264.388 46.3406ZM276.151 43.7692C278.115 43.3239 280.068 42.8732 282.009 42.4175L281.324 39.4969C279.39 39.9508 277.444 40.3998 275.487 40.8434L276.151 43.7692ZM287.873 41.0176C289.829 40.543 291.771 40.0637 293.7 39.5802L292.971 36.6703C291.049 37.1519 289.114 37.6294 287.166 38.1023L287.873 41.0176ZM299.553 38.0899C301.498 37.5868 303.427 37.0799 305.341 36.5697L304.568 33.6709C302.662 34.1792 300.739 34.6843 298.801 35.1854L299.553 38.0899ZM311.184 34.9885C313.13 34.4542 315.057 33.917 316.965 33.3774L316.149 30.4906C314.248 31.0281 312.328 31.5633 310.39 32.0956L311.184 34.9885ZM322.761 31.7151C324.709 31.1484 326.636 30.5797 328.54 30.0098L327.68 27.1358C325.783 27.7035 323.864 28.27 321.923 28.8345L322.761 31.7151ZM334.271 28.2706C336.224 27.6695 338.151 27.0678 340.051 26.4663L339.146 23.6062C337.253 24.2053 335.333 24.8046 333.388 25.4033L334.271 28.2706ZM345.769 24.6306C347.702 24.0011 349.604 23.3726 351.475 22.746L350.522 19.9014C348.659 20.5253 346.765 21.1512 344.84 21.778L345.769 24.6306ZM357.204 20.7984C359.133 20.1325 361.025 19.4699 362.876 18.8116L361.871 15.985C360.029 16.6401 358.146 17.2996 356.225 17.9624L357.204 20.7984ZM368.499 16.7807C370.445 16.0667 372.34 15.3593 374.182 14.66L373.118 11.8552C371.286 12.5506 369.401 13.2541 367.466 13.9643L368.499 16.7807ZM379.82 12.4808C380.749 12.115 381.662 11.7521 382.559 11.3921L381.441 8.60805C380.551 8.96552 379.644 9.32604 378.721 9.68938L379.82 12.4808Z" fill="#F37021"/>
</svg>
