<svg width="501" height="207" viewBox="0 0 501 207" fill="none" xmlns="http://www.w3.org/2000/svg">
<path d="M30.5 75.5L29.8904 76.8706L30.5 75.5ZM497 131.5L495.568 131.055L497 131.5ZM328 198L342.927 206.786L343.072 189.466L328 198ZM337.002 199.549C338.81 199.545 340.835 199.529 343.052 199.493L343.003 196.493C340.801 196.529 338.79 196.545 336.995 196.549L337.002 199.549ZM349.102 199.351C351.029 199.293 353.055 199.218 355.168 199.123L355.034 196.126C352.936 196.22 350.924 196.294 349.011 196.353L349.102 199.351ZM361.226 198.807C363.185 198.691 365.203 198.557 367.27 198.403L367.047 195.411C364.995 195.564 362.993 195.697 361.048 195.813L361.226 198.807ZM373.304 197.905C375.278 197.727 377.288 197.53 379.329 197.312L379.011 194.329C376.987 194.545 374.993 194.741 373.034 194.918L373.304 197.905ZM385.347 196.619C387.329 196.373 389.333 196.107 391.356 195.819L390.933 192.849C388.929 193.134 386.942 193.398 384.977 193.641L385.347 196.619ZM397.353 194.907C399.336 194.586 401.331 194.243 403.334 193.876L402.794 190.925C400.812 191.288 398.837 191.628 396.873 191.946L397.353 194.907ZM409.294 192.72C411.267 192.314 413.244 191.885 415.22 191.43L414.547 188.506C412.595 188.956 410.641 189.38 408.69 189.781L409.294 192.72ZM421.119 189.995C423.079 189.491 425.035 188.961 426.983 188.403L426.157 185.519C424.237 186.069 422.307 186.592 420.372 187.089L421.119 189.995ZM432.802 186.643C434.737 186.026 436.659 185.38 438.565 184.702L437.56 181.875C435.686 182.541 433.795 183.178 431.89 183.785L432.802 186.643ZM444.259 182.563C446.156 181.811 448.031 181.025 449.882 180.205L448.666 177.463C446.854 178.266 445.015 179.036 443.153 179.774L444.259 182.563ZM455.406 177.612C457.239 176.7 459.041 175.751 460.808 174.762L459.343 172.144C457.621 173.108 455.862 174.035 454.07 174.925L455.406 177.612ZM466.061 171.635C467.795 170.537 469.486 169.395 471.131 168.208L469.376 165.776C467.782 166.926 466.141 168.034 464.456 169.101L466.061 171.635ZM475.98 164.46C477.563 163.147 479.091 161.785 480.56 160.371L478.479 158.21C477.066 159.57 475.593 160.883 474.065 162.15L475.98 164.46ZM484.818 155.928C486.179 154.386 487.472 152.789 488.692 151.135L486.277 149.355C485.111 150.936 483.874 152.465 482.569 153.943L484.818 155.928ZM492.119 146.008C493.175 144.256 494.153 142.447 495.047 140.579L492.341 139.284C491.489 141.064 490.557 142.788 489.55 144.459L492.119 146.008ZM497.438 134.894C497.791 133.925 498.123 132.942 498.432 131.945L495.568 131.055C495.272 132.006 494.956 132.943 494.619 133.867L497.438 134.894ZM498.432 131.945C498.771 130.855 499.059 129.789 499.297 128.748L496.372 128.082C496.153 129.042 495.885 130.033 495.568 131.055L498.432 131.945ZM500.122 122.59C500.19 120.339 499.971 118.222 499.467 116.236L496.559 116.973C496.988 118.665 497.183 120.501 497.123 122.499L500.122 122.59ZM496.857 110.286C495.699 108.516 494.253 106.917 492.548 105.474L490.61 107.765C492.118 109.04 493.364 110.426 494.347 111.929L496.857 110.286ZM487.329 101.947C485.614 101.011 483.746 100.164 481.735 99.3982L480.667 102.202C482.569 102.927 484.312 103.719 485.892 104.58L487.329 101.947ZM475.88 97.4957C473.947 96.9616 471.913 96.4801 469.783 96.0473L469.185 98.9872C471.256 99.4079 473.222 99.8737 475.08 100.387L475.88 97.4957ZM463.917 95.0121C461.949 94.7125 459.912 94.4458 457.808 94.21L457.474 97.1914C459.542 97.4232 461.54 97.6848 463.465 97.978L463.917 95.0121ZM451.824 93.6348C449.839 93.4734 447.802 93.3349 445.716 93.2179L445.548 96.2132C447.611 96.3289 449.622 96.4657 451.581 96.6249L451.824 93.6348ZM439.723 92.9442C437.716 92.8721 435.669 92.8171 433.582 92.778L433.526 95.7775C435.597 95.8163 437.627 95.8709 439.616 95.9422L439.723 92.9442ZM427.628 92.7092C425.61 92.6995 423.558 92.7027 421.476 92.718L421.498 95.718C423.569 95.7027 425.608 95.6995 427.613 95.7091L427.628 92.7092ZM415.522 92.7922C413.529 92.8268 411.509 92.871 409.464 92.9241L409.542 95.9231C411.579 95.8702 413.59 95.8262 415.574 95.7918L415.522 92.7922ZM403.393 93.1048C401.423 93.1705 399.432 93.2434 397.419 93.323L397.538 96.3206C399.544 96.2413 401.53 96.1686 403.493 96.1031L403.393 93.1048ZM391.32 93.581C389.342 93.6699 387.345 93.7643 385.33 93.8638L385.478 96.8602C387.489 96.7609 389.481 96.6667 391.455 96.578L391.32 93.581ZM379.325 94.1719C377.306 94.2792 375.271 94.3908 373.219 94.5062L373.388 97.5015C375.436 97.3862 377.469 97.2748 379.484 97.1677L379.325 94.1719ZM367.266 94.849C365.275 94.966 363.269 95.0861 361.251 95.2087L361.433 98.2032C363.45 98.0807 365.453 97.9607 367.442 97.8438L367.266 94.849ZM355.155 95.5841C353.184 95.7069 351.201 95.8317 349.207 95.958L349.397 98.952C351.39 98.8257 353.372 98.701 355.342 98.5783L355.155 95.5841ZM343.194 96.3412C341.178 96.4703 339.152 96.6005 337.116 96.7314L337.308 99.7253C339.344 99.5943 341.37 99.4641 343.385 99.3351L343.194 96.3412ZM331.153 97.1148C329.159 97.2429 327.157 97.3712 325.145 97.4996L325.336 100.493C327.348 100.365 329.351 100.237 331.345 100.109L331.153 97.1148ZM319.086 97.8841C317.099 98.0095 315.103 98.1345 313.1 98.2587L313.286 101.253C315.29 101.129 317.287 101.004 319.275 100.878L319.086 97.8841ZM307.099 98.627C305.092 98.7488 303.078 98.8696 301.058 98.9889L301.234 101.984C303.257 101.864 305.272 101.743 307.281 101.621L307.099 98.627ZM295.047 99.3382C293.054 99.4521 291.055 99.5643 289.05 99.6745L289.215 102.67C291.222 102.56 293.223 102.447 295.219 102.333L295.047 99.3382ZM283.022 99.9986C281.017 100.104 279.007 100.207 276.993 100.307L277.142 103.304C279.159 103.203 281.172 103.1 283.18 102.995L283.022 99.9986ZM270.996 100.597C268.994 100.691 266.987 100.782 264.977 100.87L265.108 103.867C267.121 103.779 269.131 103.688 271.137 103.594L270.996 100.597ZM258.939 101.123C256.941 101.203 254.941 101.28 252.938 101.353L253.047 104.351C255.054 104.278 257.058 104.201 259.059 104.12L258.939 101.123ZM246.923 101.56C244.916 101.625 242.907 101.686 240.896 101.742L240.98 104.741C242.996 104.684 245.009 104.623 247.02 104.558L246.923 101.56ZM234.878 101.898C232.873 101.945 230.868 101.988 228.862 102.026L228.918 105.025C230.929 104.987 232.94 104.945 234.948 104.897L234.878 101.898ZM222.842 102.123C220.835 102.151 218.828 102.173 216.82 102.19L216.845 105.19C218.858 105.173 220.871 105.151 222.883 105.123L222.842 102.123ZM210.8 102.223C208.794 102.228 206.788 102.228 204.783 102.221L204.773 105.221C206.784 105.228 208.796 105.228 210.808 105.223L210.8 102.223ZM198.771 102.182C196.761 102.163 194.752 102.137 192.745 102.104L192.696 105.104C194.71 105.136 196.725 105.162 198.742 105.182L198.771 102.182ZM186.727 101.985C184.723 101.939 182.721 101.885 180.722 101.824L180.63 104.823C182.637 104.884 184.646 104.938 186.657 104.984L186.727 101.985ZM174.706 101.617C172.696 101.54 170.689 101.456 168.685 101.363L168.547 104.36C170.558 104.453 172.573 104.538 174.591 104.615L174.706 101.617ZM162.686 101.059C160.685 100.95 158.688 100.832 156.695 100.705L156.504 103.698C158.506 103.826 160.512 103.945 162.522 104.055L162.686 101.059ZM150.674 100.293C148.671 100.146 146.674 99.9905 144.682 99.8251L144.434 102.815C146.436 102.981 148.443 103.138 150.455 103.285L150.674 100.293ZM138.721 99.2998C136.712 99.1123 134.708 98.9145 132.711 98.7062L132.399 101.69C134.408 101.899 136.422 102.098 138.443 102.287L138.721 99.2998ZM126.731 98.0483C124.744 97.8183 122.764 97.5773 120.792 97.3251L120.411 100.301C122.396 100.555 124.387 100.797 126.386 101.028L126.731 98.0483ZM114.821 96.5237C112.827 96.2432 110.841 95.9506 108.863 95.6457L108.406 98.6106C110.397 98.9176 112.396 99.2121 114.403 99.4945L114.821 96.5237ZM102.957 94.6934C100.975 94.3597 99.0031 94.013 97.0407 93.653L96.4993 96.6038C98.4764 96.9665 100.463 97.3157 102.459 97.6517L102.957 94.6934ZM91.1203 92.5199C89.1571 92.1283 87.2045 91.7227 85.2629 91.3027L84.6285 94.2348C86.5863 94.6584 88.5547 95.0673 90.5334 95.462L91.1203 92.5199ZM79.4176 89.9863C77.4523 89.526 75.4992 89.0501 73.5588 88.5583L72.8218 91.4664C74.7802 91.9627 76.7509 92.4429 78.7334 92.9073L79.4176 89.9863ZM67.7761 87.035C65.8444 86.5063 63.9262 85.9611 62.0221 85.3989L61.1725 88.2761C63.0963 88.8441 65.0337 89.3948 66.9842 89.9286L67.7761 87.035ZM56.2595 83.6312C54.3535 83.0241 52.4627 82.399 50.5877 81.7556L49.6139 84.5931C51.5104 85.244 53.4223 85.876 55.349 86.4897L56.2595 83.6312ZM44.9547 79.7489C43.0643 79.0502 41.1911 78.3316 39.3357 77.5927L38.2258 80.3798C40.1048 81.1281 42.0013 81.8557 43.9146 82.5629L44.9547 79.7489ZM33.8238 75.3148C32.9144 74.9249 32.0097 74.5298 31.1096 74.1294L29.8904 76.8706C30.8029 77.2764 31.72 77.6769 32.6416 78.072L33.8238 75.3148ZM31.1096 74.1294C30.1039 73.6821 29.1279 73.2378 28.1812 72.7965L26.9136 75.5155C27.877 75.9647 28.8692 76.4163 29.8904 76.8706L31.1096 74.1294ZM22.8522 70.1848C20.9627 69.2078 19.2235 68.2471 17.6301 67.3028L16.1006 69.8836C17.7495 70.8608 19.5398 71.8493 21.4743 72.8496L22.8522 70.1848ZM12.8902 64.2421C11.0739 62.9507 9.55394 61.7004 8.31093 60.4926L6.22034 62.6442C7.59459 63.9795 9.23787 65.3263 11.1518 66.6871L12.8902 64.2421ZM4.92218 56.1849C4.00147 54.4442 3.74462 52.8642 3.9939 51.3957L1.03621 50.8936C0.659388 53.1136 1.09185 55.3596 2.2703 57.5876L4.92218 56.1849ZM6.36218 46.964C7.43845 45.7721 8.87345 44.5799 10.6761 43.3953L9.02855 40.8882C7.07438 42.1724 5.42633 43.5241 4.13562 44.9534L6.36218 46.964ZM15.743 40.5554C17.4061 39.7458 19.2325 38.9502 21.2169 38.169L20.1179 35.3775C18.0726 36.1827 16.1735 37.0092 14.4298 37.8581L15.743 40.5554ZM26.7978 36.147C28.5799 35.5501 30.4547 34.9633 32.4187 34.3864L31.5732 31.508C29.5769 32.0944 27.6662 32.6924 25.8451 33.3023L26.7978 36.147ZM38.3135 32.7535C40.1384 32.2759 42.0255 31.8056 43.9727 31.3427L43.2788 28.424C41.3113 28.8918 39.4022 29.3675 37.5539 29.8512L38.3135 32.7535ZM49.9462 29.9856C51.8116 29.5802 53.724 29.1808 55.6816 28.7872L55.0902 25.8461C53.1183 26.2425 51.1906 26.6452 49.3091 27.054L49.9462 29.9856ZM61.6401 27.633C63.5538 27.2756 65.5056 26.9233 67.494 26.576L66.9778 23.6207C64.9785 23.9699 63.0152 24.3243 61.0894 24.684L61.6401 27.633ZM73.4027 25.576C75.3692 25.2535 77.3679 24.9354 79.3974 24.6219L78.9393 21.6571C76.901 21.972 74.8932 22.2915 72.9171 22.6156L73.4027 25.576ZM85.2474 23.7427C87.2245 23.4536 89.2281 23.1684 91.2574 22.8872L90.8455 19.9156C88.8092 20.1978 86.7981 20.484 84.8134 20.7742L85.2474 23.7427ZM97.1797 22.0868C99.1331 21.8294 101.108 21.5754 103.104 21.3247L102.73 18.3481C100.729 18.5995 98.7474 18.8543 96.7877 19.1126L97.1797 22.0868ZM109.154 20.5827C111.101 20.3494 113.067 20.1192 115.05 19.8919L114.708 16.9114C112.72 17.1392 110.75 17.3701 108.797 17.604L109.154 20.5827ZM121.008 19.2237C123.011 19.004 125.03 18.7871 127.065 18.573L126.752 15.5895C124.712 15.804 122.688 16.0213 120.681 16.2417L121.008 19.2237ZM132.969 17.9646C134.946 17.7649 136.936 17.5679 138.939 17.3734L138.649 14.3874C136.642 14.5823 134.648 14.7797 132.668 14.9798L132.969 17.9646ZM144.988 16.7975C146.954 16.614 148.931 16.4329 150.92 16.2541L150.651 13.2661C148.659 13.4452 146.678 13.6267 144.709 13.8105L144.988 16.7975ZM156.891 15.727C158.892 15.5536 160.903 15.3825 162.924 15.2136L162.675 12.224C160.65 12.3931 158.636 12.5645 156.632 12.7382L156.891 15.727ZM168.892 14.7238C170.873 14.5641 172.863 14.4064 174.861 14.2509L174.628 11.2599C172.627 11.4157 170.635 11.5735 168.651 11.7335L168.892 14.7238ZM180.879 13.7903C182.872 13.6403 184.873 13.4924 186.882 13.3463L186.664 10.3542C184.653 10.5004 182.65 10.6486 180.653 10.7987L180.879 13.7903ZM192.847 12.9197C194.843 12.7794 196.844 12.641 198.851 12.5045L198.648 9.51138C196.638 9.64809 194.634 9.78667 192.637 9.92714L192.847 12.9197ZM204.881 12.1009C206.865 11.9703 208.854 11.8415 210.847 11.7144L210.656 8.7205C208.661 8.84772 206.67 8.97668 204.684 9.10743L204.881 12.1009ZM216.842 11.3383C218.845 11.2147 220.851 11.0928 222.862 10.9726L222.683 7.97791C220.67 8.09825 218.662 8.22029 216.657 8.34404L216.842 11.3383ZM228.856 10.6197C230.85 10.5042 232.847 10.3903 234.847 10.2779L234.678 7.28266C232.677 7.39508 230.678 7.5091 228.682 7.62475L228.856 10.6197ZM240.854 9.94576C242.856 9.83678 244.86 9.72937 246.866 9.62351L246.708 6.62768C244.7 6.73363 242.694 6.84112 240.691 6.95019L240.854 9.94576ZM252.86 9.31198C254.86 9.20965 256.861 9.10883 258.862 9.00949L258.714 6.01317C256.71 6.11259 254.708 6.21349 252.707 6.3159L252.86 9.31198ZM264.87 8.71587C266.872 8.61953 268.874 8.52464 270.876 8.43119L270.736 5.43445C268.733 5.52797 266.729 5.62293 264.726 5.71934L264.87 8.71587ZM276.881 8.15513C278.882 8.06453 280.883 7.97532 282.883 7.8875L282.752 4.89038C280.75 4.97827 278.748 5.06753 276.745 5.1582L276.881 8.15513ZM288.888 7.62777C290.895 7.5423 292.9 7.4582 294.903 7.37544L294.779 4.378C292.775 4.46081 290.768 4.54497 288.761 4.63049L288.888 7.62777ZM300.908 7.13115C302.907 7.05104 304.904 6.97225 306.898 6.89475L306.782 3.89701C304.786 3.97456 302.788 4.0534 300.787 4.13356L300.908 7.13115ZM312.923 6.66418C314.931 6.58851 316.936 6.51414 318.937 6.44102L318.828 3.44302C316.825 3.51618 314.82 3.5906 312.81 3.6663L312.923 6.66418ZM324.929 6.22545C326.936 6.15435 328.938 6.08451 330.936 6.01589L330.833 3.01766C328.834 3.08631 326.831 3.15619 324.823 3.22733L324.929 6.22545ZM336.967 5.812C338.972 5.74527 340.972 5.67976 342.966 5.61544L342.869 2.617C340.874 2.68135 338.873 2.74689 336.867 2.81366L336.967 5.812ZM348.94 5.42574C350.964 5.36246 352.982 5.3004 354.993 5.23953L354.903 2.2409C352.891 2.30181 350.872 2.3639 348.846 2.42721L348.94 5.42574ZM361.005 5.06045C363.001 5.00193 364.99 4.94456 366.971 4.88833L366.886 1.88954C364.904 1.9458 362.914 2.00319 360.917 2.06174L361.005 5.06045ZM373.016 4.71948C375.034 4.66403 377.044 4.60974 379.043 4.55659L378.963 1.55765C376.963 1.61083 374.953 1.66514 372.934 1.72062L373.016 4.71948ZM385.012 4.40048C387.032 4.34854 389.04 4.29775 391.037 4.24806L390.963 1.24899C388.965 1.29869 386.955 1.34951 384.935 1.40147L385.012 4.40048ZM397.081 4.10024C399.084 4.05209 401.074 4.00505 403.052 3.95908L402.982 0.959886C401.004 1.00587 399.012 1.05294 397.009 1.10111L397.081 4.10024ZM409.063 3.82171C411.097 3.77604 413.116 3.73149 415.12 3.68803L415.055 0.688737C413.05 0.732211 411.03 0.776774 408.996 0.822466L409.063 3.82171ZM421.084 3.56088C422.07 3.54022 423.053 3.51982 424.031 3.49968L423.969 0.500318C422.991 0.520467 422.008 0.540874 421.021 0.561543L421.084 3.56088Z" fill="#F37021"/>
</svg>
