<svg width="405" height="251" viewBox="0 0 405 251" fill="none" xmlns="http://www.w3.org/2000/svg">
<path d="M348 87L347.659 85.5392L348 87ZM3.99988 179L2.53887 179.34L3.99988 179ZM224.5 242.5L209.679 233.536L209.327 250.853L224.5 242.5ZM224.627 4.49463C225.617 4.41044 226.608 4.33104 227.599 4.25635L227.374 1.26483C226.373 1.34023 225.373 1.42041 224.373 1.50541L224.627 4.49463ZM233.552 3.86447C235.539 3.75235 237.527 3.65872 239.514 3.58313L239.4 0.585294C237.395 0.661578 235.389 0.756072 233.383 0.86923L233.552 3.86447ZM245.478 3.40995C247.47 3.36988 249.461 3.34752 251.449 3.34243L251.441 0.342444C249.436 0.347577 247.428 0.370129 245.418 0.410556L245.478 3.40995ZM257.414 3.37867C259.409 3.40793 261.401 3.45425 263.387 3.51717L263.482 0.51867C261.479 0.455218 259.471 0.408505 257.458 0.378993L257.414 3.37867ZM269.344 3.75593C271.341 3.85273 273.332 3.96604 275.315 4.09537L275.51 1.10173C273.511 0.971319 271.503 0.857066 269.49 0.75945L269.344 3.75593ZM281.254 4.53216C283.251 4.6957 285.239 4.87529 287.217 5.07042L287.512 2.08492C285.517 1.88815 283.513 1.70707 281.499 1.54216L281.254 4.53216ZM293.13 5.70342C295.125 5.93391 297.109 6.18008 299.079 6.44139L299.473 3.46745C297.487 3.2039 295.486 2.95565 293.474 2.72322L293.13 5.70342ZM304.973 7.27424C306.959 7.57229 308.93 7.88563 310.883 8.21371L311.38 5.25515C309.409 4.92416 307.421 4.60808 305.418 4.30745L304.973 7.27424ZM316.755 9.25385C318.726 9.62121 320.677 10.0035 322.606 10.4002L323.211 7.46162C321.263 7.06122 319.294 6.67536 317.305 6.30465L316.755 9.25385ZM328.454 11.6609C330.401 12.1003 332.323 12.5544 334.218 13.0224L334.937 10.1099C333.022 9.63702 331.081 9.17834 329.115 8.73453L328.454 11.6609ZM340.034 14.5246C341.976 15.0486 343.885 15.5873 345.762 16.14L346.609 13.2622C344.711 12.703 342.779 12.1581 340.816 11.6282L340.034 14.5246ZM351.439 17.8876C353.373 18.5096 355.266 19.1466 357.114 19.7975L358.111 16.9677C356.235 16.3075 354.316 15.6618 352.357 15.0316L351.439 17.8876ZM362.684 21.8518C364.562 22.5774 366.386 23.3176 368.153 24.0711L369.33 21.3115C367.529 20.5439 365.674 19.7909 363.766 19.0535L362.684 21.8518ZM373.606 26.5234C375.451 27.4001 377.221 28.2915 378.91 29.1958L380.326 26.551C378.591 25.6225 376.779 24.7095 374.893 23.8136L373.606 26.5234ZM384.033 32.1304C385.779 33.2038 387.41 34.2906 388.921 35.3877L390.684 32.9606C389.105 31.8138 387.409 30.6844 385.604 29.5746L384.033 32.1304ZM393.465 39.0484C394.996 40.431 396.325 41.8186 397.446 43.2047L399.779 41.3188C398.546 39.7934 397.105 38.2931 395.475 36.8217L393.465 39.0484ZM400.443 47.9091C401.26 49.672 401.716 51.4098 401.812 53.1189L404.808 52.9505C404.688 50.8164 404.121 48.7091 403.165 46.6472L400.443 47.9091ZM400.952 58.3575C400.351 59.8966 399.426 61.4577 398.134 63.0316L400.452 64.9354C401.916 63.1524 403.015 61.3215 403.747 59.4491L400.952 58.3575ZM394.1 66.9963C392.727 68.1218 391.157 69.2437 389.379 70.3577L390.972 72.8998C392.843 71.7273 394.518 70.5324 396.002 69.3166L394.1 66.9963ZM384.237 73.2565C382.579 74.1029 380.795 74.941 378.88 75.7692L380.071 78.5226C382.039 77.6714 383.882 76.8063 385.601 75.9284L384.237 73.2565ZM373.482 77.9459C371.69 78.6212 369.805 79.2883 367.825 79.9463L368.772 82.7931C370.786 82.1235 372.708 81.4434 374.54 80.7533L373.482 77.9459ZM362.193 81.7169C360.354 82.2643 358.445 82.8043 356.464 83.3365L357.243 86.2337C359.248 85.6949 361.183 85.1477 363.049 84.5923L362.193 81.7169ZM350.69 84.8159C349.696 85.0588 348.686 85.3 347.659 85.5392L348.34 88.4609C349.377 88.2193 350.397 87.9757 351.402 87.7301L350.69 84.8159ZM347.659 85.5392C346.668 85.7703 345.677 85.9986 344.686 86.2243L345.352 89.1494C346.348 88.9226 347.344 88.6931 348.34 88.4609L347.659 85.5392ZM338.745 87.5461C336.766 87.9762 334.789 88.3958 332.813 88.8051L333.421 91.7427C335.406 91.3314 337.393 90.9099 339.382 90.4777L338.745 87.5461ZM326.855 90.0099C324.861 90.4035 322.868 90.7869 320.878 91.1606L321.431 94.1091C323.431 93.7337 325.432 93.3485 327.436 92.9531L326.855 90.0099ZM314.913 92.2525C312.913 92.6093 310.916 92.9565 308.921 93.2944L309.422 96.2523C311.426 95.913 313.432 95.5642 315.44 95.2058L314.913 92.2525ZM302.915 94.2854C300.916 94.6065 298.919 94.9185 296.926 95.2217L297.378 98.1876C299.379 97.8831 301.383 97.5699 303.391 97.2474L302.915 94.2854ZM290.904 96.1131C288.891 96.4027 286.881 96.6837 284.876 96.9563L285.28 99.929C287.293 99.6553 289.31 99.3733 291.331 99.0825L290.904 96.1131ZM278.871 97.7495C276.849 98.0087 274.832 98.2598 272.819 98.503L273.179 101.481C275.199 101.237 277.224 100.985 279.252 100.725L278.871 97.7495ZM266.777 99.2113C264.768 99.4397 262.763 99.6605 260.763 99.8742L261.081 102.857C263.088 102.643 265.1 102.421 267.116 102.192L266.777 99.2113ZM254.684 100.503C252.662 100.706 250.645 100.901 248.634 101.09L248.914 104.077C250.931 103.888 252.954 103.692 254.983 103.488L254.684 100.503ZM242.597 101.638C240.562 101.817 238.532 101.989 236.509 102.155L236.755 105.145C238.783 104.979 240.818 104.806 242.86 104.627L242.597 101.638ZM230.459 102.635C228.431 102.791 226.409 102.94 224.395 103.084L224.609 106.076C226.628 105.932 228.655 105.782 230.689 105.626L230.459 102.635ZM218.308 103.504C216.286 103.639 214.272 103.768 212.266 103.893L212.452 106.887C214.462 106.762 216.481 106.632 218.507 106.497L218.308 103.504ZM206.168 104.258C204.134 104.376 202.108 104.489 200.091 104.598L200.252 107.593C202.273 107.484 204.303 107.371 206.341 107.253L206.168 104.258ZM194.044 104.913C191.995 105.017 189.956 105.116 187.927 105.212L188.069 108.209C190.101 108.113 192.143 108.013 194.195 107.91L194.044 104.913ZM181.87 105.491C179.828 105.582 177.797 105.67 175.777 105.755L175.904 108.752C177.926 108.667 179.959 108.579 182.003 108.488L181.87 105.491ZM169.684 106.006C167.658 106.088 165.644 106.168 163.641 106.246L163.758 109.243C165.761 109.165 167.777 109.086 169.805 109.004L169.684 106.006ZM157.509 106.481C155.477 106.558 153.459 106.634 151.455 106.71L151.567 109.707C153.572 109.632 155.59 109.556 157.622 109.479L157.509 106.481ZM145.343 106.939C143.3 107.017 141.271 107.094 139.258 107.172L139.373 110.169C141.386 110.092 143.413 110.015 145.457 109.937L145.343 106.939ZM133.186 107.41C131.129 107.493 129.09 107.576 127.068 107.662L127.195 110.659C129.214 110.574 131.251 110.49 133.306 110.408L133.186 107.41ZM121.031 107.927C118.962 108.021 116.912 108.118 114.883 108.219L115.032 111.215C117.057 111.115 119.102 111.018 121.168 110.924L121.031 107.927ZM108.856 108.533C106.781 108.647 104.729 108.765 102.701 108.889L102.884 111.884C104.906 111.76 106.951 111.642 109.02 111.529L108.856 108.533ZM96.6678 109.281C94.5924 109.424 92.5431 109.575 90.5207 109.734L90.7555 112.724C92.7677 112.566 94.8075 112.417 96.8742 112.274L96.6678 109.281ZM84.4974 110.239C82.4167 110.426 80.3668 110.623 78.3487 110.832L78.6576 113.816C80.6611 113.609 82.6973 113.413 84.7655 113.227L84.4974 110.239ZM72.3446 111.501C70.2602 111.75 68.2128 112.014 66.2036 112.295L66.6183 115.266C68.6067 114.988 70.6346 114.727 72.7011 114.479L72.3446 111.501ZM60.1779 113.205C58.1176 113.541 56.1017 113.898 54.1317 114.277L54.6984 117.223C56.6387 116.85 58.6267 116.498 60.6614 116.166L60.1779 113.205ZM48.0953 115.543C46.0684 116.005 44.0963 116.496 42.181 117.018L42.9699 119.913C44.8418 119.403 46.7734 118.922 48.763 118.467L48.0953 115.543ZM36.2429 118.799C34.2236 119.464 32.2778 120.173 30.4085 120.928L31.5318 123.709C33.3353 122.981 35.2193 122.295 37.182 121.648L36.2429 118.799ZM24.7592 123.472C22.8579 124.427 21.054 125.446 19.3523 126.533L20.9674 129.061C22.5752 128.034 24.2888 127.066 26.1062 126.152L24.7592 123.472ZM14.2961 130.223C12.6498 131.6 11.136 133.068 9.76163 134.636L12.0171 136.614C13.2838 135.169 14.6858 133.808 16.2209 132.524L14.2961 130.223ZM6.00058 139.742C4.91004 141.53 3.9711 143.419 3.18864 145.416L5.98189 146.511C6.70106 144.675 7.56246 142.942 8.5616 141.305L6.00058 139.742ZM1.37672 151.448C0.948094 153.425 0.649426 155.489 0.482648 157.644L3.4737 157.875C3.63057 155.849 3.9105 153.92 4.30861 152.084L1.37672 151.448ZM0.361242 163.897C0.431193 165.921 0.602421 168.017 0.876249 170.187L3.85264 169.811C3.58939 167.725 3.42604 165.72 3.35945 163.793L0.361242 163.897ZM1.85984 176.197C2.06528 177.229 2.29157 178.276 2.53887 179.34L5.46089 178.66C5.2206 177.627 5.0011 176.611 4.80212 175.611L1.85984 176.197ZM2.53887 179.34C2.77655 180.362 3.09304 181.368 3.48399 182.359L6.27453 181.258C5.93547 180.398 5.66382 179.533 5.46089 178.66L2.53887 179.34ZM6.50838 187.86C7.64473 189.461 8.97794 191.016 10.487 192.525L12.6085 190.404C11.2021 188.997 9.98149 187.57 8.95508 186.124L6.50838 187.86ZM15.0467 196.549C16.5716 197.749 18.212 198.923 19.958 200.069L21.6045 197.561C19.9224 196.457 18.3527 195.333 16.9026 194.192L15.0467 196.549ZM25.0965 203.199C26.7888 204.159 28.5568 205.1 30.3944 206.022L31.7399 203.341C29.9439 202.439 28.221 201.522 26.5767 200.589L25.0965 203.199ZM35.8122 208.598C37.5865 209.399 39.4136 210.185 41.2892 210.957L42.4304 208.182C40.5839 207.423 38.7879 206.65 37.0465 205.864L35.8122 208.598ZM46.8118 213.135C48.6385 213.826 50.504 214.505 52.4047 215.172L53.3977 212.341C51.5187 211.682 49.6763 211.011 47.8738 210.329L46.8118 213.135ZM58.0578 217.086C59.9188 217.694 61.8085 218.292 63.7241 218.878L64.6026 216.01C62.7041 215.429 60.8323 214.837 58.9901 214.234L58.0578 217.086ZM69.4068 220.566C71.2961 221.11 73.2069 221.645 75.1365 222.169L75.9233 219.274C74.0076 218.753 72.1114 218.223 70.2373 217.683L69.4068 220.566ZM80.883 223.688C82.7839 224.177 84.7003 224.656 86.6297 225.126L87.3403 222.212C85.4226 221.744 83.5183 221.268 81.6299 220.782L80.883 223.688ZM92.4105 226.5C94.3302 226.944 96.2603 227.38 98.1986 227.807L98.8439 224.877C96.9158 224.453 94.9961 224.019 93.0873 223.577L92.4105 226.5ZM103.995 229.053C105.928 229.459 107.867 229.856 109.809 230.244L110.398 227.302C108.464 226.916 106.534 226.52 104.611 226.117L103.995 229.053ZM115.628 231.38C117.571 231.751 119.516 232.113 121.46 232.467L121.997 229.515C120.061 229.163 118.124 228.802 116.19 228.434L115.628 231.38ZM127.294 233.504C129.247 233.843 131.197 234.174 133.143 234.496L133.633 231.536C131.695 231.215 129.752 230.886 127.807 230.548L127.294 233.504ZM138.999 235.443C140.954 235.752 142.903 236.052 144.842 236.344L145.288 233.377C143.356 233.086 141.415 232.787 139.467 232.48L138.999 235.443ZM150.724 237.207C152.694 237.489 154.653 237.761 156.597 238.026L157.001 235.053C155.064 234.79 153.112 234.518 151.148 234.237L150.724 237.207ZM162.449 238.799C164.437 239.055 166.406 239.302 168.355 239.538L168.717 236.56C166.775 236.324 164.813 236.079 162.832 235.824L162.449 238.799ZM174.25 240.233C176.235 240.459 178.194 240.676 180.123 240.882L180.442 237.899C178.519 237.693 176.568 237.478 174.59 237.252L174.25 240.233ZM186.015 241.488C188.03 241.687 190.007 241.875 191.943 242.05L192.214 239.062C190.286 238.888 188.317 238.701 186.311 238.502L186.015 241.488ZM197.861 242.561C199.888 242.726 201.861 242.878 203.773 243.015L203.988 240.023C202.086 239.886 200.123 239.736 198.105 239.571L197.861 242.561ZM209.69 243.406C211.758 243.53 213.738 243.636 215.622 243.722L215.76 240.725C213.891 240.64 211.925 240.535 209.87 240.411L209.69 243.406Z" fill="#F37021"/>
</svg>
