<svg width="118" height="71" viewBox="0 0 118 71" fill="none" xmlns="http://www.w3.org/2000/svg">
<path d="M9.00002 33.5L8.81945 33.9663L9.00002 33.5ZM112.5 26.5L112.143 26.15L112.5 26.5ZM0 67.5L5.08654 70.2314L4.90872 64.4606L0 67.5ZM4.58584 67.8009C5.57803 67.74 6.59734 67.6667 7.64179 67.581L7.56 66.5844C6.5221 66.6695 5.50963 66.7423 4.52455 66.8028L4.58584 67.8009ZM10.6904 67.3024C11.6855 67.2024 12.7 67.092 13.7324 66.971L13.616 65.9778C12.589 66.0982 11.58 66.208 10.5905 66.3074L10.6904 67.3024ZM16.7686 66.5914C17.7649 66.4591 18.7757 66.3175 19.7997 66.1665L19.6538 65.1772C18.6345 65.3275 17.6285 65.4684 16.637 65.6001L16.7686 66.5914ZM22.8262 65.6988C23.8229 65.5378 24.8305 65.3682 25.848 65.1899L25.6754 64.2049C24.6623 64.3824 23.659 64.5513 22.6667 64.7116L22.8262 65.6988ZM28.8562 64.6429C29.8475 64.456 30.8468 64.2612 31.8533 64.0583L31.6557 63.078C30.6533 63.2801 29.6581 63.4741 28.671 63.6602L28.8562 64.6429ZM34.8466 63.4355C35.8372 63.2229 36.8338 63.0027 37.8353 62.7748L37.6134 61.7997C36.6159 62.0267 35.6234 62.2461 34.6368 62.4578L34.8466 63.4355ZM40.8181 62.0766C41.8026 61.8396 42.7912 61.5953 43.783 61.3436L43.537 60.3743C42.5492 60.625 41.5647 60.8684 40.5841 61.1043L40.8181 62.0766ZM46.7412 60.573C47.7228 60.3107 48.7068 60.0412 49.6924 59.7644L49.422 58.8016C48.4405 59.0773 47.4606 59.3457 46.483 59.6069L46.7412 60.573ZM52.6346 58.9175C53.6092 58.6301 54.5846 58.3356 55.5602 58.0338L55.2647 57.0785C54.2934 57.3789 53.3221 57.6721 52.3517 57.9583L52.6346 58.9175ZM58.4761 57.1104C59.445 56.7963 60.4134 56.4751 61.3805 56.1466L61.0589 55.1997C60.0962 55.5267 59.1323 55.8464 58.1677 56.1591L58.4761 57.1104ZM64.2705 55.142C65.2308 54.8004 66.1893 54.4516 67.1452 54.0956L66.7961 53.1585C65.8449 53.5128 64.8911 53.8599 63.9353 54.1999L64.2705 55.142ZM70.0047 53.0053C70.9554 52.6344 71.9028 52.2562 72.8462 51.8706L72.4679 50.9449C71.5295 51.3284 70.587 51.7047 69.6412 52.0737L70.0047 53.0053ZM75.6694 50.6892C76.6091 50.2866 77.544 49.8766 78.4735 49.459L78.0637 48.5468C77.1396 48.962 76.21 49.3697 75.2756 49.77L75.6694 50.6892ZM81.2545 48.179C82.1791 47.743 83.0975 47.2993 84.0089 46.8478L83.5651 45.9518C82.6595 46.4003 81.7469 46.8412 80.828 47.2745L81.2545 48.179ZM86.7407 45.4602C87.6497 44.9866 88.5508 44.5049 89.4433 44.0152L88.9622 43.1385C88.0762 43.6247 87.1814 44.103 86.2786 44.5733L86.7407 45.4602ZM92.1116 42.5114C92.9982 41.9982 93.8752 41.4766 94.7417 40.9466L94.2199 40.0935C93.3604 40.6192 92.4905 41.1367 91.6107 41.646L92.1116 42.5114ZM97.3376 39.3125C98.2002 38.7536 99.0512 38.1858 99.8896 37.609L99.3228 36.7851C98.4922 37.3565 97.649 37.9192 96.7938 38.4733L97.3376 39.3125ZM102.39 35.834C103.219 35.2269 104.034 34.6103 104.834 33.9843L104.218 33.1967C103.426 33.8161 102.62 34.4262 101.799 35.0273L102.39 35.834ZM107.217 32.0543C108.007 31.3916 108.78 30.7188 109.536 30.0359L108.865 29.294C108.119 29.9684 107.355 30.6332 106.574 31.2883L107.217 32.0543ZM111.775 27.9309C112.141 27.5733 112.501 27.213 112.857 26.85L112.143 26.15C111.792 26.5079 111.436 26.8633 111.076 27.2162L111.775 27.9309ZM112.857 26.85C113.25 26.4488 113.619 26.0558 113.963 25.6711L113.217 25.0046C112.884 25.3771 112.526 25.7588 112.143 26.15L112.857 26.85ZM115.797 23.3734C116.449 22.4355 116.938 21.5472 117.268 20.7063L116.337 20.3415C116.042 21.094 115.594 21.9134 114.976 22.8027L115.797 23.3734ZM117.737 17.5596C117.59 16.4663 117.082 15.5177 116.281 14.7109L115.572 15.4154C116.239 16.0875 116.631 16.8417 116.746 17.6927L117.737 17.5596ZM113.699 12.9739C112.857 12.5792 111.9 12.2387 110.844 11.9474L110.578 12.9115C111.593 13.1912 112.494 13.5136 113.274 13.8792L113.699 12.9739ZM107.91 11.3032C106.991 11.1445 106.018 11.0109 104.997 10.901L104.89 11.8953C105.893 12.0032 106.844 12.134 107.74 12.2887L107.91 11.3032ZM102.034 10.6553C101.063 10.5964 100.058 10.5547 99.021 10.5294L98.9966 11.5291C100.022 11.5542 101.016 11.5954 101.974 11.6535L102.034 10.6553ZM96.1002 10.5002C95.1293 10.5037 94.1357 10.5195 93.1219 10.547L93.1491 11.5467C94.1556 11.5193 95.1412 11.5037 96.1038 11.5002L96.1002 10.5002ZM90.1667 10.6575C89.1974 10.7032 88.2125 10.7584 87.2139 10.8228L87.2782 11.8207C88.2714 11.7567 89.2505 11.7018 90.2138 11.6564L90.1667 10.6575ZM84.2547 11.0365C83.2852 11.1139 82.3049 11.199 81.3153 11.2916L81.4084 12.2872C82.3937 12.1951 83.3694 12.1103 84.3342 12.0334L84.2547 11.0365ZM78.3647 11.5863C77.3939 11.6893 76.4157 11.7988 75.4315 11.9146L75.5484 12.9078C76.5289 12.7924 77.5033 12.6833 78.4702 12.5807L78.3647 11.5863ZM72.4936 12.2762C71.5212 12.4011 70.5443 12.5316 69.5643 12.6675L69.7016 13.658C70.6784 13.5226 71.652 13.3925 72.621 13.2681L72.4936 12.2762ZM66.6387 13.0872C65.6655 13.2315 64.6904 13.3807 63.7146 13.5345L63.8703 14.5223C64.8431 14.369 65.8152 14.2202 66.7853 14.0764L66.6387 13.0872ZM60.7989 14.0072C59.8262 14.1692 58.8541 14.3355 57.8837 14.5058L58.0565 15.4908C59.0241 15.321 59.9934 15.1552 60.9632 14.9936L60.7989 14.0072ZM54.9748 15.029C54.0041 15.2078 53.0364 15.3903 52.0728 15.5762L52.2622 16.5581C53.2231 16.3727 54.188 16.1907 55.156 16.0124L54.9748 15.029ZM49.168 16.1495C48.2003 16.3448 47.238 16.5432 46.2827 16.7446L46.4889 17.7231C47.4414 17.5223 48.4008 17.3244 49.3658 17.1297L49.168 16.1495ZM43.3808 17.3695C42.4159 17.5818 41.4596 17.7968 40.5132 18.0141L40.737 18.9888C41.6804 18.7721 42.6338 18.5578 43.5957 18.3461L43.3808 17.3695ZM37.6162 18.6942C36.6525 18.9255 35.7012 19.1589 34.7637 19.3941L35.007 20.3641C35.9411 20.1297 36.8891 19.8971 37.8496 19.6666L37.6162 18.6942ZM31.88 20.1349C30.9134 20.3891 29.9644 20.645 29.0349 20.9019L29.3014 21.8658C30.2267 21.61 31.1716 21.3552 32.1344 21.102L31.88 20.1349ZM26.1854 21.7111C25.2092 21.996 24.2591 22.2817 23.3374 22.5676L23.6336 23.5227C24.5497 23.2386 25.4945 22.9545 26.4655 22.671L26.1854 21.7111ZM20.569 23.4554C19.5762 23.7851 18.6247 24.1142 17.7184 24.4418L18.0583 25.3822C18.9557 25.0579 19.8989 24.7316 20.8841 24.4044L20.569 23.4554ZM14.931 25.5025C13.9463 25.8986 13.0345 26.2915 12.2034 26.6794L12.6264 27.5855C13.4384 27.2065 14.3332 26.8208 15.3042 26.4302L14.931 25.5025ZM9.53702 28.0727C8.47701 28.7074 7.64334 29.3409 7.10834 29.9704L7.87031 30.618C8.3018 30.1103 9.02789 29.5431 10.0507 28.9307L9.53702 28.0727ZM7.34187 33.1828C7.72388 33.4746 8.21941 33.7339 8.81945 33.9663L9.18058 33.0337C8.63476 32.8224 8.23166 32.6041 7.94894 32.3882L7.34187 33.1828ZM8.81945 33.9663C9.26598 34.1392 9.81904 34.2359 10.4467 34.2761L10.5106 33.2781C9.93655 33.2414 9.49548 33.1557 9.18058 33.0337L8.81945 33.9663ZM13.6154 34.1373C14.5527 34.0273 15.5858 33.8625 16.6986 33.648L16.5093 32.6661C15.4152 32.877 14.4069 33.0375 13.4989 33.1441L13.6154 34.1373ZM19.73 32.9886C20.6949 32.7575 21.7016 32.4984 22.7426 32.2133L22.4785 31.2488C21.4468 31.5313 20.4507 31.7878 19.4971 32.0161L19.73 32.9886ZM25.7118 31.3577C26.6737 31.0674 27.6573 30.7586 28.6576 30.4326L28.3478 29.4818C27.3541 29.8057 26.3776 30.1122 25.4229 30.4003L25.7118 31.3577ZM31.5855 29.4457C32.5457 29.1115 33.5166 28.7633 34.4944 28.4024L34.1481 27.4643C33.1761 27.8231 32.211 28.1691 31.2568 28.5012L31.5855 29.4457ZM37.3837 27.3057C38.3384 26.9334 39.296 26.5501 40.2528 26.1567L39.8726 25.2318C38.9215 25.6229 37.9695 26.0039 37.0204 26.3741L37.3837 27.3057ZM43.1005 24.9551C44.0473 24.5451 44.99 24.126 45.9251 23.699L45.5097 22.7894C44.5807 23.2136 43.644 23.63 42.7031 24.0375L43.1005 24.9551ZM48.7242 22.3852C49.6603 21.9335 50.5849 21.4744 51.4944 21.0089L51.0388 20.1187C50.1366 20.5805 49.219 21.0361 48.2896 21.4846L48.7242 22.3852ZM54.2311 19.563C55.1521 19.0602 56.0523 18.5514 56.9272 18.0378L56.421 17.1754C55.5556 17.6834 54.6645 18.1871 53.7519 18.6852L54.2311 19.563ZM59.5718 16.4201C60.4675 15.8479 61.3278 15.2713 62.1469 14.6917L61.5693 13.8754C60.7643 14.445 59.9172 15.0128 59.0335 15.5773L59.5718 16.4201ZM64.6214 12.828C65.4766 12.1384 66.2672 11.446 66.9828 10.7533L66.2873 10.0348C65.5964 10.7035 64.8291 11.376 63.9937 12.0495L64.6214 12.828ZM69.0891 8.43068C69.7978 7.517 70.3618 6.59981 70.7506 5.68507L69.8304 5.29383C69.4827 6.11174 68.9681 6.95504 68.2989 7.8178L69.0891 8.43068ZM71.3439 2.45878C71.3008 1.90179 71.1761 1.35359 70.9654 0.817174L70.0347 1.18283C70.2091 1.62698 70.3114 2.07797 70.3469 2.536L71.3439 2.45878Z" fill="#F37021"/>
</svg>
