<svg width="114" height="72" viewBox="0 0 114 72" fill="none" xmlns="http://www.w3.org/2000/svg">
<path d="M6.99999 31.0001L6.68244 31.3863L6.99999 31.0001ZM54.7015 5.66048L54.8439 5.1812L54.7015 5.66048ZM3.49999 68L8.31534 71.1853L8.66617 65.4225L3.49999 68ZM7.97392 68.7449C8.96679 68.7896 9.95395 68.8278 10.9353 68.8595L10.9676 67.86C9.99049 67.8285 9.00756 67.7905 8.01892 67.7459L7.97392 68.7449ZM13.9423 68.9369C14.9442 68.9561 15.9397 68.9685 16.9287 68.9743L16.9346 67.9743C15.95 67.9686 14.959 67.9562 13.9615 67.9371L13.9423 68.9369ZM19.9002 68.9715C20.9108 68.9637 21.9142 68.9489 22.9103 68.9272L22.8886 67.9275C21.8972 67.9491 20.8984 67.9638 19.8925 67.9716L19.9002 68.9715ZM25.8764 68.8417C26.885 68.8054 27.8856 68.7619 28.8781 68.7116L28.8274 67.7128C27.8398 67.763 26.8441 67.8062 25.8404 67.8423L25.8764 68.8417ZM31.8604 68.5377C32.859 68.4718 33.8489 68.3988 34.8299 68.3189L34.7487 67.3222C33.7729 67.4017 32.7881 67.4743 31.7946 67.5398L31.8604 68.5377ZM37.8249 68.0504C38.814 67.9536 39.7935 67.8496 40.7632 67.7385L40.6494 66.745C39.6852 66.8554 38.7112 66.9589 37.7275 67.0551L37.8249 68.0504ZM43.7658 67.3681C44.7559 67.2371 45.735 67.0985 46.703 66.9528L46.554 65.9639C45.592 66.1088 44.6188 66.2465 43.6346 66.3767L43.7658 67.3681ZM49.6778 66.4759C50.6666 66.3076 51.6428 66.1316 52.6063 65.9481L52.4191 64.9657C51.4622 65.1481 50.4924 65.3229 49.5101 65.4901L49.6778 66.4759ZM55.5528 65.3548C56.5367 65.1459 57.5061 64.9288 58.4608 64.7039L58.2315 63.7306C57.2841 63.9537 56.3218 64.1692 55.3451 64.3766L55.5528 65.3548ZM61.3786 63.9805C62.3524 63.7266 63.3096 63.4643 64.2497 63.1939L63.9732 62.2328C63.0413 62.5009 62.0923 62.761 61.1263 63.0128L61.3786 63.9805ZM67.1353 62.3214C68.092 62.0176 69.0292 61.705 69.9463 61.384L69.6159 60.4401C68.7082 60.7578 67.7803 61.0673 66.8326 61.3683L67.1353 62.3214ZM72.7909 60.3367C73.7346 59.9713 74.6545 59.5966 75.5499 59.2128L75.156 58.2937C74.2718 58.6726 73.3629 59.0429 72.4299 59.4041L72.7909 60.3367ZM78.2924 57.9733C79.2201 57.531 80.1176 57.0784 80.9842 56.6159L80.5134 55.7337C79.6607 56.1887 78.7767 56.6346 77.862 57.0707L78.2924 57.9733ZM83.5798 55.1459C84.4652 54.6133 85.3119 54.0693 86.1188 53.5148L85.5525 52.6907C84.763 53.2332 83.9333 53.7662 83.0643 54.289L83.5798 55.1459ZM88.5559 51.7116C89.3684 51.0626 90.1292 50.4009 90.8367 49.7276L90.1473 49.0032C89.4621 49.6553 88.7232 50.2981 87.9318 50.9303L88.5559 51.7116ZM92.919 47.5318C93.5971 46.733 94.2032 45.92 94.7343 45.0943L93.8933 44.5533C93.3878 45.3392 92.8084 46.1169 92.1566 46.8847L92.919 47.5318ZM96.1792 42.4001C96.5943 41.4383 96.9095 40.4627 97.1205 39.4762L96.1427 39.267C95.9461 40.1859 95.6516 41.0989 95.261 42.0038L96.1792 42.4001ZM97.4364 36.4149C97.4295 35.4011 97.3122 34.3822 97.0817 33.3611L96.1063 33.5813C96.3212 34.5336 96.43 35.4811 96.4365 36.4217L97.4364 36.4149ZM96.1184 30.4528C95.7254 29.555 95.2437 28.659 94.672 27.7664L93.8299 28.3058C94.3753 29.1572 94.8317 30.0072 95.2023 30.8538L96.1184 30.4528ZM92.8656 25.3143C92.2388 24.5631 91.546 23.8153 90.7864 23.0718L90.0869 23.7865C90.8242 24.5082 91.494 25.2314 92.0978 25.955L92.8656 25.3143ZM88.5636 21.0683C87.8247 20.452 87.0378 19.8392 86.2025 19.2303L85.6135 20.0384C86.4323 20.6352 87.2018 21.2347 87.9231 21.8362L88.5636 21.0683ZM83.686 17.504C82.8819 16.9836 82.0408 16.4666 81.1622 15.9533L80.6577 16.8167C81.5238 17.3228 82.352 17.8318 83.1427 18.3435L83.686 17.504ZM78.529 14.4862C77.672 14.0303 76.784 13.5776 75.8648 13.1285L75.4258 14.027C76.3351 14.4713 77.2129 14.9188 78.0594 15.3691L78.529 14.4862ZM73.1505 11.8541C72.2641 11.4538 71.3518 11.0567 70.4133 10.6629L70.0263 11.585C70.9569 11.9755 71.861 12.369 72.7389 12.7655L73.1505 11.8541ZM67.6199 9.53115C66.72 9.17898 65.7982 8.82971 64.8543 8.48351L64.5099 9.42235C65.4473 9.76616 66.3624 10.1129 67.2554 10.4624L67.6199 9.53115ZM61.9682 7.45846C61.0652 7.14784 60.1436 6.83992 59.2032 6.5348L58.8946 7.48599C59.8296 7.78934 60.7456 8.09541 61.6429 8.40407L61.9682 7.45846ZM56.3254 5.62802C55.8363 5.47834 55.3425 5.3294 54.8439 5.1812L54.559 6.13975C55.055 6.28719 55.5463 6.43536 56.0328 6.58424L56.3254 5.62802ZM54.8439 5.1812C54.3758 5.04205 53.8925 4.9131 53.3954 4.79414L53.1626 5.76667C53.6434 5.88173 54.1092 6.00606 54.559 6.13975L54.8439 5.1812ZM50.4293 4.22369C49.4713 4.07951 48.4768 3.96465 47.4527 3.87809L47.3685 4.87453C48.3729 4.95943 49.3457 5.07188 50.2805 5.21256L50.4293 4.22369ZM44.4587 3.70713C43.4778 3.67638 42.477 3.66841 41.4613 3.68253L41.4752 4.68243C42.4766 4.66851 43.4623 4.67638 44.4274 4.70663L44.4587 3.70713ZM38.4684 3.78533C37.4818 3.83876 36.4861 3.91149 35.4853 4.00295L35.5763 4.9988C36.5651 4.90844 37.5485 4.83662 38.5225 4.78386L38.4684 3.78533ZM32.515 4.32756C31.5284 4.45289 30.541 4.59571 29.5568 4.7555L29.7171 5.74258C30.6899 5.58463 31.6659 5.44346 32.641 5.31958L32.515 4.32756ZM26.6143 5.28596C25.6313 5.48102 24.6556 5.69287 23.6913 5.921L23.9215 6.89414C24.8738 6.66887 25.8376 6.45958 26.8089 6.26683L26.6143 5.28596ZM20.7931 6.66574C19.8195 6.93657 18.8624 7.22445 17.9267 7.52883L18.2361 8.47978C19.1575 8.18006 20.1007 7.89631 21.0611 7.62917L20.7931 6.66574ZM15.1031 8.52319C14.1485 8.88684 13.2238 9.26908 12.3348 9.66927L12.7453 10.5811C13.615 10.1896 14.5215 9.81486 15.4591 9.45768L15.1031 8.52319ZM9.62809 11.0055C8.711 11.5032 7.84715 12.0238 7.04561 12.5666L7.60629 13.3946C8.37773 12.8722 9.21328 12.3684 10.1051 11.8844L9.62809 11.0055ZM4.64533 14.4309C3.84745 15.1511 3.15382 15.9059 2.58376 16.6943L3.3941 17.2802C3.91654 16.5577 4.56071 15.8545 5.31538 15.1733L4.64533 14.4309ZM1.15884 19.4744C0.845373 20.4836 0.733584 21.5314 0.85101 22.6105L1.84514 22.5024C1.74306 21.5642 1.83955 20.6541 2.11383 19.7711L1.15884 19.4744ZM1.74481 25.5945C2.16162 26.4474 2.72031 27.3092 3.42773 28.1788L4.20348 27.5478C3.53715 26.7286 3.02208 25.9306 2.64326 25.1554L1.74481 25.5945ZM5.50917 30.368C5.87704 30.7061 6.26796 31.0455 6.68244 31.3863L7.31754 30.6139C6.9164 30.284 6.5394 29.9566 6.18581 29.6317L5.50917 30.368ZM6.68244 31.3863C7.0736 31.7079 7.46778 32.0189 7.86488 32.3195L8.46838 31.5221C8.08206 31.2297 7.69842 30.927 7.31754 30.6139L6.68244 31.3863ZM10.3017 34.0115C11.1481 34.5485 12.0061 35.042 12.875 35.4938L13.3363 34.6066C12.4929 34.168 11.6597 33.6888 10.8374 33.1671L10.3017 34.0115ZM15.5793 36.7532C16.5018 37.1346 17.4348 37.4729 18.3775 37.7701L18.6781 36.8163C17.7626 36.5277 16.8568 36.1993 15.9614 35.8291L15.5793 36.7532ZM21.249 38.5434C22.2152 38.7608 23.19 38.9385 24.1725 39.0785L24.3136 38.0885C23.3566 37.9521 22.408 37.7792 21.4685 37.5678L21.249 38.5434ZM27.128 39.3863C28.1117 39.4523 29.102 39.4835 30.098 39.4818L30.0963 38.4818C29.1223 38.4835 28.1549 38.453 27.1949 38.3886L27.128 39.3863ZM33.0608 39.3827C34.0385 39.3199 35.0209 39.2278 36.0071 39.1083L35.8868 38.1155C34.9184 38.2329 33.9548 38.3232 32.9966 38.3848L33.0608 39.3827ZM38.9341 38.6762C39.8991 38.509 40.8671 38.3174 41.8375 38.1031L41.6218 37.1266C40.6657 37.3378 39.7126 37.5264 38.7633 37.6909L38.9341 38.6762ZM44.7146 37.404C45.659 37.1542 46.6051 36.8844 47.5522 36.5961L47.2609 35.6394C46.3251 35.9243 45.3909 36.1907 44.4588 36.4373L44.7146 37.404ZM50.3581 35.6899C51.2841 35.3741 52.2104 35.0419 53.1366 34.6948L52.7856 33.7584C51.8683 34.1022 50.9514 34.431 50.0353 34.7434L50.3581 35.6899ZM55.8872 33.6205C56.793 33.2528 57.6981 32.8719 58.6019 32.4792L58.2034 31.562C57.3066 31.9517 56.409 32.3294 55.511 32.6939L55.8872 33.6205ZM61.2897 31.2754C62.1795 30.8653 63.0676 30.4447 63.9534 30.015L63.5169 29.1153C62.6367 29.5423 61.7546 29.96 60.8711 30.3672L61.2897 31.2754ZM66.5917 28.705C67.4655 28.2616 68.3366 27.8101 69.2044 27.3519L68.7375 26.4676C67.8742 26.9235 67.0079 27.3724 66.1391 27.8133L66.5917 28.705ZM71.7971 25.9584C72.6582 25.4876 73.5156 25.0112 74.3688 24.5303L73.8777 23.6591C73.0281 24.1381 72.1745 24.6124 71.3174 25.081L71.7971 25.9584ZM76.9222 23.0709C77.7736 22.578 78.6201 22.0816 79.4613 21.583L78.9513 20.7227C78.1129 21.2197 77.2693 21.7144 76.4211 22.2056L76.9222 23.0709ZM81.9835 20.0724C82.8245 19.5637 83.6596 19.054 84.488 18.5444L83.9641 17.6926C83.1376 18.201 82.3047 18.7094 81.4659 19.2167L81.9835 20.0724ZM86.9901 16.9943C87.8286 16.4713 88.6595 15.9499 89.4822 15.4313L88.9489 14.5853C88.1273 15.1032 87.2978 15.6238 86.4609 16.1458L86.9901 16.9943ZM91.9632 13.8612C92.7965 13.3321 93.6205 12.8074 94.4343 12.2888L93.8968 11.4455C93.0832 11.964 92.2598 12.4883 91.4272 13.017L91.9632 13.8612ZM96.9113 10.71C97.7511 10.175 98.5788 9.64848 99.3936 9.13216L98.8584 8.28747C98.0426 8.80439 97.2142 9.33138 96.374 9.86659L96.9113 10.71ZM101.878 7.56588C102.725 7.03535 103.555 6.51883 104.369 6.01847L103.845 5.16662C103.029 5.66875 102.195 6.18679 101.347 6.71849L101.878 7.56588ZM106.873 4.49931C107.738 3.98278 108.581 3.48927 109.4 3.02172L108.904 2.15335C108.078 2.62462 107.23 3.12146 106.361 3.64073L106.873 4.49931ZM111.957 1.60674C112.389 1.37692 112.812 1.15643 113.226 0.945785L112.774 0.0542147C112.353 0.268082 111.924 0.491618 111.487 0.724248L111.957 1.60674Z" fill="#F37021"/>
</svg>
