<svg width="183" height="83" viewBox="0 0 183 83" fill="none" xmlns="http://www.w3.org/2000/svg">
<path d="M102 81.9792L102.014 82.479L102 81.9792ZM14.5 78L19.089 81.5035L19.8286 75.7776L14.5 78ZM18.7924 79.0472C19.765 79.1665 20.7331 79.2825 21.697 79.3954L21.8133 78.4022C20.8513 78.2895 19.885 78.1737 18.9141 78.0546L18.7924 79.0472ZM24.6035 79.7279C25.5767 79.8364 26.546 79.9418 27.5117 80.0441L27.617 79.0496C26.6532 78.9476 25.6858 78.8424 24.7143 78.734L24.6035 79.7279ZM30.4218 80.3437C31.3955 80.4411 32.366 80.5354 33.3335 80.6264L33.4272 79.6308C32.4617 79.54 31.4932 79.4459 30.5213 79.3487L30.4218 80.3437ZM36.2468 80.8919C37.2209 80.9778 38.1925 81.0604 39.1618 81.1399L39.2435 80.1433C38.2762 80.0639 37.3067 79.9814 36.3346 79.8958L36.2468 80.8919ZM42.0787 81.3703C43.0532 81.4443 44.0259 81.5152 44.9973 81.5829L45.0669 80.5854C44.0976 80.5177 43.1269 80.447 42.1544 80.3732L42.0787 81.3703ZM47.9169 81.7777C48.8912 81.8396 49.8646 81.8986 50.8375 81.9545L50.8949 80.9562C49.924 80.9003 48.9527 80.8415 47.9804 80.7797L47.9169 81.7777ZM53.759 82.1135C54.7331 82.1636 55.707 82.2107 56.6813 82.2549L56.7267 81.2559C55.7543 81.2118 54.7824 81.1648 53.8103 81.1149L53.759 82.1135ZM59.6045 82.3788C60.5781 82.4172 61.5526 82.4527 62.5283 82.4855L62.5619 81.4861C61.5881 81.4534 60.6156 81.4179 59.6438 81.3796L59.6045 82.3788ZM65.4528 82.5753C66.426 82.6025 67.4009 82.6269 68.3779 82.6487L68.4002 81.6489C67.4251 81.6272 66.452 81.6028 65.4807 81.5757L65.4528 82.5753ZM71.3031 82.706C72.2755 82.7224 73.2503 82.7363 74.2279 82.7477L74.2396 81.7478C73.2637 81.7364 72.2906 81.7225 71.32 81.7061L71.3031 82.706ZM77.1528 82.7744C78.1244 82.7808 79.0992 82.7848 80.0776 82.7866L80.0794 81.7866C79.1026 81.7848 78.1294 81.7808 77.1594 81.7744L77.1528 82.7744ZM83.0025 82.7849C83.9734 82.7821 84.9482 82.7771 85.9273 82.77L85.92 81.77C84.9424 81.7771 83.9691 81.7821 82.9996 81.7849L83.0025 82.7849ZM88.8519 82.7424C89.8221 82.7312 90.7968 82.718 91.7763 82.7028L91.7608 81.7029C90.7826 81.7181 89.8093 81.7313 88.8404 81.7425L88.8519 82.7424ZM94.7005 82.6519C95.6701 82.6332 96.6446 82.6126 97.6244 82.5902L97.6016 81.5905C96.6229 81.6129 95.6496 81.6334 94.6812 81.6521L94.7005 82.6519ZM100.548 82.5185C101.035 82.5058 101.524 82.4926 102.014 82.479L101.986 81.4794C101.497 81.493 101.009 81.5061 100.522 81.5189L100.548 82.5185ZM102.014 82.479C102.521 82.4649 103.026 82.4493 103.528 82.4323L103.494 81.4328C102.994 81.4498 102.491 81.4653 101.986 81.4794L102.014 82.479ZM106.514 82.3125C107.499 82.2668 108.476 82.2153 109.443 82.1582L109.384 81.16C108.421 81.2168 107.449 81.268 106.467 81.3136L106.514 82.3125ZM112.426 81.9623C113.424 81.89 114.412 81.8117 115.39 81.7274L115.304 80.7311C114.331 80.815 113.347 80.893 112.354 80.9649L112.426 81.9623ZM118.304 81.4556C119.314 81.3542 120.312 81.2464 121.298 81.1323L121.183 80.1389C120.202 80.2524 119.209 80.3597 118.204 80.4606L118.304 81.4556ZM124.222 80.7717C125.218 80.6411 126.201 80.504 127.172 80.3606L127.026 79.3713C126.06 79.5139 125.083 79.6503 124.092 79.7802L124.222 80.7717ZM130.112 79.9011C131.092 79.7393 132.058 79.571 133.011 79.3965L132.831 78.4129C131.884 78.5863 130.923 78.7536 129.949 78.9145L130.112 79.9011ZM135.958 78.8282C136.925 78.6321 137.878 78.4293 138.815 78.2202L138.598 77.2442C137.666 77.4519 136.72 77.6533 135.759 77.8482L135.958 78.8282ZM141.755 77.532C142.718 77.2957 143.665 77.0524 144.594 76.8027L144.334 75.837C143.412 76.0848 142.473 76.3262 141.517 76.5608L141.755 77.532ZM147.493 75.9863C148.446 75.7055 149.379 75.4176 150.293 75.1231L149.987 74.1713C149.081 74.4632 148.156 74.7486 147.211 75.0271L147.493 75.9863ZM153.152 74.1584C154.094 73.8257 155.013 73.4856 155.91 73.1387L155.549 72.2061C154.662 72.5493 153.752 72.886 152.819 73.2156L153.152 74.1584ZM158.696 72.0085C159.628 71.6122 160.533 71.2082 161.41 70.7972L160.985 69.8917C160.119 70.2974 159.226 70.6965 158.305 71.0883L158.696 72.0085ZM164.068 69.4876C164.982 69.0139 165.862 68.5323 166.708 68.0436L166.208 67.1778C165.376 67.6585 164.509 68.1328 163.608 68.5998L164.068 69.4876ZM169.247 66.4898C170.1 65.9361 170.912 65.375 171.682 64.8075L171.088 64.0025C170.335 64.5577 169.54 65.1076 168.703 65.6509L169.247 66.4898ZM174.047 62.9329C174.84 62.2555 175.575 61.571 176.253 60.8811L175.54 60.1801C174.884 60.8481 174.169 61.5129 173.397 62.1727L174.047 62.9329ZM178.252 58.625C178.905 57.7996 179.478 56.969 179.969 56.1362L179.108 55.6282C178.641 56.4188 178.095 57.212 177.468 58.0046L178.252 58.625ZM181.287 53.4005C181.657 52.4115 181.911 51.424 182.046 50.4437L181.055 50.307C180.931 51.2094 180.696 52.1254 180.351 53.0502L181.287 53.4005ZM182.074 47.3586C181.948 46.3442 181.687 45.3495 181.291 44.3817L180.366 44.7604C180.729 45.6477 180.967 46.5565 181.081 47.4815L182.074 47.3586ZM179.795 41.6992C179.225 40.9039 178.553 40.1358 177.78 39.3988L177.09 40.1223C177.821 40.8198 178.452 41.5412 178.983 42.2819L179.795 41.6992ZM175.435 37.4759C174.653 36.9207 173.804 36.3882 172.888 35.8806L172.403 36.7554C173.289 37.2463 174.107 37.7591 174.856 38.2912L175.435 37.4759ZM170.211 34.5544C169.335 34.1659 168.411 33.7961 167.438 33.4465L167.1 34.3876C168.051 34.7295 168.953 35.0903 169.806 35.4686L170.211 34.5544ZM164.58 32.5184C163.65 32.2463 162.683 31.9905 161.678 31.7518L161.447 32.7247C162.435 32.9596 163.386 33.2111 164.299 33.4782L164.58 32.5184ZM158.796 31.1341C157.837 30.95 156.849 30.7802 155.831 30.6253L155.681 31.6139C156.687 31.7669 157.662 31.9346 158.607 32.1162L158.796 31.1341ZM152.901 30.231C151.937 30.1176 150.949 30.0167 149.937 29.9288L149.851 30.925C150.853 31.0121 151.831 31.1119 152.784 31.2241L152.901 30.231ZM146.968 29.7127C146 29.6555 145.013 29.6095 144.005 29.5752L143.971 30.5746C144.971 30.6087 145.95 30.6543 146.909 30.711L146.968 29.7127ZM141.03 29.5084C140.525 29.5028 140.015 29.5 139.5 29.5V30.5C140.011 30.5 140.517 30.5028 141.019 30.5084L141.03 29.5084ZM139.5 29.5C138.986 29.5 138.474 29.4997 137.964 29.4992L137.963 30.4992C138.474 30.4997 138.986 30.5 139.5 30.5V29.5ZM134.92 29.4931C133.911 29.4901 132.909 29.4861 131.912 29.481L131.907 30.481C132.904 30.486 133.908 30.4901 134.917 30.4931L134.92 29.4931ZM128.942 29.4629C127.958 29.4559 126.98 29.448 126.008 29.439L125.999 30.439C126.971 30.4479 127.95 30.4559 128.935 30.4629L128.942 29.4629ZM123.037 29.4084C122.014 29.3967 120.998 29.384 119.988 29.3702L119.975 30.3701C120.985 30.3839 122.002 30.3967 123.026 30.4083L123.037 29.4084ZM116.981 29.3255C115.985 29.3096 114.996 29.2926 114.015 29.2746L113.996 30.2744C114.979 30.2924 115.968 30.3095 116.965 30.3254L116.981 29.3255ZM111.089 29.2173C110.081 29.1964 109.081 29.1743 108.088 29.1512L108.064 30.1509C109.058 30.1741 110.06 30.1961 111.069 30.2171L111.089 29.2173ZM105.048 29.0763C104.043 29.0502 103.045 29.0229 102.056 28.9946L102.027 29.9942C103.018 30.0226 104.016 30.0498 105.022 30.076L105.048 29.0763ZM99.1098 28.9061C98.128 28.8753 97.1542 28.8433 96.1881 28.8103L96.1539 29.8097C97.1209 29.8428 98.0957 29.8748 99.0784 29.9056L99.1098 28.9061ZM93.1252 28.7008C92.1132 28.663 91.11 28.6241 90.1157 28.5839L90.0754 29.5831C91.0707 29.6233 92.0749 29.6623 93.088 29.7001L93.1252 28.7008ZM87.1595 28.4597C86.183 28.4171 85.2153 28.3734 84.2565 28.3284L84.2097 29.3273C85.1696 29.3723 86.1384 29.4161 87.116 29.4588L87.1595 28.4597ZM81.198 28.1797C80.1837 28.1285 79.1796 28.076 78.1858 28.0222L78.1317 29.0208C79.1268 29.0746 80.1321 29.1272 81.1476 29.1784L81.198 28.1797ZM75.2348 27.857C74.2558 27.8003 73.287 27.7423 72.3286 27.6831L72.2669 28.6812C73.2267 28.7405 74.1967 28.7986 75.177 28.8553L75.2348 27.857ZM69.2636 27.4871C68.2538 27.4204 67.2559 27.3522 66.2699 27.2826L66.1995 28.2801C67.187 28.3498 68.1864 28.4181 69.1976 28.4849L69.2636 27.4871ZM63.3472 27.0697C62.3408 26.9941 61.3474 26.917 60.3667 26.8384L60.2869 27.8352C61.2692 27.9139 62.2643 27.9911 63.2723 28.0669L63.3472 27.0697ZM57.34 26.5879C56.345 26.5029 55.3639 26.4163 54.3967 26.3283L54.3061 27.3242C55.2751 27.4124 56.258 27.4991 57.2548 27.5843L57.34 26.5879ZM51.4716 26.0536C50.4407 25.9537 49.4264 25.852 48.4287 25.7487L48.3257 26.7434C49.3256 26.8469 50.3421 26.9488 51.3751 27.0489L51.4716 26.0536ZM45.4853 25.434C44.4939 25.3245 43.52 25.2133 42.5635 25.1005L42.4464 26.0937C43.4054 26.2067 44.3818 26.3182 45.3755 26.4279L45.4853 25.434ZM39.5335 24.7306C38.5435 24.6055 37.5736 24.4786 36.6236 24.35L36.4895 25.341C37.4425 25.47 38.4153 25.5973 39.4081 25.7227L39.5335 24.7306ZM33.6511 23.9327C32.6372 23.7851 31.6481 23.6354 30.6835 23.4839L30.5283 24.4718C31.4967 24.6239 32.4896 24.7741 33.507 24.9223L33.6511 23.9327ZM27.8053 23.0139C26.7721 22.8385 25.7702 22.6608 24.7992 22.4811L24.6172 23.4644C25.5932 23.6451 26.6 23.8236 27.6379 23.9998L27.8053 23.0139ZM21.9663 21.9331C20.9252 21.7226 19.9246 21.5096 18.9641 21.2944L18.7454 22.2702C19.7131 22.487 20.7206 22.7015 21.7681 22.9133L21.9663 21.9331ZM16.1275 20.6234C15.1039 20.3675 14.1347 20.109 13.2193 19.8483L12.9454 20.81C13.872 21.0739 14.8517 21.3352 15.8849 21.5935L16.1275 20.6234ZM10.3675 18.9722C9.36686 18.6394 8.45126 18.3042 7.61926 17.9676L7.24426 18.8946C8.09843 19.2402 9.03408 19.5825 10.0518 19.9211L10.3675 18.9722ZM4.96761 16.7434C3.94871 16.1976 3.15604 15.6579 2.57405 15.1314L1.90321 15.873C2.56344 16.4703 3.42992 17.0541 4.49537 17.6249L4.96761 16.7434ZM1.33705 13.0009C1.32359 12.3514 1.67056 11.6383 2.53869 10.8713L1.87656 10.1219C0.892088 10.9917 0.315339 11.9633 0.337266 13.0217L1.33705 13.0009ZM4.92523 9.3289C5.69982 8.9371 6.5971 8.55095 7.61672 8.1728L7.26899 7.23521C6.22168 7.62362 5.28872 8.0244 4.47387 8.43656L4.92523 9.3289ZM10.4168 7.24652C11.3154 6.97965 12.2781 6.71866 13.3042 6.4643L13.0636 5.49368C12.0243 5.7513 11.0469 6.01624 10.1321 6.2879L10.4168 7.24652ZM16.2195 5.79598C17.1371 5.60119 18.095 5.41119 19.093 5.22636L18.9109 4.24308C17.905 4.42939 16.9385 4.62107 16.0119 4.81778L16.2195 5.79598ZM22.0874 4.70701C23.0198 4.55557 23.9819 4.4083 24.9734 4.26543L24.8308 3.27565C23.8336 3.41933 22.8656 3.5675 21.9271 3.71995L22.0874 4.70701ZM27.9772 3.85778C28.9232 3.73695 29.8929 3.61989 30.886 3.50678L30.7729 2.5132C29.7754 2.62681 28.8012 2.74441 27.8505 2.86584L27.9772 3.85778ZM33.9192 3.1811C34.867 3.0853 35.834 2.99291 36.8202 2.90408L36.7305 1.90811C35.7408 1.99726 34.7701 2.08999 33.8187 2.18617L33.9192 3.1811ZM39.8362 2.64835C40.8012 2.57148 41.7831 2.49786 42.7817 2.42762L42.7116 1.43008C41.7099 1.50054 40.7249 1.57438 39.7567 1.65151L39.8362 2.64835ZM45.7545 2.23162C46.748 2.17039 47.7568 2.11239 48.781 2.05772L48.7276 1.05914C47.7008 1.11396 46.6893 1.17211 45.693 1.23351L45.7545 2.23162ZM51.707 1.91253C52.6958 1.86712 53.6979 1.82472 54.7134 1.78541L54.6747 0.786155C53.6569 0.825556 52.6523 0.868057 51.6611 0.913581L51.707 1.91253ZM57.7071 1.67977C58.6782 1.64877 59.6608 1.62052 60.6548 1.5951L60.6292 0.595423C59.6331 0.620902 58.6484 0.649208 57.6752 0.680277L57.7071 1.67977ZM63.6708 1.52734C64.1792 1.51748 64.6904 1.50834 65.2044 1.49993L65.188 0.500067C64.673 0.508494 64.1608 0.517652 63.6514 0.527533L63.6708 1.52734Z" fill="#F37021"/>
</svg>
