<svg width="88" height="92" viewBox="0 0 88 92" fill="none" xmlns="http://www.w3.org/2000/svg">
<path d="M19 58L19.0338 58.4989L19 58ZM69 92L74.7126 91.1638L71.1321 86.6346L69 92ZM62.7437 0.0707029C62.3198 0.323769 61.8926 0.579831 61.4621 0.838769L61.9776 1.69567C62.4071 1.4373 62.8334 1.1818 63.2563 0.929297L62.7437 0.0707029ZM58.8659 2.41204C58.0143 2.93186 57.1526 3.46149 56.2825 4.00007L56.8088 4.85036C57.6772 4.31287 58.5371 3.78433 59.3869 3.2656L58.8659 2.41204ZM53.7209 5.59661C52.8733 6.12847 52.0195 6.66781 51.161 7.21388L51.6978 8.05764C52.5545 7.51268 53.4065 6.97444 54.2524 6.44365L53.7209 5.59661ZM48.6068 8.84974C47.7635 9.39356 46.9171 9.94306 46.069 10.4976L46.6163 11.3345C47.4625 10.7812 48.3072 10.2328 49.1488 9.69016L48.6068 8.84974ZM43.5414 12.1619C42.7015 12.7189 41.8613 13.2802 41.0221 13.8449L41.5804 14.6746C42.4177 14.1111 43.2561 13.5511 44.0941 12.9953L43.5414 12.1619ZM38.5164 15.5442C37.6821 16.1143 36.85 16.6874 36.0217 17.2627L36.5921 18.084C37.4183 17.5102 38.2483 16.9386 39.0806 16.3698L38.5164 15.5442ZM33.5401 19.0007C32.7138 19.5845 31.8926 20.1699 31.0777 20.7562L31.6617 21.5679C32.4742 20.9833 33.2931 20.3996 34.1171 19.8175L33.5401 19.0007ZM28.6237 22.5391C27.8029 23.1414 26.9903 23.744 26.1873 24.3461L26.7872 25.1462C27.5874 24.5462 28.3972 23.9457 29.2153 23.3453L28.6237 22.5391ZM23.7759 26.1755C22.9681 26.7957 22.1722 27.4146 21.3896 28.0315L22.0087 28.8169C22.7878 28.2027 23.5804 27.5864 24.3849 26.9687L23.7759 26.1755ZM19.014 29.9319C18.2158 30.5802 17.4345 31.2254 16.6719 31.8665L17.3153 32.632C18.0734 31.9947 18.8504 31.3531 19.6445 30.7081L19.014 29.9319ZM14.369 33.8404C13.5919 34.5203 12.8388 35.1944 12.1119 35.8615L12.7881 36.5983C13.5087 35.9369 14.2559 35.2681 15.0275 34.593L14.369 33.8404ZM9.90856 37.942C9.15878 38.672 8.44499 39.3918 7.77067 40.0999L8.49482 40.7895C9.15959 40.0915 9.86443 39.3806 10.6061 38.6586L9.90856 37.942ZM5.71931 42.3612C5.01478 43.1813 4.37207 43.9828 3.79765 44.7626L4.60279 45.3557C5.16026 44.5989 5.78703 43.817 6.47786 43.0128L5.71931 42.3612ZM2.10236 47.352C1.54421 48.3416 1.1213 49.2934 0.856306 50.1987L1.81603 50.4796C2.05435 49.6655 2.44231 48.7848 2.97336 47.8433L2.10236 47.352ZM0.663957 53.4369C0.910343 54.5058 1.50991 55.4303 2.47009 56.1862L3.08864 55.4005C2.29119 54.7727 1.82909 54.0395 1.63841 53.2123L0.663957 53.4369ZM5.29995 57.6183C6.18792 57.9083 7.20537 58.1401 8.35717 58.3122L8.50498 57.3232C7.39638 57.1575 6.43492 56.937 5.61039 56.6677L5.29995 57.6183ZM11.4105 58.6116C12.3529 58.663 13.3629 58.6859 14.4426 58.6791L14.4363 57.6791C13.3744 57.6858 12.3849 57.6633 11.465 57.6131L11.4105 58.6116ZM17.4448 58.5923C17.9611 58.5668 18.4907 58.5357 19.0338 58.4989L18.9662 57.5011C18.4289 57.5376 17.9054 57.5683 17.3955 57.5935L17.4448 58.5923ZM19.0338 58.4989C19.5386 58.4646 20.0412 58.4313 20.5417 58.3987L20.4768 57.4008C19.9754 57.4334 19.4718 57.4669 18.9662 57.5011L19.0338 58.4989ZM23.5184 58.2138C24.5246 58.1543 25.5217 58.0984 26.5092 58.0461L26.4564 57.0475C25.4667 57.0999 24.4676 57.1559 23.4593 57.2156L23.5184 58.2138ZM29.4748 57.899C30.4865 57.8523 31.4875 57.8096 32.4777 57.7711L32.4389 56.7719C31.4461 56.8105 30.4427 56.8532 29.4287 56.9001L29.4748 57.899ZM35.4491 57.6671C36.4588 57.6358 37.4565 57.6091 38.4418 57.5871L38.4194 56.5873C37.4311 56.6094 36.4306 56.6362 35.4181 56.6676L35.4491 57.6671ZM41.431 57.5342C42.432 57.5213 43.4192 57.5136 44.3924 57.5111L44.3898 56.5111C43.4131 56.5136 42.4224 56.5213 41.4181 56.5343L41.431 57.5342ZM47.3994 57.5208C48.4109 57.5301 49.4058 57.5455 50.3838 57.5672L50.406 56.5675C49.4235 56.5457 48.4242 56.5302 47.4086 56.5208L47.3994 57.5208ZM53.3463 57.6542C54.3637 57.6916 55.3609 57.7365 56.3373 57.7889L56.3909 56.7904C55.4086 56.7376 54.4058 56.6925 53.3831 56.6548L53.3463 57.6542ZM59.3212 57.9776C60.3354 58.0519 61.3245 58.1353 62.2879 58.2279L62.3836 57.2325C61.4123 57.1391 60.4156 57.0551 59.3942 56.9802L59.3212 57.9776ZM65.2391 58.5509C66.2511 58.676 67.2301 58.8128 68.1754 58.9615L68.3308 57.9737C67.3739 57.8232 66.3839 57.6849 65.3618 57.5585L65.2391 58.5509ZM71.0946 59.4804C72.1065 59.6828 73.0713 59.9015 73.9877 60.1367L74.2363 59.1681C73.3009 58.928 72.3185 58.7054 71.2908 58.4998L71.0946 59.4804ZM76.8314 60.972C77.8218 61.305 78.7361 61.6626 79.5727 62.0452L79.9886 61.1358C79.1161 60.7368 78.1688 60.3666 77.15 60.0241L76.8314 60.972ZM82.1036 63.4353C82.973 64.0149 83.6987 64.6353 84.281 65.2958L85.0311 64.6345C84.382 63.8982 83.5871 63.2225 82.6583 62.6033L82.1036 63.4353ZM85.7019 67.6729C85.9965 68.5171 86.1172 69.4267 86.0516 70.4089L87.0494 70.4756C87.1234 69.3675 86.9877 68.3226 86.646 67.3435L85.7019 67.6729ZM85.4294 73.1932C85.1294 74.0162 84.7212 74.8816 84.199 75.7904L85.066 76.2887C85.6124 75.3379 86.0465 74.4204 86.3689 73.5356L85.4294 73.1932ZM82.5888 78.2407C82.0421 78.9849 81.4284 79.7531 80.7461 80.5457L81.5039 81.1981C82.2012 80.3882 82.8311 79.5999 83.3947 78.8327L82.5888 78.2407ZM78.7517 82.7281C78.0963 83.4078 77.3948 84.1034 76.6463 84.8151L77.3354 85.5397C78.0935 84.8189 78.8053 84.1131 79.4715 83.4223L78.7517 82.7281ZM74.4485 86.8315C73.7242 87.4741 72.9643 88.1289 72.1682 88.796L72.8104 89.5625C73.6133 88.8897 74.3804 88.2288 75.1122 87.5795L74.4485 86.8315Z" fill="#F37021"/>
</svg>
