<svg width="598" height="129" viewBox="0 0 598 129" fill="none" xmlns="http://www.w3.org/2000/svg">
<path d="M349.5 56.5L349.634 55.006L349.5 56.5ZM16.5 129L15.224 111.727L0.902771 121.468L16.5 129ZM13.0283 120.531C12.0685 118.685 11.274 116.89 10.6373 115.146L7.81923 116.175C8.50419 118.051 9.35247 119.964 10.3665 121.914L13.0283 120.531ZM9.09077 109.527C8.73339 107.554 8.59389 105.651 8.65948 103.816L5.66139 103.709C5.58768 105.771 5.74534 107.889 6.1388 110.061L9.09077 109.527ZM9.5423 98.2075C10.0593 96.3996 10.7974 94.6489 11.7512 92.9526L9.13618 91.4823C8.07336 93.3725 7.24229 95.3391 6.65791 97.3827L9.5423 98.2075ZM15.0695 88.2398C16.276 86.8266 17.6492 85.4536 19.1854 84.1208L17.2196 81.8547C15.5817 83.2755 14.101 84.7539 12.7879 86.2919L15.0695 88.2398ZM23.8439 80.5403C25.4116 79.4645 27.0938 78.4198 28.8872 77.4063L27.4111 74.7945C25.5491 75.8469 23.7923 76.9372 22.1465 78.0666L23.8439 80.5403ZM34.2279 74.6342C35.9678 73.8026 37.788 72.9951 39.6861 72.2114L38.5413 69.4385C36.5968 70.2413 34.7267 71.0707 32.9342 71.9274L34.2279 74.6342ZM45.2552 70.0601C47.1144 69.3875 49.0354 68.7346 51.0161 68.1014L50.1025 65.2439C48.0882 65.8879 46.1314 66.5528 44.2345 67.2391L45.2552 70.0601ZM56.7275 66.376C58.6279 65.8335 60.5757 65.307 62.5693 64.7964L61.825 61.8902C59.8063 62.4072 57.832 62.9408 55.9039 63.4913L56.7275 66.376ZM68.434 63.37C70.3605 62.9252 72.3247 62.4938 74.3254 62.0758L73.7118 59.1392C71.6915 59.5613 69.7068 59.9972 67.759 60.447L68.434 63.37ZM80.2711 60.8926C82.2187 60.5236 84.1974 60.1662 86.206 59.8204L85.697 56.8639C83.6725 57.2125 81.6774 57.5728 79.7127 57.945L80.2711 60.8926ZM92.1889 58.8379C94.1567 58.5298 96.1506 58.232 98.1698 57.9445L97.7468 54.9744C95.7144 55.2639 93.7068 55.5637 91.7249 55.874L92.1889 58.8379ZM104.164 57.13C106.152 56.8725 108.162 56.6242 110.194 56.3852L109.844 53.4057C107.8 53.6461 105.778 53.8958 103.778 54.1549L104.164 57.13ZM116.184 55.7134C118.192 55.499 120.22 55.2931 122.266 55.0956L121.977 52.1095C119.921 52.3079 117.884 52.5149 115.866 52.7304L116.184 55.7134ZM128.244 54.5467C130.254 54.3715 132.28 54.204 134.322 54.0441L134.088 51.0532C132.037 51.2138 130.002 51.382 127.983 51.558L128.244 54.5467ZM140.339 53.5982C142.341 53.458 144.358 53.3248 146.388 53.1985L146.202 50.2042C144.164 50.331 142.139 50.4647 140.129 50.6055L140.339 53.5982ZM152.464 52.8432C154.459 52.7339 156.467 52.631 158.486 52.5344L158.343 49.5379C156.317 49.6348 154.302 49.738 152.3 49.8477L152.464 52.8432ZM164.578 52.2637C166.579 52.1814 168.591 52.1051 170.612 52.0347L170.508 49.0365C168.48 49.1071 166.462 49.1836 164.455 49.2662L164.578 52.2637ZM176.672 51.8423C178.692 51.7843 180.723 51.7319 182.762 51.6852L182.693 48.686C180.648 48.7328 178.612 48.7853 176.585 48.8436L176.672 51.8423ZM188.794 51.5639C190.813 51.5288 192.84 51.4991 194.875 51.4747L194.839 48.4749C192.799 48.4994 190.766 48.5292 188.742 48.5643L188.794 51.5639ZM200.938 51.4178C202.949 51.4041 204.967 51.3954 206.991 51.3917L206.985 48.3917C204.956 48.3954 202.934 48.4041 200.918 48.4179L200.938 51.4178ZM213.082 51.3953C215.092 51.4014 217.108 51.4122 219.129 51.4277L219.152 48.4278C217.126 48.4122 215.106 48.4014 213.091 48.3953L213.082 51.3953ZM225.193 51.488C227.217 51.5128 229.246 51.5421 231.279 51.5759L231.328 48.5763C229.291 48.5424 227.258 48.513 225.23 48.4883L225.193 51.488ZM237.325 51.6896C239.344 51.7319 241.367 51.7785 243.394 51.8294L243.469 48.8304C241.439 48.7793 239.411 48.7326 237.388 48.6902L237.325 51.6896ZM249.466 51.9946C251.481 52.0535 253.499 52.1166 255.52 52.1838L255.619 49.1855C253.595 49.1182 251.573 49.0549 249.553 48.9959L249.466 51.9946ZM261.589 52.3977C263.608 52.4728 265.629 52.5519 267.652 52.635L267.775 49.6375C265.748 49.5543 263.723 49.475 261.7 49.3997L261.589 52.3977ZM273.71 52.8952C275.73 52.9859 277.752 53.0804 279.775 53.1787L279.92 50.1823C277.894 50.0838 275.868 49.9891 273.844 49.8983L273.71 52.8952ZM285.833 53.4844C287.852 53.59 289.872 53.6993 291.891 53.8123L292.058 50.817C290.035 50.7038 288.013 50.5943 285.99 50.4885L285.833 53.4844ZM297.948 54.1621C299.968 54.2824 301.988 54.4063 304.007 54.5338L304.196 51.5397C302.173 51.412 300.15 51.2879 298.127 51.1674L297.948 54.1621ZM310.061 54.9266C312.079 55.0612 314.095 55.1992 316.11 55.3406L316.32 52.3479C314.302 52.2063 312.282 52.068 310.26 51.9333L310.061 54.9266ZM322.17 55.7765C324.188 55.9252 326.204 56.0773 328.217 56.2327L328.448 53.2416C326.431 53.0859 324.412 52.9336 322.39 52.7846L322.17 55.7765ZM334.262 56.7098C336.284 56.8729 338.303 57.0394 340.319 57.209L340.571 54.2196C338.551 54.0496 336.529 53.8829 334.503 53.7195L334.262 56.7098ZM346.356 57.7276C347.361 57.8156 348.364 57.9044 349.366 57.994L349.634 55.006C348.629 54.9162 347.624 54.8272 346.618 54.7391L346.356 57.7276ZM349.366 57.994C350.362 58.083 351.354 58.1693 352.344 58.2528L352.596 55.2634C351.612 55.1803 350.624 55.0945 349.634 55.006L349.366 57.994ZM358.244 58.7218C360.214 58.8686 362.171 59.0046 364.116 59.13L364.309 56.1362C362.374 56.0114 360.427 55.8761 358.467 55.7301L358.244 58.7218ZM370.043 59.4819C372.01 59.5885 373.964 59.6842 375.905 59.7694L376.037 56.7723C374.106 56.6876 372.162 56.5923 370.206 56.4863L370.043 59.4819ZM381.853 59.9986C383.823 60.064 385.779 60.1184 387.721 60.1621L387.789 57.1628C385.857 57.1194 383.911 57.0653 381.953 57.0003L381.853 59.9986ZM393.671 60.263C395.645 60.2855 397.603 60.2969 399.548 60.2974L399.549 57.2974C397.615 57.2969 395.668 57.2855 393.706 57.2632L393.671 60.263ZM405.494 60.265C407.468 60.2429 409.428 60.2095 411.372 60.1652L411.304 57.166C409.371 57.21 407.423 57.2432 405.46 57.2652L405.494 60.265ZM417.315 59.9944C419.288 59.9259 421.245 59.846 423.186 59.7552L423.046 56.7585C421.117 56.8487 419.172 56.9281 417.211 56.9962L417.315 59.9944ZM429.128 59.4402C431.099 59.3233 433.053 59.1951 434.991 59.0558L434.775 56.0636C432.851 56.2019 430.909 56.3293 428.951 56.4454L429.128 59.4402ZM440.924 58.5908C442.898 58.4231 444.854 58.244 446.791 58.0537L446.498 55.0681C444.573 55.257 442.631 55.435 440.67 55.6015L440.924 58.5908ZM452.691 57.4344C454.668 57.2133 456.625 56.9807 458.562 56.737L458.187 53.7604C456.264 54.0024 454.32 54.2334 452.357 54.453L452.691 57.4344ZM464.415 55.9589C466.394 55.6816 468.351 55.3927 470.288 55.0927L469.828 52.1281C467.906 52.4258 465.963 52.7126 463.999 52.9879L464.415 55.9589ZM476.097 54.149C478.071 53.8134 480.021 53.4662 481.949 53.1081L481.401 50.1586C479.489 50.5139 477.553 50.8584 475.594 51.1915L476.097 54.149ZM487.759 51.9823C489.705 51.5893 491.626 51.1852 493.523 50.7707L492.883 47.8399C491.001 48.251 489.096 48.6518 487.165 49.0416L487.759 51.9823ZM499.326 49.4525C501.269 48.994 503.185 48.5247 505.073 48.0453L504.335 45.1375C502.463 45.6128 500.564 46.0781 498.637 46.5326L499.326 49.4525ZM510.768 46.547C512.708 46.0185 514.617 45.4794 516.496 44.9307L515.655 42.051C513.794 42.5946 511.902 43.1287 509.979 43.6525L510.768 46.547ZM522.173 43.2155C524.082 42.6191 525.957 42.013 527.799 41.3983L526.849 38.5527C525.026 39.1612 523.169 39.7613 521.278 40.352L522.173 43.2155ZM533.375 39.4752C535.275 38.7985 537.136 38.113 538.959 37.4202L537.893 34.6159C536.09 35.3013 534.249 35.9794 532.369 36.6491L533.375 39.4752ZM544.487 35.2491C546.355 34.4914 548.179 33.7266 549.959 32.9563L548.768 30.2031C547.009 30.9642 545.207 31.72 543.36 32.4691L544.487 35.2491ZM555.373 30.5347C557.21 29.686 558.994 28.8326 560.726 27.9765L559.396 25.287C557.688 26.1314 555.927 26.9736 554.115 27.8115L555.373 30.5347ZM566.011 25.2725C567.811 24.3191 569.547 23.3649 571.22 22.4126L569.736 19.8055C568.09 20.7425 566.38 21.6821 564.607 22.6214L566.011 25.2725ZM576.338 19.3851C578.089 18.3088 579.757 17.2385 581.343 16.1781L579.676 13.6841C578.122 14.7227 576.486 15.7726 574.767 16.8296L576.338 19.3851ZM586.203 12.7766C587.907 11.5262 589.491 10.2963 590.956 9.09369L589.052 6.77487C587.632 7.9412 586.09 9.13805 584.428 10.3582L586.203 12.7766ZM595.443 5.15313C596.203 4.43519 596.915 3.73067 597.58 3.04135L595.42 0.958655C594.789 1.61285 594.11 2.28503 593.382 2.97337L595.443 5.15313Z" fill="#F37021"/>
</svg>
