<svg width="183" height="51" viewBox="0 0 183 51" fill="none" xmlns="http://www.w3.org/2000/svg">
<g clip-path="url(#clip0_257_950)">
<path d="M32.1018 15.9304H32.0915V15.9407L18.0154 22.7607V37.8141L32.0915 50.9897V51H32.1018H32.1121V50.9897L46.7039 37.8141V22.7607L32.1018 15.9304ZM23.7902 28.5901L20.5728 25.8353V24.0194H23.7902V28.5901ZM35.938 41.5594L32.0915 41.58L28.2451 41.5594L27.3995 37.2569L28.8535 39.1244V39.176L28.8844 39.1657L28.8947 39.176V39.1657L32.0915 38.33L35.278 39.1657V39.176L35.2883 39.1657L35.3192 39.176V39.1244L36.7732 37.2569L35.938 41.5594ZM40.3413 24.0298H43.5587V25.8457L40.3413 28.6005V24.0298ZM38.7944 24.0401V28.5592L37.227 35.0077L37.2064 35.1212L35.2986 37.5768L32.1534 36.7514V36.7204L32.1018 36.7307L32.0503 36.7204V36.7514L28.905 37.5768L26.9973 35.1212L26.9767 35.0077L25.4092 28.5592V24.0401H32.1018H32.1121H38.7944ZM35.412 33.9966V34.4918H35.3811L32.1328 35.8641L28.8741 34.4815H28.8947V34.4506V33.9966V28.6108H27.5026V27.3727H29.2041L30.3488 28.6108H30.3591V28.6211V34.0069H33.9374V31.964H35.412V33.9966ZM36.7732 28.6005H33.9168L35.0717 27.3623H36.7732V28.6005Z" fill="#F37021"/>
<path d="M51.7774 12.8351V18.8193L47.8073 22.6884V37.2466L59.5425 26.248V21.8734L62.3165 19.1701V15.0225L64.7502 12.6597V0L51.7774 12.8351ZM63.2446 7.01598L55.2526 14.4344V16.3947L63.2446 8.96601V11.7518L55.2526 19.5106V21.471L60.8109 16.0542V18.5511L58.0369 21.2543V21.2749L55.2423 23.9988V25.9591L58.0369 23.2146V25.6083L49.2819 33.8108V23.3075L53.2521 19.4487V13.4542L63.2343 3.5699V7.01598H63.2446Z" fill="#A7A9AC"/>
<path d="M12.9624 12.8351L0 0V12.67L2.43368 15.0328V19.1805L5.20765 21.8837V26.2583L16.9326 37.2466V22.6781L12.9521 18.809V12.8351H12.9624ZM15.4476 23.3075V33.8005L6.69261 25.598V23.2146L9.48721 25.9591V23.9988L6.69261 21.2749V21.2543L3.91863 18.5511V16.0542L9.48721 21.4606V19.5003L1.49527 11.7415V8.95569L9.48721 16.3844V14.424L1.49527 7.01598V3.5699L11.4775 13.4542V19.4487L15.4476 23.3075Z" fill="#A7A9AC"/>
<path d="M68.7926 17.7668H65.6371V36.9679H80.8269V33.8107H68.7926V17.7668Z" fill="black"/>
<path d="M91.5412 22.7812H87.7257C84.2402 22.7812 82.5387 24.4527 82.5387 27.8782V31.8917C82.5387 35.3172 84.199 36.9783 87.6226 36.9783H96.7179V34.1513H87.6226C86.1583 34.1513 85.3642 33.3465 85.3642 31.8917V31.1282H96.7283V27.8782C96.7283 24.4424 95.0267 22.7812 91.5412 22.7812ZM93.9027 28.2909H85.3745V27.8678C85.3745 26.4027 86.1789 25.598 87.6329 25.598H91.6444C93.0984 25.598 93.9027 26.4027 93.9027 27.8678V28.2909Z" fill="black"/>
<path d="M108.01 22.7812H104.339C100.915 22.7812 99.2445 24.4527 99.2445 27.8782V32.2219C99.2445 35.6473 100.905 37.3085 104.339 37.3085H108.01C111.434 37.3085 113.104 35.6473 113.104 32.2219V27.8782C113.104 24.4424 111.434 22.7812 108.01 22.7812ZM110.279 32.2116C110.279 33.6663 109.474 34.4711 108.01 34.4711H104.339C102.874 34.4711 102.07 33.6663 102.07 32.2116V27.8678C102.07 26.4027 102.874 25.598 104.339 25.598H108.01C109.474 25.598 110.279 26.4027 110.279 27.8678V32.2116Z" fill="black"/>
<path d="M125.448 17.7668L121.22 31.871L117.095 17.7668H113.774L119.436 36.9679H123.004L127.232 22.8844L131.46 36.9679H135.038L140.699 17.7668H137.379L133.254 31.871L129.026 17.7668H125.448Z" fill="black"/>
<path d="M147.186 23.1113H143.968V36.9679H147.186V23.1113Z" fill="black"/>
<path d="M147.186 17.7668H143.968V20.5939H147.186V17.7668Z" fill="black"/>
<path d="M160.478 23.1113H151.713V36.9679H154.538V25.9384H160.478C161.932 25.9384 162.737 26.7431 162.737 28.1979V36.9679H165.562V28.1979C165.572 24.7725 163.902 23.1113 160.478 23.1113Z" fill="black"/>
<path d="M174.235 25.928H183V23.1113H174.235C170.811 23.1113 169.141 24.7725 169.141 28.1979V31.9019C169.141 35.3996 170.801 37.0608 174.235 37.0608H183V28.5487H176.627V31.4996H180.34V34.244H174.235C172.719 34.244 171.822 33.3877 171.822 31.9638V28.2598C171.822 26.7741 172.719 25.928 174.235 25.928Z" fill="black"/>
<path d="M68.081 49.1223C67.6582 49.1223 67.287 49.0501 66.9673 48.9263C66.6476 48.7922 66.3795 48.6064 66.163 48.3485C65.9464 48.0906 65.7814 47.8017 65.6783 47.4509C65.5649 47.1001 65.5133 46.7183 65.5133 46.2953C65.5133 45.862 65.5752 45.4802 65.6886 45.1294C65.802 44.7786 65.967 44.4794 66.1836 44.2215C66.4002 43.9738 66.6683 43.7778 66.9776 43.6334C67.287 43.4992 67.6376 43.427 68.0192 43.427C68.3182 43.427 68.5863 43.4476 68.8441 43.4992C69.1019 43.5508 69.2979 43.6127 69.4422 43.6849L69.2669 44.273C69.1226 44.2008 68.9679 44.1492 68.7926 44.108C68.6173 44.0667 68.3801 44.0461 68.0914 44.0461C67.4829 44.0461 67.0292 44.2421 66.7198 44.6342C66.4105 45.0262 66.2558 45.5731 66.2558 46.2953C66.2558 46.6151 66.2867 46.9144 66.3589 47.1826C66.4311 47.4509 66.5445 47.6882 66.6992 47.8739C66.8539 48.0699 67.0601 48.2144 67.3076 48.3279C67.5551 48.4414 67.8645 48.493 68.2151 48.493C68.5142 48.493 68.7616 48.462 68.9576 48.3898C69.1535 48.3279 69.2979 48.266 69.3907 48.2144L69.5351 48.8025C69.4113 48.8747 69.2154 48.9366 68.9369 49.0088C68.6585 49.0811 68.3698 49.1223 68.081 49.1223Z" fill="black"/>
<path d="M73.3609 43.458C73.5878 43.458 73.794 43.4786 74.0003 43.5096C74.1962 43.5405 74.3406 43.5818 74.4127 43.6128L74.2787 44.2009C74.2271 44.1699 74.1034 44.139 73.9384 44.108C73.7631 44.0771 73.5362 44.0564 73.2578 44.0564C72.9587 44.0564 72.7215 44.0771 72.5462 44.1183C72.3709 44.1596 72.2472 44.1906 72.1956 44.2215V48.9883H71.515V43.7985C71.6903 43.7263 71.9378 43.6437 72.2369 43.5612C72.5359 43.489 72.9175 43.458 73.3609 43.458Z" fill="black"/>
<path d="M75.8461 46.2747C75.8461 45.8001 75.9183 45.377 76.0523 45.0262C76.1864 44.6754 76.372 44.3762 76.5885 44.1389C76.8051 43.9016 77.0629 43.7262 77.3413 43.6024C77.6301 43.4889 77.9188 43.427 78.2179 43.427C78.8882 43.427 79.4141 43.6437 79.8163 44.077C80.2081 44.5104 80.4144 45.181 80.4144 46.0889C80.4144 46.1405 80.4144 46.2024 80.4041 46.254C80.4041 46.3056 80.3937 46.3675 80.3937 46.4088H76.5679C76.5885 47.0794 76.7535 47.585 77.0629 47.9461C77.3723 48.3072 77.8673 48.4826 78.5375 48.4826C78.9088 48.4826 79.2078 48.4517 79.4244 48.3795C79.6409 48.3072 79.7956 48.2453 79.8988 48.2041L80.0225 48.7922C79.9194 48.8438 79.7441 48.916 79.4656 48.9882C79.1975 49.0604 78.8778 49.1017 78.5169 49.1017C78.0426 49.1017 77.6301 49.0295 77.3001 48.8953C76.9598 48.7509 76.6814 48.5549 76.4648 48.3072C76.2482 48.0596 76.0936 47.7501 75.9904 47.4096C75.8976 47.0691 75.8461 46.6874 75.8461 46.2747ZM79.7131 45.8413C79.7028 45.2739 79.5688 44.8302 79.311 44.5104C79.0532 44.1905 78.7025 44.0357 78.2385 44.0357C77.991 44.0357 77.7744 44.0873 77.5785 44.1802C77.3826 44.2834 77.2176 44.4072 77.0732 44.5723C76.9288 44.7373 76.8154 44.9334 76.7329 45.15C76.6504 45.3667 76.6092 45.5937 76.5885 45.831H79.7131V45.8413Z" fill="black"/>
<path d="M84.3433 43.4373C84.7042 43.4373 85.0033 43.4888 85.2508 43.592C85.4983 43.6952 85.7045 43.8293 85.8592 44.015C86.0139 44.1904 86.1273 44.4071 86.1995 44.6547C86.2717 44.9024 86.3026 45.1706 86.3026 45.4595V48.8953C86.2305 48.9159 86.1273 48.9365 85.9933 48.9675C85.8592 48.9881 85.7045 49.0191 85.5292 49.05C85.3539 49.081 85.158 49.1016 84.9414 49.1223C84.7249 49.1429 84.5083 49.1532 84.2814 49.1532C83.9927 49.1532 83.7246 49.1223 83.4874 49.0604C83.2502 48.9985 83.0337 48.8953 82.8584 48.7611C82.6831 48.627 82.5387 48.4516 82.4356 48.235C82.3324 48.0183 82.2809 47.7603 82.2809 47.4508C82.2809 47.1516 82.3324 46.904 82.4459 46.6976C82.5593 46.4913 82.714 46.3159 82.9202 46.1714C83.1265 46.0373 83.3637 45.9341 83.6524 45.8722C83.9308 45.8103 84.2402 45.7794 84.5702 45.7794C84.6733 45.7794 84.7764 45.7794 84.8796 45.7897C84.993 45.8 85.0961 45.8103 85.1992 45.8309C85.3024 45.8516 85.3849 45.8619 85.457 45.8825C85.5292 45.9032 85.5808 45.9135 85.6117 45.9341V45.5936C85.6117 45.4079 85.6014 45.2222 85.5705 45.0365C85.5395 44.8611 85.4777 44.696 85.3849 44.5516C85.292 44.4071 85.158 44.2936 84.9827 44.2008C84.8074 44.1182 84.5805 44.0666 84.3021 44.0666C83.8999 44.0666 83.6008 44.0976 83.4049 44.1492C83.209 44.2008 83.0646 44.2523 82.9718 44.2833L82.879 43.6849C83.0027 43.6333 83.178 43.5714 83.4359 43.5301C83.6937 43.4579 83.9927 43.4373 84.3433 43.4373ZM84.4155 48.5032C84.6836 48.5032 84.9105 48.4929 85.1167 48.4826C85.3127 48.4619 85.488 48.4413 85.6323 48.4103V46.4913C85.5498 46.4603 85.4364 46.4191 85.2611 46.3778C85.0961 46.3365 84.8589 46.3159 84.5702 46.3159C84.4052 46.3159 84.2299 46.3262 84.0443 46.3571C83.8586 46.3778 83.6937 46.4294 83.539 46.5119C83.3843 46.5945 83.2605 46.7079 83.1574 46.8421C83.0543 46.9865 83.013 47.1722 83.013 47.3992C83.013 47.6056 83.044 47.7707 83.1162 47.9151C83.178 48.0596 83.2812 48.1627 83.4049 48.2556C83.5287 48.3381 83.673 48.4 83.8483 48.4413C84.003 48.4929 84.1886 48.5032 84.4155 48.5032Z" fill="black"/>
<path d="M89.4891 43.5611H91.6547V44.1388H89.4891V47.0381C89.4891 47.3476 89.5098 47.5953 89.5716 47.7913C89.6232 47.9873 89.6954 48.1318 89.7985 48.2349C89.9016 48.3381 90.0151 48.4103 90.1594 48.4413C90.2832 48.4826 90.4379 48.4929 90.6132 48.4929C90.9019 48.4929 91.1288 48.4619 91.3041 48.3897C91.4794 48.3278 91.6134 48.2659 91.7166 48.204L91.8816 48.7715C91.7784 48.8334 91.6134 48.9056 91.3659 48.9881C91.1185 49.0707 90.8503 49.1119 90.5616 49.1119C90.2213 49.1119 89.9429 49.0707 89.716 48.9778C89.4891 48.8953 89.3035 48.7611 89.1695 48.5754C89.0354 48.4 88.9323 48.173 88.8807 47.9048C88.8292 47.6365 88.7982 47.327 88.7982 46.9556V41.9412L89.4788 41.8174V43.5611H89.4891Z" fill="black"/>
<path d="M94.6555 41.9102C94.6555 42.0753 94.6039 42.1991 94.5111 42.292C94.408 42.3848 94.2946 42.4364 94.1502 42.4364C94.0058 42.4364 93.8924 42.3848 93.7893 42.292C93.6861 42.1991 93.6449 42.065 93.6449 41.9102C93.6449 41.7451 93.6965 41.6213 93.7893 41.5285C93.8924 41.4356 94.0058 41.384 94.1502 41.384C94.2946 41.384 94.408 41.4356 94.5111 41.5285C94.6039 41.6213 94.6555 41.7555 94.6555 41.9102ZM94.4905 48.9984H93.8099V43.5507H94.4905V48.9984Z" fill="black"/>
<path d="M98.8114 48.2658C98.9558 47.9666 99.1104 47.6158 99.2651 47.234C99.4198 46.842 99.5745 46.4396 99.7085 46.0269C99.8529 45.6039 99.987 45.1912 100.111 44.7681C100.234 44.3451 100.338 43.9427 100.42 43.5713H101.101C100.977 44.0665 100.833 44.5618 100.678 45.0467C100.523 45.5316 100.358 46.0062 100.183 46.4705C100.008 46.9348 99.8323 47.3785 99.6467 47.8118C99.461 48.2452 99.2754 48.6476 99.1001 49.019H98.4608C98.2752 48.6372 98.0895 48.2349 97.9142 47.8118C97.7286 47.3888 97.5533 46.9348 97.378 46.4705C97.2027 46.0062 97.0377 45.5316 96.883 45.0467C96.7283 44.5618 96.584 44.0665 96.4602 43.5713H97.1821C97.2646 43.9427 97.3677 44.3451 97.4914 44.7681C97.6152 45.1912 97.7492 45.6142 97.8936 46.0269C98.038 46.4396 98.1927 46.8523 98.3473 47.234C98.5123 47.6158 98.6567 47.9666 98.8114 48.2658Z" fill="black"/>
<path d="M102.647 46.2747C102.647 45.8001 102.72 45.377 102.854 45.0262C102.988 44.6754 103.173 44.3762 103.39 44.1389C103.606 43.9016 103.864 43.7262 104.143 43.6024C104.431 43.4889 104.72 43.427 105.019 43.427C105.69 43.427 106.215 43.6437 106.618 44.077C107.01 44.5104 107.216 45.181 107.216 46.0889C107.216 46.1405 107.216 46.2024 107.205 46.254C107.205 46.3056 107.195 46.3675 107.195 46.4088H103.369C103.39 47.0794 103.555 47.585 103.864 47.9461C104.174 48.3072 104.669 48.4826 105.339 48.4826C105.71 48.4826 106.009 48.4517 106.226 48.3795C106.442 48.3072 106.597 48.2453 106.7 48.2041L106.824 48.7922C106.721 48.8438 106.545 48.916 106.267 48.9882C105.999 49.0604 105.679 49.1017 105.318 49.1017C104.844 49.1017 104.431 49.0295 104.101 48.8953C103.761 48.7509 103.483 48.5549 103.266 48.3072C103.05 48.0596 102.895 47.7501 102.792 47.4096C102.699 47.0691 102.647 46.6874 102.647 46.2747ZM106.504 45.8413C106.494 45.2739 106.36 44.8302 106.102 44.5104C105.844 44.1905 105.494 44.0357 105.03 44.0357C104.782 44.0357 104.566 44.0873 104.37 44.1802C104.174 44.2834 104.009 44.4072 103.864 44.5723C103.72 44.7373 103.606 44.9334 103.524 45.15C103.441 45.3667 103.4 45.5937 103.38 45.831H106.504V45.8413Z" fill="black"/>
<path d="M115.754 43.5611H117.92V44.1388H115.754V47.0381C115.754 47.3476 115.775 47.5953 115.837 47.7913C115.888 47.9873 115.96 48.1318 116.064 48.2349C116.167 48.3381 116.28 48.4103 116.425 48.4413C116.569 48.4723 116.724 48.4929 116.889 48.4929C117.177 48.4929 117.404 48.4619 117.579 48.3897C117.755 48.3278 117.889 48.2659 117.992 48.204L118.157 48.7715C118.054 48.8334 117.889 48.9056 117.641 48.9881C117.394 49.0707 117.126 49.1119 116.837 49.1119C116.497 49.1119 116.218 49.0707 115.991 48.9778C115.765 48.8953 115.579 48.7611 115.445 48.5754C115.311 48.4 115.208 48.173 115.156 47.9048C115.105 47.6365 115.074 47.327 115.074 46.9556V41.9412L115.754 41.8174V43.5611Z" fill="black"/>
<path d="M119.642 46.2747C119.642 45.8001 119.714 45.377 119.848 45.0262C119.982 44.6754 120.168 44.3762 120.384 44.1389C120.601 43.9016 120.859 43.7262 121.137 43.6024C121.426 43.4889 121.715 43.427 122.014 43.427C122.684 43.427 123.21 43.6437 123.612 44.077C124.004 44.5104 124.21 45.181 124.21 46.0889C124.21 46.1405 124.21 46.2024 124.2 46.254C124.2 46.3056 124.19 46.3675 124.19 46.4088H120.364C120.384 47.0794 120.549 47.585 120.859 47.9461C121.168 48.3072 121.663 48.4826 122.333 48.4826C122.705 48.4826 123.004 48.4517 123.22 48.3795C123.437 48.3072 123.592 48.2453 123.695 48.2041L123.818 48.7922C123.715 48.8438 123.54 48.916 123.262 48.9882C122.993 49.0604 122.674 49.1017 122.313 49.1017C121.838 49.1017 121.426 49.0295 121.096 48.8953C120.756 48.7509 120.477 48.5549 120.261 48.3072C120.044 48.0596 119.889 47.7501 119.786 47.4096C119.694 47.0691 119.642 46.6874 119.642 46.2747ZM123.509 45.8413C123.499 45.2739 123.365 44.8302 123.107 44.5104C122.849 44.1905 122.498 44.0357 122.034 44.0357C121.787 44.0357 121.57 44.0873 121.374 44.1802C121.178 44.2834 121.013 44.4072 120.869 44.5723C120.725 44.7373 120.611 44.9334 120.529 45.15C120.446 45.3667 120.405 45.5937 120.384 45.831H123.509V45.8413Z" fill="black"/>
<path d="M128.809 49.1223C128.387 49.1223 128.015 49.0501 127.696 48.9263C127.376 48.7922 127.108 48.6064 126.891 48.3485C126.675 48.0906 126.51 47.8017 126.407 47.4509C126.293 47.1001 126.242 46.7183 126.242 46.2953C126.242 45.862 126.304 45.4802 126.417 45.1294C126.53 44.7786 126.695 44.4794 126.912 44.2215C127.129 43.9738 127.397 43.7778 127.706 43.6334C128.015 43.4992 128.366 43.427 128.748 43.427C129.047 43.427 129.315 43.4476 129.573 43.4992C129.83 43.5508 130.026 43.6127 130.171 43.6849L129.995 44.273C129.851 44.2008 129.696 44.1492 129.521 44.108C129.346 44.0667 129.108 44.0461 128.82 44.0461C128.211 44.0461 127.758 44.2421 127.448 44.6342C127.139 45.0262 126.984 45.5731 126.984 46.2953C126.984 46.6151 127.015 46.9144 127.087 47.1826C127.159 47.4509 127.273 47.6882 127.428 47.8739C127.582 48.0699 127.789 48.2144 128.036 48.3279C128.284 48.4414 128.593 48.493 128.943 48.493C129.243 48.493 129.49 48.462 129.686 48.3898C129.882 48.3279 130.026 48.266 130.119 48.2144L130.263 48.8025C130.14 48.8747 129.944 48.9366 129.665 49.0088C129.387 49.0811 129.108 49.1223 128.809 49.1223Z" fill="black"/>
<path d="M132.233 48.9985V40.9507L132.914 40.8269V43.7158C133.141 43.6333 133.368 43.5714 133.594 43.5198C133.821 43.4785 134.058 43.4476 134.285 43.4476C134.708 43.4476 135.059 43.5095 135.337 43.623C135.616 43.7468 135.842 43.9119 136.007 44.1285C136.172 44.3452 136.296 44.6135 136.358 44.923C136.42 45.2325 136.461 45.573 136.461 45.9444V48.9881H135.781V46.1611C135.781 45.7794 135.75 45.4492 135.698 45.1809C135.646 44.9127 135.554 44.696 135.44 44.5309C135.316 44.3658 135.152 44.242 134.945 44.1698C134.739 44.0976 134.481 44.0563 134.182 44.0563C134.058 44.0563 133.935 44.0666 133.801 44.0873C133.667 44.1079 133.532 44.1285 133.419 44.1595C133.295 44.1801 133.192 44.2111 133.099 44.242C133.007 44.273 132.945 44.2936 132.914 44.3039V48.9881H132.233V48.9985Z" fill="black"/>
<path d="M139.019 43.7469C139.225 43.6953 139.493 43.6231 139.844 43.5612C140.184 43.489 140.607 43.458 141.102 43.458C141.514 43.458 141.865 43.5199 142.133 43.6334C142.411 43.7572 142.628 43.9223 142.793 44.139C142.958 44.3556 143.071 44.6239 143.143 44.9334C143.216 45.243 143.247 45.5834 143.247 45.9549V48.9986H142.566V46.1715C142.566 45.7898 142.535 45.4596 142.483 45.1914C142.432 44.9231 142.339 44.7064 142.226 44.5414C142.112 44.3763 141.937 44.2525 141.741 44.1802C141.545 44.108 141.287 44.0667 140.988 44.0667C140.669 44.0667 140.39 44.0874 140.153 44.1183C139.916 44.1493 139.761 44.1802 139.699 44.2112V48.9883H139.019V43.7469Z" fill="black"/>
<path d="M150.455 46.2849C150.455 46.7183 150.393 47.1 150.269 47.4508C150.145 47.8016 149.97 48.1008 149.753 48.3484C149.537 48.5961 149.269 48.7818 148.97 48.9262C148.671 49.0707 148.33 49.1326 147.969 49.1326C147.609 49.1326 147.268 49.0604 146.969 48.9262C146.67 48.7921 146.402 48.5961 146.185 48.3484C145.959 48.1008 145.794 47.8016 145.67 47.4508C145.546 47.1 145.484 46.7079 145.484 46.2849C145.484 45.8516 145.546 45.4698 145.67 45.119C145.794 44.7682 145.969 44.469 146.185 44.2214C146.402 43.9738 146.67 43.7777 146.969 43.6436C147.268 43.5095 147.609 43.4373 147.969 43.4373C148.33 43.4373 148.671 43.5095 148.97 43.6436C149.269 43.7777 149.537 43.9738 149.753 44.2214C149.97 44.469 150.145 44.7682 150.269 45.119C150.393 45.4698 150.455 45.8619 150.455 46.2849ZM149.733 46.2849C149.733 45.604 149.578 45.0571 149.259 44.6547C148.939 44.2523 148.516 44.046 147.98 44.046C147.444 44.046 147.01 44.2523 146.701 44.6547C146.381 45.0571 146.227 45.604 146.227 46.2849C146.227 46.9659 146.381 47.5024 146.701 47.9048C147.021 48.3072 147.444 48.5032 147.98 48.5032C148.516 48.5032 148.949 48.3072 149.259 47.9048C149.578 47.5024 149.733 46.9659 149.733 46.2849Z" fill="black"/>
<path d="M154.116 49.1016C153.889 49.0913 153.682 49.0603 153.507 49.0087C153.332 48.9571 153.188 48.8746 153.074 48.7611C152.961 48.6476 152.868 48.5135 152.806 48.3381C152.744 48.1627 152.713 47.946 152.713 47.6881V40.961L153.394 40.8372V47.6777C153.394 47.8428 153.404 47.9769 153.445 48.0801C153.476 48.1833 153.528 48.2658 153.59 48.3277C153.652 48.3897 153.734 48.4309 153.837 48.4619C153.94 48.4928 154.064 48.5135 154.198 48.5341L154.116 49.1016Z" fill="black"/>
<path d="M160.798 46.2849C160.798 46.7183 160.736 47.1 160.612 47.4508C160.488 47.8016 160.313 48.1008 160.097 48.3484C159.88 48.5961 159.612 48.7818 159.313 48.9262C159.014 49.0707 158.674 49.1326 158.313 49.1326C157.952 49.1326 157.611 49.0604 157.312 48.9262C157.013 48.7921 156.745 48.5961 156.529 48.3484C156.302 48.1008 156.137 47.8016 156.013 47.4508C155.889 47.1 155.827 46.7079 155.827 46.2849C155.827 45.8516 155.889 45.4698 156.013 45.119C156.137 44.7682 156.312 44.469 156.529 44.2214C156.745 43.9738 157.013 43.7777 157.312 43.6436C157.611 43.5095 157.952 43.4373 158.313 43.4373C158.674 43.4373 159.014 43.5095 159.313 43.6436C159.612 43.7777 159.88 43.9738 160.097 44.2214C160.313 44.469 160.488 44.7682 160.612 45.119C160.736 45.4698 160.798 45.8619 160.798 46.2849ZM160.076 46.2849C160.076 45.604 159.921 45.0571 159.602 44.6547C159.282 44.2523 158.859 44.046 158.323 44.046C157.787 44.046 157.354 44.2523 157.044 44.6547C156.725 45.0571 156.57 45.604 156.57 46.2849C156.57 46.9659 156.725 47.5024 157.044 47.9048C157.364 48.3072 157.787 48.5032 158.323 48.5032C158.859 48.5032 159.292 48.3072 159.602 47.9048C159.911 47.5024 160.076 46.9659 160.076 46.2849Z" fill="black"/>
<path d="M166.666 48.3691C166.624 48.4001 166.562 48.4414 166.48 48.4929C166.397 48.5342 166.294 48.5858 166.171 48.6374C166.047 48.689 165.902 48.7302 165.748 48.7612C165.593 48.7922 165.418 48.8128 165.222 48.8128C164.902 48.8128 164.603 48.7612 164.304 48.6683C164.005 48.5652 163.747 48.4207 163.531 48.204C163.314 47.9977 163.128 47.7191 162.994 47.389C162.86 47.0588 162.798 46.6461 162.798 46.1715C162.798 45.7897 162.86 45.4286 162.974 45.0984C163.098 44.7683 163.263 44.4794 163.489 44.2421C163.706 43.9945 163.984 43.8087 164.304 43.6746C164.624 43.5405 164.985 43.4683 165.387 43.4683C165.892 43.4683 166.294 43.4992 166.604 43.5714C166.913 43.6333 167.161 43.7056 167.356 43.7675V48.7406C167.356 49.5557 167.15 50.1334 166.727 50.4842C166.305 50.835 165.676 51.0001 164.82 51.0001C164.469 51.0001 164.149 50.9692 163.871 50.9176C163.582 50.866 163.345 50.8041 163.139 50.7319L163.273 50.1128C163.438 50.185 163.675 50.2573 163.964 50.3088C164.252 50.3604 164.552 50.3914 164.84 50.3914C165.49 50.3914 165.954 50.2676 166.243 50.0199C166.531 49.7723 166.676 49.339 166.676 48.7406V48.3691H166.666ZM166.655 44.2214C166.531 44.1905 166.377 44.1492 166.191 44.1183C166.006 44.0873 165.727 44.0667 165.377 44.0667C165.077 44.0667 164.82 44.1183 164.593 44.2214C164.366 44.3246 164.17 44.4691 164.005 44.6548C163.84 44.8405 163.716 45.0572 163.634 45.3151C163.551 45.5731 163.51 45.8516 163.51 46.1612C163.51 46.5223 163.562 46.8318 163.654 47.0794C163.757 47.3374 163.881 47.5437 164.036 47.7088C164.191 47.8739 164.376 47.9874 164.582 48.0596C164.789 48.1318 164.995 48.1731 165.201 48.1731C165.511 48.1731 165.789 48.1318 166.047 48.039C166.305 47.9461 166.501 47.8429 166.645 47.7191V44.2214H166.655Z" fill="black"/>
<path d="M170.77 41.9102C170.77 42.0753 170.718 42.1991 170.625 42.292C170.522 42.3848 170.409 42.4364 170.264 42.4364C170.12 42.4364 170.007 42.3848 169.904 42.292C169.8 42.1991 169.759 42.065 169.759 41.9102C169.759 41.7451 169.811 41.6213 169.904 41.5285C170.007 41.4356 170.12 41.384 170.264 41.384C170.409 41.384 170.522 41.4356 170.625 41.5285C170.718 41.6213 170.77 41.7555 170.77 41.9102ZM170.615 48.9984H169.934V43.5507H170.615V48.9984Z" fill="black"/>
<path d="M172.894 46.2747C172.894 45.8001 172.966 45.377 173.1 45.0262C173.234 44.6754 173.42 44.3762 173.637 44.1389C173.853 43.9016 174.111 43.7262 174.389 43.6024C174.678 43.4889 174.967 43.427 175.266 43.427C175.936 43.427 176.462 43.6437 176.864 44.077C177.256 44.5104 177.462 45.181 177.462 46.0889C177.462 46.1405 177.462 46.2024 177.452 46.254C177.452 46.3056 177.442 46.3675 177.442 46.4088H173.616C173.637 47.0794 173.802 47.585 174.111 47.9461C174.42 48.3072 174.915 48.4826 175.586 48.4826C175.957 48.4826 176.256 48.4517 176.472 48.3795C176.689 48.3072 176.844 48.2453 176.947 48.2041L177.07 48.7922C176.967 48.8438 176.792 48.916 176.514 48.9882C176.245 49.0604 175.926 49.1017 175.565 49.1017C175.091 49.1017 174.678 49.0295 174.348 48.8953C174.008 48.7509 173.729 48.5549 173.513 48.3072C173.296 48.0596 173.142 47.7501 173.038 47.4096C172.946 47.0691 172.894 46.6874 172.894 46.2747ZM176.761 45.8413C176.751 45.2739 176.617 44.8302 176.359 44.5104C176.101 44.1905 175.751 44.0357 175.286 44.0357C175.039 44.0357 174.822 44.0873 174.626 44.1802C174.431 44.2834 174.266 44.4072 174.121 44.5723C173.977 44.7373 173.863 44.9334 173.781 45.15C173.698 45.3667 173.657 45.5937 173.637 45.831H176.761V45.8413Z" fill="black"/>
<path d="M180.927 48.5137C181.319 48.5137 181.649 48.4517 181.897 48.3176C182.154 48.1835 182.278 47.9668 182.278 47.6573C182.278 47.5128 182.258 47.389 182.206 47.2755C182.165 47.1724 182.082 47.0795 181.979 46.9866C181.876 46.9041 181.732 46.8216 181.567 46.739C181.391 46.6668 181.185 46.5739 180.927 46.4708C180.721 46.3882 180.535 46.2954 180.35 46.2128C180.164 46.1303 180.01 46.0271 179.865 45.9033C179.721 45.7898 179.618 45.6454 179.525 45.4906C179.442 45.3255 179.401 45.1295 179.401 44.9025C179.401 44.4588 179.566 44.0977 179.896 43.8295C180.226 43.5612 180.69 43.4167 181.268 43.4167C181.639 43.4167 181.948 43.4477 182.185 43.5096C182.423 43.5715 182.598 43.6334 182.691 43.6747L182.536 44.2834C182.454 44.2422 182.309 44.1802 182.113 44.1183C181.917 44.0461 181.618 44.0152 181.237 44.0152C181.082 44.0152 180.938 44.0358 180.804 44.0668C180.67 44.0977 180.546 44.1493 180.443 44.2112C180.34 44.2731 180.257 44.366 180.185 44.4691C180.123 44.5723 180.092 44.6961 180.092 44.8406C180.092 44.985 180.123 45.1192 180.175 45.2223C180.226 45.3255 180.309 45.4184 180.422 45.5009C180.535 45.5834 180.659 45.6557 180.824 45.7279C180.979 45.8001 181.164 45.8723 181.371 45.9549C181.577 46.0374 181.783 46.12 181.979 46.2128C182.175 46.2954 182.34 46.4089 182.484 46.5327C182.629 46.6565 182.753 46.8009 182.845 46.9763C182.938 47.1517 182.979 47.3684 182.979 47.6263C182.979 48.1216 182.794 48.493 182.423 48.7406C182.051 48.9883 181.546 49.1224 180.917 49.1224C180.443 49.1224 180.071 49.0811 179.824 48.9986C179.576 48.916 179.401 48.8541 179.319 48.8129L179.494 48.1938C179.515 48.2041 179.556 48.2351 179.628 48.266C179.7 48.297 179.793 48.3383 179.917 48.3692C180.04 48.4105 180.175 48.4414 180.34 48.4724C180.525 48.5033 180.711 48.5137 180.927 48.5137Z" fill="black"/>
</g>
<defs>
<clipPath id="clip0_257_950">
<rect width="183" height="51" fill="white"/>
</clipPath>
</defs>
</svg>
