<svg width="252" height="100" viewBox="0 0 252 60" fill="none" xmlns="http://www.w3.org/2000/svg">
<g clip-path="url(#clip0_173_528)">
<path d="M33.9026 19.4856L2.42627 43.9869C7.46046 53.5097 17.4723 60.0029 29.0054 60.0029C45.5964 60.0029 59.0467 46.5705 59.0467 30.0014C59.0467 29.5882 59.0348 29.1779 59.02 28.7676L33.9026 19.4856Z" fill="#A50430"/>
<path d="M41.4614 2.6936L34.9744 17.7077L56.9599 18.9891C54.0989 11.7586 48.511 5.90454 41.4614 2.6936Z" fill="#A50430"/>
<path d="M34.2539 0.457856C32.5481 0.157574 30.7976 0 29.0054 0C15.1264 0 3.44742 9.40389 0 22.1793L32.9083 17.6186L34.2539 0.457856Z" fill="#A50430"/>
<path d="M87.7456 14.8506C89.1954 14.0003 89.7313 12.8051 89.7313 11.4524V8.2444C89.7313 5.60131 87.9034 3.77881 85.2598 3.77881H73.7952V26.4249H85.5128C88.1594 26.4249 89.9844 24.5994 89.9844 21.9593V18.2459C89.9814 16.8961 89.3205 15.6058 87.7456 14.8506ZM78.3262 7.99168H84.1225C84.8162 7.99168 85.1943 8.36927 85.1943 9.062V11.7675C85.1943 12.6475 84.9412 12.8378 84.1225 12.8378H78.3262V7.99168ZM85.4473 21.1417C85.4473 21.8344 85.0692 22.212 84.3756 22.212H78.3262V16.8634H83.9945C84.8757 16.8634 85.4444 16.9258 85.4444 17.8713V21.1417H85.4473Z" fill="#A50430"/>
<path d="M109.064 22.1466H98.7665V16.9883H107.111V12.71H98.7665V8.05709H109.064V3.77881H94.2295V26.4249H109.064V22.1466Z" fill="#A50430"/>
<path d="M117.599 18.4362H124.655C127.301 18.4362 129.126 16.6107 129.126 13.9706V8.2444C129.126 5.60131 127.298 3.77881 124.655 3.77881H113.065V26.4249H117.599V18.4362ZM117.599 8.05709H123.521C124.214 8.05709 124.592 8.43467 124.592 9.1274V13.0905C124.592 13.7833 124.214 14.1609 123.521 14.1609H117.599V8.05709Z" fill="#A50430"/>
<path d="M136.998 26.4249H141.532V7.99168H147.453V3.77881H131.076V7.99168H136.998V26.4249Z" fill="#A50430"/>
<path d="M162.067 26.5498C164.714 26.5498 166.542 24.7244 166.542 22.0843V8.11964C166.542 5.47656 164.714 3.65405 162.067 3.65405H154.479C151.832 3.65405 150.004 5.47953 150.004 8.11964V22.0872C150.004 24.7303 151.832 26.5528 154.479 26.5528H162.067V26.5498ZM154.538 8.99967C154.538 8.30694 154.917 7.92936 155.61 7.92936H160.933C161.627 7.92936 162.005 8.30694 162.005 8.99967V21.2042C162.005 21.897 161.627 22.2745 160.933 22.2745H155.61C154.917 22.2745 154.538 21.897 154.538 21.2042V8.99967Z" fill="#A50430"/>
<path d="M191.764 26.4249H206.601V22.1466H196.301V16.9883H204.648V12.71H196.301V8.05709H206.601V3.77881H191.764V26.4249Z" fill="#A50430"/>
<path d="M209.477 7.99168H215.398V26.4249H219.932V7.99168H225.854V3.77881H209.477V7.99168Z" fill="#A50430"/>
<path d="M176.461 20.0237C176.7 17.1012 177.307 9.57923 177.435 8.00051H183.371V26.4337H187.905V8.00051V7.59915V3.78467H173.258L172.895 8.00051H172.901C172.767 9.45436 172.18 15.8525 172.079 17.3806C171.942 18.7839 171.692 20.4845 171.54 21.4716C171.463 21.9711 171.121 22.2981 170.644 22.2981C170.418 22.2981 169.034 22.2981 169.034 22.2981V26.3861C169.034 26.3861 169.224 26.3831 170.418 26.3831C174.976 26.3802 176.179 23.2019 176.461 20.0237Z" fill="#A50430"/>
<path d="M85.3816 33.7773H73.792V56.4234H78.326V48.4347H85.3816C88.0282 48.4347 89.8532 46.6092 89.8532 43.9691V38.2459C89.8561 35.5998 88.0282 33.7773 85.3816 33.7773ZM85.3191 43.0861C85.3191 43.7788 84.941 44.1564 84.2474 44.1564H78.326V38.0556H84.2474C84.941 38.0556 85.3191 38.4332 85.3191 39.1259V43.0861V43.0861Z" fill="#A50430"/>
<path d="M105.033 33.6494H97.4417C94.7951 33.6494 92.9702 35.4749 92.9702 38.115V52.0796C92.9702 54.7227 94.7981 56.5452 97.4417 56.5452H105.033C107.68 56.5452 109.505 54.7197 109.505 52.0796V38.115C109.508 35.4749 107.68 33.6494 105.033 33.6494ZM104.971 51.2026C104.971 51.8953 104.593 52.2729 103.899 52.2729H98.576C97.8823 52.2729 97.5043 51.8953 97.5043 51.2026V38.998C97.5043 38.3053 97.8823 37.9277 98.576 37.9277H103.899C104.593 37.9277 104.971 38.3053 104.971 38.998V51.2026Z" fill="#A50430"/>
<path d="M125.051 33.6494H117.87C115.224 33.6494 113.399 35.4749 113.399 38.115V52.0796C113.399 54.7227 115.227 56.5452 117.87 56.5452H125.051C127.697 56.5452 129.522 54.7197 129.522 52.0796V48.4316H124.988V51.1996C124.988 51.8923 124.61 52.2699 123.917 52.2699H119.001C118.308 52.2699 117.93 51.8923 117.93 51.1996V38.995C117.93 38.3023 118.308 37.9247 119.001 37.9247H123.917C124.61 37.9247 124.988 38.3023 124.988 38.995V41.763H129.522V38.115C129.522 35.4749 127.697 33.6494 125.051 33.6494Z" fill="#A50430"/>
<path d="M144.976 33.6494H137.796C135.149 33.6494 133.324 35.4749 133.324 38.115V52.0796C133.324 54.7227 135.152 56.5452 137.796 56.5452H144.976C147.623 56.5452 149.451 54.7197 149.451 52.0796V48.4316H144.917V51.1996C144.917 51.8923 144.539 52.2699 143.845 52.2699H138.93C138.236 52.2699 137.861 51.8923 137.861 51.1996V38.995C137.861 38.3023 138.239 37.9247 138.93 37.9247H143.845C144.539 37.9247 144.917 38.3023 144.917 38.995V41.763H149.451V38.115C149.451 35.4749 147.623 33.6494 144.976 33.6494Z" fill="#A50430"/>
<path d="M239.569 11.8745H233.085V3.77881H228.548V26.4249H239.569C242.215 26.4249 244.04 24.5994 244.04 21.9593V16.3401C244.04 13.697 242.215 11.8745 239.569 11.8745ZM239.506 21.0792C239.506 21.772 239.128 22.1496 238.438 22.1496H233.088V16.1499H238.438C239.131 16.1499 239.506 16.5274 239.506 17.2202V21.0792Z" fill="#A50430"/>
<path d="M251.739 3.77881H247.148V26.4011H251.739V3.77881Z" fill="#A50430"/>
<path d="M187.64 33.9587L178.959 48.8747V33.9587H174.613V56.578H174.625H178.959L187.64 41.6947V56.578H192.02V33.9587H191.999H187.64Z" fill="#A50430"/>
<path d="M166.497 33.9587L157.819 48.8747V33.9587H153.473V56.578H153.485H157.819L166.497 41.6947V56.578H170.876V33.9587H170.859H166.497Z" fill="#A50430"/>
</g>
<defs>
<clipPath id="clip0_173_528">
<rect width="251.739" height="60" fill="white"/>
</clipPath>
</defs>
</svg>
