<svg width="180" height="180" viewBox="0 0 180 180" fill="none" xmlns="http://www.w3.org/2000/svg">
<g clip-path="url(#clip0_168_361)">
<path d="M89.7676 179.238C139.263 179.238 179.386 139.114 179.386 89.6188C179.386 40.1237 139.263 0 89.7676 0C40.2725 0 0.148804 40.1237 0.148804 89.6188C0.148804 139.114 40.2725 179.238 89.7676 179.238Z" fill="#414042"/>
<path d="M152.835 69.5383C154.286 72.3086 169.086 74.6514 171.596 86.6253C173.492 95.643 155.178 103.434 137.18 107.636C121.357 111.336 107.264 111.893 107.264 111.893L107.282 119.498C107.282 119.498 137.18 116.504 148.15 113.195C159.585 109.755 178.011 103.396 179.907 91.4781C181.803 79.5414 152.408 68.7016 152.835 69.5383Z" fill="white"/>
<path d="M72.2157 111.875C69.5383 111.726 56.8764 110.927 42.82 107.636C24.8218 103.434 6.50762 95.643 8.40412 86.6254C10.9142 74.6514 25.7143 72.3087 27.1646 69.5383C27.5922 68.7202 -1.80351 79.5414 0.0929903 91.4782C1.98949 103.396 20.4153 109.755 31.85 113.195C42.0019 116.244 68.3112 119.033 72.2157 119.442V124.555L100.105 115.724L72.2157 106.892V111.875Z" fill="white"/>
<path d="M69.7242 143.39C71.881 141.977 72.978 139.764 72.978 136.808C72.978 131.36 68.2554 128.925 63.5885 128.925C59.5724 128.925 56.6718 130.301 54.9241 133.015L54.515 133.666L56.5789 134.689L56.9135 134.187C58.1965 132.309 60.5392 131.267 63.4955 131.267C67.0282 131.267 70.5981 132.978 70.5981 136.808C70.5981 140.359 68.3855 142.405 64.5553 142.405H61.0226V144.785H64.6669C69.3523 144.785 71.9368 147.295 71.9368 151.831C71.9368 156.331 67.6232 158.376 63.6257 158.376C60 158.376 57.5643 157.242 55.7236 154.732L55.3517 154.211L53.3251 155.457L53.7341 156.052C55.8351 159.176 59.1633 160.756 63.6443 160.756C68.9061 160.756 74.2795 157.707 74.3725 151.869C74.3539 149.173 73.8519 145.491 69.7242 143.39Z" fill="white"/>
<path d="M89.1727 140.973C86.4952 140.973 83.0369 141.568 80.6012 144.171V137.552C80.6012 133.22 84.8962 131.286 89.1727 131.286C91.1993 131.286 94.8621 131.695 96.5727 134.465L96.9074 135.005L99.1014 133.852L98.6923 133.22C96.9446 130.468 93.4677 128.888 89.1541 128.888H89.0239C83.6319 128.888 78.1655 131.844 78.1655 137.478V152.129C78.1655 154.788 79.3741 157.037 81.6424 158.618C83.6133 159.975 86.2349 160.738 89.0425 160.738H89.1541C94.3415 160.738 99.9195 158.042 99.9195 152.148V149.544C99.9567 143.725 94.3601 141.01 89.1727 140.973ZM89.1727 158.376C84.9148 158.376 80.6012 156.443 80.6012 152.11V149.6C80.6012 145.268 84.8962 143.334 89.1727 143.334C93.3375 143.334 97.521 145.268 97.521 149.6V152.11C97.521 156.443 93.3375 158.376 89.1727 158.376Z" fill="white"/>
<path d="M114.403 128.906C109.086 128.906 103.712 131.862 103.712 137.496V152.148C103.712 157.8 109.086 160.738 114.403 160.738C119.702 160.738 125.057 157.781 125.057 152.148V137.496C125.057 131.862 119.702 128.906 114.403 128.906ZM114.403 158.339C110.592 158.339 106.13 156.721 106.13 152.166V137.515C106.13 131.639 113.028 131.342 114.403 131.342C118.196 131.342 122.622 132.959 122.622 137.515V152.166C122.64 156.721 118.196 158.339 114.403 158.339Z" fill="white"/>
<path d="M75.9901 100.663L99.9566 34.1184H81.9213L68.3855 82.4233H68.1066L54.6638 34.1184H36.6099L60.5764 100.663H75.9901Z" fill="white"/>
<path d="M95.5872 49.9039H110.871C121.487 49.9039 121.487 65.1317 110.871 65.1317H99.6219L93.951 79.5972H104.01L119.424 100.738H140.378L122.231 77.9052C130.319 75.3765 135.302 68.4227 135.302 56.0954C134.93 40.4958 124.314 34.1927 110.592 34.1927H82.1258L62.603 100.738H77.7564L95.5872 49.9039Z" fill="white"/>
</g>
<defs>
<clipPath id="clip0_168_361">
<rect width="180" height="179.256" fill="white"/>
</clipPath>
</defs>
</svg>
