<svg width="180" height="126" viewBox="0 0 180 126" fill="none" xmlns="http://www.w3.org/2000/svg">
<g clip-path="url(#clip0_171_391)">
<path d="M0.194946 4.91453H3.03507L10.6366 4.83099C14.9664 4.83099 18.4748 8.38115 18.4748 12.711C18.4748 15.5511 16.9573 18.0571 14.6601 19.4214C18.795 19.8113 22.0249 23.2779 22.0249 27.4963C22.0249 31.9793 18.4052 35.5712 13.9222 35.5712H0.236713C0.236713 35.5712 1.51755 34.8751 1.60109 34.2068C1.796 32.1463 2.07444 27.6634 2.07444 20.2846C2.07444 12.9616 1.99091 8.24193 1.64285 6.25106C1.53148 5.61064 0.194946 4.91453 0.194946 4.91453ZM8.61787 6.1536C7.83823 6.1536 7.01682 6.19537 6.23718 6.23713C6.08403 8.33939 5.76382 12.9755 5.73598 19.2961H9.24437C12.5996 19.2961 15.3701 16.0662 15.3701 12.711C15.3701 9.35571 12.7528 6.32067 9.43928 6.16752H8.61787V6.1536ZM12.5996 20.7023C11.5415 20.6605 10.1075 20.6188 8.65964 20.6188C7.64332 20.6188 6.627 20.6605 5.73598 20.6605C5.73598 27.5242 6.01442 31.854 6.20933 33.9562C8.26982 34.1094 10.734 34.3043 12.4465 34.3043C15.9131 34.3043 18.795 30.949 18.795 27.4824C18.795 24.0158 16.0662 20.8554 12.5996 20.7023Z" fill="#F37021"/>
<path d="M26.2712 20.1176C26.2712 13.3375 25.9649 8.38116 25.7978 6.19537C25.6865 5.49927 24.4335 4.87277 24.4335 4.87277H39.1631C43.1727 4.87277 46.0686 4.37157 46.0686 4.37157C46.0686 4.37157 45.5952 6.32067 45.3724 7.87996C45.094 9.82907 45.094 13.2957 45.094 13.2957C45.094 13.2957 43.493 6.19537 38.8986 6.19537H30.4339C30.2808 8.38116 29.9606 13.1286 29.9327 19.5328L35.8218 19.4911C39.0935 19.4075 39.8732 17.3888 39.8732 17.3888V22.9995C39.8732 22.9995 39.01 20.9668 35.8636 20.8554H29.9327C29.9745 28.0671 30.2808 32.4387 30.4339 34.3043H38.9265C43.493 34.2625 45.0801 27.1343 45.0801 27.1343C45.0801 27.1343 45.0801 30.5592 45.3585 32.5083C45.5952 34.1094 46.0546 36.0167 46.0546 36.0167C46.0546 36.0167 43.1727 35.5155 39.1492 35.5155H24.4335C24.4335 35.5155 25.7143 34.8194 25.8396 34.1094C26.0345 32.202 26.2712 27.7887 26.2712 20.1176ZM32.2717 3.31348C32.2717 3.31348 30.5175 1.99087 30.5175 1.32261C30.5175 1.1277 31.9236 0.459432 32.3552 0C32.5501 0 33.5247 1.28084 34.3461 1.86557C34.3322 1.99087 33.0513 2.49207 32.2717 3.31348ZM37.9241 3.46663C37.9241 3.46663 36.1699 2.14402 36.1699 1.47575C36.1699 1.28084 37.576 0.612576 38.0076 0.153144C38.2025 0.153144 39.1771 1.43399 39.9985 2.01872C39.9846 2.14402 38.7037 2.64522 37.9241 3.46663Z" fill="#F37021"/>
<path d="M54.4497 20.5491V22.1084C54.4497 28.5822 54.6864 32.6754 54.9509 34.346C55.0344 35.0839 56.2735 35.5573 56.2735 35.5573H48.9504C48.9504 35.5573 50.2034 34.889 50.3148 34.2347C50.468 32.202 50.7882 27.6495 50.7882 20.2429C50.7882 12.9198 50.5097 8.15839 50.2452 5.86123C50.1617 5.36003 48.9644 4.92844 48.9644 4.92844H51.8045L59.3642 4.84491C63.694 4.84491 67.2024 8.39507 67.2024 12.7249C67.2024 17.0129 63.7358 20.5213 59.406 20.5213L54.4497 20.5491ZM57.262 6.1536C56.5241 6.1536 55.7027 6.1536 54.9648 6.19536C54.8117 8.29761 54.4915 12.9755 54.4636 19.2544H57.972C61.3273 19.2544 64.0978 16.0244 64.0978 12.7109C64.0978 9.3557 61.4804 6.32066 58.1669 6.16752H57.262V6.1536Z" fill="#F37021"/>
<path d="M73.5371 18.7532C73.5371 20.034 73.6485 21.287 73.9269 22.6096C74.4281 24.9903 75.6811 27.6355 76.6557 29.1531C78.7579 32.383 82.3916 34.3739 86.3177 34.3739C87.1391 34.3739 87.9883 34.2904 88.8515 34.0954C92.4017 33.3158 95.2 31.0186 96.7315 28.0114L95.8683 33.0791C95.6734 32.9956 95.2836 33.1209 94.9773 33.3576C93.3066 34.527 91.3575 35.3902 89.2135 35.8496C88.044 36.0863 86.8745 36.2395 85.7469 36.2395C78.2567 36.2395 71.5184 31.0186 69.8477 23.4171C69.611 22.2477 69.4579 21.0782 69.4579 19.9505C69.4579 12.4604 74.6787 5.72201 82.2802 4.05135C83.4497 3.77291 84.6609 3.66153 85.8304 3.66153C87.9744 3.66153 90.0767 4.09312 91.984 4.91453C92.1371 4.99806 92.875 4.83099 93.0003 4.52471L94.4065 10.0657C92.2067 7.29522 88.8237 5.56887 85.19 5.56887C84.3686 5.56887 83.5471 5.6524 82.7397 5.84731C78.1036 6.86363 74.4003 10.5252 73.8155 14.9663C73.6485 16.2611 73.5371 17.5002 73.5371 18.7532Z" fill="#F37021"/>
<path d="M124.868 4.48294C124.868 4.48294 124.367 6.39028 124.172 7.94957C123.894 9.89867 123.894 13.3653 123.894 13.3653C123.894 13.3653 122.293 6.12576 117.698 6.12576H113.605C113.452 8.07487 113.132 12.4743 113.132 18.4469V20.2429C113.174 26.5914 113.327 32.1324 113.522 33.4133C113.717 34.6941 115.387 35.5573 115.387 35.5573H107.159C107.159 35.5573 108.83 35.0561 109.025 33.4133C109.261 31.2275 109.415 27.5242 109.415 22.1502V20.2429C109.331 13.2678 109.067 8.26978 108.913 6.12576H104.667C100.268 6.4042 98.778 13.3792 98.778 13.3792C98.778 13.3792 98.778 9.9126 98.4996 7.96349C98.3047 6.4042 97.8035 4.49686 97.8035 4.49686C97.8035 4.49686 100.644 4.80315 104.709 4.80315H117.963C122.014 4.78923 124.868 4.48294 124.868 4.48294Z" fill="#F37021"/>
<path d="M133.751 17.1521L144.039 6.86363C144.318 6.51557 144.429 6.19536 144.429 5.97261C144.429 5.2765 143.649 4.91452 143.649 4.91452H150.165C150.165 4.91452 148.299 5.49925 146.072 7.55974L134.85 18.8228C134.85 18.8228 145.181 29.2366 148.647 32.6614C150.791 34.7637 153.13 35.5433 153.13 35.5433H144.011C144.011 35.5433 145.487 35.0421 145.487 34.179C145.487 33.9423 145.376 33.6778 145.097 33.3993L133.751 22.0527C133.792 27.1622 133.987 30.7402 134.14 32.926C134.252 34.2486 136.09 35.5433 136.09 35.5433H127.792C127.792 35.5433 129.546 34.7637 129.699 33.1626C129.894 30.7819 130.089 26.5357 130.089 20.1872C130.089 14.1867 129.852 9.66199 129.657 7.16992C129.504 5.61063 127.75 4.91452 127.75 4.91452H135.936C135.936 4.91452 134.182 5.93084 134.029 7.25345C133.792 9.20256 133.751 12.9755 133.751 17.1521Z" fill="#F37021"/>
<path d="M158.407 33.1348C161.177 25.6864 163.753 16.5674 166.12 6.23713C166.12 6.20928 166.133 6.18144 166.133 6.1536C166.133 5.55494 164.713 4.91452 164.713 4.91452H173.763C173.763 4.91452 172.204 5.34611 172.204 6.71048C172.204 6.79402 172.245 6.86363 172.245 6.98893C172.593 9.28609 173.303 13.6159 174.821 20.2429C176.185 26.3268 177.508 30.9212 178.246 33.4132C178.719 34.9725 180 35.5573 180 35.5573H171.772C171.772 35.5573 173.679 34.6662 173.679 33.4132C173.679 30.9212 172.552 26.5078 171.299 20.8554H163.739L160.272 33.2879C160.23 33.3993 160.23 33.5664 160.23 33.6778C160.23 34.9586 162.138 35.5433 162.138 35.5433H155.817C155.831 35.5573 157.864 34.5827 158.407 33.1348ZM170.992 19.5746C169.544 13.3374 168.347 9.13294 167.679 6.90539L164.129 19.5746H170.992Z" fill="#F37021"/>
<path d="M6.30675 107.841C7.83819 102.662 9.0355 99.0564 9.0355 97.3996C9.0355 96.8149 8.26978 96.2023 7.9078 96.0213H15.0081C15.0081 96.0213 13.783 96.3276 13.783 97.3996C13.783 97.4553 13.8108 97.5249 13.8108 97.6085C14.0893 99.4184 14.6322 102.815 15.8295 108.022C17.0825 113.535 18.252 117.489 18.7671 119.146H21.3706V125.982C21.3706 125.982 20.1176 120.288 16.6231 120.107H4.71962C1.253 120.274 0 125.982 0 125.982V119.146H2.63129C3.18818 117.643 4.62217 113.633 6.30675 107.841ZM15.1056 119.146C14.855 117.489 14.2146 113.535 12.9616 108.022C11.7921 102.913 10.8175 99.474 10.2607 97.6363L4.23235 119.146H15.1056Z" fill="black"/>
<path d="M25.5054 107.994C25.5054 103.177 25.3244 99.5715 25.1713 97.6363C25.0738 96.3555 23.7652 96.0074 23.7652 96.0074H30.1415C30.1415 96.0074 28.8189 96.62 28.7632 97.6363H28.7354C28.5822 99.5994 28.4012 103.247 28.4012 107.994C28.4012 112.338 28.5544 115.443 28.6797 117.392C29.9327 115.276 31.7426 111.976 33.7891 107.744C37.3115 100.435 39.0239 96.3973 39.0239 96.0353C39.0239 96.0214 39.0239 96.0214 39.0239 96.0074H44.1333C44.1333 96.0074 42.9082 96.6757 42.7272 97.692C42.5462 98.6666 42.3931 102.133 42.3931 106.115V107.981C42.4487 113.062 42.6993 118.311 42.6993 118.311C42.7968 119.327 44.1333 120.093 44.1333 120.093H37.7291C37.7291 120.093 39.0796 119.606 39.1631 118.311C39.3162 116.473 39.4972 113.104 39.4972 107.981C39.4972 103.901 39.3441 100.685 39.2188 98.6109L28.8607 120.079V120.107L23.7095 120.079C23.7095 120.079 25.0878 119.592 25.1852 118.297C25.3523 116.487 25.5054 113.118 25.5054 107.994Z" fill="black"/>
<path d="M60.9792 112.658C60.9792 116.793 57.4012 120.107 52.9878 120.107H52.8625C52.4309 120.107 46.3052 120.051 46.3052 116.988C46.4026 116.988 48.6998 119.021 51.9994 119.049H52.055C55.6052 119.049 57.5961 116.348 57.5961 112.589C57.5961 108.788 55.4521 105.976 51.8741 105.823H51.6652C50.9552 105.823 50.6907 105.948 50.6907 105.948C50.6907 105.948 50.5654 105.21 50.5654 105.154C50.5654 105.154 50.9691 105.307 52.2778 105.307C54.2687 105.307 55.4381 102.676 55.4381 100.992C55.4381 99.0982 54.213 96.9124 52.1664 96.9124C48.129 97.0098 47.5164 99.9474 47.0848 101.354V101.047C47.0848 100.337 47.057 98.6248 46.9038 97.4275C46.7507 96.2024 46.6254 95.7986 46.6254 95.7986C46.6254 95.7986 47.2658 96.5086 48.31 96.5086C48.4631 96.5086 48.6163 96.4808 48.7972 96.4529C49.7161 96.272 50.7881 96.1467 51.4982 96.091H51.5121H51.8741H52.0272H52.055H52.9461C55.5774 96.091 57.7492 98.3324 57.7492 100.964C57.7492 103.01 56.4266 104.764 54.6307 105.433C58.1947 106.185 60.9792 109.164 60.9792 112.658Z" fill="black"/>
<path d="M63.4574 118.199C65.6293 112.352 67.648 105.182 69.5275 97.0655C69.5275 97.0377 69.5414 97.0237 69.5414 96.9959C69.5414 96.5225 68.4276 96.0213 68.4276 96.0213H75.5279C75.5279 96.0213 74.3028 96.3555 74.3028 97.4275C74.3028 97.4832 74.3306 97.5528 74.3306 97.6363C74.6091 99.4462 75.152 102.843 76.3493 108.05C77.4214 112.825 78.4655 116.445 79.0503 118.408C79.4122 119.633 80.4286 120.093 80.4286 120.093H73.9687C73.9687 120.093 75.4723 119.383 75.4723 118.408C75.4723 116.445 74.5812 112.992 73.6067 108.551H67.6619L64.9332 118.325C64.9053 118.422 64.9053 118.534 64.9053 118.631C64.9053 119.647 66.4089 120.107 66.4089 120.107H61.4526C61.4387 120.093 63.0397 119.327 63.4574 118.199ZM73.3561 107.535C72.2284 102.634 71.2677 99.3209 70.7526 97.5806L67.9682 107.535H73.3561Z" fill="black"/>
<path d="M84.5356 107.967C84.5356 103.163 84.3268 99.5437 84.2015 97.6085V97.5806C84.104 96.2998 82.7953 96.0214 82.7953 96.0214H84.0762H87.9048H89.2274C89.2274 96.0214 87.9048 96.5782 87.7934 97.5528C87.6402 99.488 87.4314 103.122 87.4314 107.967C87.4314 112.31 87.5567 115.415 87.682 117.364C88.8515 115.276 90.5917 112.032 92.6105 107.841C96.2024 100.463 98.068 96.5365 98.068 96.0353C98.068 96.0214 98.068 96.0214 98.068 96.0074H103.219C103.219 96.0074 101.869 96.5643 101.785 97.5667C101.632 99.0982 101.451 102.676 101.451 107.034V107.953C101.479 113.034 101.702 117.392 101.757 118.283C101.813 119.299 103.233 120.093 103.233 120.093H96.7593C96.7593 120.093 98.1097 119.578 98.1933 118.283C98.3464 116.445 98.5274 113.076 98.5274 107.953C98.5274 103.72 98.3464 100.449 98.2211 98.402L87.8908 120.121H82.7396C82.7396 120.121 84.0901 119.564 84.1736 118.283C84.3546 116.445 84.5356 113.076 84.5356 107.967ZM92.9585 93.933C94.4343 93.933 95.8404 93.571 97.0656 92.9167C97.0656 92.9167 96.1188 94.114 95.6594 94.3228C95.019 94.6013 93.8774 94.7544 92.9307 94.7544C91.984 94.7544 90.6613 94.5456 90.2298 94.3507C89.7703 94.1419 88.8236 92.9446 88.8236 92.9446C90.0766 93.5989 91.4549 93.933 92.9585 93.933Z" fill="black"/>
<path d="M107.34 108.05C107.34 103.247 107.159 99.5994 107.006 97.6642C106.909 96.3833 105.572 96.0074 105.572 96.0074H112.004C111.726 96.1049 110.681 96.62 110.57 97.6642C110.32 99.7803 110.236 103.024 110.236 107.521C110.417 107.521 113.452 107.619 115.777 107.619C118.074 107.619 121.262 107.521 121.346 107.521C121.346 102.955 121.095 99.5297 120.984 97.6642C120.886 96.3833 119.578 96.0074 119.578 96.0074L126.01 95.9796C125.829 96.1327 124.659 96.9541 124.576 97.6642C124.367 99.2931 124.214 102.078 124.214 105.725C124.214 106.463 124.242 107.257 124.242 108.05C124.339 113.132 124.297 116.139 124.604 118.408C124.729 119.425 126.01 120.121 126.01 120.121H119.578C119.578 120.121 120.928 119.661 121.012 118.38C121.137 116.598 121.346 113.424 121.346 108.579C121.318 108.579 117.879 108.482 115.735 108.482C113.494 108.482 110.403 108.579 110.222 108.579C110.222 113.354 110.584 118.353 110.584 118.353C110.681 119.369 112.018 120.135 112.018 120.135H105.53C105.53 120.135 106.909 119.675 107.006 118.394C107.159 116.543 107.34 113.173 107.34 108.05Z" fill="black"/>
<path d="M129.769 107.994C129.769 102.634 129.518 98.7779 129.365 97.0238C129.309 96.4669 128.321 96.0074 128.321 96.0074H139.904C143.064 96.0074 145.32 95.6037 145.32 95.6037C145.32 95.6037 144.958 97.1073 144.763 98.3324C144.582 99.8917 144.554 102.593 144.554 102.593C144.554 102.593 143.301 97.0238 139.681 97.0238H133.04C132.887 98.7362 132.678 102.481 132.637 107.535L137.259 107.507C139.862 107.451 140.447 105.85 140.447 105.85V110.264C140.447 110.264 139.779 108.677 137.287 108.579H132.637C132.665 114.245 132.915 117.684 133.04 119.146H139.723C143.315 119.118 144.568 113.48 144.568 113.48C144.568 113.48 144.596 116.209 144.777 117.74C144.958 118.965 145.334 120.497 145.334 120.497C145.334 120.497 143.064 120.093 139.918 120.093H128.335C128.335 120.093 129.309 119.536 129.435 118.993C129.56 117.489 129.769 114.037 129.769 107.994Z" fill="black"/>
<path d="M151.961 108.301V109.526C151.961 114.607 152.142 117.824 152.364 119.146C152.42 119.731 153.409 120.093 153.409 120.093H147.645C147.645 120.093 148.619 119.578 148.717 119.049C148.842 117.462 149.079 113.87 149.079 108.05C149.079 102.286 148.87 98.5552 148.647 96.7453C148.591 96.3416 147.631 96.0074 147.631 96.0074H149.872L155.817 95.9517C159.214 95.9517 161.971 98.7362 161.971 102.133C161.971 105.502 159.242 108.259 155.845 108.259L151.961 108.301ZM154.174 96.9959C153.59 96.9959 152.949 96.9959 152.364 97.0238C152.239 98.6805 152.002 102.356 151.961 107.284H154.717C157.349 107.284 159.52 104.737 159.52 102.133C159.52 99.5019 157.474 97.1073 154.87 96.982H154.174V96.9959Z" fill="black"/>
<path d="M162.848 118.199C165.02 112.352 167.038 105.182 168.918 97.0655C168.918 97.0377 168.932 97.0237 168.932 96.9959C168.932 96.5225 167.818 96.0213 167.818 96.0213H174.918C174.918 96.0213 173.693 96.3555 173.693 97.4275C173.693 97.4832 173.721 97.5528 173.721 97.6363C174 99.4462 174.543 102.843 175.74 108.05C176.812 112.825 177.856 116.445 178.441 118.408C178.803 119.633 179.819 120.093 179.819 120.093H173.359C173.359 120.093 174.863 119.383 174.863 118.408C174.863 116.445 173.972 112.992 172.997 108.551H167.052L164.324 118.325C164.282 118.408 164.282 118.534 164.282 118.631C164.282 119.647 165.785 120.107 165.785 120.107H160.829C160.815 120.093 162.416 119.327 162.848 118.199ZM172.733 107.535C171.605 102.634 170.644 99.3209 170.129 97.5806L167.345 107.535H172.733Z" fill="black"/>
<path d="M70.6134 72.0056C71.7271 68.2327 72.5903 65.6153 72.5903 64.4041C72.5903 63.9864 72.0334 63.5409 71.7689 63.4017H76.934C76.934 63.4017 76.043 63.6244 76.043 64.4041C76.043 64.4458 76.0709 64.4876 76.0709 64.5572C76.2658 65.8659 76.6695 68.344 77.5466 72.1309C78.4655 76.1405 79.3008 79.0224 79.6906 80.2197H81.5841V85.1899C81.5841 85.1899 80.6652 81.0411 78.1313 80.9158H69.4578C66.9379 81.055 66.019 85.1899 66.019 85.1899V80.2197H67.9403C68.3441 79.1477 69.3882 76.224 70.6134 72.0056ZM77.0176 80.2336C76.8366 79.0363 76.3772 76.1544 75.4583 72.1448C74.609 68.4276 73.899 65.9216 73.4953 64.585L69.1098 80.2336H77.0176Z" fill="#A8A9AC"/>
<path d="M97.0516 80.9436H92.3459C92.3459 80.9436 93.4318 80.3867 93.4318 79.6767C93.4318 78.187 92.7635 75.5557 91.9839 72.1448C91.1346 68.4415 90.4246 65.9494 90.0209 64.6129L85.7885 79.6628C85.7607 79.7324 85.7607 79.8159 85.7607 79.8855C85.7607 80.6234 86.8327 80.9576 86.8327 80.9576H83.199C83.199 80.9576 84.4659 80.2614 84.7165 79.5514C85.2316 78.1313 86.1366 75.5418 87.1529 72.0891C88.3084 68.0795 89.1577 65.3647 89.1577 64.3345C89.1577 63.7776 88.2945 63.4156 88.2945 63.4156H93.4875C93.4875 63.4156 92.5686 63.6383 92.5686 64.418C92.5686 64.4598 92.5965 64.5015 92.5965 64.5711C92.7914 65.8798 93.223 68.358 94.0861 72.1448C94.8658 75.6253 95.6037 78.2566 96.0213 79.6767C96.2858 80.5677 97.0516 80.9436 97.0516 80.9436Z" fill="#A8A9AC"/>
<path d="M113.73 80.9297H109.025C109.025 80.9297 110.055 80.2197 110.111 79.4539C110.194 78.0896 110.333 75.7367 110.333 72.3676L108.816 72.3397L102.885 79.7324C102.801 79.8438 102.774 79.983 102.774 80.0665C102.774 80.5956 103.748 80.9158 103.748 80.9158L98.5273 80.8879C98.5273 80.8879 100.003 80.3589 101.019 78.9249L101.061 78.8831L106.338 72.284C104.041 72.103 102.258 70.1957 102.258 67.8428C102.258 65.3647 104.263 63.3599 106.741 63.3599L111.113 63.3877H113.758C113.758 63.3877 112.728 63.7915 112.644 64.6825C112.533 66.1026 112.394 68.7199 112.394 72.1448C112.394 75.7785 112.505 78.201 112.617 79.5653C112.742 80.4981 113.73 80.9297 113.73 80.9297ZM107.577 71.6297H110.347V69.959C110.347 67.7593 110.319 65.7684 110.194 64.7382C110.166 64.5433 110.083 64.3623 109.971 64.2091C109.414 64.1674 108.774 64.1256 108.162 64.1256C107.911 64.1256 107.688 64.1256 107.465 64.1535C105.572 64.237 104.082 65.9633 104.082 67.8707C104.082 69.778 105.656 71.6297 107.577 71.6297Z" fill="#A8A9AC"/>
</g>
<defs>
<clipPath id="clip0_171_391">
<rect width="180" height="125.982" fill="white"/>
</clipPath>
</defs>
</svg>
