<svg width="160" height="160" viewBox="0 0 160 160" fill="none" xmlns="http://www.w3.org/2000/svg">
<g clip-path="url(#clip0_710_1480)">
<path d="M79.793 159.322C123.789 159.322 159.454 123.657 159.454 79.6612C159.454 35.6655 123.789 0 79.793 0C35.7974 0 0.131836 35.6655 0.131836 79.6612C0.131836 123.657 35.7974 159.322 79.793 159.322Z" fill="#F37021"/>
<path d="M135.854 61.8118C137.143 64.2744 150.299 66.3568 152.53 77.0003C154.216 85.016 137.936 91.9409 121.938 95.6761C107.873 98.965 95.3457 99.4608 95.3457 99.4608L95.3622 106.22C95.3622 106.22 121.938 103.56 131.689 100.618C141.853 97.5602 158.232 91.9079 159.918 81.3139C161.603 70.7034 135.474 61.0681 135.854 61.8118Z" fill="white"/>
<path d="M64.1922 99.4443C61.8123 99.312 50.5572 98.6014 38.0626 95.6761C22.0643 91.9409 5.78498 85.016 7.47076 77.0003C9.70193 66.3568 22.8576 64.2743 24.1467 61.8118C24.5268 61.0846 -1.60268 70.7034 0.083092 81.3139C1.76887 91.9079 18.1473 97.5602 28.3116 100.618C37.3354 103.328 60.7215 105.807 64.1922 106.171V110.716L88.983 102.865L64.1922 95.015V99.4443Z" fill="white"/>
<path d="M61.9774 127.458C63.8946 126.202 64.8697 124.235 64.8697 121.607C64.8697 116.765 60.6717 114.6 56.5234 114.6C52.9535 114.6 50.3753 115.823 48.8217 118.236L48.4581 118.814L50.2927 119.723L50.5901 119.277C51.7305 117.608 53.813 116.682 56.4408 116.682C59.581 116.682 62.7542 118.203 62.7542 121.607C62.7542 124.764 60.7874 126.582 57.3828 126.582H54.2427V128.697H57.482C61.6469 128.697 63.9441 130.929 63.9441 134.961C63.9441 138.961 60.1098 140.779 56.5565 140.779C53.3337 140.779 51.1686 139.771 49.5324 137.54L49.2019 137.077L47.4004 138.184L47.764 138.713C49.6316 141.49 52.5899 142.894 56.573 142.894C61.2502 142.894 66.0266 140.184 66.1092 134.994C66.0927 132.598 65.6464 129.325 61.9774 127.458Z" fill="white"/>
<path d="M79.2646 125.309C76.8847 125.309 73.8106 125.838 71.6455 128.152V122.268C71.6455 118.418 75.4633 116.699 79.2646 116.699C81.066 116.699 84.3219 117.062 85.8424 119.525L86.1399 120.004L88.0901 118.979L87.7265 118.418C86.173 115.971 83.0824 114.567 79.2481 114.567H79.1324C74.3395 114.567 69.4805 117.195 69.4805 122.202V135.226C69.4805 137.589 70.5547 139.589 72.5711 140.994C74.3229 142.2 76.6533 142.878 79.1489 142.878H79.2481C83.8591 142.878 88.8173 140.481 88.8173 135.242V132.928C88.8504 127.755 83.8757 125.342 79.2646 125.309ZM79.2646 140.779C75.4798 140.779 71.6455 139.06 71.6455 135.209V132.978C71.6455 129.127 75.4633 127.408 79.2646 127.408C82.9667 127.408 86.6853 129.127 86.6853 132.978V135.209C86.6853 139.06 82.9667 140.779 79.2646 140.779Z" fill="white"/>
<path d="M101.692 114.583C96.9648 114.583 92.1885 117.211 92.1885 122.219V135.242C92.1885 140.267 96.9648 142.878 101.692 142.878C106.402 142.878 111.162 140.25 111.162 135.242V122.219C111.162 117.211 106.402 114.583 101.692 114.583ZM101.692 140.746C98.3035 140.746 94.337 139.308 94.337 135.259V122.235C94.337 117.013 100.469 116.748 101.692 116.748C105.063 116.748 108.997 118.186 108.997 122.235V135.259C109.013 139.308 105.063 140.746 101.692 140.746Z" fill="white"/>
<path d="M67.5466 89.4784L88.8502 30.3275H72.8188L60.787 73.2652H60.5391L48.5899 30.3275H32.542L53.8456 89.4784H67.5466Z" fill="white"/>
<path d="M84.9667 44.3591H98.5521C107.989 44.3591 107.989 57.8948 98.5521 57.8948H88.5532L83.5124 70.753H92.4536L106.155 89.5445H124.781L108.65 69.2491C115.84 67.0014 120.269 60.8202 120.269 49.8626C119.938 35.9963 110.501 30.3936 98.3042 30.3936H73.001L55.6475 89.5445H69.1171L84.9667 44.3591Z" fill="white"/>
</g>
<defs>
<clipPath id="clip0_710_1480">
<rect width="160" height="159.339" fill="white"/>
</clipPath>
</defs>
</svg>
