<svg width="466" height="126" viewBox="0 0 466 126" fill="none" xmlns="http://www.w3.org/2000/svg">
<path d="M75.0734 56.2C80.2068 59.5333 87.0734 63.5333 95.6734 68.2C104.273 72.8667 114.707 78.3 126.973 84.5L120.073 86.8C116.34 84.9333 112.773 83.1333 109.373 81.4C105.973 79.6667 102.74 77.9667 99.6734 76.3C92.2068 72.5 85.9068 69.1333 80.7734 66.2C75.7068 63.2667 71.6734 60.7333 68.6734 58.6C64.6734 60.7333 60.3734 62.6333 55.7734 64.3C51.2401 65.9 46.3734 67.2333 41.1734 68.3C37.1734 72.9 33.7401 76.8 30.8734 80C28.0068 83.1333 25.6401 85.5667 23.7734 87.3C19.2401 91.7 13.0068 96.8667 5.07344 102.8C4.87344 102.533 4.77344 102.1 4.77344 101.5C4.77344 101.1 5.97344 99.9333 8.37344 98C10.3068 96.5333 12.1734 95.0333 13.9734 93.5C15.7734 92.0333 17.5401 90.5 19.2734 88.9C22.2734 86.1667 25.2734 83.1667 28.2734 79.9C31.3401 76.5667 34.5401 72.9333 37.8734 69C34.2734 69.5333 31.1734 69.9333 28.5734 70.2C25.9734 70.4 23.8068 70.5 22.0734 70.5C18.4734 70.5 15.3068 70.1333 12.5734 69.4C9.90677 68.6667 7.60677 67.4667 5.67344 65.8C2.60677 63.2667 1.0401 59.9333 0.973438 55.8C0.973438 51.2667 3.67344 47.4 9.07344 44.2C14.5401 41.0667 21.2401 39.5 29.1734 39.5C30.9068 39.5 32.7068 39.6333 34.5734 39.9C36.4401 40.1 38.3734 40.4667 40.3734 41C43.0401 41.6 48.0401 43.1 55.3734 45.5L82.5734 12.2L83.6734 14.5C80.7401 18.1 77.1734 22.5667 72.9734 27.9C68.7734 33.2333 63.7734 39.5 57.9734 46.7C59.3068 47.4333 61.0734 48.4333 63.2734 49.7C65.5401 50.9 68.3068 52.4333 71.5734 54.3C76.0401 51.9667 80.8068 49.1667 85.8734 45.9C91.0068 42.6333 96.5401 38.8333 102.473 34.5C107.673 30.7 112.507 27 116.973 23.4C121.44 19.7333 125.64 16.1 129.573 12.5C130.107 11.9667 131.073 11.0333 132.473 9.69999C133.873 8.3 135.707 6.4 137.973 4C140.373 1.73333 142.04 0.499997 142.973 0.299996C143.573 0.299996 144.34 0.566663 145.273 1.1C145.94 1.56666 146.307 2.03333 146.373 2.5C146.373 5.43333 139.107 12.6333 124.573 24.1C108.773 36.3 92.2734 47 75.0734 56.2ZM54.7734 50.7C53.3734 52.5 51.8068 54.5333 50.0734 56.8C48.3401 59 46.4068 61.4 44.2734 64C48.4068 63.4 55.6401 61.1 65.9734 57.1L54.7734 50.7ZM52.3734 50C41.7734 45.2 32.0734 42.8 23.2734 42.8C18.1401 42.8 13.6401 43.9667 9.77344 46.3C6.10677 48.5667 4.27344 51.3667 4.27344 54.7C4.27344 57.8333 6.10677 60.5667 9.77344 62.9C13.4401 65.1 18.0734 66.2 23.6734 66.2C24.5401 66.2 26.3734 66.1 29.1734 65.9C31.9734 65.7 35.8401 65.3667 40.7734 64.9L52.3734 50ZM186.748 72.5C186.882 73.0333 186.748 73.4 186.348 73.6C181.748 76.4667 177.315 78.9333 173.048 81C168.848 83 165.182 84 162.048 84C158.448 84 156.548 81.3 156.348 75.9C155.748 76.2333 154.815 76.7667 153.548 77.5C152.348 78.1667 151.048 78.8667 149.648 79.6C148.315 80.3333 146.948 80.9667 145.548 81.5C144.215 82.1 143.115 82.4333 142.248 82.5C140.982 82.6333 139.848 82.4667 138.848 82C137.782 81.5333 137.115 80.5667 136.848 79.1C136.848 76.1667 139.582 72.5667 145.048 68.3C147.848 66.2333 150.515 64.6667 153.048 63.6C155.582 62.5333 157.715 62 159.448 62C161.915 61.9333 163.182 62.5333 163.248 63.8C163.248 65 162.815 65.9667 161.948 66.7C161.282 67.3 160.448 67.6 159.448 67.6C159.382 67.5333 159.315 67.4 159.248 67.2C159.182 67.0667 159.115 66.9333 159.048 66.8C158.982 66.6 158.882 66.3667 158.748 66.1C158.348 65.1 157.548 64.5667 156.348 64.5C153.748 64.5 150.715 65.9667 147.248 68.9C143.915 71.7 142.248 74.2333 142.248 76.5C142.248 77.0333 142.348 77.5333 142.548 78C142.748 78.4 143.115 78.6333 143.648 78.7C145.515 78.8333 147.348 78.5333 149.148 77.8C151.015 77.0667 152.982 76 155.048 74.6C155.915 74 157.415 72.5333 159.548 70.2C160.882 68.6 162.048 67.8333 163.048 67.9C163.848 67.9 164.248 68.2333 164.248 68.9C164.248 69.5 163.682 70.8 162.548 72.8C161.482 74.6667 160.948 76.0333 160.948 76.9C160.948 79.3667 162.148 80.6333 164.548 80.7C166.682 80.7 168.848 80.3667 171.048 79.7C173.248 79.0333 175.315 78.2333 177.248 77.3C179.182 76.3667 180.882 75.4667 182.348 74.6C183.882 73.6667 184.982 72.9667 185.648 72.5C185.848 72.3 186.048 72.1667 186.248 72.1C186.448 71.9667 186.615 72.1 186.748 72.5ZM229.505 72.7C229.505 73.2333 229.372 73.5667 229.105 73.7C226.372 75.9 223.839 77.6667 221.505 79C219.172 80.2667 217.039 81.2333 215.105 81.9C213.172 82.5667 211.405 82.9667 209.805 83.1C208.272 83.2333 206.972 83.2333 205.905 83.1C204.305 82.8333 203.039 82.1333 202.105 81C201.172 79.8 200.539 77.9 200.205 75.3C198.405 77.1667 195.872 78.9 192.605 80.5C191.272 81.1 190.105 81.5667 189.105 81.9C188.172 82.3 187.405 82.4333 186.805 82.3C183.805 81.9 182.172 80.4333 181.905 77.9C181.905 75.5 182.505 73.8 183.705 72.8C184.439 72.2 185.305 71.8 186.305 71.6C187.239 71.3333 187.839 71.5333 188.105 72.2C188.372 72.8 188.505 73.4333 188.505 74.1C188.439 74.7667 188.372 75.4 188.305 76C188.239 76.6 188.272 77.1667 188.405 77.7C188.539 78.1667 188.872 78.5 189.405 78.7C189.872 78.8333 190.505 78.7667 191.305 78.5C192.172 78.2333 193.039 77.8667 193.905 77.4C194.839 76.8667 195.739 76.3 196.605 75.7C197.539 75.1 198.305 74.5333 198.905 74C199.639 73.4667 200.539 72.5667 201.605 71.3C202.739 70.0333 204.072 68.4 205.605 66.4C206.205 65.6667 206.839 64.9 207.505 64.1C208.172 63.2333 208.805 62.4667 209.405 61.8C210.072 61.1333 210.672 60.5667 211.205 60.1C211.739 59.6333 212.139 59.4 212.405 59.4C212.605 59.4 212.839 59.4 213.105 59.4C213.439 59.4 213.705 59.5 213.905 59.7C214.172 59.8333 214.339 60.1 214.405 60.5C214.539 60.8333 214.472 61.3667 214.205 62.1C213.872 63.0333 213.139 63.8667 212.005 64.6C210.872 65.3333 209.672 66.3 208.405 67.5C206.005 69.7667 204.772 71.7 204.705 73.3C204.705 74.8333 205.039 76.1333 205.705 77.2C206.439 78.2 207.472 78.9 208.805 79.3C210.605 79.8333 212.372 79.9667 214.105 79.7C215.839 79.3667 217.539 78.8333 219.205 78.1C220.939 77.3 222.572 76.3667 224.105 75.3C225.639 74.2333 227.105 73.2 228.505 72.2C229.039 71.8 229.372 71.9667 229.505 72.7ZM254.76 72.3C254.827 72.7667 254.727 73.1333 254.46 73.4C248.927 77 244.127 79.6333 240.06 81.3C235.993 83.0333 232.093 83.9333 228.36 84C223.76 84 221.427 81.6333 221.36 76.9C221.36 73.9667 223.06 70.5333 226.46 66.6C229.993 62.8667 233.06 60.9667 235.66 60.9C236.26 60.9 236.927 61.0667 237.66 61.4C238.393 61.6667 238.827 62.5 238.96 63.9C238.96 64.5 238.793 65.1 238.46 65.7C238.127 66.3 237.66 66.9333 237.06 67.6C236.527 68.2 235.893 68.8333 235.16 69.5C234.493 70.1 233.827 70.6667 233.16 71.2C232.16 72.1333 231.06 73.0333 229.86 73.9C228.66 74.7 227.293 75.5 225.76 76.3C225.627 77.1667 225.727 77.8 226.06 78.2C226.393 78.5333 226.927 78.9667 227.66 79.5C228.793 80.2333 230.027 80.6 231.36 80.6C233.56 80.6 236.56 80.0333 240.36 78.9C244.227 77.7 248.693 75.4 253.76 72C253.96 71.8 254.16 71.7333 254.36 71.8C254.627 71.8 254.76 71.9667 254.76 72.3ZM234.56 65C234.56 64.6667 234.127 64.4 233.26 64.2C232.127 64.2 230.627 65.2333 228.76 67.3C227.827 68.2333 227.127 69.2333 226.66 70.3C226.193 71.3667 225.96 72.2667 225.96 73C226.093 73 226.527 72.9 227.26 72.7C227.993 72.4333 228.593 72.1333 229.06 71.8C230.793 70.8 232.093 69.6667 232.96 68.4C233.893 67.0667 234.427 65.9333 234.56 65ZM276.351 82.5C272.551 82.5 270.651 80.5 270.651 76.5C270.651 75.7667 270.784 74.9 271.051 73.9C271.317 72.9 271.617 72.1333 271.951 71.6C270.751 72.3333 269.451 72.9667 268.051 73.5C266.651 73.9667 265.251 74.4 263.851 74.8C262.451 75.2 261.051 75.5667 259.651 75.9C258.317 76.2333 257.051 76.6 255.851 77C255.251 77.7333 254.617 78.5 253.951 79.3C253.217 80.0333 252.551 80.7 251.951 81.3C251.284 81.9 250.717 82.4 250.251 82.8C249.784 83.2 249.484 83.4 249.351 83.4C249.284 83.4 249.051 83.2667 248.651 83C248.251 82.8 248.051 82.5667 248.051 82.3C248.051 81.8333 248.351 81.0667 248.951 80C249.551 78.9333 250.517 77.4667 251.851 75.6C252.917 74 253.751 72.7 254.351 71.7C254.951 70.7 255.417 69.8667 255.751 69.2C256.084 68.5333 256.384 67.9667 256.651 67.5C256.851 66.9667 257.184 66.4 257.651 65.8C257.917 65.4 258.451 65.0667 259.251 64.8C260.051 64.5333 260.617 64.3333 260.951 64.2C261.684 64.2 262.184 64.4 262.451 64.8C262.784 65.2 262.851 65.7 262.651 66.3C262.384 67.0333 261.684 68.0667 260.551 69.4C259.417 70.6667 258.317 72.3667 257.251 74.5C258.251 74.1667 259.417 73.8 260.751 73.4C262.151 73 263.584 72.5667 265.051 72.1C266.517 71.6333 267.951 71.1667 269.351 70.7C270.751 70.1667 271.984 69.6333 273.051 69.1C274.317 67.5 275.617 66.2 276.951 65.2C278.351 64.2 279.451 63.7 280.251 63.7C280.584 63.7 280.851 64.1333 281.051 65C281.051 65 280.017 66.2333 277.951 68.7C276.017 71.1 275.017 73.3667 274.951 75.5C274.951 77.9 276.617 79.2333 279.951 79.5C280.684 79.5667 281.717 79.5 283.051 79.3C284.451 79.1 286.051 78.7333 287.851 78.2C289.717 77.6 291.717 76.8333 293.851 75.9C295.984 74.9667 298.151 73.7667 300.351 72.3C300.484 72.3 300.651 72.3 300.851 72.3C301.051 72.2333 301.217 72.4 301.351 72.8C301.484 73 301.484 73.2 301.351 73.4C301.217 73.6 301.084 73.7667 300.951 73.9C295.884 76.9 291.317 79.1 287.251 80.5C283.251 81.8333 279.617 82.5 276.351 82.5ZM314.138 85.7C310.938 86.5667 307.771 87.4333 304.638 88.3C301.571 89.1667 298.437 90.1 295.237 91.1C289.837 92.6333 285.037 94.2 280.837 95.8C276.571 97.4 272.937 99 269.937 100.6C261.404 104.933 257.137 109.467 257.137 114.2C257.137 116.067 258.004 117.433 259.737 118.3C261.404 119.167 263.604 119.5 266.337 119.3C269.071 119.1 272.137 118.367 275.537 117.1C278.871 115.833 282.237 114 285.637 111.6C299.371 101.667 308.871 93.0333 314.138 85.7ZM342.538 71.7C342.804 71.5667 343.038 71.4667 343.238 71.4C343.438 71.3333 343.604 71.4667 343.738 71.8C343.804 72.0667 343.804 72.2667 343.738 72.4C343.738 72.5333 343.571 72.7 343.238 72.9C339.371 75.2333 335.338 77.3 331.138 79.1C326.938 80.9 323.071 82.6 319.538 84.2C314.738 90.3333 307.004 97.5 296.337 105.7C281.537 116.9 269.804 122.567 261.137 122.7C259.004 122.7 257.171 122.133 255.637 121C254.104 119.933 253.337 118.433 253.337 116.5C253.337 108.5 262.004 101.2 279.337 94.6C283.004 93.1333 289.671 90.9333 299.337 88C304.137 86.6 307.871 85.4667 310.537 84.6C313.271 83.8 315.038 83.2333 315.838 82.9C320.504 77.7 322.904 72.7 323.038 67.9C323.038 64.7 321.171 63.1 317.438 63.1C316.038 63.1 314.671 63.2667 313.338 63.6C312.004 63.9333 310.671 64.4667 309.338 65.2C306.671 66.8 305.338 68.5667 305.338 70.5C305.338 73.1667 306.404 74.5333 308.538 74.6C309.871 74.6 311.571 74.2 313.638 73.4C315.771 72.5333 318.038 71.3333 320.438 69.8L319.738 71.3C317.538 72.8333 315.204 74.2333 312.738 75.5C310.271 76.7 307.871 77.3 305.538 77.3C304.138 77.3 302.904 76.9667 301.837 76.3C300.704 75.5667 300.204 74.1333 300.337 72C300.471 70.8667 301.037 69.7 302.037 68.5C302.971 67.2333 304.471 65.9333 306.538 64.6C310.671 62.2 314.571 60.9667 318.238 60.9C320.771 60.9 322.838 61.5333 324.438 62.8C326.104 64 327.004 65.8333 327.138 68.3C327.138 71.4333 325.471 75.5333 322.138 80.6C323.204 80.2667 324.738 79.7 326.738 78.9C328.738 78.1 330.771 77.2667 332.838 76.4C334.971 75.4667 336.938 74.5667 338.738 73.7C340.538 72.8333 341.804 72.1667 342.538 71.7ZM387.53 72.5C387.663 73.0333 387.53 73.4 387.13 73.6C382.53 76.4667 378.096 78.9333 373.83 81C369.63 83 365.963 84 362.83 84C359.23 84 357.33 81.3 357.13 75.9C356.53 76.2333 355.596 76.7667 354.33 77.5C353.13 78.1667 351.83 78.8667 350.43 79.6C349.096 80.3333 347.73 80.9667 346.33 81.5C344.996 82.1 343.896 82.4333 343.03 82.5C341.763 82.6333 340.63 82.4667 339.63 82C338.563 81.5333 337.896 80.5667 337.63 79.1C337.63 76.1667 340.363 72.5667 345.83 68.3C348.63 66.2333 351.296 64.6667 353.83 63.6C356.363 62.5333 358.496 62 360.23 62C362.696 61.9333 363.963 62.5333 364.03 63.8C364.03 65 363.596 65.9667 362.73 66.7C362.063 67.3 361.23 67.6 360.23 67.6C360.163 67.5333 360.096 67.4 360.03 67.2C359.963 67.0667 359.896 66.9333 359.83 66.8C359.763 66.6 359.663 66.3667 359.53 66.1C359.13 65.1 358.33 64.5667 357.13 64.5C354.53 64.5 351.496 65.9667 348.03 68.9C344.696 71.7 343.03 74.2333 343.03 76.5C343.03 77.0333 343.13 77.5333 343.33 78C343.53 78.4 343.896 78.6333 344.43 78.7C346.296 78.8333 348.13 78.5333 349.93 77.8C351.796 77.0667 353.763 76 355.83 74.6C356.696 74 358.196 72.5333 360.33 70.2C361.663 68.6 362.83 67.8333 363.83 67.9C364.63 67.9 365.03 68.2333 365.03 68.9C365.03 69.5 364.463 70.8 363.33 72.8C362.263 74.6667 361.73 76.0333 361.73 76.9C361.73 79.3667 362.93 80.6333 365.33 80.7C367.463 80.7 369.63 80.3667 371.83 79.7C374.03 79.0333 376.096 78.2333 378.03 77.3C379.963 76.3667 381.663 75.4667 383.13 74.6C384.663 73.6667 385.763 72.9667 386.43 72.5C386.63 72.3 386.83 72.1667 387.03 72.1C387.23 71.9667 387.396 72.1 387.53 72.5ZM412.487 44.5C412.487 44.5667 405.453 52.6333 391.387 68.7C392.653 68.0333 393.92 67.3667 395.187 66.7C396.453 66.0333 397.753 65.3333 399.087 64.6C402.287 63.2 405.187 62.4667 407.787 62.4C410.587 62.4 412.087 63.6333 412.287 66.1C412.287 67.7 410.953 69.9333 408.287 72.8C407.02 74.1333 405.62 75.3667 404.087 76.5C402.553 77.5667 400.82 78.6667 398.887 79.8C395.02 81.8 391.92 82.8333 389.587 82.9C389.053 82.9 388.62 82.8 388.287 82.6C387.953 82.4 387.62 82.1333 387.287 81.8C386.687 81.2 386.387 80.4333 386.387 79.5C386.387 77.6333 387.02 76.6333 388.287 76.5C388.953 76.5 389.387 76.7 389.587 77.1C389.787 77.3667 390.053 77.8333 390.387 78.5C390.853 79.5 391.887 80 393.487 80C395.553 80 398.487 78.4 402.287 75.2C406.153 72.2 408.087 69.5333 408.087 67.2C408.087 66.1333 406.887 65.5 404.487 65.3C402.22 65.3 399.92 66.0333 397.587 67.5C396.653 68.1 395.253 69.1333 393.387 70.6C391.587 72.0667 389.32 73.9667 386.587 76.3C383.12 79.2333 379.553 82.7 375.887 86.7C372.22 90.7667 368.387 95.4667 364.387 100.8C357.587 110.267 353.887 116.333 353.287 119V122.6C353.287 123.533 352.953 124.2 352.287 124.6C351.753 125 351.12 125.267 350.387 125.4C349.987 125.4 349.62 125.367 349.287 125.3C348.887 125.233 348.52 125.067 348.187 124.8C347.52 124.467 347.087 123.9 346.887 123.1C346.887 121.9 347.32 120.833 348.187 119.9C348.92 118.567 349.52 117.567 349.987 116.9C350.387 116.3 350.62 115.933 350.687 115.8C352.82 111.867 355.92 107.2 359.987 101.8C364.053 96.4 369.12 90.1667 375.187 83.1C378.053 79.7 382.32 74.8333 387.987 68.5C393.587 62.1667 400.753 54.2667 409.487 44.8C410.353 43.9333 411.087 43.4667 411.687 43.4C412.02 43.4 412.287 43.7667 412.487 44.5ZM464.385 72.5C464.652 72.3667 464.885 72.2333 465.085 72.1C465.352 71.9 465.552 72 465.685 72.4C465.885 72.8667 465.718 73.3 465.185 73.7C462.785 75.5 460.352 77.1333 457.885 78.6C455.485 80 453.152 81.1667 450.885 82.1C448.685 83.1 446.652 83.8333 444.785 84.3C442.918 84.7667 441.352 84.9667 440.085 84.9C439.285 84.8333 438.452 84.6333 437.585 84.3C436.785 83.9667 436.052 83.4667 435.385 82.8C434.785 82.1333 434.285 81.2667 433.885 80.2C433.485 79.1333 433.318 77.8333 433.385 76.3C432.585 77.1667 431.618 78.0333 430.485 78.9C429.352 79.7667 428.152 80.5333 426.885 81.2C425.618 81.8667 424.385 82.4 423.185 82.8C421.985 83.2 420.918 83.4 419.985 83.4C418.918 83.4 417.918 83.0333 416.985 82.3C416.052 81.6333 415.585 80.5333 415.585 79C415.518 76.7333 416.518 74.5 418.585 72.3C419.518 71.3 420.952 70.1 422.885 68.7C424.818 67.2333 427.285 65.5333 430.285 63.6C430.685 63.6 430.952 63.7667 431.085 64.1C431.218 64.3667 431.185 64.7 430.985 65.1C430.118 65.6333 429.252 66.2 428.385 66.8C427.518 67.4 426.618 68.0667 425.685 68.8C424.018 70.2 422.818 71.5333 422.085 72.8C421.285 74 420.818 75.1667 420.685 76.3C420.485 78.3 421.118 79.4667 422.585 79.8C423.785 80.0667 425.152 79.7667 426.685 78.9C428.285 77.9667 430.085 76.7 432.085 75.1C432.818 74.5 433.718 73.6 434.785 72.4C435.918 71.2 437.252 69.5667 438.785 67.5C441.118 64.4333 442.818 62.9 443.885 62.9C444.752 62.9 445.218 63.2667 445.285 64C445.285 64.7333 444.018 66.2667 441.485 68.6C439.085 70.8667 437.885 72.8 437.885 74.4C437.885 76.6667 438.252 78.3 438.985 79.3C439.785 80.3 440.852 81.0333 442.185 81.5C444.052 82.1 446.118 82.0333 448.385 81.3C450.718 80.5667 453.285 79.4667 456.085 78C457.218 77.4 458.552 76.6667 460.085 75.8C461.618 74.9333 463.052 73.8333 464.385 72.5Z" fill="#F37021"/>
</svg>
