<svg width="536" height="117" viewBox="0 0 536 117" fill="none" xmlns="http://www.w3.org/2000/svg">
<path d="M145.113 73.7C148.313 73.7 151.247 73.4667 153.913 73C156.58 72.4667 159.247 71.6 161.913 70.4C164.58 69.1333 167.38 67.5 170.313 65.5C173.247 63.4333 176.513 60.8333 180.113 57.7L181.413 58.1C177.547 61.7667 173.98 64.8667 170.713 67.4C167.447 69.9333 164.247 71.9667 161.113 73.5C158.047 75.0333 154.947 76.1 151.813 76.7C148.68 77.3667 145.313 77.6333 141.713 77.5C138.113 77.4333 134.813 76.8667 131.813 75.8C128.813 74.7333 126.247 73.2667 124.113 71.4C121.98 69.4667 120.313 67.1667 119.113 64.5C117.913 61.8333 117.28 58.8333 117.213 55.5C117.213 53.4333 117.38 51.4333 117.713 49.5C118.047 47.5 118.613 45.4 119.413 43.2C120.28 41 121.413 38.5667 122.813 35.9C124.28 33.2333 126.113 30.1667 128.313 26.7C126.713 27.9 124.913 29.4667 122.913 31.4C120.913 33.2667 118.747 35.3667 116.413 37.7C114.147 39.9667 111.713 42.4 109.113 45C106.58 47.6 103.98 50.2333 101.313 52.9C100.447 53.7667 99.28 54.9333 97.8133 56.4C96.4133 57.8667 94.88 59.4333 93.2133 61.1C91.5466 62.7667 89.8466 64.4667 88.1133 66.2C86.3799 67.8667 84.7466 69.4 83.2133 70.8C81.6799 72.2 80.3466 73.3667 79.2133 74.3C78.08 75.2333 77.3133 75.7333 76.9133 75.8L75.3133 75.6C74.8466 75.6 74.78 74.6333 75.1133 72.7C75.4466 70.7667 76.0466 68.3 76.9133 65.3C77.8466 62.2333 78.9466 58.9 80.2133 55.3C81.5466 51.6333 82.9466 48.1 84.4133 44.7C85.28 42.7 86.5133 40.0667 88.1133 36.8C89.7133 33.5333 91.58 30.1667 93.7133 26.7C90.58 29.1667 86.8466 32.4 82.5133 36.4C78.18 40.3333 72.68 45.0667 66.0133 50.6C63.2133 53.0667 60.4133 55.4 57.6133 57.6C54.8799 59.8 52.1466 61.8333 49.4133 63.7C43.8799 67.5667 38.4466 70.7 33.1133 73.1C27.7799 75.5 22.5799 76.7 17.5133 76.7C12.6466 76.7 8.61328 75.5 5.41328 73.1C2.27995 70.7 0.679948 67.6333 0.613281 63.9C0.613281 56.5667 5.11328 49.2333 14.1133 41.9C22.7799 34.9667 30.8799 31.5 38.4133 31.5C38.88 31.5 39.3799 31.5667 39.9133 31.7C40.5133 31.8333 41.0466 32.0333 41.5133 32.3C42.0466 32.5 42.5133 32.8 42.9133 33.2C43.3133 33.6 43.5466 34.0667 43.6133 34.6C43.6133 35.7333 43.0466 36.8 41.9133 37.8C40.8466 38.7333 39.7466 39.2333 38.6133 39.3C38.2133 37.4333 37.7799 36.2667 37.3133 35.8C36.9133 35.2667 36.1466 34.8667 35.0133 34.6C33.4133 34.2 31.4466 34.4 29.1133 35.2C26.7799 36 24.4466 37.0667 22.1133 38.4C19.7799 39.7333 17.6133 41.1667 15.6133 42.7C13.6799 44.2333 12.2466 45.5333 11.3133 46.6C9.64661 48.3333 8.27995 50.4333 7.21328 52.9C6.14661 55.3667 5.57995 57.9333 5.51328 60.6C5.51328 68.7333 10.6466 72.8 20.9133 72.8C22.3799 72.8 24.0799 72.5333 26.0133 72C27.9466 71.4667 30.0133 70.7333 32.2133 69.8C34.4133 68.8667 36.6799 67.8 39.0133 66.6C41.3466 65.3333 43.6466 64 45.9133 62.6C47.7799 61.5333 49.7133 60.2 51.7133 58.6C53.7133 56.9333 55.78 55.1333 57.9133 53.2C60.1133 51.2667 62.38 49.2333 64.7133 47.1C67.1133 44.9 69.5799 42.7333 72.1133 40.6C75.38 37.8667 78.3133 35.4333 80.9133 33.3C83.5133 31.1 86.1133 28.9 88.7133 26.7C101.047 16.5 111.147 7.6 119.013 -5.96046e-06C119.947 -5.96046e-06 120.447 0.366662 120.513 1.1C116.913 4.3 113.413 7.9 110.013 11.9C106.613 15.8333 103.413 19.9667 100.413 24.3C97.4133 28.5667 94.6466 32.9 92.1133 37.3C89.6466 41.7 87.4466 45.9667 85.5133 50.1C83.6466 54.1667 82.1133 58 80.9133 61.6C79.78 65.1333 79.08 68.2 78.8133 70.8C79.6133 70.2667 80.7133 69.3333 82.1133 68C83.5133 66.6667 84.9133 65.3 86.3133 63.9C87.7133 62.4333 88.98 61.1 90.1133 59.9C91.2466 58.7 91.9466 57.9667 92.2133 57.7C97.2133 52.5667 102.313 47.3667 107.513 42.1C112.78 36.8333 118.013 31.7 123.213 26.7C129.08 21.2333 134.58 16.4 139.713 12.2C144.913 7.93333 149.547 3.86666 153.613 -5.96046e-06C154.547 -5.96046e-06 155.047 0.366662 155.113 1.1C133.047 20.7 122.013 38.0667 122.013 53.2C122.013 56.2 122.547 58.9667 123.613 61.5C124.68 63.9667 126.213 66.1 128.213 67.9C130.213 69.7 132.613 71.1 135.413 72.1C138.28 73.1 141.513 73.6333 145.113 73.7ZM225.335 67C225.335 67.5333 225.235 67.9 225.035 68.1C220.435 71.1 216.268 73.3 212.535 74.7C208.868 76.1 205.768 76.9333 203.235 77.2C202.302 77.3333 201.368 77.3333 200.435 77.2C199.502 77.1333 198.668 76.9 197.935 76.5C197.202 76.1 196.602 75.5 196.135 74.7C195.668 73.9 195.435 72.8333 195.435 71.5C195.435 70.0333 196.002 68.3333 197.135 66.4C198.268 64.4 199.435 62.6667 200.635 61.2C199.702 61.5333 198.635 61.9333 197.435 62.4C196.235 62.8 194.968 63.2 193.635 63.6C193.168 64.5333 192.602 65.4667 191.935 66.4C191.268 67.3333 190.502 68.3333 189.635 69.4C184.502 75.5333 179.202 78.6333 173.735 78.7C170.068 78.7 168.202 76.8333 168.135 73.1C168.135 71.3667 168.802 69.3333 170.135 67C171.402 64.6667 173.035 62 175.035 59C176.368 57.1333 177.635 55.4333 178.835 53.9C180.102 52.3 181.135 50.6333 181.935 48.9C182.868 46.9667 184.035 45.6333 185.435 44.9C186.835 44.1667 188.068 43.6667 189.135 43.4C189.602 43.2667 190.168 43.1667 190.835 43.1C191.502 43.0333 191.868 43.4 191.935 44.2C191.935 44.9333 191.302 46 190.035 47.4C188.768 48.8 186.968 50.5333 184.635 52.6C181.502 55.4 178.835 58.4 176.635 61.6C174.502 64.7333 173.268 67.5667 172.935 70.1C172.802 71.3667 173.102 72.5 173.835 73.5C174.502 74.4333 175.835 74.8333 177.835 74.7C179.702 74.5667 181.502 73.9 183.235 72.7C184.968 71.5 186.702 69.6333 188.435 67.1C188.768 66.6333 189.035 66.2333 189.235 65.9C189.502 65.5 189.702 65.1 189.835 64.7C188.368 65.3 187.168 65.6333 186.235 65.7C185.302 65.7667 184.468 65.7333 183.735 65.6C183.535 65.5333 183.268 65.4333 182.935 65.3C182.668 65.1 182.402 64.8333 182.135 64.5C181.868 64.1667 181.668 63.8 181.535 63.4C181.468 62.9333 181.502 62.4333 181.635 61.9C181.968 60.5 182.868 59.3 184.335 58.3C185.802 57.2333 187.402 56.5667 189.135 56.3C190.002 56.1667 190.868 56.1667 191.735 56.3C192.602 56.3667 193.335 56.6333 193.935 57.1C194.535 57.5 194.902 58.1 195.035 58.9C195.168 59.7 194.968 60.7667 194.435 62.1C197.102 61.3667 199.335 60.5333 201.135 59.6C202.935 58.6 204.402 57.9333 205.535 57.6C206.402 57.6 206.835 57.9 206.835 58.5C206.835 59.0333 205.768 60.5 203.635 62.9C201.768 65.3 200.768 67.5667 200.635 69.7C200.635 71.0333 200.902 72.1333 201.435 73C202.035 73.8 202.968 74.2667 204.235 74.4C205.168 74.4 206.335 74.3 207.735 74.1C209.202 73.9 210.802 73.5333 212.535 73C214.335 72.4667 216.235 71.7 218.235 70.7C220.235 69.6333 222.235 68.2667 224.235 66.6C224.302 66.5333 224.568 66.5 225.035 66.5C225.168 66.5 225.268 66.6667 225.335 67ZM190.835 62.9C191.768 60.9667 191.635 59.5333 190.435 58.6C189.768 58.0667 189.002 57.8667 188.135 58C187.335 58.0667 186.668 58.3667 186.135 58.9C185.602 59.4333 185.235 60 185.035 60.6C184.835 61.2 184.902 61.8333 185.235 62.5C185.702 63.5 186.535 63.9667 187.735 63.9C188.935 63.7667 189.968 63.4333 190.835 62.9ZM282.091 66.3C282.557 65.8333 282.924 65.9333 283.191 66.6C283.191 67.2 283.024 67.5667 282.691 67.7C278.224 70.7667 273.624 73.4333 268.891 75.7C264.224 77.9667 259.357 79.1333 254.291 79.2C252.957 79.2 251.724 79.0333 250.591 78.7C249.391 78.3667 248.357 77.8667 247.491 77.2C246.624 76.5333 245.957 75.7 245.491 74.7C245.024 73.6333 244.857 72.4 244.991 71C245.191 69.2667 245.757 67.4667 246.691 65.6C247.624 63.6667 249.291 61.7333 251.691 59.8C252.891 58.8 254.157 57.9 255.491 57.1C256.824 56.3 258.157 55.6 259.491 55C260.891 54.4 262.224 53.9333 263.491 53.6C264.757 53.2667 265.924 53.0667 266.991 53C269.124 53 270.257 54 270.391 56C270.391 56.9333 269.991 57.8667 269.191 58.8C268.457 59.7333 267.524 60.6 266.391 61.4C265.257 62.1333 264.024 62.7667 262.691 63.3C261.357 63.8333 260.157 64.1333 259.091 64.2C258.357 64.2 257.824 64.1 257.491 63.9C257.224 63.7 257.024 63.4333 256.891 63.1C256.491 62.1667 256.624 61.4667 257.291 61C258.024 60.4667 258.891 60.2 259.891 60.2C260.024 60.2 260.357 60.2667 260.891 60.4C261.424 60.4667 262.157 60.5667 263.091 60.7C263.491 60.7667 263.957 60.6667 264.491 60.4C265.091 60.1333 265.591 59.8 265.991 59.4C266.457 59 266.791 58.5667 266.991 58.1C267.191 57.5667 267.191 57.1 266.991 56.7C266.657 56.2333 266.357 55.9667 266.091 55.9C265.824 55.7667 265.257 55.7 264.391 55.7C263.124 55.7 261.591 56.1 259.791 56.9C258.057 57.7 256.291 58.9 254.491 60.5C251.091 63.7667 249.391 66.6333 249.391 69.1C249.391 71.3667 250.124 73.0667 251.591 74.2C253.124 75.2667 255.291 75.8 258.091 75.8C260.157 75.8 262.657 75.3667 265.591 74.5C268.591 73.5667 271.524 72.4 274.391 71C275.324 70.5333 276.091 70.1 276.691 69.7C277.357 69.3 277.957 68.9333 278.491 68.6C279.024 68.2667 279.557 67.9333 280.091 67.6C280.624 67.2 281.291 66.7667 282.091 66.3ZM319.063 66.6C319.063 66.8667 319.03 67.1 318.963 67.3C318.963 67.4333 318.863 67.6 318.663 67.8C314.997 70.6 311.663 72.4667 308.663 73.4C305.663 74.3333 302.863 74.8667 300.263 75C298.53 75.0667 296.863 74.4333 295.263 73.1C293.33 74.7667 291.33 76.0667 289.263 77C287.263 78 285.097 78.5667 282.763 78.7C281.297 78.7667 280.097 78.4333 279.163 77.7C278.163 77.0333 277.663 76 277.663 74.6C277.663 71.0667 280.23 67.0667 285.363 62.6C287.897 60.4667 290.263 58.9 292.463 57.9C294.663 56.9 296.563 56.4 298.163 56.4C301.563 56.4 303.263 58 303.263 61.2C303.263 62.9333 302.797 64.6667 301.863 66.4C300.93 68.1333 299.397 69.8667 297.263 71.6C298.13 72.4667 299.23 72.9 300.563 72.9C301.497 72.9 302.53 72.8333 303.663 72.7C304.797 72.5667 306.063 72.3 307.463 71.9C308.863 71.4333 310.43 70.7667 312.163 69.9C313.897 68.9667 315.83 67.7333 317.963 66.2C318.163 66.0667 318.397 66 318.663 66C318.93 66 319.063 66.2 319.063 66.6ZM301.763 60.4C301.763 59.8 301.63 59.3667 301.363 59.1C301.163 58.8333 300.697 58.6667 299.963 58.6C298.563 58.6 297.297 59.2667 296.163 60.6C295.097 61.8667 294.497 63.3 294.363 64.9C294.363 67.3667 294.83 69 295.763 69.8C299.763 66.6 301.763 63.4667 301.763 60.4ZM294.263 71.4C293.597 70.7333 293.13 69.9333 292.863 69C292.597 68.0667 292.463 67.1 292.463 66.1C292.53 65.1 292.697 64.1 292.963 63.1C293.297 62.0333 293.663 61.0333 294.063 60.1C292.863 60.3667 291.563 60.9 290.163 61.7C288.83 62.5 287.563 63.4333 286.363 64.5C285.23 65.5667 284.263 66.7333 283.463 68C282.663 69.2 282.163 70.4 281.963 71.6C281.83 72.8 282.063 73.7 282.663 74.3C283.263 74.9 284.063 75.2333 285.063 75.3C287.863 75.3 290.93 74 294.263 71.4ZM362.201 66.2C362.201 66.4 362.167 66.6 362.101 66.8C362.034 67 361.901 67.1667 361.701 67.3C359.301 68.9 357.034 70.2667 354.901 71.4C352.834 72.4667 350.834 73.4 348.901 74.2C346.967 74.9333 345.101 75.6 343.301 76.2C341.501 76.8 339.667 77.4333 337.801 78.1C333.201 84.1 325.467 91.2667 314.601 99.6C299.801 110.867 288.067 116.567 279.401 116.7C277.201 116.7 275.367 116.1 273.901 114.9C272.367 113.767 271.601 112.267 271.601 110.4C271.601 102.467 280.267 95.2 297.601 88.6C301.267 87.1333 307.934 84.9333 317.601 82C327.001 79.2 332.501 77.4667 334.101 76.8C334.567 76.3333 334.934 75.7 335.201 74.9C335.534 74.1 335.701 73.3 335.701 72.5C335.767 71.7 335.634 70.9333 335.301 70.2C334.967 69.4667 334.401 68.9 333.601 68.5C333.067 68.6333 332.434 68.8667 331.701 69.2C331.034 69.5333 330.367 69.8333 329.701 70.1C329.034 70.3 328.467 70.3667 328.001 70.3C327.534 70.2333 327.267 69.8333 327.201 69.1C327.201 68.4333 327.434 67.9333 327.901 67.6C328.367 67.2667 328.934 67.0333 329.601 66.9C330.334 66.7 331.101 66.6 331.901 66.6C332.701 66.6 333.401 66.6333 334.001 66.7C334.867 66.4333 335.834 66.1 336.901 65.7C338.034 65.2333 339.101 64.7 340.101 64.1C341.167 63.5 342.134 62.8667 343.001 62.2C343.867 61.4667 344.501 60.7 344.901 59.9C345.967 57.9667 346.067 56.3667 345.201 55.1C344.334 53.8333 342.934 53.2 341.001 53.2C340.267 53.2 339.467 53.4 338.601 53.8C337.801 54.1333 336.934 54.6 336.001 55.2C335.067 55.7333 334.101 56.3667 333.101 57.1C332.167 57.7667 331.201 58.4333 330.201 59.1C329.401 59.6333 328.467 60.2667 327.401 61C326.401 61.7333 325.367 62.5 324.301 63.3C323.301 64.0333 322.334 64.7667 321.401 65.5C320.467 66.2333 319.734 66.8333 319.201 67.3C319.001 67.5 318.834 67.6333 318.701 67.7C318.367 67.8333 318.134 67.7 318.001 67.3C317.801 66.9667 317.834 66.6667 318.101 66.4C318.234 66.2667 318.367 66.1667 318.501 66.1C320.034 64.9 321.934 63.3667 324.201 61.5C326.467 59.5667 328.667 57.9 330.801 56.5C333.267 54.8333 335.667 53.3667 338.001 52.1C340.334 50.8333 342.267 50.0667 343.801 49.8C345.134 49.5333 346.367 49.5 347.501 49.7C348.634 49.8333 349.567 50.3333 350.301 51.2C350.901 52 351.267 52.8667 351.401 53.8C351.534 54.6667 351.467 55.5667 351.201 56.5C350.934 57.3667 350.501 58.2333 349.901 59.1C349.367 59.9667 348.734 60.7333 348.001 61.4C347.334 62 346.501 62.6 345.501 63.2C344.567 63.7333 343.601 64.2667 342.601 64.8C341.601 65.3333 340.601 65.8333 339.601 66.3C338.667 66.7667 337.867 67.2 337.201 67.6C338.067 68 338.667 68.4667 339.001 69C339.334 69.5333 339.534 70.1333 339.601 70.8C339.667 71.4 339.634 72.0667 339.501 72.8C339.367 73.5333 339.234 74.3333 339.101 75.2C340.234 74.8 341.467 74.4333 342.801 74.1C344.134 73.7667 345.667 73.3 347.401 72.7C349.201 72.0333 351.201 71.1667 353.401 70.1C355.601 68.9667 358.167 67.5 361.101 65.7C361.301 65.6333 361.501 65.6 361.701 65.6C361.967 65.6 362.134 65.8 362.201 66.2ZM332.401 79.7C329.201 80.5667 326.034 81.4333 322.901 82.3C319.834 83.1667 316.701 84.1 313.501 85.1C308.101 86.6333 303.301 88.1667 299.101 89.7C294.834 91.3 291.201 92.9 288.201 94.5C279.801 98.8333 275.534 103.367 275.401 108.1C275.401 109.833 276.334 111.3 278.201 112.5C279.734 113.5 281.501 114.033 283.501 114.1C285.567 114.1 288.601 113.3 292.601 111.7C296.667 110.033 300.434 108 303.901 105.6C317.634 95.5333 327.134 86.9 332.401 79.7ZM375.934 79.7C372.734 80.5667 369.568 81.4333 366.434 82.3C363.368 83.1667 360.234 84.1 357.034 85.1C351.634 86.6333 346.834 88.2 342.634 89.8C338.368 91.4 334.734 93 331.734 94.6C323.201 98.9333 318.934 103.467 318.934 108.2C318.934 110.067 319.801 111.433 321.534 112.3C323.201 113.167 325.401 113.5 328.134 113.3C330.868 113.1 333.934 112.367 337.334 111.1C340.668 109.833 344.034 108 347.434 105.6C361.168 95.6667 370.668 87.0333 375.934 79.7ZM404.334 65.7C404.601 65.5667 404.834 65.4667 405.034 65.4C405.234 65.3333 405.401 65.4667 405.534 65.8C405.601 66.0667 405.601 66.2667 405.534 66.4C405.534 66.5333 405.368 66.7 405.034 66.9C401.168 69.2333 397.134 71.3 392.934 73.1C388.734 74.9 384.868 76.6 381.334 78.2C376.534 84.3333 368.801 91.5 358.134 99.7C343.334 110.9 331.601 116.567 322.934 116.7C320.801 116.7 318.968 116.133 317.434 115C315.901 113.933 315.134 112.433 315.134 110.5C315.134 102.5 323.801 95.2 341.134 88.6C344.801 87.1333 351.468 84.9333 361.134 82C365.934 80.6 369.668 79.4667 372.334 78.6C375.068 77.8 376.834 77.2333 377.634 76.9C382.301 71.7 384.701 66.7 384.834 61.9C384.834 58.7 382.968 57.1 379.234 57.1C377.834 57.1 376.468 57.2667 375.134 57.6C373.801 57.9333 372.468 58.4667 371.134 59.2C368.468 60.8 367.134 62.5667 367.134 64.5C367.134 67.1667 368.201 68.5333 370.334 68.6C371.668 68.6 373.368 68.2 375.434 67.4C377.568 66.5333 379.834 65.3333 382.234 63.8L381.534 65.3C379.334 66.8333 377.001 68.2333 374.534 69.5C372.068 70.7 369.668 71.3 367.334 71.3C365.934 71.3 364.701 70.9667 363.634 70.3C362.501 69.5667 362.001 68.1333 362.134 66C362.268 64.8667 362.834 63.7 363.834 62.5C364.768 61.2333 366.268 59.9333 368.334 58.6C372.468 56.2 376.368 54.9667 380.034 54.9C382.568 54.9 384.634 55.5333 386.234 56.8C387.901 58 388.801 59.8333 388.934 62.3C388.934 65.4333 387.268 69.5333 383.934 74.6C385.001 74.2667 386.534 73.7 388.534 72.9C390.534 72.1 392.568 71.2667 394.634 70.4C396.768 69.4667 398.734 68.5667 400.534 67.7C402.334 66.8333 403.601 66.1667 404.334 65.7ZM449.327 66.5C449.46 67.0333 449.327 67.4 448.927 67.6C444.327 70.4667 439.893 72.9333 435.627 75C431.427 77 427.76 78 424.627 78C421.027 78 419.127 75.3 418.927 69.9C418.327 70.2333 417.393 70.7667 416.127 71.5C414.927 72.1667 413.627 72.8667 412.227 73.6C410.893 74.3333 409.527 74.9667 408.127 75.5C406.793 76.1 405.693 76.4333 404.827 76.5C403.56 76.6333 402.427 76.4667 401.427 76C400.36 75.5333 399.693 74.5667 399.427 73.1C399.427 70.1667 402.16 66.5667 407.627 62.3C410.427 60.2333 413.093 58.6667 415.627 57.6C418.16 56.5333 420.293 56 422.027 56C424.493 55.9333 425.76 56.5333 425.827 57.8C425.827 59 425.393 59.9667 424.527 60.7C423.86 61.3 423.027 61.6 422.027 61.6C421.96 61.5333 421.893 61.4 421.827 61.2C421.76 61.0667 421.693 60.9333 421.627 60.8C421.56 60.6 421.46 60.3667 421.327 60.1C420.927 59.1 420.127 58.5667 418.927 58.5C416.327 58.5 413.293 59.9667 409.827 62.9C406.493 65.7 404.827 68.2333 404.827 70.5C404.827 71.0333 404.927 71.5333 405.127 72C405.327 72.4 405.693 72.6333 406.227 72.7C408.093 72.8333 409.927 72.5333 411.727 71.8C413.593 71.0667 415.56 70 417.627 68.6C418.493 68 419.993 66.5333 422.127 64.2C423.46 62.6 424.627 61.8333 425.627 61.9C426.427 61.9 426.827 62.2333 426.827 62.9C426.827 63.5 426.26 64.8 425.127 66.8C424.06 68.6667 423.527 70.0333 423.527 70.9C423.527 73.3667 424.727 74.6333 427.127 74.7C429.26 74.7 431.427 74.3667 433.627 73.7C435.827 73.0333 437.893 72.2333 439.827 71.3C441.76 70.3667 443.46 69.4667 444.927 68.6C446.46 67.6667 447.56 66.9667 448.227 66.5C448.427 66.3 448.627 66.1667 448.827 66.1C449.027 65.9667 449.193 66.1 449.327 66.5ZM473.784 66.4C473.85 66.7333 473.75 67.1 473.484 67.5C467.95 71.0333 463.15 73.6667 459.084 75.4C455.017 77.1333 451.117 78 447.384 78C442.784 78 440.45 75.6333 440.384 70.9C440.384 67.9 442.084 64.5 445.484 60.7C448.95 56.9 452.017 55 454.684 55C455.284 55 455.95 55.1333 456.684 55.4C457.417 55.6667 457.85 56.5 457.984 57.9C458.05 59.0333 457.417 60.2667 456.084 61.6C454.817 62.9333 453.517 64.1667 452.184 65.3C451.184 66.1667 450.084 67.0333 448.884 67.9C447.684 68.7 446.317 69.5 444.784 70.3C444.65 71.1667 444.75 71.8 445.084 72.2C445.417 72.6 445.95 73.0667 446.684 73.6C447.884 74.2667 449.117 74.6333 450.384 74.7C452.584 74.7 455.584 74.1333 459.384 73C463.25 71.8 467.717 69.4667 472.784 66C472.984 65.8667 473.184 65.8333 473.384 65.9C473.65 65.9 473.784 66.0667 473.784 66.4ZM453.584 59C453.584 58.6667 453.15 58.4 452.284 58.2C451.217 58.2 449.717 59.2333 447.784 61.3C446.85 62.3 446.15 63.3333 445.684 64.4C445.217 65.4667 444.984 66.3667 444.984 67.1C445.117 67.1 445.55 66.9667 446.284 66.7C447.017 66.4333 447.617 66.1333 448.084 65.8C449.817 64.8 451.117 63.6667 451.984 62.4C452.917 61.1333 453.45 60 453.584 59ZM462.784 48.4C462.784 49.9333 461.65 50.8 459.384 51C457.45 51 456.45 50.1333 456.384 48.4C456.384 46.7333 457.417 45.9 459.484 45.9C460.417 45.9 461.184 46.1667 461.784 46.7C462.45 47.1667 462.784 47.7333 462.784 48.4ZM453.784 48.4C453.784 49.9333 452.65 50.8 450.384 51C448.45 51 447.45 50.1333 447.384 48.4C447.384 46.7333 448.417 45.9 450.484 45.9C451.284 45.9 452.05 46.1667 452.784 46.7C453.45 47.1667 453.784 47.7333 453.784 48.4ZM512.174 77.1C510.508 76.8333 509.108 76.1333 507.974 75C506.908 73.8 506.441 71.8667 506.574 69.2C505.574 69.8667 504.474 70.6333 503.274 71.5C502.074 72.3 500.874 73.1 499.674 73.9C498.474 74.6333 497.308 75.2333 496.174 75.7C495.041 76.1667 494.041 76.3667 493.174 76.3C492.174 76.2333 491.408 75.8667 490.874 75.2C490.408 74.6 490.108 73.8667 489.974 73C489.841 72.0667 489.908 71.1 490.174 70.1C490.441 69.0333 490.841 68.0333 491.374 67.1C489.374 68.7 487.608 70.1667 486.074 71.5C484.541 72.7667 483.074 73.8667 481.674 74.8C480.341 75.6667 478.974 76.3667 477.574 76.9C476.241 77.4333 474.774 77.7333 473.174 77.8C472.041 77.8667 470.874 77.4 469.674 76.4C468.408 75.4667 467.741 74.3333 467.674 73C467.541 71.4 467.741 70.1333 468.274 69.2C468.808 68.2667 469.374 67.5333 469.974 67C470.774 66.4 471.641 66 472.574 65.8C473.508 65.5333 474.174 65.6667 474.574 66.2C475.041 66.8 475.274 67.5333 475.274 68.4C475.208 69.2 475.141 70 475.074 70.8C474.941 71.6 474.874 72.3 474.874 72.9C474.874 73.5 475.174 73.9 475.774 74.1C476.241 74.3 476.808 74.4 477.474 74.4C478.141 74.3333 478.974 74.0333 479.974 73.5C480.774 73.1 481.608 72.6333 482.474 72.1C483.408 71.5 484.441 70.7667 485.574 69.9C486.708 69.0333 487.974 67.9667 489.374 66.7C490.841 65.4333 492.508 63.8667 494.374 62C496.308 60.1333 497.741 58.4667 498.674 57C499.608 55.5333 500.441 54.6333 501.174 54.3C501.441 54.1667 501.774 54.1333 502.174 54.2C502.574 54.2 502.941 54.3 503.274 54.5C503.608 54.7 503.874 54.9667 504.074 55.3C504.274 55.6333 504.274 56.0333 504.074 56.5C503.341 57.3667 502.508 58.0333 501.574 58.5C500.641 58.9 499.741 59.4667 498.874 60.2C497.274 61.5333 496.074 63.1 495.274 64.9C494.474 66.6333 494.041 68.0667 493.974 69.2C493.974 70.3333 494.108 71.1333 494.374 71.6C494.641 72.0667 495.108 72.4333 495.774 72.7C496.441 72.9 497.141 72.9 497.874 72.7C498.674 72.4333 499.474 72.0667 500.274 71.6C501.141 71.0667 501.974 70.5 502.774 69.9C503.641 69.2333 504.441 68.6 505.174 68C505.908 67.4667 506.808 66.3333 507.874 64.6C509.008 62.8 510.374 60.9 511.974 58.9C514.241 55.8333 515.941 54.3 517.074 54.3C517.941 54.3 518.374 54.6667 518.374 55.4C518.374 56.0667 517.141 57.6 514.674 60C513.474 61.1333 512.541 62.4333 511.874 63.9C511.274 65.3667 510.974 66.5 510.974 67.3C510.974 69.1 511.341 70.4667 512.074 71.4C512.874 72.2667 513.941 72.9 515.274 73.3C517.008 73.8333 518.741 73.9667 520.474 73.7C522.274 73.3667 524.008 72.8 525.674 72C527.341 71.2 528.941 70.3 530.474 69.3C532.008 68.2333 533.474 67.2 534.874 66.2C535.141 66.0667 535.341 66 535.474 66C535.674 66 535.841 66.2 535.974 66.6C535.974 67.0667 535.841 67.4333 535.574 67.7C532.841 69.9 530.308 71.6667 527.974 73C525.641 74.2667 523.474 75.2333 521.474 75.9C519.541 76.5667 517.774 76.9667 516.174 77.1C514.641 77.2333 513.308 77.2333 512.174 77.1Z" fill="#F37021"/>
</svg>
