<svg width="588" height="228" viewBox="0 0 588 228" fill="none" xmlns="http://www.w3.org/2000/svg">
<path d="M124.048 18.4C124.048 18.7333 116.982 28.9667 102.848 49.1C95.7151 59.0333 90.3818 66.8 86.8484 72.4C83.3818 77.9333 81.5818 81.3667 81.4484 82.7C81.4484 84.2333 81.9818 85 83.0484 85C83.1818 85 83.3151 85 83.4484 85C83.5818 84.9333 83.7818 84.8333 84.0484 84.7C84.6484 84.7 85.0484 84.6333 85.2484 84.5C83.3151 87.0333 81.4484 88.3 79.6484 88.3C78.9818 88.3 78.3484 88.0333 77.7484 87.5C77.0818 87.0333 76.7484 86.4667 76.7484 85.8C76.7484 83.2 79.9484 76.9667 86.3484 67.1C89.9484 61.4333 92.6818 57.1333 94.5484 54.2C96.4151 51.2667 97.4484 49.6333 97.6484 49.3C93.5151 53.3 89.3818 57.2667 85.2484 61.2C81.1818 65.1333 77.0484 69.1 72.8484 73.1C62.3151 82.7 54.3151 87.5333 48.8484 87.6C47.7818 87.6 46.8151 87.3667 45.9484 86.9C45.0818 86.5 44.3151 85.7667 43.6484 84.7C42.4484 83.0333 41.7484 80.9333 41.5484 78.4C41.5484 77.0667 42.0818 74.4667 43.1484 70.6C44.2151 66.7333 45.8818 61.4667 48.1484 54.8C50.3484 48.2667 51.9818 42.7 53.0484 38.1C54.1151 33.4333 54.6484 29.6667 54.6484 26.8C54.6484 19.4 52.4151 13.8 47.9484 9.99999C43.5484 6.2 36.9818 4.23333 28.2484 4.09999C26.1151 4.09999 23.9818 4.33333 21.8484 4.8C19.7151 5.26666 17.5484 6.06666 15.3484 7.2C13.9484 7.86666 12.4818 8.7 10.9484 9.7C9.41511 10.6333 7.84844 11.7667 6.24844 13.1C4.91511 14.1 3.88177 14.8333 3.14844 15.3C2.48177 15.7667 2.08177 16.0667 1.94844 16.2C1.28177 16.2 0.815105 16.1333 0.548439 16C0.348439 15.8667 0.181771 15.6667 0.0484379 15.4C0.0484379 15 2.78177 12.8333 8.24844 8.9C16.7818 3.1 25.0484 0.13333 33.0484 -1.43051e-06C41.3151 -1.43051e-06 47.9151 2.26666 52.8484 6.79999C57.8484 11.2 60.3484 17.1333 60.3484 24.6C60.3484 26.5333 59.7818 29.8333 58.6484 34.5C57.5818 39.1667 55.8818 45.1667 53.5484 52.5C51.4151 59.7667 49.8151 65.4667 48.7484 69.6C47.6818 73.6667 47.0818 76.1667 46.9484 77.1C46.9484 78.7 47.4818 80.1667 48.5484 81.5C49.6151 82.7667 50.8151 83.4 52.1484 83.4C56.4818 83.4 67.3151 75.2 84.6484 58.8C92.2484 51.5333 98.3151 45.5333 102.848 40.8C107.448 36 110.582 32.4 112.248 30C116.315 24.1333 118.782 20.6667 119.648 19.6C121.182 17.6667 122.315 16.7 123.048 16.7C123.648 16.7 123.982 16.7333 124.048 16.8V18.4ZM144.896 77.2C144.896 77.4 144.863 77.6 144.796 77.8C144.729 78 144.596 78.1667 144.396 78.3C141.996 79.9 139.729 81.2667 137.596 82.4C135.529 83.4667 133.529 84.4 131.596 85.2C129.663 85.9333 127.796 86.6 125.996 87.2C124.196 87.8 122.363 88.4333 120.496 89.1C115.896 95.1 108.163 102.267 97.2961 110.6C82.4961 121.867 70.7628 127.567 62.0961 127.7C59.8961 127.7 58.0628 127.1 56.5961 125.9C55.0628 124.767 54.2961 123.267 54.2961 121.4C54.2961 113.467 62.9628 106.2 80.2961 99.6C83.9628 98.1333 90.6294 95.9333 100.296 93C109.696 90.2 115.196 88.4667 116.796 87.8C117.263 87.3333 117.629 86.7 117.896 85.9C118.229 85.1 118.396 84.3 118.396 83.5C118.463 82.7 118.329 81.9333 117.996 81.2C117.663 80.4667 117.096 79.9 116.296 79.5C115.763 79.6333 115.129 79.8667 114.396 80.2C113.729 80.5333 113.063 80.8333 112.396 81.1C111.729 81.3 111.163 81.3667 110.696 81.3C110.229 81.2333 109.963 80.8333 109.896 80.1C109.896 79.4333 110.129 78.9333 110.596 78.6C111.063 78.2667 111.629 78.0333 112.296 77.9C113.029 77.7 113.796 77.6 114.596 77.6C115.396 77.6 116.096 77.6333 116.696 77.7C117.563 77.4333 118.529 77.1 119.596 76.7C120.729 76.2333 121.796 75.7 122.796 75.1C123.863 74.5 124.829 73.8667 125.696 73.2C126.563 72.4667 127.196 71.7 127.596 70.9C128.663 68.9667 128.763 67.3667 127.896 66.1C127.029 64.8333 125.629 64.2 123.696 64.2C122.963 64.2 122.163 64.4 121.296 64.8C120.496 65.1333 119.629 65.6 118.696 66.2C117.763 66.7333 116.796 67.3667 115.796 68.1C114.863 68.7667 113.896 69.4333 112.896 70.1C112.096 70.6333 111.163 71.2667 110.096 72C109.096 72.7333 108.063 73.5 106.996 74.3C105.996 75.0333 105.029 75.7667 104.096 76.5C103.163 77.2333 102.429 77.8333 101.896 78.3C101.696 78.5 101.529 78.6333 101.396 78.7C101.063 78.8333 100.829 78.7 100.696 78.3C100.496 77.9667 100.529 77.6667 100.796 77.4C100.929 77.2667 101.063 77.1667 101.196 77.1C102.729 75.9 104.629 74.3667 106.896 72.5C109.163 70.5667 111.363 68.9 113.496 67.5C115.963 65.8333 118.363 64.3667 120.696 63.1C123.029 61.8333 124.963 61.0667 126.496 60.8C127.829 60.5333 129.063 60.5 130.196 60.7C131.329 60.8333 132.263 61.3333 132.996 62.2C133.596 63 133.963 63.8667 134.096 64.8C134.229 65.6667 134.163 66.5667 133.896 67.5C133.629 68.3667 133.196 69.2333 132.596 70.1C132.063 70.9667 131.429 71.7333 130.696 72.4C130.029 73 129.196 73.6 128.196 74.2C127.263 74.7333 126.296 75.2667 125.296 75.8C124.296 76.3333 123.296 76.8333 122.296 77.3C121.363 77.7667 120.563 78.2 119.896 78.6C120.763 79 121.363 79.4667 121.696 80C122.029 80.5333 122.229 81.1333 122.296 81.8C122.363 82.4 122.329 83.0667 122.196 83.8C122.063 84.5333 121.929 85.3333 121.796 86.2C122.929 85.8 124.163 85.4333 125.496 85.1C126.829 84.7667 128.363 84.3 130.096 83.7C131.896 83.0333 133.896 82.1667 136.096 81.1C138.296 79.9667 140.863 78.5 143.796 76.7C143.996 76.6333 144.196 76.6 144.396 76.6C144.663 76.6 144.829 76.8 144.896 77.2ZM115.096 90.7C111.896 91.5667 108.729 92.4333 105.596 93.3C102.529 94.1667 99.3961 95.1 96.1961 96.1C90.7961 97.6333 85.9961 99.1667 81.7961 100.7C77.5294 102.3 73.8961 103.9 70.8961 105.5C62.4961 109.833 58.2294 114.367 58.0961 119.1C58.0961 120.833 59.0294 122.3 60.8961 123.5C62.4294 124.5 64.1961 125.033 66.1961 125.1C68.2628 125.1 71.2961 124.3 75.2961 122.7C79.3628 121.033 83.1294 119 86.5961 116.6C100.329 106.533 109.829 97.9 115.096 90.7ZM158.63 90.7C155.43 91.5667 152.263 92.4333 149.13 93.3C146.063 94.1667 142.93 95.1 139.73 96.1C134.33 97.6333 129.53 99.2 125.33 100.8C121.063 102.4 117.43 104 114.43 105.6C105.896 109.933 101.63 114.467 101.63 119.2C101.63 121.067 102.496 122.433 104.23 123.3C105.896 124.167 108.096 124.5 110.83 124.3C113.563 124.1 116.63 123.367 120.03 122.1C123.363 120.833 126.73 119 130.13 116.6C143.863 106.667 153.363 98.0333 158.63 90.7ZM187.03 76.7C187.296 76.5667 187.53 76.4667 187.73 76.4C187.93 76.3333 188.096 76.4667 188.23 76.8C188.296 77.0667 188.296 77.2667 188.23 77.4C188.23 77.5333 188.063 77.7 187.73 77.9C183.863 80.2333 179.83 82.3 175.63 84.1C171.43 85.9 167.563 87.6 164.03 89.2C159.23 95.3333 151.496 102.5 140.83 110.7C126.03 121.9 114.296 127.567 105.63 127.7C103.496 127.7 101.663 127.133 100.13 126C98.5964 124.933 97.8297 123.433 97.8297 121.5C97.8297 113.5 106.496 106.2 123.83 99.6C127.496 98.1333 134.163 95.9333 143.83 93C148.63 91.6 152.363 90.4667 155.03 89.6C157.763 88.8 159.53 88.2333 160.33 87.9C164.996 82.7 167.396 77.7 167.53 72.9C167.53 69.7 165.663 68.1 161.93 68.1C160.53 68.1 159.163 68.2667 157.83 68.6C156.496 68.9333 155.163 69.4667 153.83 70.2C151.163 71.8 149.83 73.5667 149.83 75.5C149.83 78.1667 150.896 79.5333 153.03 79.6C154.363 79.6 156.063 79.2 158.13 78.4C160.263 77.5333 162.53 76.3333 164.93 74.8L164.23 76.3C162.03 77.8333 159.696 79.2333 157.23 80.5C154.763 81.7 152.363 82.3 150.03 82.3C148.63 82.3 147.396 81.9667 146.33 81.3C145.196 80.5667 144.696 79.1333 144.83 77C144.963 75.8667 145.53 74.7 146.53 73.5C147.463 72.2333 148.963 70.9333 151.03 69.6C155.163 67.2 159.063 65.9667 162.73 65.9C165.263 65.9 167.33 66.5333 168.93 67.8C170.596 69 171.496 70.8333 171.63 73.3C171.63 76.4333 169.963 80.5333 166.63 85.6C167.696 85.2667 169.23 84.7 171.23 83.9C173.23 83.1 175.263 82.2667 177.33 81.4C179.463 80.4667 181.43 79.5667 183.23 78.7C185.03 77.8333 186.296 77.1667 187.03 76.7ZM232.022 77.5C232.155 78.0333 232.022 78.4 231.622 78.6C227.022 81.4667 222.589 83.9333 218.322 86C214.122 88 210.455 89 207.322 89C203.722 89 201.822 86.3 201.622 80.9C201.022 81.2333 200.089 81.7667 198.822 82.5C197.622 83.1667 196.322 83.8667 194.922 84.6C193.589 85.3333 192.222 85.9667 190.822 86.5C189.489 87.1 188.389 87.4333 187.522 87.5C186.255 87.6333 185.122 87.4667 184.122 87C183.055 86.5333 182.389 85.5667 182.122 84.1C182.122 81.1667 184.855 77.5667 190.322 73.3C193.122 71.2333 195.789 69.6667 198.322 68.6C200.855 67.5333 202.989 67 204.722 67C207.189 66.9333 208.455 67.5333 208.522 68.8C208.522 70 208.089 70.9667 207.222 71.7C206.555 72.3 205.722 72.6 204.722 72.6C204.655 72.5333 204.589 72.4 204.522 72.2C204.455 72.0667 204.389 71.9333 204.322 71.8C204.255 71.6 204.155 71.3667 204.022 71.1C203.622 70.1 202.822 69.5667 201.622 69.5C199.022 69.5 195.989 70.9667 192.522 73.9C189.189 76.7 187.522 79.2333 187.522 81.5C187.522 82.0333 187.622 82.5333 187.822 83C188.022 83.4 188.389 83.6333 188.922 83.7C190.789 83.8333 192.622 83.5333 194.422 82.8C196.289 82.0667 198.255 81 200.322 79.6C201.189 79 202.689 77.5333 204.822 75.2C206.155 73.6 207.322 72.8333 208.322 72.9C209.122 72.9 209.522 73.2333 209.522 73.9C209.522 74.5 208.955 75.8 207.822 77.8C206.755 79.6667 206.222 81.0333 206.222 81.9C206.222 84.3667 207.422 85.6333 209.822 85.7C211.955 85.7 214.122 85.3667 216.322 84.7C218.522 84.0333 220.589 83.2333 222.522 82.3C224.455 81.3667 226.155 80.4667 227.622 79.6C229.155 78.6667 230.255 77.9667 230.922 77.5C231.122 77.3 231.322 77.1667 231.522 77.1C231.722 76.9667 231.889 77.1 232.022 77.5ZM301.479 78.5C301.546 78.7 301.512 78.9333 301.379 79.2C301.312 79.4 301.179 79.5 300.979 79.5C297.646 81.2333 294.812 82.6667 292.479 83.8C290.146 84.8667 288.112 85.7 286.379 86.3C284.712 86.9667 283.212 87.4333 281.879 87.7C280.612 88.0333 279.346 88.2 278.079 88.2C274.279 88.3333 272.312 86.4667 272.179 82.6C272.179 81.2667 272.346 79.9667 272.679 78.7C273.012 77.4333 273.546 76.1333 274.279 74.8C273.812 74.8 273.112 75.0333 272.179 75.5C271.312 75.9667 270.446 76.4333 269.579 76.9C266.446 78.3 263.579 79.9 260.979 81.7C258.446 83.4333 256.279 84.8333 254.479 85.9C251.346 87.6333 249.446 88.5 248.779 88.5C247.446 88.5 246.779 87.9 246.779 86.7C246.779 85.6333 247.679 83.9 249.479 81.5C250.612 80.1667 251.712 78.8667 252.779 77.6C253.846 76.2667 254.979 74.9 256.179 73.5C248.512 78.3 242.646 81.9 238.579 84.3C234.512 86.7 232.279 87.9333 231.879 88C230.812 88 230.279 87.5667 230.279 86.7C230.679 86.3 231.146 85.7667 231.679 85.1C232.146 84.5667 232.746 83.9333 233.479 83.2C234.146 82.4 234.946 81.5 235.879 80.5C237.812 78.4333 239.312 76.7 240.379 75.3C241.446 73.8333 241.879 72.8333 241.679 72.3C241.612 72.0333 241.379 71.9333 240.979 72C240.579 72 240.312 72.0667 240.179 72.2C239.979 72.2667 239.679 72.3667 239.279 72.5C238.879 72.5667 238.479 72.6667 238.079 72.8C237.679 72.8667 237.312 72.9 236.979 72.9C236.646 72.8333 236.446 72.6667 236.379 72.4C236.246 72.1333 236.446 71.7667 236.979 71.3C237.512 70.8333 238.179 70.3667 238.979 69.9C239.779 69.3667 240.579 68.9333 241.379 68.6C242.246 68.2 242.912 67.9667 243.379 67.9C244.512 67.9 245.412 68.1333 246.079 68.6C246.812 69.0667 246.979 70.0667 246.579 71.6C246.446 72.6667 245.779 73.9667 244.579 75.5C243.379 77.0333 242.112 78.6 240.779 80.2C245.379 77.4 250.079 74.6 254.879 71.8C257.279 70.4 259.046 69.7 260.179 69.7C261.912 69.7 262.779 70.3333 262.779 71.6C262.779 72.5333 261.712 74.2 259.579 76.6C258.312 78 257.279 79.2 256.479 80.2C255.679 81.2 255.079 82.0667 254.679 82.8C264.479 76.8667 270.712 73.2667 273.379 72C276.912 70.2667 279.512 69.3667 281.179 69.3C281.646 69.3 281.879 69.7 281.879 70.5C281.679 70.8333 281.446 71.2 281.179 71.6C280.912 71.9333 280.612 72.3667 280.279 72.9C280.012 73.4333 279.646 74.0667 279.179 74.8C277.446 77.5333 276.579 79.7667 276.579 81.5C276.579 84.1 277.812 85.4333 280.279 85.5C281.279 85.5 282.246 85.4333 283.179 85.3C284.179 85.1 285.379 84.7333 286.779 84.2C288.179 83.6667 289.946 82.9333 292.079 82C294.212 81 296.979 79.6667 300.379 78C300.512 77.9333 300.679 77.9 300.879 77.9C301.146 77.9 301.346 78.1 301.479 78.5ZM325.815 77.3C325.882 77.7667 325.782 78.1333 325.515 78.4C319.982 82 315.182 84.6333 311.115 86.3C307.048 88.0333 303.148 88.9333 299.415 89C294.815 89 292.482 86.6333 292.415 81.9C292.415 78.9667 294.115 75.5333 297.515 71.6C301.048 67.8667 304.115 65.9667 306.715 65.9C307.315 65.9 307.982 66.0667 308.715 66.4C309.448 66.6667 309.882 67.5 310.015 68.9C310.015 69.5 309.848 70.1 309.515 70.7C309.182 71.3 308.715 71.9333 308.115 72.6C307.582 73.2 306.948 73.8333 306.215 74.5C305.548 75.1 304.882 75.6667 304.215 76.2C303.215 77.1333 302.115 78.0333 300.915 78.9C299.715 79.7 298.348 80.5 296.815 81.3C296.682 82.1667 296.782 82.8 297.115 83.2C297.448 83.5333 297.982 83.9667 298.715 84.5C299.848 85.2333 301.082 85.6 302.415 85.6C304.615 85.6 307.615 85.0333 311.415 83.9C315.282 82.7 319.748 80.4 324.815 77C325.015 76.8 325.215 76.7333 325.415 76.8C325.682 76.8 325.815 76.9667 325.815 77.3ZM305.615 70C305.615 69.6667 305.182 69.4 304.315 69.2C303.182 69.2 301.682 70.2333 299.815 72.3C298.882 73.2333 298.182 74.2333 297.715 75.3C297.248 76.3667 297.015 77.2667 297.015 78C297.148 78 297.582 77.9 298.315 77.7C299.048 77.4333 299.648 77.1333 300.115 76.8C301.848 75.8 303.148 74.6667 304.015 73.4C304.948 72.0667 305.482 70.9333 305.615 70ZM369.505 77.7C369.505 78.2333 369.372 78.5667 369.105 78.7C366.372 80.9 363.839 82.6667 361.505 84C359.172 85.2667 357.039 86.2333 355.105 86.9C353.172 87.5667 351.405 87.9667 349.805 88.1C348.272 88.2333 346.972 88.2333 345.905 88.1C344.305 87.8333 343.039 87.1333 342.105 86C341.172 84.8 340.539 82.9 340.205 80.3C338.405 82.1667 335.872 83.9 332.605 85.5C331.272 86.1 330.105 86.5667 329.105 86.9C328.172 87.3 327.405 87.4333 326.805 87.3C323.805 86.9 322.172 85.4333 321.905 82.9C321.905 80.5 322.505 78.8 323.705 77.8C324.439 77.2 325.305 76.8 326.305 76.6C327.239 76.3333 327.839 76.5333 328.105 77.2C328.372 77.8 328.505 78.4333 328.505 79.1C328.439 79.7667 328.372 80.4 328.305 81C328.239 81.6 328.272 82.1667 328.405 82.7C328.539 83.1667 328.872 83.5 329.405 83.7C329.872 83.8333 330.505 83.7667 331.305 83.5C332.172 83.2333 333.039 82.8667 333.905 82.4C334.839 81.8667 335.739 81.3 336.605 80.7C337.539 80.1 338.305 79.5333 338.905 79C339.639 78.4667 340.539 77.5667 341.605 76.3C342.739 75.0333 344.072 73.4 345.605 71.4C346.205 70.6667 346.839 69.9 347.505 69.1C348.172 68.2333 348.805 67.4667 349.405 66.8C350.072 66.1333 350.672 65.5667 351.205 65.1C351.739 64.6333 352.139 64.4 352.405 64.4C352.605 64.4 352.839 64.4 353.105 64.4C353.439 64.4 353.705 64.5 353.905 64.7C354.172 64.8333 354.339 65.1 354.405 65.5C354.539 65.8333 354.472 66.3667 354.205 67.1C353.872 68.0333 353.139 68.8667 352.005 69.6C350.872 70.3333 349.672 71.3 348.405 72.5C346.005 74.7667 344.772 76.7 344.705 78.3C344.705 79.8333 345.039 81.1333 345.705 82.2C346.439 83.2 347.472 83.9 348.805 84.3C350.605 84.8333 352.372 84.9667 354.105 84.7C355.839 84.3667 357.539 83.8333 359.205 83.1C360.939 82.3 362.572 81.3667 364.105 80.3C365.639 79.2333 367.105 78.2 368.505 77.2C369.039 76.8 369.372 76.9667 369.505 77.7ZM384.96 80C386.293 78.6667 387.293 77.3 387.96 75.9C388.693 74.5 389.127 73.2333 389.26 72.1C389.393 70.9 389.26 69.9 388.86 69.1C388.527 68.3 387.96 67.8333 387.16 67.7C385.76 67.3 384.493 67.7333 383.36 69C382.227 70.2667 381.593 72.0667 381.46 74.4C381.26 76.0667 381.56 77.2667 382.36 78C383.227 78.6667 384.093 79.3333 384.96 80ZM386.96 81.1C388.027 81.4333 389.16 81.5333 390.36 81.4C391.56 81.2667 392.727 81.0333 393.86 80.7C394.993 80.3 396.06 79.8333 397.06 79.3C398.06 78.7667 398.86 78.2333 399.46 77.7C399.793 77.4333 400.193 77.3333 400.66 77.4C401.193 77.4 401.493 77.5 401.56 77.7C401.76 78.5 401.56 79.1333 400.96 79.6C400.36 80 399.593 80.4333 398.66 80.9C397.327 81.5667 395.493 82.1333 393.16 82.6C390.827 83 388.26 83.0333 385.46 82.7C383.193 85.0333 380.893 86.7667 378.56 87.9C376.227 89.0333 373.893 89.6333 371.56 89.7C367.827 89.7 365.96 87.8333 365.96 84.1C365.96 82.3667 366.56 80.4 367.76 78.2C368.893 76 370.56 73.4333 372.76 70.5C375.227 67.1667 377.293 64.4667 378.96 62.4C380.693 60.3333 382.093 58.3667 383.16 56.5C384.027 55.0333 384.793 53.9667 385.46 53.3C386.193 52.5667 386.993 51.9333 387.86 51.4C388.327 51.3333 388.86 51.3667 389.46 51.5C390.06 51.5667 390.427 51.8667 390.56 52.4C390.56 52.7333 390.527 53 390.46 53.2C390.46 53.4 390.193 53.7667 389.66 54.3C389.26 54.6333 388.76 55.1 388.16 55.7C387.627 56.2333 387.027 56.8667 386.36 57.6C385.693 58.2667 385.06 58.9667 384.46 59.7C383.86 60.3667 383.327 60.9667 382.86 61.5C381.193 63.5 379.593 65.4667 378.06 67.4C376.593 69.2667 375.293 71.0667 374.16 72.8C373.093 74.5333 372.26 76.1333 371.66 77.6C370.993 79 370.66 80.2 370.66 81.2C370.66 82.4667 371.16 83.5333 372.16 84.4C373.227 85.2667 374.393 85.7 375.66 85.7C378.327 85.7 380.96 84.3667 383.56 81.7C382.493 80.9667 381.427 80.0667 380.36 79C379.293 77.8667 378.827 76.3333 378.96 74.4C379.027 73.2 379.393 72 380.06 70.8C380.727 69.6 381.56 68.5 382.56 67.5C383.56 66.5 384.66 65.7 385.86 65.1C387.06 64.5 388.227 64.2333 389.36 64.3C390.827 64.3 391.76 65.2333 392.16 67.1C392.56 68.9 392.427 70.9333 391.76 73.2C391.427 74.2 390.993 75.2 390.46 76.2C389.927 77.1333 389.393 77.9667 388.86 78.7C388.26 79.5667 387.627 80.3667 386.96 81.1ZM436.075 77.3C436.542 76.8333 436.908 76.9333 437.175 77.6C437.175 78.2 437.008 78.5667 436.675 78.7C432.208 81.7667 427.608 84.4333 422.875 86.7C418.208 88.9667 413.342 90.1333 408.275 90.2C406.942 90.2 405.708 90.0333 404.575 89.7C403.375 89.3667 402.342 88.8667 401.475 88.2C400.608 87.5333 399.942 86.7 399.475 85.7C399.008 84.6333 398.842 83.4 398.975 82C399.175 80.2667 399.742 78.4667 400.675 76.6C401.608 74.6667 403.275 72.7333 405.675 70.8C406.875 69.8 408.142 68.9 409.475 68.1C410.808 67.3 412.142 66.6 413.475 66C414.875 65.4 416.208 64.9333 417.475 64.6C418.742 64.2667 419.908 64.0667 420.975 64C423.108 64 424.242 65 424.375 67C424.375 67.9333 423.975 68.8667 423.175 69.8C422.442 70.7333 421.508 71.6 420.375 72.4C419.242 73.1333 418.008 73.7667 416.675 74.3C415.342 74.8333 414.142 75.1333 413.075 75.2C412.342 75.2 411.808 75.1 411.475 74.9C411.208 74.7 411.008 74.4333 410.875 74.1C410.475 73.1667 410.608 72.4667 411.275 72C412.008 71.4667 412.875 71.2 413.875 71.2C414.008 71.2 414.342 71.2667 414.875 71.4C415.408 71.4667 416.142 71.5667 417.075 71.7C417.475 71.7667 417.942 71.6667 418.475 71.4C419.075 71.1333 419.575 70.8 419.975 70.4C420.442 70 420.775 69.5667 420.975 69.1C421.175 68.5667 421.175 68.1 420.975 67.7C420.642 67.2333 420.342 66.9667 420.075 66.9C419.808 66.7667 419.242 66.7 418.375 66.7C417.108 66.7 415.575 67.1 413.775 67.9C412.042 68.7 410.275 69.9 408.475 71.5C405.075 74.7667 403.375 77.6333 403.375 80.1C403.375 82.3667 404.108 84.0667 405.575 85.2C407.108 86.2667 409.275 86.8 412.075 86.8C414.142 86.8 416.642 86.3667 419.575 85.5C422.575 84.5667 425.508 83.4 428.375 82C429.308 81.5333 430.075 81.1 430.675 80.7C431.342 80.3 431.942 79.9333 432.475 79.6C433.008 79.2667 433.542 78.9333 434.075 78.6C434.608 78.2 435.275 77.7667 436.075 77.3ZM506.948 78.5C507.014 78.7 506.981 78.9333 506.848 79.2C506.781 79.4 506.648 79.5 506.448 79.5C503.114 81.2333 500.281 82.6667 497.948 83.8C495.614 84.8667 493.581 85.7 491.848 86.3C490.181 86.9667 488.681 87.4333 487.348 87.7C486.081 88.0333 484.814 88.2 483.548 88.2C479.748 88.3333 477.781 86.4667 477.648 82.6C477.648 81.2667 477.814 79.9667 478.148 78.7C478.481 77.4333 479.014 76.1333 479.748 74.8C479.281 74.8 478.581 75.0333 477.648 75.5C476.781 75.9667 475.914 76.4333 475.048 76.9C471.914 78.3 469.048 79.9 466.448 81.7C463.914 83.4333 461.748 84.8333 459.948 85.9C456.814 87.6333 454.914 88.5 454.248 88.5C452.914 88.5 452.248 87.9 452.248 86.7C452.248 85.6333 453.148 83.9 454.948 81.5C456.081 80.1667 457.181 78.8667 458.248 77.6C459.314 76.2667 460.448 74.9 461.648 73.5C453.981 78.3 448.114 81.9 444.048 84.3C439.981 86.7 437.748 87.9333 437.348 88C436.281 88 435.748 87.5667 435.748 86.7C436.148 86.3 436.614 85.7667 437.148 85.1C437.614 84.5667 438.214 83.9333 438.948 83.2C439.614 82.4 440.414 81.5 441.348 80.5C443.281 78.4333 444.781 76.7 445.848 75.3C446.914 73.8333 447.348 72.8333 447.148 72.3C447.081 72.0333 446.848 71.9333 446.448 72C446.048 72 445.781 72.0667 445.648 72.2C445.448 72.2667 445.148 72.3667 444.748 72.5C444.348 72.5667 443.948 72.6667 443.548 72.8C443.148 72.8667 442.781 72.9 442.448 72.9C442.114 72.8333 441.914 72.6667 441.848 72.4C441.714 72.1333 441.914 71.7667 442.448 71.3C442.981 70.8333 443.648 70.3667 444.448 69.9C445.248 69.3667 446.048 68.9333 446.848 68.6C447.714 68.2 448.381 67.9667 448.848 67.9C449.981 67.9 450.881 68.1333 451.548 68.6C452.281 69.0667 452.448 70.0667 452.048 71.6C451.914 72.6667 451.248 73.9667 450.048 75.5C448.848 77.0333 447.581 78.6 446.248 80.2C450.848 77.4 455.548 74.6 460.348 71.8C462.748 70.4 464.514 69.7 465.648 69.7C467.381 69.7 468.248 70.3333 468.248 71.6C468.248 72.5333 467.181 74.2 465.048 76.6C463.781 78 462.748 79.2 461.948 80.2C461.148 81.2 460.548 82.0667 460.148 82.8C469.948 76.8667 476.181 73.2667 478.848 72C482.381 70.2667 484.981 69.3667 486.648 69.3C487.114 69.3 487.348 69.7 487.348 70.5C487.148 70.8333 486.914 71.2 486.648 71.6C486.381 71.9333 486.081 72.3667 485.748 72.9C485.481 73.4333 485.114 74.0667 484.648 74.8C482.914 77.5333 482.048 79.7667 482.048 81.5C482.048 84.1 483.281 85.4333 485.748 85.5C486.748 85.5 487.714 85.4333 488.648 85.3C489.648 85.1 490.848 84.7333 492.248 84.2C493.648 83.6667 495.414 82.9333 497.548 82C499.681 81 502.448 79.6667 505.848 78C505.981 77.9333 506.148 77.9 506.348 77.9C506.614 77.9 506.814 78.1 506.948 78.5ZM570.084 20.1C570.084 22.9667 566.95 28.0333 560.684 35.3C549.284 48.6333 537.784 58.6667 526.184 65.4C524.184 66.7333 521.95 68.0333 519.484 69.3C517.017 70.5667 514.15 71.9333 510.884 73.4C510.084 74.3333 509.317 75.2667 508.584 76.2C507.984 77 507.417 77.9333 506.884 79C506.35 80 506.017 80.9667 505.884 81.9C505.75 83.1 505.95 84.0333 506.484 84.7C506.95 85.3667 507.684 85.7667 508.684 85.9C509.617 85.9667 510.717 85.7333 511.984 85.2C513.317 84.6667 514.75 83.7667 516.284 82.5C517.15 81.9 518.35 80.9333 519.884 79.6C521.484 78.2667 522.75 76.6667 523.684 74.8C524.084 74 524.417 73.2 524.684 72.4C525.017 71.6 525.35 70.9 525.684 70.3C526.084 69.6333 526.484 69.1 526.884 68.7C527.35 68.3 527.917 68.1 528.584 68.1C529.517 68.1 530.084 68.6 530.284 69.6C530.484 70.6 530.017 71.6667 528.884 72.8C528.217 73.4667 527.65 73.9333 527.184 74.2C526.717 74.4 526.35 74.7 526.084 75.1C525.817 75.4333 525.65 75.9 525.584 76.5C525.584 77.0333 525.584 77.7667 525.584 78.7C525.584 79.1667 525.65 79.7 525.784 80.3C525.984 80.8333 526.25 81.3333 526.584 81.8C526.917 82.2667 527.384 82.6667 527.984 83C528.584 83.2667 529.35 83.3333 530.284 83.2C531.217 83.1333 532.884 82.6667 535.284 81.8C537.684 80.9333 540.584 79.1 543.984 76.3L544.684 77.7C543.884 78.3 542.684 79.1 541.084 80.1C539.55 81.1 538.117 81.9667 536.784 82.7C534.45 83.9667 532.484 84.8 530.884 85.2C529.284 85.6 527.917 85.6333 526.784 85.3C525.25 84.9 524.317 84 523.984 82.6C523.65 81.1333 523.584 79.5333 523.784 77.8C523.384 78.4667 522.717 79.3 521.784 80.3C520.85 81.3 519.817 82.3 518.684 83.3C517.55 84.3 516.35 85.2333 515.084 86.1C513.884 87.0333 512.784 87.7 511.784 88.1C510.25 88.7667 508.85 89.2333 507.584 89.5C506.25 89.7667 504.984 89.5333 503.784 88.8C503.384 88.5333 502.984 88.2 502.584 87.8C502.184 87.4 501.917 86.8333 501.784 86.1C501.65 85.4333 501.717 84.6 501.984 83.6C502.25 82.5333 502.817 81.2667 503.684 79.8C505.484 76.7333 507.684 73.4 510.284 69.8C512.95 66.1333 515.817 62.4 518.884 58.6C521.95 54.7333 525.117 50.8667 528.384 47C531.717 43.1333 534.95 39.4333 538.084 35.9C544.284 28.9 549.55 23.8 553.884 20.6C558.217 17.3333 561.517 15.5333 563.784 15.2C566.317 14.8667 567.984 15.2 568.784 16.2C569.65 17.2 570.084 18.5 570.084 20.1ZM565.584 21.2C565.584 19.2667 564.484 18.3 562.284 18.3C559.55 18.3 555.45 20.7667 549.984 25.7C546.85 28.9667 541.817 34.6 534.884 42.6C531.35 46.8 528.384 50.3333 525.984 53.2C523.584 56 521.717 58.2333 520.384 59.9C519.25 61.2333 518.217 62.5333 517.284 63.8C516.417 65.0667 515.617 66.2 514.884 67.2C514.084 68.4 513.35 69.5 512.684 70.5C514.217 70.2333 516.517 69.2667 519.584 67.6C522.65 65.8667 526.384 63.3667 530.784 60.1C535.25 56.8333 539.384 53.5333 543.184 50.2C547.05 46.8667 550.684 43.4333 554.084 39.9C561.684 31.7 565.517 25.4667 565.584 21.2ZM580.763 77.6C580.763 77.8667 580.729 78.1 580.663 78.3C580.663 78.4333 580.563 78.6 580.363 78.8C576.696 81.6 573.363 83.4667 570.363 84.4C567.363 85.3333 564.563 85.8667 561.963 86C560.229 86.0667 558.563 85.4333 556.963 84.1C555.029 85.7667 553.029 87.0667 550.963 88C548.963 89 546.796 89.5667 544.462 89.7C542.996 89.7667 541.796 89.4333 540.862 88.7C539.862 88.0333 539.362 87 539.362 85.6C539.362 82.0667 541.929 78.0667 547.062 73.6C549.596 71.4667 551.963 69.9 554.163 68.9C556.363 67.9 558.263 67.4 559.863 67.4C563.263 67.4 564.963 69 564.963 72.2C564.963 73.9333 564.496 75.6667 563.563 77.4C562.629 79.1333 561.096 80.8667 558.963 82.6C559.829 83.4667 560.929 83.9 562.263 83.9C563.196 83.9 564.229 83.8333 565.363 83.7C566.496 83.5667 567.763 83.3 569.163 82.9C570.563 82.4333 572.129 81.7667 573.863 80.9C575.596 79.9667 577.529 78.7333 579.663 77.2C579.863 77.0667 580.096 77 580.363 77C580.629 77 580.763 77.2 580.763 77.6ZM563.463 71.4C563.463 70.8 563.329 70.3667 563.063 70.1C562.863 69.8333 562.396 69.6667 561.663 69.6C560.263 69.6 558.996 70.2667 557.863 71.6C556.796 72.8667 556.196 74.3 556.063 75.9C556.063 78.3667 556.529 80 557.463 80.8C561.463 77.6 563.463 74.4667 563.463 71.4ZM555.963 82.4C555.296 81.7333 554.829 80.9333 554.563 80C554.296 79.0667 554.163 78.1 554.163 77.1C554.229 76.1 554.396 75.1 554.663 74.1C554.996 73.0333 555.363 72.0333 555.763 71.1C554.563 71.3667 553.263 71.9 551.863 72.7C550.529 73.5 549.263 74.4333 548.063 75.5C546.929 76.5667 545.962 77.7333 545.162 79C544.362 80.2 543.862 81.4 543.662 82.6C543.529 83.8 543.762 84.7 544.362 85.3C544.962 85.9 545.762 86.2333 546.762 86.3C549.563 86.3 552.629 85 555.963 82.4ZM297.563 199.2C294.096 201.333 291.296 202.7 289.163 203.3C288.496 203.433 287.429 203.5 285.963 203.5C284.563 203.567 282.796 203.633 280.663 203.7C278.129 203.7 275.496 203.5 272.763 203.1C270.029 202.767 267.163 202.167 264.163 201.3C263.029 201.233 257.229 199.433 246.763 195.9L226.363 189.5C216.563 198.367 207.296 204.967 198.563 209.3C186.429 215.367 173.196 218.4 158.863 218.4C150.396 218.4 143.629 216.833 138.563 213.7C133.163 210.233 130.362 205.2 130.162 198.6C130.162 190.333 134.662 183.5 143.663 178.1C151.529 173.367 159.696 171 168.163 171C178.829 171 191.063 173 204.863 177C208.463 178.133 212.063 179.267 215.663 180.4C219.263 181.533 222.929 182.733 226.663 184C228.129 182.6 229.729 180.867 231.463 178.8C233.196 176.733 235.129 174.3 237.263 171.5C241.863 165.233 245.429 160.433 247.963 157.1C250.496 153.767 251.996 151.767 252.463 151.1C256.663 145.7 261.463 140.1 266.863 134.3C273.396 127.367 277.529 123.867 279.263 123.8C279.663 123.8 279.763 124.467 279.563 125.8C279.496 126.6 279.329 127.567 279.063 128.7C278.796 129.767 278.463 131.067 278.063 132.6C277.329 132.267 276.663 132.033 276.063 131.9C275.529 131.767 274.996 131.633 274.463 131.5C272.863 131.5 269.796 134.067 265.263 139.2C261.529 143.133 257.863 147.533 254.263 152.4C253.396 153.533 251.896 155.633 249.763 158.7C247.629 161.767 244.763 165.867 241.163 171C238.829 174.4 236.763 177.233 234.963 179.5C233.229 181.767 231.696 183.533 230.363 184.8L249.963 191.3C258.963 194.3 266.663 196.5 273.063 197.9C279.463 199.367 284.663 200.167 288.663 200.3C290.729 200.3 292.263 200.133 293.263 199.8C293.663 199.667 294.229 199.433 294.963 199.1C295.696 198.833 296.563 198.367 297.563 197.7C297.829 197.967 298.096 198.2 298.363 198.4C298.363 198.467 298.096 198.733 297.563 199.2ZM222.663 188.2C216.396 186.267 211.229 184.7 207.163 183.5C203.096 182.3 199.996 181.367 197.863 180.7C184.196 177.033 173.563 175.2 165.963 175.2C157.163 175.2 149.829 176.9 143.963 180.3C136.829 184.3 133.262 190.4 133.262 198.6C133.262 202.867 135.963 206.7 141.363 210.1C147.163 213.5 154.729 215.2 164.063 215.2C175.329 215.2 186.196 212.533 196.663 207.2C204.596 203.133 213.263 196.8 222.663 188.2ZM295.545 169.6C295.545 170 295.411 170.367 295.145 170.7C291.678 173.633 288.745 176.033 286.345 177.9C283.945 179.767 282.045 181.167 280.645 182.1C273.978 186.567 267.945 188.867 262.545 189C257.945 189 255.611 186.633 255.545 181.9C255.545 178.967 257.245 175.533 260.645 171.6C264.245 167.867 267.311 165.967 269.845 165.9C270.711 165.9 271.478 166.233 272.145 166.9C272.745 167.433 273.111 168.1 273.245 168.9C273.245 170.1 272.645 171.3 271.445 172.5C270.778 173.033 270.145 173.567 269.545 174.1C268.945 174.567 268.311 175.067 267.645 175.6C265.645 177.333 263.078 178.967 259.945 180.5C259.878 182.1 260.545 183.433 261.945 184.5C263.078 185.233 264.311 185.6 265.645 185.6C269.111 185.6 274.278 183.367 281.145 178.9C281.811 178.433 283.245 177.4 285.445 175.8C287.645 174.2 290.645 171.967 294.445 169.1C294.645 169.033 294.878 169 295.145 169C295.345 169 295.478 169.2 295.545 169.6ZM268.845 170C268.845 169.667 268.411 169.4 267.545 169.2C266.411 169.2 264.911 170.233 263.045 172.3C261.178 174.167 260.245 175.833 260.245 177.3C260.578 177.3 261.178 177.133 262.045 176.8C266.378 174.267 268.645 172 268.845 170ZM325.703 169.6C325.703 169.8 325.67 170 325.603 170.2C325.603 170.333 325.503 170.533 325.303 170.8C322.903 173.733 319.236 176.867 314.303 180.2C311.636 182.133 309.303 183.567 307.303 184.5C305.303 185.433 303.636 185.933 302.303 186C300.436 186 298.836 185.367 297.503 184.1C296.903 184.9 295.37 186 292.903 187.4C290.036 188.933 287.37 189.7 284.903 189.7C281.436 189.7 279.703 188.333 279.703 185.6C279.703 183.8 280.37 181.933 281.703 180C283.036 178 284.97 175.867 287.503 173.6C289.97 171.467 292.27 169.9 294.403 168.9C296.603 167.9 298.57 167.4 300.303 167.4C303.703 167.4 305.403 169 305.403 172.2C305.403 175.733 303.403 179.2 299.403 182.6C300.27 183.467 301.336 183.9 302.603 183.9C304.87 183.9 308.57 182.067 313.703 178.4C315.903 176.867 317.903 175.333 319.703 173.8C321.57 172.267 323.236 170.733 324.703 169.2C324.77 169 324.97 168.967 325.303 169.1C325.57 169.1 325.703 169.267 325.703 169.6ZM304.003 171.4C304.003 170.333 303.403 169.733 302.203 169.6C300.67 169.6 299.336 170.267 298.203 171.6C297.203 172.8 296.636 174.233 296.503 175.9C296.503 178.367 296.936 180 297.803 180.8C301.803 177.667 303.87 174.533 304.003 171.4ZM296.303 182.4C294.97 181.067 294.303 179.333 294.303 177.2C294.303 174.333 294.903 172.3 296.103 171.1C288.17 174.767 284.203 178.6 284.203 182.6C284.203 185 285.17 186.233 287.103 186.3C290.036 186.3 293.103 185 296.303 182.4ZM485.879 114.5C485.879 119.9 484.912 125.4 482.979 131C481.046 136.6 478.079 142.4 474.079 148.4C470.479 153.933 466.412 159 461.879 163.6C457.412 168.133 452.479 172.3 447.079 176.1C441.412 179.9 436.012 182.733 430.879 184.6C425.812 186.467 420.912 187.467 416.179 187.6C411.646 187.6 407.779 186 404.579 182.8C403.046 181.133 401.879 179.333 401.079 177.4C400.279 175.4 399.746 173.233 399.479 170.9C399.346 168.367 400.046 164.933 401.579 160.6C403.179 156.2 405.679 150.767 409.079 144.3C406.279 146.567 403.546 148.8 400.879 151C398.212 153.133 395.612 155.3 393.079 157.5C386.812 162.567 381.146 167.333 376.079 171.8C371.079 176.2 366.579 180.333 362.579 184.2C361.779 184.2 361.279 183.833 361.079 183.1C383.079 163.5 394.146 146.1 394.279 130.9C394.279 124.967 392.146 120.067 387.879 116.2C385.812 114.267 383.379 112.867 380.579 112C377.846 111.067 374.712 110.533 371.179 110.4C364.912 110.4 358.746 111.767 352.679 114.5C345.079 117.767 338.512 122.6 332.979 129L331.679 128.8C337.612 121.333 344.146 115.8 351.279 112.2C358.412 108.533 366.146 106.7 374.479 106.7C381.879 106.7 387.846 108.733 392.379 112.8C396.646 116.867 398.879 122.2 399.079 128.8C399.079 132.867 398.279 137.033 396.679 141.3C395.946 143.233 394.812 145.567 393.279 148.3C391.812 150.967 390.012 154.033 387.879 157.5C391.079 154.967 395.112 151.733 399.979 147.8C404.912 143.867 410.712 139.067 417.379 133.4C420.179 130.933 422.346 129.033 423.879 127.7C425.479 126.367 426.446 125.533 426.779 125.2C428.779 123.533 430.379 122.667 431.579 122.6C431.779 122.6 431.946 122.867 432.079 123.4C432.079 123.867 431.446 124.5 430.179 125.3C429.246 126.167 428.479 126.9 427.879 127.5C427.279 128.033 426.746 128.5 426.279 128.9C423.546 131.7 421.046 134.667 418.779 137.8C416.512 140.867 414.312 144.2 412.179 147.8C407.646 156.067 405.379 163.2 405.379 169.2C405.379 171.2 405.646 173.067 406.179 174.8C406.779 176.467 407.746 178.033 409.079 179.5C411.546 182.367 414.912 183.8 419.179 183.8C423.112 183.8 427.279 183 431.679 181.4C436.146 179.8 440.912 177.3 445.979 173.9C455.912 167.367 464.279 159.233 471.079 149.5C474.812 144.1 477.579 138.833 479.379 133.7C481.179 128.5 482.112 123.333 482.179 118.2C482.179 115.333 481.646 112.933 480.579 111C479.512 109.067 478.212 108.033 476.679 107.9C475.746 107.9 474.846 108 473.979 108.2C473.179 108.4 472.312 108.767 471.379 109.3L470.879 108.7C473.012 105.3 475.546 103.5 478.479 103.3C480.412 103.3 482.179 104.367 483.779 106.5C484.446 107.633 484.912 108.867 485.179 110.2C485.512 111.467 485.746 112.9 485.879 114.5ZM483.979 162.1C483.979 163.967 482.646 164.9 479.979 164.9C477.379 164.9 476.079 163.967 476.079 162.1C476.079 160.167 477.379 159.2 479.979 159.2C482.646 159.2 483.979 160.167 483.979 162.1ZM500.279 169.6C500.279 170 500.112 170.333 499.779 170.6C496.179 173.733 493.279 176.2 491.079 178C488.879 179.8 487.279 181.033 486.279 181.7C480.412 186.033 475.946 188.2 472.879 188.2C471.012 188.2 469.246 187.633 467.579 186.5C466.046 185.433 465.212 184.1 465.079 182.5C465.079 180.033 466.379 177.133 468.979 173.8C471.312 170.733 473.379 169 475.179 168.6C476.046 168.6 476.479 168.9 476.479 169.5C476.479 170.033 475.412 171.5 473.279 173.9C471.412 176.3 470.412 178.567 470.279 180.7C470.279 183.367 471.512 184.733 473.979 184.8C476.779 184.8 485.179 179.6 499.179 169.2C499.312 169.067 499.512 169 499.779 169C499.979 169 500.146 169.2 500.279 169.6ZM546.991 169.6C546.991 170 546.857 170.367 546.591 170.7C540.124 176.033 535.591 179.567 532.991 181.3C526.924 185.433 521.691 187.5 517.291 187.5C513.557 187.5 511.657 185.5 511.591 181.5C511.591 180.767 511.657 179.867 511.791 178.8C511.991 177.667 512.291 176.333 512.691 174.8C510.157 176.267 507.557 177.8 504.891 179.4C502.291 180.933 499.591 182.633 496.791 184.5C492.857 187.1 490.724 188.4 490.391 188.4C490.324 188.4 490.057 188.267 489.591 188C489.191 187.8 488.991 187.567 488.991 187.3C488.991 186.833 489.291 186.067 489.891 185C490.424 183.933 491.357 182.467 492.691 180.6C494.091 178.533 495.191 176.9 495.991 175.7C496.857 174.433 497.457 173.533 497.791 173C497.524 172.6 497.391 172.033 497.391 171.3C497.391 170.767 497.824 170.2 498.691 169.6C499.624 169.067 500.357 168.767 500.891 168.7C503.024 168.7 504.157 169.567 504.291 171.3C504.291 171.767 503.224 173.467 501.091 176.4C500.091 177.667 499.224 178.733 498.491 179.6C497.824 180.467 497.224 181.167 496.691 181.7C509.357 173.033 517.524 168.7 521.191 168.7C521.524 168.7 521.791 169.133 521.991 170C521.991 170.133 520.957 171.367 518.891 173.7C516.957 176.1 515.957 178.367 515.891 180.5C515.891 182.9 517.591 184.133 520.991 184.2C523.524 184.2 527.757 182.2 533.691 178.2C534.824 177.533 538.891 174.533 545.891 169.2C546.091 169.133 546.324 169.1 546.591 169.1C546.791 169.1 546.924 169.267 546.991 169.6ZM587.268 169.6C587.268 170 587.135 170.367 586.868 170.7C583.268 173.7 580.501 175.967 578.568 177.5C576.635 179.033 575.501 179.933 575.168 180.2C570.035 183.933 564.301 186.933 557.968 189.2C555.635 192.2 552.535 195.467 548.668 199C544.801 202.6 540.135 206.5 534.668 210.7C519.935 221.9 508.235 227.567 499.568 227.7C497.301 227.7 495.468 227.1 494.068 225.9C492.535 224.767 491.768 223.3 491.768 221.5C491.768 213.5 500.401 206.2 517.668 199.6C521.535 198.133 528.235 195.933 537.768 193C542.501 191.6 546.201 190.467 548.868 189.6C551.601 188.8 553.401 188.233 554.268 187.9C558.935 182.633 561.335 177.633 561.468 172.9C561.468 169.7 559.601 168.1 555.868 168.1C554.468 168.1 553.101 168.267 551.768 168.6C550.435 168.933 549.101 169.467 547.768 170.2C545.035 171.8 543.668 173.567 543.668 175.5C543.668 178.167 544.768 179.533 546.968 179.6C547.835 179.6 548.801 179.433 549.868 179.1C551.001 178.767 552.335 178.2 553.868 177.4C554.735 177 555.568 176.6 556.368 176.2C557.168 175.733 558.001 175.267 558.868 174.8L558.068 176.3C557.135 176.833 556.201 177.367 555.268 177.9C554.401 178.433 553.501 179.033 552.568 179.7C549.568 181.433 546.701 182.3 543.968 182.3C542.368 182.3 541.068 181.8 540.068 180.8C539.268 179.867 538.835 178.6 538.768 177C538.768 174.667 540.835 172.2 544.968 169.6C549.035 167.267 552.935 166.033 556.668 165.9C559.135 165.9 561.301 166.567 563.168 167.9C564.701 169.3 565.501 171.1 565.568 173.3C565.568 176.433 563.901 180.533 560.568 185.6C562.768 184.933 565.968 183.233 570.168 180.5C574.435 177.767 579.768 174 586.168 169.2C586.368 169.067 586.601 169 586.868 169C587.001 169 587.135 169.2 587.268 169.6ZM552.568 190.7C549.368 191.567 546.201 192.433 543.068 193.3C540.001 194.167 536.868 195.1 533.668 196.1C528.268 197.633 523.468 199.2 519.268 200.8C515.001 202.4 511.368 204 508.368 205.6C499.968 209.867 495.701 214.4 495.568 219.2C495.568 220.867 496.501 222.333 498.368 223.6C499.968 224.6 501.735 225.1 503.668 225.1C505.735 225.1 508.768 224.3 512.768 222.7C516.835 221.033 520.601 219 524.068 216.6C530.935 211.6 536.735 206.967 541.468 202.7C546.135 198.433 549.835 194.433 552.568 190.7Z" fill="#F37021"/>
</svg>
