<svg width="538" height="117" viewBox="0 0 538 117" fill="none" xmlns="http://www.w3.org/2000/svg">
<path d="M145.16 73.7C148.36 73.7 151.293 73.4667 153.96 73C156.627 72.4667 159.293 71.6 161.96 70.4C164.627 69.1333 167.427 67.5 170.36 65.5C173.293 63.4333 176.56 60.8333 180.16 57.7L181.46 58.1C177.593 61.7667 174.027 64.8667 170.76 67.4C167.494 69.9333 164.293 71.9667 161.16 73.5C158.093 75.0333 154.993 76.1 151.86 76.7C148.727 77.3667 145.36 77.6333 141.76 77.5C138.16 77.4333 134.86 76.8667 131.86 75.8C128.86 74.7333 126.293 73.2667 124.16 71.4C122.027 69.4667 120.36 67.1667 119.16 64.5C117.96 61.8333 117.327 58.8333 117.26 55.5C117.26 53.4333 117.427 51.4333 117.76 49.5C118.093 47.5 118.66 45.4 119.46 43.2C120.327 41 121.46 38.5667 122.86 35.9C124.327 33.2333 126.16 30.1667 128.36 26.7C126.76 27.9 124.96 29.4667 122.96 31.4C120.96 33.2667 118.793 35.3667 116.46 37.7C114.193 39.9667 111.76 42.4 109.16 45C106.627 47.6 104.027 50.2333 101.36 52.9C100.493 53.7667 99.3268 54.9333 97.8602 56.4C96.4602 57.8667 94.9268 59.4333 93.2602 61.1C91.5935 62.7667 89.8935 64.4667 88.1602 66.2C86.4268 67.8667 84.7935 69.4 83.2602 70.8C81.7268 72.2 80.3935 73.3667 79.2602 74.3C78.1268 75.2333 77.3602 75.7333 76.9602 75.8L75.3602 75.6C74.8935 75.6 74.8268 74.6333 75.1602 72.7C75.4935 70.7667 76.0935 68.3 76.9602 65.3C77.8935 62.2333 78.9935 58.9 80.2602 55.3C81.5935 51.6333 82.9935 48.1 84.4602 44.7C85.3268 42.7 86.5602 40.0667 88.1602 36.8C89.7602 33.5333 91.6268 30.1667 93.7602 26.7C90.6268 29.1667 86.8935 32.4 82.5602 36.4C78.2268 40.3333 72.7268 45.0667 66.0602 50.6C63.2602 53.0667 60.4602 55.4 57.6602 57.6C54.9268 59.8 52.1935 61.8333 49.4602 63.7C43.9268 67.5667 38.4935 70.7 33.1602 73.1C27.8268 75.5 22.6268 76.7 17.5602 76.7C12.6935 76.7 8.66016 75.5 5.46016 73.1C2.32682 70.7 0.726823 67.6333 0.660156 63.9C0.660156 56.5667 5.16016 49.2333 14.1602 41.9C22.8268 34.9667 30.9268 31.5 38.4602 31.5C38.9268 31.5 39.4268 31.5667 39.9602 31.7C40.5602 31.8333 41.0935 32.0333 41.5602 32.3C42.0935 32.5 42.5602 32.8 42.9602 33.2C43.3602 33.6 43.5935 34.0667 43.6602 34.6C43.6602 35.7333 43.0935 36.8 41.9602 37.8C40.8935 38.7333 39.7935 39.2333 38.6602 39.3C38.2602 37.4333 37.8268 36.2667 37.3602 35.8C36.9602 35.2667 36.1935 34.8667 35.0602 34.6C33.4602 34.2 31.4935 34.4 29.1602 35.2C26.8268 36 24.4935 37.0667 22.1602 38.4C19.8268 39.7333 17.6602 41.1667 15.6602 42.7C13.7268 44.2333 12.2935 45.5333 11.3602 46.6C9.69349 48.3333 8.32682 50.4333 7.26016 52.9C6.19349 55.3667 5.62682 57.9333 5.56016 60.6C5.56016 68.7333 10.6935 72.8 20.9602 72.8C22.4268 72.8 24.1268 72.5333 26.0602 72C27.9935 71.4667 30.0602 70.7333 32.2602 69.8C34.4602 68.8667 36.7268 67.8 39.0602 66.6C41.3935 65.3333 43.6935 64 45.9602 62.6C47.8268 61.5333 49.7602 60.2 51.7602 58.6C53.7602 56.9333 55.8268 55.1333 57.9602 53.2C60.1602 51.2667 62.4268 49.2333 64.7602 47.1C67.1602 44.9 69.6268 42.7333 72.1602 40.6C75.4268 37.8667 78.3602 35.4333 80.9602 33.3C83.5602 31.1 86.1602 28.9 88.7602 26.7C101.093 16.5 111.193 7.6 119.06 -5.96046e-06C119.993 -5.96046e-06 120.493 0.366662 120.56 1.1C116.96 4.3 113.46 7.9 110.06 11.9C106.66 15.8333 103.46 19.9667 100.46 24.3C97.4602 28.5667 94.6935 32.9 92.1602 37.3C89.6935 41.7 87.4935 45.9667 85.5602 50.1C83.6935 54.1667 82.1602 58 80.9602 61.6C79.8268 65.1333 79.1268 68.2 78.8602 70.8C79.6602 70.2667 80.7602 69.3333 82.1602 68C83.5602 66.6667 84.9602 65.3 86.3602 63.9C87.7602 62.4333 89.0268 61.1 90.1602 59.9C91.2935 58.7 91.9935 57.9667 92.2602 57.7C97.2602 52.5667 102.36 47.3667 107.56 42.1C112.827 36.8333 118.06 31.7 123.26 26.7C129.127 21.2333 134.627 16.4 139.76 12.2C144.96 7.93333 149.593 3.86666 153.66 -5.96046e-06C154.593 -5.96046e-06 155.093 0.366662 155.16 1.1C133.093 20.7 122.06 38.0667 122.06 53.2C122.06 56.2 122.593 58.9667 123.66 61.5C124.727 63.9667 126.26 66.1 128.26 67.9C130.26 69.7 132.66 71.1 135.46 72.1C138.327 73.1 141.56 73.6333 145.16 73.7ZM225.382 67C225.382 67.5333 225.282 67.9 225.082 68.1C220.482 71.1 216.315 73.3 212.582 74.7C208.915 76.1 205.815 76.9333 203.282 77.2C202.349 77.3333 201.415 77.3333 200.482 77.2C199.549 77.1333 198.715 76.9 197.982 76.5C197.249 76.1 196.649 75.5 196.182 74.7C195.715 73.9 195.482 72.8333 195.482 71.5C195.482 70.0333 196.049 68.3333 197.182 66.4C198.315 64.4 199.482 62.6667 200.682 61.2C199.749 61.5333 198.682 61.9333 197.482 62.4C196.282 62.8 195.015 63.2 193.682 63.6C193.215 64.5333 192.649 65.4667 191.982 66.4C191.315 67.3333 190.549 68.3333 189.682 69.4C184.549 75.5333 179.249 78.6333 173.782 78.7C170.115 78.7 168.249 76.8333 168.182 73.1C168.182 71.3667 168.849 69.3333 170.182 67C171.449 64.6667 173.082 62 175.082 59C176.415 57.1333 177.682 55.4333 178.882 53.9C180.149 52.3 181.182 50.6333 181.982 48.9C182.915 46.9667 184.082 45.6333 185.482 44.9C186.882 44.1667 188.115 43.6667 189.182 43.4C189.649 43.2667 190.215 43.1667 190.882 43.1C191.549 43.0333 191.915 43.4 191.982 44.2C191.982 44.9333 191.349 46 190.082 47.4C188.815 48.8 187.015 50.5333 184.682 52.6C181.549 55.4 178.882 58.4 176.682 61.6C174.549 64.7333 173.315 67.5667 172.982 70.1C172.849 71.3667 173.149 72.5 173.882 73.5C174.549 74.4333 175.882 74.8333 177.882 74.7C179.749 74.5667 181.549 73.9 183.282 72.7C185.015 71.5 186.749 69.6333 188.482 67.1C188.815 66.6333 189.082 66.2333 189.282 65.9C189.549 65.5 189.749 65.1 189.882 64.7C188.415 65.3 187.215 65.6333 186.282 65.7C185.349 65.7667 184.515 65.7333 183.782 65.6C183.582 65.5333 183.315 65.4333 182.982 65.3C182.715 65.1 182.449 64.8333 182.182 64.5C181.915 64.1667 181.715 63.8 181.582 63.4C181.515 62.9333 181.549 62.4333 181.682 61.9C182.015 60.5 182.915 59.3 184.382 58.3C185.849 57.2333 187.449 56.5667 189.182 56.3C190.049 56.1667 190.915 56.1667 191.782 56.3C192.649 56.3667 193.382 56.6333 193.982 57.1C194.582 57.5 194.949 58.1 195.082 58.9C195.215 59.7 195.015 60.7667 194.482 62.1C197.149 61.3667 199.382 60.5333 201.182 59.6C202.982 58.6 204.449 57.9333 205.582 57.6C206.449 57.6 206.882 57.9 206.882 58.5C206.882 59.0333 205.815 60.5 203.682 62.9C201.815 65.3 200.815 67.5667 200.682 69.7C200.682 71.0333 200.949 72.1333 201.482 73C202.082 73.8 203.015 74.2667 204.282 74.4C205.215 74.4 206.382 74.3 207.782 74.1C209.249 73.9 210.849 73.5333 212.582 73C214.382 72.4667 216.282 71.7 218.282 70.7C220.282 69.6333 222.282 68.2667 224.282 66.6C224.349 66.5333 224.615 66.5 225.082 66.5C225.215 66.5 225.315 66.6667 225.382 67ZM190.882 62.9C191.815 60.9667 191.682 59.5333 190.482 58.6C189.815 58.0667 189.049 57.8667 188.182 58C187.382 58.0667 186.715 58.3667 186.182 58.9C185.649 59.4333 185.282 60 185.082 60.6C184.882 61.2 184.949 61.8333 185.282 62.5C185.749 63.5 186.582 63.9667 187.782 63.9C188.982 63.7667 190.015 63.4333 190.882 62.9ZM282.138 66.3C282.604 65.8333 282.971 65.9333 283.238 66.6C283.238 67.2 283.071 67.5667 282.738 67.7C278.271 70.7667 273.671 73.4333 268.938 75.7C264.271 77.9667 259.404 79.1333 254.338 79.2C253.004 79.2 251.771 79.0333 250.637 78.7C249.437 78.3667 248.404 77.8667 247.537 77.2C246.671 76.5333 246.004 75.7 245.537 74.7C245.071 73.6333 244.904 72.4 245.037 71C245.237 69.2667 245.804 67.4667 246.737 65.6C247.671 63.6667 249.337 61.7333 251.738 59.8C252.938 58.8 254.204 57.9 255.538 57.1C256.871 56.3 258.204 55.6 259.538 55C260.938 54.4 262.271 53.9333 263.538 53.6C264.804 53.2667 265.971 53.0667 267.038 53C269.171 53 270.304 54 270.438 56C270.438 56.9333 270.038 57.8667 269.238 58.8C268.504 59.7333 267.571 60.6 266.438 61.4C265.304 62.1333 264.071 62.7667 262.738 63.3C261.404 63.8333 260.204 64.1333 259.138 64.2C258.404 64.2 257.871 64.1 257.537 63.9C257.271 63.7 257.071 63.4333 256.938 63.1C256.538 62.1667 256.671 61.4667 257.338 61C258.071 60.4667 258.938 60.2 259.938 60.2C260.071 60.2 260.404 60.2667 260.938 60.4C261.471 60.4667 262.204 60.5667 263.138 60.7C263.538 60.7667 264.004 60.6667 264.538 60.4C265.138 60.1333 265.638 59.8 266.038 59.4C266.504 59 266.838 58.5667 267.038 58.1C267.238 57.5667 267.238 57.1 267.038 56.7C266.704 56.2333 266.404 55.9667 266.138 55.9C265.871 55.7667 265.304 55.7 264.438 55.7C263.171 55.7 261.638 56.1 259.838 56.9C258.104 57.7 256.338 58.9 254.538 60.5C251.138 63.7667 249.437 66.6333 249.437 69.1C249.437 71.3667 250.171 73.0667 251.638 74.2C253.171 75.2667 255.338 75.8 258.138 75.8C260.204 75.8 262.704 75.3667 265.637 74.5C268.638 73.5667 271.571 72.4 274.438 71C275.371 70.5333 276.138 70.1 276.738 69.7C277.404 69.3 278.004 68.9333 278.538 68.6C279.071 68.2667 279.604 67.9333 280.138 67.6C280.671 67.2 281.338 66.7667 282.138 66.3ZM319.11 66.6C319.11 66.8667 319.077 67.1 319.01 67.3C319.01 67.4333 318.91 67.6 318.71 67.8C315.043 70.6 311.71 72.4667 308.71 73.4C305.71 74.3333 302.91 74.8667 300.31 75C298.577 75.0667 296.91 74.4333 295.31 73.1C293.377 74.7667 291.377 76.0667 289.31 77C287.31 78 285.143 78.5667 282.81 78.7C281.343 78.7667 280.143 78.4333 279.21 77.7C278.21 77.0333 277.71 76 277.71 74.6C277.71 71.0667 280.277 67.0667 285.41 62.6C287.943 60.4667 290.31 58.9 292.51 57.9C294.71 56.9 296.61 56.4 298.21 56.4C301.61 56.4 303.31 58 303.31 61.2C303.31 62.9333 302.843 64.6667 301.91 66.4C300.977 68.1333 299.443 69.8667 297.31 71.6C298.177 72.4667 299.277 72.9 300.61 72.9C301.543 72.9 302.577 72.8333 303.71 72.7C304.843 72.5667 306.11 72.3 307.51 71.9C308.91 71.4333 310.477 70.7667 312.21 69.9C313.943 68.9667 315.877 67.7333 318.01 66.2C318.21 66.0667 318.443 66 318.71 66C318.977 66 319.11 66.2 319.11 66.6ZM301.81 60.4C301.81 59.8 301.677 59.3667 301.41 59.1C301.21 58.8333 300.743 58.6667 300.01 58.6C298.61 58.6 297.343 59.2667 296.21 60.6C295.143 61.8667 294.543 63.3 294.41 64.9C294.41 67.3667 294.877 69 295.81 69.8C299.81 66.6 301.81 63.4667 301.81 60.4ZM294.31 71.4C293.643 70.7333 293.177 69.9333 292.91 69C292.643 68.0667 292.51 67.1 292.51 66.1C292.577 65.1 292.743 64.1 293.01 63.1C293.343 62.0333 293.71 61.0333 294.11 60.1C292.91 60.3667 291.61 60.9 290.21 61.7C288.877 62.5 287.61 63.4333 286.41 64.5C285.277 65.5667 284.31 66.7333 283.51 68C282.71 69.2 282.21 70.4 282.01 71.6C281.877 72.8 282.11 73.7 282.71 74.3C283.31 74.9 284.11 75.2333 285.11 75.3C287.91 75.3 290.977 74 294.31 71.4ZM362.248 66.2C362.248 66.4 362.214 66.6 362.148 66.8C362.081 67 361.948 67.1667 361.748 67.3C359.348 68.9 357.081 70.2667 354.948 71.4C352.881 72.4667 350.881 73.4 348.948 74.2C347.014 74.9333 345.148 75.6 343.348 76.2C341.548 76.8 339.714 77.4333 337.848 78.1C333.248 84.1 325.514 91.2667 314.648 99.6C299.848 110.867 288.114 116.567 279.448 116.7C277.248 116.7 275.414 116.1 273.948 114.9C272.414 113.767 271.648 112.267 271.648 110.4C271.648 102.467 280.314 95.2 297.648 88.6C301.314 87.1333 307.981 84.9333 317.648 82C327.048 79.2 332.548 77.4667 334.148 76.8C334.614 76.3333 334.981 75.7 335.248 74.9C335.581 74.1 335.748 73.3 335.748 72.5C335.814 71.7 335.681 70.9333 335.348 70.2C335.014 69.4667 334.448 68.9 333.648 68.5C333.114 68.6333 332.481 68.8667 331.748 69.2C331.081 69.5333 330.414 69.8333 329.748 70.1C329.081 70.3 328.514 70.3667 328.048 70.3C327.581 70.2333 327.314 69.8333 327.248 69.1C327.248 68.4333 327.481 67.9333 327.948 67.6C328.414 67.2667 328.981 67.0333 329.648 66.9C330.381 66.7 331.148 66.6 331.948 66.6C332.748 66.6 333.448 66.6333 334.048 66.7C334.914 66.4333 335.881 66.1 336.948 65.7C338.081 65.2333 339.148 64.7 340.148 64.1C341.214 63.5 342.181 62.8667 343.048 62.2C343.914 61.4667 344.548 60.7 344.948 59.9C346.014 57.9667 346.114 56.3667 345.248 55.1C344.381 53.8333 342.981 53.2 341.048 53.2C340.314 53.2 339.514 53.4 338.648 53.8C337.848 54.1333 336.981 54.6 336.048 55.2C335.114 55.7333 334.148 56.3667 333.148 57.1C332.214 57.7667 331.248 58.4333 330.248 59.1C329.448 59.6333 328.514 60.2667 327.448 61C326.448 61.7333 325.414 62.5 324.348 63.3C323.348 64.0333 322.381 64.7667 321.448 65.5C320.514 66.2333 319.781 66.8333 319.248 67.3C319.048 67.5 318.881 67.6333 318.748 67.7C318.414 67.8333 318.181 67.7 318.048 67.3C317.848 66.9667 317.881 66.6667 318.148 66.4C318.281 66.2667 318.414 66.1667 318.548 66.1C320.081 64.9 321.981 63.3667 324.248 61.5C326.514 59.5667 328.714 57.9 330.848 56.5C333.314 54.8333 335.714 53.3667 338.048 52.1C340.381 50.8333 342.314 50.0667 343.848 49.8C345.181 49.5333 346.414 49.5 347.548 49.7C348.681 49.8333 349.614 50.3333 350.348 51.2C350.948 52 351.314 52.8667 351.448 53.8C351.581 54.6667 351.514 55.5667 351.248 56.5C350.981 57.3667 350.548 58.2333 349.948 59.1C349.414 59.9667 348.781 60.7333 348.048 61.4C347.381 62 346.548 62.6 345.548 63.2C344.614 63.7333 343.648 64.2667 342.648 64.8C341.648 65.3333 340.648 65.8333 339.648 66.3C338.714 66.7667 337.914 67.2 337.248 67.6C338.114 68 338.714 68.4667 339.048 69C339.381 69.5333 339.581 70.1333 339.648 70.8C339.714 71.4 339.681 72.0667 339.548 72.8C339.414 73.5333 339.281 74.3333 339.148 75.2C340.281 74.8 341.514 74.4333 342.848 74.1C344.181 73.7667 345.714 73.3 347.448 72.7C349.248 72.0333 351.248 71.1667 353.448 70.1C355.648 68.9667 358.214 67.5 361.148 65.7C361.348 65.6333 361.548 65.6 361.748 65.6C362.014 65.6 362.181 65.8 362.248 66.2ZM332.448 79.7C329.248 80.5667 326.081 81.4333 322.948 82.3C319.881 83.1667 316.748 84.1 313.548 85.1C308.148 86.6333 303.348 88.1667 299.148 89.7C294.881 91.3 291.248 92.9 288.248 94.5C279.848 98.8333 275.581 103.367 275.448 108.1C275.448 109.833 276.381 111.3 278.248 112.5C279.781 113.5 281.548 114.033 283.548 114.1C285.614 114.1 288.648 113.3 292.648 111.7C296.714 110.033 300.481 108 303.948 105.6C317.681 95.5333 327.181 86.9 332.448 79.7ZM375.981 79.7C372.781 80.5667 369.615 81.4333 366.481 82.3C363.415 83.1667 360.281 84.1 357.081 85.1C351.681 86.6333 346.881 88.2 342.681 89.8C338.415 91.4 334.781 93 331.781 94.6C323.248 98.9333 318.981 103.467 318.981 108.2C318.981 110.067 319.848 111.433 321.581 112.3C323.248 113.167 325.448 113.5 328.181 113.3C330.915 113.1 333.981 112.367 337.381 111.1C340.715 109.833 344.081 108 347.481 105.6C361.215 95.6667 370.715 87.0333 375.981 79.7ZM404.381 65.7C404.648 65.5667 404.881 65.4667 405.081 65.4C405.281 65.3333 405.448 65.4667 405.581 65.8C405.648 66.0667 405.648 66.2667 405.581 66.4C405.581 66.5333 405.415 66.7 405.081 66.9C401.215 69.2333 397.181 71.3 392.981 73.1C388.781 74.9 384.915 76.6 381.381 78.2C376.581 84.3333 368.848 91.5 358.181 99.7C343.381 110.9 331.648 116.567 322.981 116.7C320.848 116.7 319.015 116.133 317.481 115C315.948 113.933 315.181 112.433 315.181 110.5C315.181 102.5 323.848 95.2 341.181 88.6C344.848 87.1333 351.515 84.9333 361.181 82C365.981 80.6 369.715 79.4667 372.381 78.6C375.115 77.8 376.881 77.2333 377.681 76.9C382.348 71.7 384.748 66.7 384.881 61.9C384.881 58.7 383.015 57.1 379.281 57.1C377.881 57.1 376.515 57.2667 375.181 57.6C373.848 57.9333 372.515 58.4667 371.181 59.2C368.515 60.8 367.181 62.5667 367.181 64.5C367.181 67.1667 368.248 68.5333 370.381 68.6C371.715 68.6 373.415 68.2 375.481 67.4C377.615 66.5333 379.881 65.3333 382.281 63.8L381.581 65.3C379.381 66.8333 377.048 68.2333 374.581 69.5C372.115 70.7 369.715 71.3 367.381 71.3C365.981 71.3 364.748 70.9667 363.681 70.3C362.548 69.5667 362.048 68.1333 362.181 66C362.315 64.8667 362.881 63.7 363.881 62.5C364.815 61.2333 366.315 59.9333 368.381 58.6C372.515 56.2 376.415 54.9667 380.081 54.9C382.615 54.9 384.681 55.5333 386.281 56.8C387.948 58 388.848 59.8333 388.981 62.3C388.981 65.4333 387.315 69.5333 383.981 74.6C385.048 74.2667 386.581 73.7 388.581 72.9C390.581 72.1 392.615 71.2667 394.681 70.4C396.815 69.4667 398.781 68.5667 400.581 67.7C402.381 66.8333 403.648 66.1667 404.381 65.7ZM449.373 66.5C449.507 67.0333 449.373 67.4 448.973 67.6C444.373 70.4667 439.94 72.9333 435.673 75C431.473 77 427.807 78 424.673 78C421.073 78 419.173 75.3 418.973 69.9C418.373 70.2333 417.44 70.7667 416.173 71.5C414.973 72.1667 413.673 72.8667 412.273 73.6C410.94 74.3333 409.573 74.9667 408.173 75.5C406.84 76.1 405.74 76.4333 404.873 76.5C403.607 76.6333 402.473 76.4667 401.473 76C400.407 75.5333 399.74 74.5667 399.473 73.1C399.473 70.1667 402.207 66.5667 407.673 62.3C410.473 60.2333 413.14 58.6667 415.673 57.6C418.207 56.5333 420.34 56 422.073 56C424.54 55.9333 425.807 56.5333 425.873 57.8C425.873 59 425.44 59.9667 424.573 60.7C423.907 61.3 423.073 61.6 422.073 61.6C422.007 61.5333 421.94 61.4 421.873 61.2C421.807 61.0667 421.74 60.9333 421.673 60.8C421.607 60.6 421.507 60.3667 421.373 60.1C420.973 59.1 420.173 58.5667 418.973 58.5C416.373 58.5 413.34 59.9667 409.873 62.9C406.54 65.7 404.873 68.2333 404.873 70.5C404.873 71.0333 404.973 71.5333 405.173 72C405.373 72.4 405.74 72.6333 406.273 72.7C408.14 72.8333 409.973 72.5333 411.773 71.8C413.64 71.0667 415.607 70 417.673 68.6C418.54 68 420.04 66.5333 422.173 64.2C423.507 62.6 424.673 61.8333 425.673 61.9C426.473 61.9 426.873 62.2333 426.873 62.9C426.873 63.5 426.307 64.8 425.173 66.8C424.107 68.6667 423.573 70.0333 423.573 70.9C423.573 73.3667 424.773 74.6333 427.173 74.7C429.307 74.7 431.473 74.3667 433.673 73.7C435.873 73.0333 437.94 72.2333 439.873 71.3C441.807 70.3667 443.507 69.4667 444.973 68.6C446.507 67.6667 447.607 66.9667 448.273 66.5C448.473 66.3 448.673 66.1667 448.873 66.1C449.073 65.9667 449.24 66.1 449.373 66.5ZM492.13 66.7C492.13 67.2333 491.997 67.5667 491.73 67.7C488.997 69.9 486.464 71.6667 484.13 73C481.797 74.2667 479.664 75.2333 477.73 75.9C475.797 76.5667 474.03 76.9667 472.43 77.1C470.897 77.2333 469.597 77.2333 468.53 77.1C466.93 76.8333 465.664 76.1333 464.73 75C463.797 73.8 463.164 71.9 462.83 69.3C461.03 71.1667 458.497 72.9 455.23 74.5C453.897 75.1 452.73 75.5667 451.73 75.9C450.797 76.3 450.03 76.4333 449.43 76.3C446.43 75.9 444.797 74.4333 444.53 71.9C444.53 69.5 445.13 67.8 446.33 66.8C447.064 66.2 447.93 65.8 448.93 65.6C449.864 65.3333 450.464 65.5333 450.73 66.2C450.997 66.8 451.13 67.4333 451.13 68.1C451.064 68.7667 450.997 69.4 450.93 70C450.864 70.6 450.897 71.1667 451.03 71.7C451.164 72.1667 451.497 72.5 452.03 72.7C452.497 72.8333 453.13 72.7667 453.93 72.5C454.797 72.2333 455.664 71.8667 456.53 71.4C457.464 70.8667 458.364 70.3 459.23 69.7C460.164 69.1 460.93 68.5333 461.53 68C462.264 67.4667 463.164 66.5667 464.23 65.3C465.364 64.0333 466.697 62.4 468.23 60.4C468.83 59.6667 469.464 58.9 470.13 58.1C470.797 57.2333 471.43 56.4667 472.03 55.8C472.697 55.1333 473.297 54.5667 473.83 54.1C474.364 53.6333 474.764 53.4 475.03 53.4C475.23 53.4 475.464 53.4 475.73 53.4C476.064 53.4 476.33 53.5 476.53 53.7C476.797 53.8333 476.964 54.1 477.03 54.5C477.164 54.8333 477.097 55.3667 476.83 56.1C476.497 57.0333 475.764 57.8667 474.63 58.6C473.497 59.3333 472.297 60.3 471.03 61.5C468.63 63.7667 467.397 65.7 467.33 67.3C467.33 68.8333 467.664 70.1333 468.33 71.2C469.064 72.2 470.097 72.9 471.43 73.3C473.23 73.8333 474.997 73.9667 476.73 73.7C478.464 73.3667 480.164 72.8333 481.83 72.1C483.564 71.3 485.197 70.3667 486.73 69.3C488.264 68.2333 489.73 67.2 491.13 66.2C491.664 65.8 491.997 65.9667 492.13 66.7ZM536.385 66.5C536.652 66.3667 536.885 66.2333 537.085 66.1C537.352 65.9 537.552 66 537.685 66.4C537.885 66.8667 537.718 67.3 537.185 67.7C534.785 69.5 532.352 71.1333 529.885 72.6C527.485 74 525.152 75.1667 522.885 76.1C520.685 77.1 518.652 77.8333 516.785 78.3C514.918 78.7667 513.352 78.9667 512.085 78.9C511.285 78.8333 510.452 78.6333 509.585 78.3C508.785 77.9667 508.052 77.4667 507.385 76.8C506.785 76.1333 506.285 75.2667 505.885 74.2C505.485 73.1333 505.318 71.8333 505.385 70.3C504.585 71.1667 503.618 72.0333 502.485 72.9C501.352 73.7667 500.152 74.5333 498.885 75.2C497.618 75.8667 496.385 76.4 495.185 76.8C493.985 77.2 492.918 77.4 491.985 77.4C490.918 77.4 489.918 77.0333 488.985 76.3C488.052 75.6333 487.585 74.5333 487.585 73C487.518 70.7333 488.518 68.5 490.585 66.3C491.518 65.3 492.952 64.1 494.885 62.7C496.818 61.2333 499.285 59.5333 502.285 57.6C502.685 57.6 502.952 57.7667 503.085 58.1C503.218 58.3667 503.185 58.7 502.985 59.1C502.118 59.6333 501.252 60.2 500.385 60.8C499.518 61.4 498.618 62.0667 497.685 62.8C496.018 64.2 494.818 65.5333 494.085 66.8C493.285 68 492.818 69.1667 492.685 70.3C492.485 72.3 493.118 73.4667 494.585 73.8C495.785 74.0667 497.152 73.7667 498.685 72.9C500.285 71.9667 502.085 70.7 504.085 69.1C504.818 68.5 505.718 67.6 506.785 66.4C507.918 65.2 509.252 63.5667 510.785 61.5C513.118 58.4333 514.818 56.9 515.885 56.9C516.752 56.9 517.218 57.2667 517.285 58C517.285 58.7333 516.018 60.2667 513.485 62.6C511.085 64.8667 509.885 66.8 509.885 68.4C509.885 70.6667 510.252 72.3 510.985 73.3C511.785 74.3 512.852 75.0333 514.185 75.5C516.052 76.1 518.118 76.0333 520.385 75.3C522.718 74.5667 525.285 73.4667 528.085 72C529.218 71.4 530.552 70.6667 532.085 69.8C533.618 68.9333 535.052 67.8333 536.385 66.5Z" fill="#F37021"/>
</svg>
