<svg width="837" height="124" viewBox="0 0 837 124" fill="none" xmlns="http://www.w3.org/2000/svg">
<path d="M145.039 73.7C148.239 73.7 151.172 73.4667 153.839 73C156.506 72.4667 159.172 71.6 161.839 70.4C164.506 69.1333 167.306 67.5 170.239 65.5C173.172 63.4333 176.439 60.8333 180.039 57.7L181.339 58.1C177.472 61.7667 173.906 64.8667 170.639 67.4C167.372 69.9333 164.172 71.9667 161.039 73.5C157.972 75.0333 154.872 76.1 151.739 76.7C148.606 77.3667 145.239 77.6333 141.639 77.5C138.039 77.4333 134.739 76.8667 131.739 75.8C128.739 74.7333 126.172 73.2667 124.039 71.4C121.906 69.4667 120.239 67.1667 119.039 64.5C117.839 61.8333 117.206 58.8333 117.139 55.5C117.139 53.4333 117.306 51.4333 117.639 49.5C117.972 47.5 118.539 45.4 119.339 43.2C120.206 41 121.339 38.5667 122.739 35.9C124.206 33.2333 126.039 30.1667 128.239 26.7C126.639 27.9 124.839 29.4667 122.839 31.4C120.839 33.2667 118.672 35.3667 116.339 37.7C114.072 39.9667 111.639 42.4 109.039 45C106.506 47.6 103.906 50.2333 101.239 52.9C100.372 53.7667 99.2057 54.9333 97.7391 56.4C96.3391 57.8667 94.8057 59.4333 93.1391 61.1C91.4724 62.7667 89.7724 64.4667 88.0391 66.2C86.3057 67.8667 84.6724 69.4 83.1391 70.8C81.6057 72.2 80.2724 73.3667 79.1391 74.3C78.0057 75.2333 77.2391 75.7333 76.8391 75.8L75.2391 75.6C74.7724 75.6 74.7057 74.6333 75.0391 72.7C75.3724 70.7667 75.9724 68.3 76.8391 65.3C77.7724 62.2333 78.8724 58.9 80.1391 55.3C81.4724 51.6333 82.8724 48.1 84.3391 44.7C85.2057 42.7 86.4391 40.0667 88.0391 36.8C89.6391 33.5333 91.5057 30.1667 93.6391 26.7C90.5057 29.1667 86.7724 32.4 82.4391 36.4C78.1057 40.3333 72.6057 45.0667 65.9391 50.6C63.1391 53.0667 60.3391 55.4 57.5391 57.6C54.8057 59.8 52.0724 61.8333 49.3391 63.7C43.8057 67.5667 38.3724 70.7 33.0391 73.1C27.7057 75.5 22.5057 76.7 17.4391 76.7C12.5724 76.7 8.53906 75.5 5.33906 73.1C2.20573 70.7 0.605729 67.6333 0.539062 63.9C0.539062 56.5667 5.03906 49.2333 14.0391 41.9C22.7057 34.9667 30.8057 31.5 38.3391 31.5C38.8057 31.5 39.3057 31.5667 39.8391 31.7C40.4391 31.8333 40.9724 32.0333 41.4391 32.3C41.9724 32.5 42.4391 32.8 42.8391 33.2C43.2391 33.6 43.4724 34.0667 43.5391 34.6C43.5391 35.7333 42.9724 36.8 41.8391 37.8C40.7724 38.7333 39.6724 39.2333 38.5391 39.3C38.1391 37.4333 37.7057 36.2667 37.2391 35.8C36.8391 35.2667 36.0724 34.8667 34.9391 34.6C33.3391 34.2 31.3724 34.4 29.0391 35.2C26.7057 36 24.3724 37.0667 22.0391 38.4C19.7057 39.7333 17.5391 41.1667 15.5391 42.7C13.6057 44.2333 12.1724 45.5333 11.2391 46.6C9.5724 48.3333 8.20573 50.4333 7.13906 52.9C6.0724 55.3667 5.50573 57.9333 5.43906 60.6C5.43906 68.7333 10.5724 72.8 20.8391 72.8C22.3057 72.8 24.0057 72.5333 25.9391 72C27.8724 71.4667 29.9391 70.7333 32.1391 69.8C34.3391 68.8667 36.6057 67.8 38.9391 66.6C41.2724 65.3333 43.5724 64 45.8391 62.6C47.7057 61.5333 49.6391 60.2 51.6391 58.6C53.6391 56.9333 55.7057 55.1333 57.8391 53.2C60.0391 51.2667 62.3057 49.2333 64.6391 47.1C67.0391 44.9 69.5057 42.7333 72.0391 40.6C75.3057 37.8667 78.2391 35.4333 80.8391 33.3C83.4391 31.1 86.0391 28.9 88.6391 26.7C100.972 16.5 111.072 7.6 118.939 -5.96046e-06C119.872 -5.96046e-06 120.372 0.366662 120.439 1.1C116.839 4.3 113.339 7.9 109.939 11.9C106.539 15.8333 103.339 19.9667 100.339 24.3C97.3391 28.5667 94.5724 32.9 92.0391 37.3C89.5724 41.7 87.3724 45.9667 85.4391 50.1C83.5724 54.1667 82.0391 58 80.8391 61.6C79.7057 65.1333 79.0057 68.2 78.7391 70.8C79.5391 70.2667 80.6391 69.3333 82.0391 68C83.4391 66.6667 84.8391 65.3 86.2391 63.9C87.6391 62.4333 88.9057 61.1 90.0391 59.9C91.1724 58.7 91.8724 57.9667 92.1391 57.7C97.1391 52.5667 102.239 47.3667 107.439 42.1C112.706 36.8333 117.939 31.7 123.139 26.7C129.006 21.2333 134.506 16.4 139.639 12.2C144.839 7.93333 149.472 3.86666 153.539 -5.96046e-06C154.472 -5.96046e-06 154.972 0.366662 155.039 1.1C132.972 20.7 121.939 38.0667 121.939 53.2C121.939 56.2 122.472 58.9667 123.539 61.5C124.606 63.9667 126.139 66.1 128.139 67.9C130.139 69.7 132.539 71.1 135.339 72.1C138.206 73.1 141.439 73.6333 145.039 73.7ZM225.261 67C225.261 67.5333 225.161 67.9 224.961 68.1C220.361 71.1 216.194 73.3 212.461 74.7C208.794 76.1 205.694 76.9333 203.161 77.2C202.228 77.3333 201.294 77.3333 200.361 77.2C199.428 77.1333 198.594 76.9 197.861 76.5C197.128 76.1 196.528 75.5 196.061 74.7C195.594 73.9 195.361 72.8333 195.361 71.5C195.361 70.0333 195.928 68.3333 197.061 66.4C198.194 64.4 199.361 62.6667 200.561 61.2C199.628 61.5333 198.561 61.9333 197.361 62.4C196.161 62.8 194.894 63.2 193.561 63.6C193.094 64.5333 192.528 65.4667 191.861 66.4C191.194 67.3333 190.428 68.3333 189.561 69.4C184.428 75.5333 179.128 78.6333 173.661 78.7C169.994 78.7 168.128 76.8333 168.061 73.1C168.061 71.3667 168.728 69.3333 170.061 67C171.328 64.6667 172.961 62 174.961 59C176.294 57.1333 177.561 55.4333 178.761 53.9C180.028 52.3 181.061 50.6333 181.861 48.9C182.794 46.9667 183.961 45.6333 185.361 44.9C186.761 44.1667 187.994 43.6667 189.061 43.4C189.528 43.2667 190.094 43.1667 190.761 43.1C191.428 43.0333 191.794 43.4 191.861 44.2C191.861 44.9333 191.228 46 189.961 47.4C188.694 48.8 186.894 50.5333 184.561 52.6C181.428 55.4 178.761 58.4 176.561 61.6C174.428 64.7333 173.194 67.5667 172.861 70.1C172.728 71.3667 173.028 72.5 173.761 73.5C174.428 74.4333 175.761 74.8333 177.761 74.7C179.628 74.5667 181.428 73.9 183.161 72.7C184.894 71.5 186.628 69.6333 188.361 67.1C188.694 66.6333 188.961 66.2333 189.161 65.9C189.428 65.5 189.628 65.1 189.761 64.7C188.294 65.3 187.094 65.6333 186.161 65.7C185.228 65.7667 184.394 65.7333 183.661 65.6C183.461 65.5333 183.194 65.4333 182.861 65.3C182.594 65.1 182.328 64.8333 182.061 64.5C181.794 64.1667 181.594 63.8 181.461 63.4C181.394 62.9333 181.428 62.4333 181.561 61.9C181.894 60.5 182.794 59.3 184.261 58.3C185.728 57.2333 187.328 56.5667 189.061 56.3C189.928 56.1667 190.794 56.1667 191.661 56.3C192.528 56.3667 193.261 56.6333 193.861 57.1C194.461 57.5 194.828 58.1 194.961 58.9C195.094 59.7 194.894 60.7667 194.361 62.1C197.028 61.3667 199.261 60.5333 201.061 59.6C202.861 58.6 204.328 57.9333 205.461 57.6C206.328 57.6 206.761 57.9 206.761 58.5C206.761 59.0333 205.694 60.5 203.561 62.9C201.694 65.3 200.694 67.5667 200.561 69.7C200.561 71.0333 200.828 72.1333 201.361 73C201.961 73.8 202.894 74.2667 204.161 74.4C205.094 74.4 206.261 74.3 207.661 74.1C209.128 73.9 210.728 73.5333 212.461 73C214.261 72.4667 216.161 71.7 218.161 70.7C220.161 69.6333 222.161 68.2667 224.161 66.6C224.228 66.5333 224.494 66.5 224.961 66.5C225.094 66.5 225.194 66.6667 225.261 67ZM190.761 62.9C191.694 60.9667 191.561 59.5333 190.361 58.6C189.694 58.0667 188.928 57.8667 188.061 58C187.261 58.0667 186.594 58.3667 186.061 58.9C185.528 59.4333 185.161 60 184.961 60.6C184.761 61.2 184.828 61.8333 185.161 62.5C185.628 63.5 186.461 63.9667 187.661 63.9C188.861 63.7667 189.894 63.4333 190.761 62.9ZM297.116 67.1C297.116 67.2333 297.083 67.4 297.016 67.6C297.016 67.8 296.916 67.9667 296.716 68.1C293.716 69.6333 291.05 70.9333 288.716 72C286.383 73.0667 284.25 73.9333 282.316 74.6C280.45 75.2667 278.683 75.7333 277.016 76C275.35 76.3333 273.716 76.5 272.116 76.5C268.383 76.5 266.483 74.5 266.416 70.5C266.416 69.7667 266.483 68.8667 266.616 67.8C266.816 66.6667 267.116 65.3333 267.516 63.8C265.05 65.2667 262.483 66.8 259.816 68.4C257.216 69.9333 254.483 71.6333 251.616 73.5C247.683 76.1 245.55 77.4 245.216 77.4C245.083 77.4 244.85 77.2667 244.516 77C244.116 76.8667 243.916 76.6333 243.916 76.3C243.916 75.8333 244.216 75.0667 244.816 74C245.35 72.9333 246.283 71.4667 247.616 69.6C248.283 68.6 248.883 67.8 249.416 67.2C249.883 66.5333 250.283 66 250.616 65.6C250.95 65.2 251.216 64.9 251.416 64.7C251.683 64.4333 251.883 64.2 252.016 64C252.15 63.4667 252.083 63.1667 251.816 63.1C251.616 63.0333 251.35 62.8333 251.016 62.5C250.816 62.2333 250.916 61.9333 251.316 61.6C251.783 61.2667 252.25 60.8667 252.716 60.4C253.25 59.9333 254.016 59.4333 255.016 58.9C256.083 58.3 256.883 57.9333 257.416 57.8C258.35 57.6667 258.916 57.8333 259.116 58.3C259.316 58.7667 259.35 59.4333 259.216 60.3C259.216 60.8333 258.116 62.5333 255.916 65.4C254.983 66.6667 254.15 67.7333 253.416 68.6C252.75 69.4667 252.15 70.1667 251.616 70.7C264.283 62.0333 272.45 57.7 276.116 57.7C276.45 57.7 276.683 58.1333 276.816 59C276.816 59.0667 275.816 60.3 273.816 62.7C271.883 64.9667 270.883 67.2333 270.816 69.5C270.816 71.9 272.483 73.1333 275.816 73.2C276.616 73.2 277.616 73.1333 278.816 73C280.016 72.8667 281.45 72.6 283.116 72.2C284.783 71.7333 286.683 71.0667 288.816 70.2C291.016 69.3333 293.45 68.1333 296.116 66.6C296.183 66.4667 296.383 66.4 296.716 66.4C296.916 66.4 297.05 66.6333 297.116 67.1ZM322.549 38.5C322.549 38.5667 315.516 46.6333 301.449 62.7C302.716 62.0333 303.983 61.3667 305.249 60.7C306.516 60.0333 307.816 59.3333 309.149 58.6C312.349 57.2 315.249 56.4667 317.849 56.4C320.649 56.4 322.149 57.6333 322.349 60.1C322.349 61.7 321.016 63.9333 318.349 66.8C317.083 68.1333 315.683 69.3667 314.149 70.5C312.616 71.5667 310.883 72.6667 308.949 73.8C305.083 75.8 301.983 76.8333 299.649 76.9C299.116 76.9 298.683 76.8 298.349 76.6C298.016 76.4 297.683 76.1333 297.349 75.8C296.749 75.2 296.449 74.4333 296.449 73.5C296.449 71.6333 297.083 70.6333 298.349 70.5C299.016 70.5 299.449 70.7 299.649 71.1C299.849 71.3667 300.116 71.8333 300.449 72.5C300.916 73.5 301.949 74 303.549 74C305.616 74 308.549 72.4 312.349 69.2C316.216 66.2 318.149 63.5333 318.149 61.2C318.149 60.1333 316.949 59.5 314.549 59.3C312.283 59.3 309.983 60.0333 307.649 61.5C306.716 62.1 305.316 63.1333 303.449 64.6C301.649 66.0667 299.383 67.9667 296.649 70.3C293.183 73.2333 289.616 76.7 285.949 80.7C282.283 84.7667 278.449 89.4667 274.449 94.8C267.649 104.267 263.949 110.333 263.349 113V116.6C263.349 117.533 263.016 118.2 262.349 118.6C261.816 119 261.183 119.267 260.449 119.4C260.049 119.4 259.683 119.367 259.349 119.3C258.949 119.233 258.583 119.067 258.249 118.8C257.583 118.467 257.149 117.9 256.949 117.1C256.949 115.9 257.383 114.833 258.249 113.9C258.983 112.567 259.583 111.567 260.049 110.9C260.449 110.3 260.683 109.933 260.749 109.8C262.883 105.867 265.983 101.2 270.049 95.8C274.116 90.4 279.183 84.1667 285.249 77.1C288.116 73.7 292.383 68.8333 298.049 62.5C303.649 56.1667 310.816 48.2667 319.549 38.8C320.416 37.9333 321.149 37.4667 321.749 37.4C322.083 37.4 322.349 37.7667 322.549 38.5ZM366.548 66.6C366.548 66.8667 366.514 67.1 366.448 67.3C366.448 67.4333 366.348 67.6 366.148 67.8C362.481 70.6 359.148 72.4667 356.148 73.4C353.148 74.3333 350.348 74.8667 347.748 75C346.014 75.0667 344.348 74.4333 342.748 73.1C340.814 74.7667 338.814 76.0667 336.748 77C334.748 78 332.581 78.5667 330.248 78.7C328.781 78.7667 327.581 78.4333 326.648 77.7C325.648 77.0333 325.148 76 325.148 74.6C325.148 71.0667 327.714 67.0667 332.848 62.6C335.381 60.4667 337.748 58.9 339.948 57.9C342.148 56.9 344.048 56.4 345.648 56.4C349.048 56.4 350.748 58 350.748 61.2C350.748 62.9333 350.281 64.6667 349.348 66.4C348.414 68.1333 346.881 69.8667 344.748 71.6C345.614 72.4667 346.714 72.9 348.048 72.9C348.981 72.9 350.014 72.8333 351.148 72.7C352.281 72.5667 353.548 72.3 354.948 71.9C356.348 71.4333 357.914 70.7667 359.648 69.9C361.381 68.9667 363.314 67.7333 365.448 66.2C365.648 66.0667 365.881 66 366.148 66C366.414 66 366.548 66.2 366.548 66.6ZM349.248 60.4C349.248 59.8 349.114 59.3667 348.848 59.1C348.648 58.8333 348.181 58.6667 347.448 58.6C346.048 58.6 344.781 59.2667 343.648 60.6C342.581 61.8667 341.981 63.3 341.848 64.9C341.848 67.3667 342.314 69 343.248 69.8C347.248 66.6 349.248 63.4667 349.248 60.4ZM341.748 71.4C341.081 70.7333 340.614 69.9333 340.348 69C340.081 68.0667 339.948 67.1 339.948 66.1C340.014 65.1 340.181 64.1 340.448 63.1C340.781 62.0333 341.148 61.0333 341.548 60.1C340.348 60.3667 339.048 60.9 337.648 61.7C336.314 62.5 335.048 63.4333 333.848 64.5C332.714 65.5667 331.748 66.7333 330.948 68C330.148 69.2 329.648 70.4 329.448 71.6C329.314 72.8 329.548 73.7 330.148 74.3C330.748 74.9 331.548 75.2333 332.548 75.3C335.348 75.3 338.414 74 341.748 71.4ZM436.385 67.5C436.452 67.7 436.418 67.9333 436.285 68.2C436.218 68.4 436.085 68.5 435.885 68.5C432.552 70.2333 429.718 71.6667 427.385 72.8C425.052 73.8667 423.018 74.7 421.285 75.3C419.618 75.9667 418.118 76.4333 416.785 76.7C415.518 77.0333 414.252 77.2 412.985 77.2C409.185 77.3333 407.218 75.4667 407.085 71.6C407.085 70.2667 407.252 68.9667 407.585 67.7C407.918 66.4333 408.452 65.1333 409.185 63.8C408.718 63.8 408.018 64.0333 407.085 64.5C406.218 64.9667 405.352 65.4333 404.485 65.9C401.352 67.3 398.485 68.9 395.885 70.7C393.352 72.4333 391.185 73.8333 389.385 74.9C386.252 76.6333 384.352 77.5 383.685 77.5C382.352 77.5 381.685 76.9 381.685 75.7C381.685 74.6333 382.585 72.9 384.385 70.5C385.518 69.1667 386.618 67.8667 387.685 66.6C388.752 65.2667 389.885 63.9 391.085 62.5C383.418 67.3 377.552 70.9 373.485 73.3C369.418 75.7 367.185 76.9333 366.785 77C365.718 77 365.185 76.5667 365.185 75.7C365.585 75.3 366.052 74.7667 366.585 74.1C367.052 73.5667 367.652 72.9333 368.385 72.2C369.052 71.4 369.852 70.5 370.785 69.5C372.718 67.4333 374.218 65.7 375.285 64.3C376.352 62.8333 376.785 61.8333 376.585 61.3C376.518 61.0333 376.285 60.9333 375.885 61C375.485 61 375.218 61.0667 375.085 61.2C374.885 61.2667 374.585 61.3667 374.185 61.5C373.785 61.5667 373.385 61.6667 372.985 61.8C372.585 61.8667 372.218 61.9 371.885 61.9C371.552 61.8333 371.352 61.6667 371.285 61.4C371.152 61.1333 371.352 60.7667 371.885 60.3C372.418 59.8333 373.085 59.3667 373.885 58.9C374.685 58.3667 375.485 57.9333 376.285 57.6C377.152 57.2 377.818 56.9667 378.285 56.9C379.418 56.9 380.318 57.1333 380.985 57.6C381.718 58.0667 381.885 59.0667 381.485 60.6C381.352 61.6667 380.685 62.9667 379.485 64.5C378.285 66.0333 377.018 67.6 375.685 69.2C380.285 66.4 384.985 63.6 389.785 60.8C392.185 59.4 393.952 58.7 395.085 58.7C396.818 58.7 397.685 59.3333 397.685 60.6C397.685 61.5333 396.618 63.2 394.485 65.6C393.218 67 392.185 68.2 391.385 69.2C390.585 70.2 389.985 71.0667 389.585 71.8C399.385 65.8667 405.618 62.2667 408.285 61C411.818 59.2667 414.418 58.3667 416.085 58.3C416.552 58.3 416.785 58.7 416.785 59.5C416.585 59.8333 416.352 60.2 416.085 60.6C415.818 60.9333 415.518 61.3667 415.185 61.9C414.918 62.4333 414.552 63.0667 414.085 63.8C412.352 66.5333 411.485 68.7667 411.485 70.5C411.485 73.1 412.718 74.4333 415.185 74.5C416.185 74.5 417.152 74.4333 418.085 74.3C419.085 74.1 420.285 73.7333 421.685 73.2C423.085 72.6667 424.852 71.9333 426.985 71C429.118 70 431.885 68.6667 435.285 67C435.418 66.9333 435.585 66.9 435.785 66.9C436.052 66.9 436.252 67.1 436.385 67.5ZM471.821 66.6C471.821 66.8667 471.788 67.1 471.721 67.3C471.721 67.4333 471.621 67.6 471.421 67.8C467.754 70.6 464.421 72.4667 461.421 73.4C458.421 74.3333 455.621 74.8667 453.021 75C451.288 75.0667 449.621 74.4333 448.021 73.1C446.088 74.7667 444.088 76.0667 442.021 77C440.021 78 437.854 78.5667 435.521 78.7C434.054 78.7667 432.854 78.4333 431.921 77.7C430.921 77.0333 430.421 76 430.421 74.6C430.421 71.0667 432.988 67.0667 438.121 62.6C440.654 60.4667 443.021 58.9 445.221 57.9C447.421 56.9 449.321 56.4 450.921 56.4C454.321 56.4 456.021 58 456.021 61.2C456.021 62.9333 455.554 64.6667 454.621 66.4C453.688 68.1333 452.154 69.8667 450.021 71.6C450.888 72.4667 451.988 72.9 453.321 72.9C454.254 72.9 455.288 72.8333 456.421 72.7C457.554 72.5667 458.821 72.3 460.221 71.9C461.621 71.4333 463.188 70.7667 464.921 69.9C466.654 68.9667 468.588 67.7333 470.721 66.2C470.921 66.0667 471.154 66 471.421 66C471.688 66 471.821 66.2 471.821 66.6ZM454.521 60.4C454.521 59.8 454.388 59.3667 454.121 59.1C453.921 58.8333 453.454 58.6667 452.721 58.6C451.321 58.6 450.054 59.2667 448.921 60.6C447.854 61.8667 447.254 63.3 447.121 64.9C447.121 67.3667 447.588 69 448.521 69.8C452.521 66.6 454.521 63.4667 454.521 60.4ZM447.021 71.4C446.354 70.7333 445.888 69.9333 445.621 69C445.354 68.0667 445.221 67.1 445.221 66.1C445.288 65.1 445.454 64.1 445.721 63.1C446.054 62.0333 446.421 61.0333 446.821 60.1C445.621 60.3667 444.321 60.9 442.921 61.7C441.588 62.5 440.321 63.4333 439.121 64.5C437.988 65.5667 437.021 66.7333 436.221 68C435.421 69.2 434.921 70.4 434.721 71.6C434.588 72.8 434.821 73.7 435.421 74.3C436.021 74.9 436.821 75.2333 437.821 75.3C440.621 75.3 443.688 74 447.021 71.4ZM541.659 67.5C541.725 67.7 541.692 67.9333 541.559 68.2C541.492 68.4 541.359 68.5 541.159 68.5C537.825 70.2333 534.992 71.6667 532.659 72.8C530.325 73.8667 528.292 74.7 526.559 75.3C524.892 75.9667 523.392 76.4333 522.059 76.7C520.792 77.0333 519.525 77.2 518.259 77.2C514.459 77.3333 512.492 75.4667 512.359 71.6C512.359 70.2667 512.525 68.9667 512.859 67.7C513.192 66.4333 513.725 65.1333 514.459 63.8C513.992 63.8 513.292 64.0333 512.359 64.5C511.492 64.9667 510.625 65.4333 509.759 65.9C506.625 67.3 503.759 68.9 501.159 70.7C498.625 72.4333 496.459 73.8333 494.659 74.9C491.525 76.6333 489.625 77.5 488.959 77.5C487.625 77.5 486.959 76.9 486.959 75.7C486.959 74.6333 487.859 72.9 489.659 70.5C490.792 69.1667 491.892 67.8667 492.959 66.6C494.025 65.2667 495.159 63.9 496.359 62.5C488.692 67.3 482.825 70.9 478.759 73.3C474.692 75.7 472.459 76.9333 472.059 77C470.992 77 470.459 76.5667 470.459 75.7C470.859 75.3 471.325 74.7667 471.859 74.1C472.325 73.5667 472.925 72.9333 473.659 72.2C474.325 71.4 475.125 70.5 476.059 69.5C477.992 67.4333 479.492 65.7 480.559 64.3C481.625 62.8333 482.059 61.8333 481.859 61.3C481.792 61.0333 481.559 60.9333 481.159 61C480.759 61 480.492 61.0667 480.359 61.2C480.159 61.2667 479.859 61.3667 479.459 61.5C479.059 61.5667 478.659 61.6667 478.259 61.8C477.859 61.8667 477.492 61.9 477.159 61.9C476.825 61.8333 476.625 61.6667 476.559 61.4C476.425 61.1333 476.625 60.7667 477.159 60.3C477.692 59.8333 478.359 59.3667 479.159 58.9C479.959 58.3667 480.759 57.9333 481.559 57.6C482.425 57.2 483.092 56.9667 483.559 56.9C484.692 56.9 485.592 57.1333 486.259 57.6C486.992 58.0667 487.159 59.0667 486.759 60.6C486.625 61.6667 485.959 62.9667 484.759 64.5C483.559 66.0333 482.292 67.6 480.959 69.2C485.559 66.4 490.259 63.6 495.059 60.8C497.459 59.4 499.225 58.7 500.359 58.7C502.092 58.7 502.959 59.3333 502.959 60.6C502.959 61.5333 501.892 63.2 499.759 65.6C498.492 67 497.459 68.2 496.659 69.2C495.859 70.2 495.259 71.0667 494.859 71.8C504.659 65.8667 510.892 62.2667 513.559 61C517.092 59.2667 519.692 58.3667 521.359 58.3C521.825 58.3 522.059 58.7 522.059 59.5C521.859 59.8333 521.625 60.2 521.359 60.6C521.092 60.9333 520.792 61.3667 520.459 61.9C520.192 62.4333 519.825 63.0667 519.359 63.8C517.625 66.5333 516.759 68.7667 516.759 70.5C516.759 73.1 517.992 74.4333 520.459 74.5C521.459 74.5 522.425 74.4333 523.359 74.3C524.359 74.1 525.559 73.7333 526.959 73.2C528.359 72.6667 530.125 71.9333 532.259 71C534.392 70 537.159 68.6667 540.559 67C540.692 66.9333 540.859 66.9 541.059 66.9C541.325 66.9 541.525 67.1 541.659 67.5ZM584.995 66.5C585.261 66.3667 585.495 66.2333 585.695 66.1C585.961 65.9 586.161 66 586.295 66.4C586.495 66.8667 586.328 67.3 585.795 67.7C583.395 69.5 580.961 71.1333 578.495 72.6C576.095 74 573.761 75.1667 571.495 76.1C569.295 77.1 567.261 77.8333 565.395 78.3C563.528 78.7667 561.961 78.9667 560.695 78.9C559.895 78.8333 559.061 78.6333 558.195 78.3C557.395 77.9667 556.661 77.4667 555.995 76.8C555.395 76.1333 554.895 75.2667 554.495 74.2C554.095 73.1333 553.928 71.8333 553.995 70.3C553.195 71.1667 552.228 72.0333 551.095 72.9C549.961 73.7667 548.761 74.5333 547.495 75.2C546.228 75.8667 544.995 76.4 543.795 76.8C542.595 77.2 541.528 77.4 540.595 77.4C539.528 77.4 538.528 77.0333 537.595 76.3C536.661 75.6333 536.195 74.5333 536.195 73C536.128 70.7333 537.128 68.5 539.195 66.3C540.128 65.3 541.561 64.1 543.495 62.7C545.428 61.2333 547.895 59.5333 550.895 57.6C551.295 57.6 551.561 57.7667 551.695 58.1C551.828 58.3667 551.795 58.7 551.595 59.1C550.728 59.6333 549.861 60.2 548.995 60.8C548.128 61.4 547.228 62.0667 546.295 62.8C544.628 64.2 543.428 65.5333 542.695 66.8C541.895 68 541.428 69.1667 541.295 70.3C541.095 72.3 541.728 73.4667 543.195 73.8C544.395 74.0667 545.761 73.7667 547.295 72.9C548.895 71.9667 550.695 70.7 552.695 69.1C553.428 68.5 554.328 67.6 555.395 66.4C556.528 65.2 557.861 63.5667 559.395 61.5C561.728 58.4333 563.428 56.9 564.495 56.9C565.361 56.9 565.828 57.2667 565.895 58C565.895 58.7333 564.628 60.2667 562.095 62.6C559.695 64.8667 558.495 66.8 558.495 68.4C558.495 70.6667 558.861 72.3 559.595 73.3C560.395 74.3 561.461 75.0333 562.795 75.5C564.661 76.1 566.728 76.0333 568.995 75.3C571.328 74.5667 573.895 73.4667 576.695 72C577.828 71.4 579.161 70.6667 580.695 69.8C582.228 68.9333 583.661 67.8333 584.995 66.5ZM634.909 67.1C634.909 67.2333 634.876 67.4 634.809 67.6C634.809 67.8 634.709 67.9667 634.509 68.1C631.509 69.6333 628.843 70.9333 626.509 72C624.176 73.0667 622.043 73.9333 620.109 74.6C618.243 75.2667 616.476 75.7333 614.809 76C613.143 76.3333 611.509 76.5 609.909 76.5C606.176 76.5 604.276 74.5 604.209 70.5C604.209 69.7667 604.276 68.8667 604.409 67.8C604.609 66.6667 604.909 65.3333 605.309 63.8C602.843 65.2667 600.276 66.8 597.609 68.4C595.009 69.9333 592.276 71.6333 589.409 73.5C585.476 76.1 583.343 77.4 583.009 77.4C582.876 77.4 582.643 77.2667 582.309 77C581.909 76.8667 581.709 76.6333 581.709 76.3C581.709 75.8333 582.009 75.0667 582.609 74C583.143 72.9333 584.076 71.4667 585.409 69.6C586.076 68.6 586.676 67.8 587.209 67.2C587.676 66.5333 588.076 66 588.409 65.6C588.743 65.2 589.009 64.9 589.209 64.7C589.476 64.4333 589.676 64.2 589.809 64C589.943 63.4667 589.876 63.1667 589.609 63.1C589.409 63.0333 589.143 62.8333 588.809 62.5C588.609 62.2333 588.709 61.9333 589.109 61.6C589.576 61.2667 590.043 60.8667 590.509 60.4C591.043 59.9333 591.809 59.4333 592.809 58.9C593.876 58.3 594.676 57.9333 595.209 57.8C596.143 57.6667 596.709 57.8333 596.909 58.3C597.109 58.7667 597.143 59.4333 597.009 60.3C597.009 60.8333 595.909 62.5333 593.709 65.4C592.776 66.6667 591.943 67.7333 591.209 68.6C590.543 69.4667 589.943 70.1667 589.409 70.7C602.076 62.0333 610.243 57.7 613.909 57.7C614.243 57.7 614.476 58.1333 614.609 59C614.609 59.0667 613.609 60.3 611.609 62.7C609.676 64.9667 608.676 67.2333 608.609 69.5C608.609 71.9 610.276 73.1333 613.609 73.2C614.409 73.2 615.409 73.1333 616.609 73C617.809 72.8667 619.243 72.6 620.909 72.2C622.576 71.7333 624.476 71.0667 626.609 70.2C628.809 69.3333 631.243 68.1333 633.909 66.6C633.976 66.4667 634.176 66.4 634.509 66.4C634.709 66.4 634.843 66.6333 634.909 67.1ZM678.842 66.5C679.109 66.3667 679.342 66.2333 679.542 66.1C679.809 65.9 680.009 66 680.142 66.4C680.342 66.8667 680.176 67.3 679.642 67.7C677.242 69.5 674.809 71.1333 672.342 72.6C669.942 74 667.609 75.1667 665.342 76.1C663.142 77.1 661.109 77.8333 659.242 78.3C657.376 78.7667 655.809 78.9667 654.542 78.9C653.742 78.8333 652.909 78.6333 652.042 78.3C651.242 77.9667 650.509 77.4667 649.842 76.8C649.242 76.1333 648.742 75.2667 648.342 74.2C647.942 73.1333 647.776 71.8333 647.842 70.3C647.042 71.1667 646.076 72.0333 644.942 72.9C643.809 73.7667 642.609 74.5333 641.342 75.2C640.076 75.8667 638.842 76.4 637.642 76.8C636.442 77.2 635.376 77.4 634.442 77.4C633.376 77.4 632.376 77.0333 631.442 76.3C630.509 75.6333 630.042 74.5333 630.042 73C629.976 70.7333 630.976 68.5 633.042 66.3C633.976 65.3 635.409 64.1 637.342 62.7C639.276 61.2333 641.742 59.5333 644.742 57.6C645.142 57.6 645.409 57.7667 645.542 58.1C645.676 58.3667 645.642 58.7 645.442 59.1C644.576 59.6333 643.709 60.2 642.842 60.8C641.976 61.4 641.076 62.0667 640.142 62.8C638.476 64.2 637.276 65.5333 636.542 66.8C635.742 68 635.276 69.1667 635.142 70.3C634.942 72.3 635.576 73.4667 637.042 73.8C638.242 74.0667 639.609 73.7667 641.142 72.9C642.742 71.9667 644.542 70.7 646.542 69.1C647.276 68.5 648.176 67.6 649.242 66.4C650.376 65.2 651.709 63.5667 653.242 61.5C655.576 58.4333 657.276 56.9 658.342 56.9C659.209 56.9 659.676 57.2667 659.742 58C659.742 58.7333 658.476 60.2667 655.942 62.6C653.542 64.8667 652.342 66.8 652.342 68.4C652.342 70.6667 652.709 72.3 653.442 73.3C654.242 74.3 655.309 75.0333 656.642 75.5C658.509 76.1 660.576 76.0333 662.842 75.3C665.176 74.5667 667.742 73.4667 670.542 72C671.676 71.4 673.009 70.6667 674.542 69.8C676.076 68.9333 677.509 67.8333 678.842 66.5ZM705.557 38.5C705.557 38.5667 698.524 46.6333 684.457 62.7C685.724 62.0333 686.99 61.3667 688.257 60.7C689.524 60.0333 690.824 59.3333 692.157 58.6C695.357 57.2 698.257 56.4667 700.857 56.4C703.657 56.4 705.157 57.6333 705.357 60.1C705.357 61.7 704.024 63.9333 701.357 66.8C700.09 68.1333 698.69 69.3667 697.157 70.5C695.624 71.5667 693.89 72.6667 691.957 73.8C688.09 75.8 684.99 76.8333 682.657 76.9C682.124 76.9 681.69 76.8 681.357 76.6C681.024 76.4 680.69 76.1333 680.357 75.8C679.757 75.2 679.457 74.4333 679.457 73.5C679.457 71.6333 680.09 70.6333 681.357 70.5C682.024 70.5 682.457 70.7 682.657 71.1C682.857 71.3667 683.124 71.8333 683.457 72.5C683.924 73.5 684.957 74 686.557 74C688.624 74 691.557 72.4 695.357 69.2C699.224 66.2 701.157 63.5333 701.157 61.2C701.157 60.1333 699.957 59.5 697.557 59.3C695.29 59.3 692.99 60.0333 690.657 61.5C689.724 62.1 688.324 63.1333 686.457 64.6C684.657 66.0667 682.39 67.9667 679.657 70.3C676.19 73.2333 672.624 76.7 668.957 80.7C665.29 84.7667 661.457 89.4667 657.457 94.8C650.657 104.267 646.957 110.333 646.357 113V116.6C646.357 117.533 646.024 118.2 645.357 118.6C644.824 119 644.19 119.267 643.457 119.4C643.057 119.4 642.69 119.367 642.357 119.3C641.957 119.233 641.59 119.067 641.257 118.8C640.59 118.467 640.157 117.9 639.957 117.1C639.957 115.9 640.39 114.833 641.257 113.9C641.99 112.567 642.59 111.567 643.057 110.9C643.457 110.3 643.69 109.933 643.757 109.8C645.89 105.867 648.99 101.2 653.057 95.8C657.124 90.4 662.19 84.1667 668.257 77.1C671.124 73.7 675.39 68.8333 681.057 62.5C686.657 56.1667 693.824 48.2667 702.557 38.8C703.424 37.9333 704.157 37.4667 704.757 37.4C705.09 37.4 705.357 37.7667 705.557 38.5ZM742.255 60.8C742.255 61.4 740.089 63.9333 735.755 68.4C731.755 72.4 728.422 75.7333 725.755 78.4C723.155 81.0667 721.155 83.1333 719.755 84.6C715.822 88.6667 712.122 92.7333 708.655 96.8C705.189 100.867 701.855 104.933 698.655 109C697.322 110.8 696.355 112.333 695.755 113.6C695.089 114.867 694.689 115.833 694.555 116.5C694.555 116.7 694.589 116.9 694.655 117.1C694.722 117.367 694.789 117.7 694.855 118.1C694.922 118.5 694.955 118.833 694.955 119.1C694.955 119.433 694.955 119.667 694.955 119.8C694.155 121.933 692.589 123.067 690.255 123.2C690.122 122.4 690.022 121.7 689.955 121.1C689.889 120.567 689.822 120.033 689.755 119.5C689.755 116.3 691.622 112.7 695.355 108.7L728.655 71.9C722.989 75.5667 718.589 77.4 715.455 77.4C712.322 77.4 710.755 75.7667 710.755 72.5C710.755 69.9 711.822 66.8333 713.955 63.3C716.089 60.3667 717.855 58.5667 719.255 57.9C720.322 57.8333 720.922 58.1667 721.055 58.9C721.055 58.7667 719.889 60.0667 717.555 62.8C715.355 65.4667 714.155 68.1 713.955 70.7C713.955 72.7667 715.722 73.8667 719.255 74C721.922 74 726.055 71.7 731.655 67.1C737.189 62.5667 740.355 60.2667 741.155 60.2C741.822 60.2 742.189 60.4 742.255 60.8ZM774.784 66.3C774.85 66.7667 774.75 67.1333 774.484 67.4C768.95 71 764.15 73.6333 760.084 75.3C756.017 77.0333 752.117 77.9333 748.384 78C743.784 78 741.45 75.6333 741.384 70.9C741.384 67.9667 743.084 64.5333 746.484 60.6C750.017 56.8667 753.084 54.9667 755.684 54.9C756.284 54.9 756.95 55.0667 757.684 55.4C758.417 55.6667 758.85 56.5 758.984 57.9C758.984 58.5 758.817 59.1 758.484 59.7C758.15 60.3 757.684 60.9333 757.084 61.6C756.55 62.2 755.917 62.8333 755.184 63.5C754.517 64.1 753.85 64.6667 753.184 65.2C752.184 66.1333 751.084 67.0333 749.884 67.9C748.684 68.7 747.317 69.5 745.784 70.3C745.65 71.1667 745.75 71.8 746.084 72.2C746.417 72.5333 746.95 72.9667 747.684 73.5C748.817 74.2333 750.05 74.6 751.384 74.6C753.584 74.6 756.584 74.0333 760.384 72.9C764.25 71.7 768.717 69.4 773.784 66C773.984 65.8 774.184 65.7333 774.384 65.8C774.65 65.8 774.784 65.9667 774.784 66.3ZM754.584 59C754.584 58.6667 754.15 58.4 753.284 58.2C752.15 58.2 750.65 59.2333 748.784 61.3C747.85 62.2333 747.15 63.2333 746.684 64.3C746.217 65.3667 745.984 66.2667 745.984 67C746.117 67 746.55 66.9 747.284 66.7C748.017 66.4333 748.617 66.1333 749.084 65.8C750.817 64.8 752.117 63.6667 752.984 62.4C753.917 61.0667 754.45 59.9333 754.584 59ZM813.174 77.1C811.508 76.8333 810.108 76.1333 808.974 75C807.908 73.8 807.441 71.8667 807.574 69.2C806.574 69.8667 805.474 70.6333 804.274 71.5C803.074 72.3 801.874 73.1 800.674 73.9C799.474 74.6333 798.308 75.2333 797.174 75.7C796.041 76.1667 795.041 76.3667 794.174 76.3C793.174 76.2333 792.408 75.8667 791.874 75.2C791.408 74.6 791.108 73.8667 790.974 73C790.841 72.0667 790.908 71.1 791.174 70.1C791.441 69.0333 791.841 68.0333 792.374 67.1C790.374 68.7 788.608 70.1667 787.074 71.5C785.541 72.7667 784.074 73.8667 782.674 74.8C781.341 75.6667 779.974 76.3667 778.574 76.9C777.241 77.4333 775.774 77.7333 774.174 77.8C773.041 77.8667 771.874 77.4 770.674 76.4C769.408 75.4667 768.741 74.3333 768.674 73C768.541 71.4 768.741 70.1333 769.274 69.2C769.808 68.2667 770.374 67.5333 770.974 67C771.774 66.4 772.641 66 773.574 65.8C774.508 65.5333 775.174 65.6667 775.574 66.2C776.041 66.8 776.274 67.5333 776.274 68.4C776.208 69.2 776.141 70 776.074 70.8C775.941 71.6 775.874 72.3 775.874 72.9C775.874 73.5 776.174 73.9 776.774 74.1C777.241 74.3 777.808 74.4 778.474 74.4C779.141 74.3333 779.974 74.0333 780.974 73.5C781.774 73.1 782.608 72.6333 783.474 72.1C784.408 71.5 785.441 70.7667 786.574 69.9C787.708 69.0333 788.974 67.9667 790.374 66.7C791.841 65.4333 793.508 63.8667 795.374 62C797.308 60.1333 798.741 58.4667 799.674 57C800.608 55.5333 801.441 54.6333 802.174 54.3C802.441 54.1667 802.774 54.1333 803.174 54.2C803.574 54.2 803.941 54.3 804.274 54.5C804.608 54.7 804.874 54.9667 805.074 55.3C805.274 55.6333 805.274 56.0333 805.074 56.5C804.341 57.3667 803.508 58.0333 802.574 58.5C801.641 58.9 800.741 59.4667 799.874 60.2C798.274 61.5333 797.074 63.1 796.274 64.9C795.474 66.6333 795.041 68.0667 794.974 69.2C794.974 70.3333 795.108 71.1333 795.374 71.6C795.641 72.0667 796.108 72.4333 796.774 72.7C797.441 72.9 798.141 72.9 798.874 72.7C799.674 72.4333 800.474 72.0667 801.274 71.6C802.141 71.0667 802.974 70.5 803.774 69.9C804.641 69.2333 805.441 68.6 806.174 68C806.908 67.4667 807.808 66.3333 808.874 64.6C810.008 62.8 811.374 60.9 812.974 58.9C815.241 55.8333 816.941 54.3 818.074 54.3C818.941 54.3 819.374 54.6667 819.374 55.4C819.374 56.0667 818.141 57.6 815.674 60C814.474 61.1333 813.541 62.4333 812.874 63.9C812.274 65.3667 811.974 66.5 811.974 67.3C811.974 69.1 812.341 70.4667 813.074 71.4C813.874 72.2667 814.941 72.9 816.274 73.3C818.008 73.8333 819.741 73.9667 821.474 73.7C823.274 73.3667 825.008 72.8 826.674 72C828.341 71.2 829.941 70.3 831.474 69.3C833.008 68.2333 834.474 67.2 835.874 66.2C836.141 66.0667 836.341 66 836.474 66C836.674 66 836.841 66.2 836.974 66.6C836.974 67.0667 836.841 67.4333 836.574 67.7C833.841 69.9 831.308 71.6667 828.974 73C826.641 74.2667 824.474 75.2333 822.474 75.9C820.541 76.5667 818.774 76.9667 817.174 77.1C815.641 77.2333 814.308 77.2333 813.174 77.1Z" fill="#F37021"/>
</svg>
