<svg width="585" height="120" viewBox="0 0 585 120" fill="none" xmlns="http://www.w3.org/2000/svg">
<path d="M145.09 73.7C148.29 73.7 151.223 73.4667 153.89 73C156.557 72.4667 159.223 71.6 161.89 70.4C164.557 69.1333 167.357 67.5 170.29 65.5C173.223 63.4333 176.49 60.8333 180.09 57.7L181.39 58.1C177.523 61.7667 173.957 64.8667 170.69 67.4C167.423 69.9333 164.223 71.9667 161.09 73.5C158.023 75.0333 154.923 76.1 151.79 76.7C148.657 77.3667 145.29 77.6333 141.69 77.5C138.09 77.4333 134.79 76.8667 131.79 75.8C128.79 74.7333 126.223 73.2667 124.09 71.4C121.957 69.4667 120.29 67.1667 119.09 64.5C117.89 61.8333 117.257 58.8333 117.19 55.5C117.19 53.4333 117.357 51.4333 117.69 49.5C118.023 47.5 118.59 45.4 119.39 43.2C120.257 41 121.39 38.5667 122.79 35.9C124.257 33.2333 126.09 30.1667 128.29 26.7C126.69 27.9 124.89 29.4667 122.89 31.4C120.89 33.2667 118.723 35.3667 116.39 37.7C114.123 39.9667 111.69 42.4 109.09 45C106.557 47.6 103.957 50.2333 101.29 52.9C100.423 53.7667 99.2565 54.9333 97.7898 56.4C96.3898 57.8667 94.8565 59.4333 93.1898 61.1C91.5232 62.7667 89.8232 64.4667 88.0898 66.2C86.3565 67.8667 84.7232 69.4 83.1898 70.8C81.6565 72.2 80.3232 73.3667 79.1898 74.3C78.0565 75.2333 77.2898 75.7333 76.8898 75.8L75.2898 75.6C74.8232 75.6 74.7565 74.6333 75.0898 72.7C75.4232 70.7667 76.0232 68.3 76.8898 65.3C77.8232 62.2333 78.9232 58.9 80.1898 55.3C81.5232 51.6333 82.9232 48.1 84.3898 44.7C85.2565 42.7 86.4898 40.0667 88.0898 36.8C89.6898 33.5333 91.5565 30.1667 93.6898 26.7C90.5565 29.1667 86.8232 32.4 82.4898 36.4C78.1565 40.3333 72.6565 45.0667 65.9898 50.6C63.1898 53.0667 60.3898 55.4 57.5898 57.6C54.8565 59.8 52.1232 61.8333 49.3898 63.7C43.8565 67.5667 38.4232 70.7 33.0898 73.1C27.7565 75.5 22.5565 76.7 17.4898 76.7C12.6232 76.7 8.58984 75.5 5.38984 73.1C2.25651 70.7 0.65651 67.6333 0.589844 63.9C0.589844 56.5667 5.08984 49.2333 14.0898 41.9C22.7565 34.9667 30.8565 31.5 38.3898 31.5C38.8565 31.5 39.3565 31.5667 39.8898 31.7C40.4898 31.8333 41.0232 32.0333 41.4898 32.3C42.0232 32.5 42.4898 32.8 42.8898 33.2C43.2898 33.6 43.5232 34.0667 43.5898 34.6C43.5898 35.7333 43.0232 36.8 41.8898 37.8C40.8232 38.7333 39.7232 39.2333 38.5898 39.3C38.1898 37.4333 37.7565 36.2667 37.2898 35.8C36.8898 35.2667 36.1232 34.8667 34.9898 34.6C33.3898 34.2 31.4232 34.4 29.0898 35.2C26.7565 36 24.4232 37.0667 22.0898 38.4C19.7565 39.7333 17.5898 41.1667 15.5898 42.7C13.6565 44.2333 12.2232 45.5333 11.2898 46.6C9.62318 48.3333 8.25651 50.4333 7.18984 52.9C6.12318 55.3667 5.55651 57.9333 5.48984 60.6C5.48984 68.7333 10.6232 72.8 20.8898 72.8C22.3565 72.8 24.0565 72.5333 25.9898 72C27.9232 71.4667 29.9898 70.7333 32.1898 69.8C34.3898 68.8667 36.6565 67.8 38.9898 66.6C41.3232 65.3333 43.6232 64 45.8898 62.6C47.7565 61.5333 49.6898 60.2 51.6898 58.6C53.6898 56.9333 55.7565 55.1333 57.8898 53.2C60.0898 51.2667 62.3565 49.2333 64.6898 47.1C67.0898 44.9 69.5565 42.7333 72.0898 40.6C75.3565 37.8667 78.2898 35.4333 80.8898 33.3C83.4898 31.1 86.0898 28.9 88.6898 26.7C101.023 16.5 111.123 7.6 118.99 -5.96046e-06C119.923 -5.96046e-06 120.423 0.366662 120.49 1.1C116.89 4.3 113.39 7.9 109.99 11.9C106.59 15.8333 103.39 19.9667 100.39 24.3C97.3898 28.5667 94.6232 32.9 92.0898 37.3C89.6232 41.7 87.4232 45.9667 85.4898 50.1C83.6232 54.1667 82.0898 58 80.8898 61.6C79.7565 65.1333 79.0565 68.2 78.7898 70.8C79.5898 70.2667 80.6898 69.3333 82.0898 68C83.4898 66.6667 84.8898 65.3 86.2898 63.9C87.6898 62.4333 88.9565 61.1 90.0898 59.9C91.2232 58.7 91.9232 57.9667 92.1898 57.7C97.1898 52.5667 102.29 47.3667 107.49 42.1C112.757 36.8333 117.99 31.7 123.19 26.7C129.057 21.2333 134.557 16.4 139.69 12.2C144.89 7.93333 149.523 3.86666 153.59 -5.96046e-06C154.523 -5.96046e-06 155.023 0.366662 155.09 1.1C133.023 20.7 121.99 38.0667 121.99 53.2C121.99 56.2 122.523 58.9667 123.59 61.5C124.657 63.9667 126.19 66.1 128.19 67.9C130.19 69.7 132.59 71.1 135.39 72.1C138.257 73.1 141.49 73.6333 145.09 73.7ZM225.312 67C225.312 67.5333 225.212 67.9 225.012 68.1C220.412 71.1 216.245 73.3 212.512 74.7C208.845 76.1 205.745 76.9333 203.212 77.2C202.278 77.3333 201.345 77.3333 200.412 77.2C199.478 77.1333 198.645 76.9 197.912 76.5C197.178 76.1 196.578 75.5 196.112 74.7C195.645 73.9 195.412 72.8333 195.412 71.5C195.412 70.0333 195.978 68.3333 197.112 66.4C198.245 64.4 199.412 62.6667 200.612 61.2C199.678 61.5333 198.612 61.9333 197.412 62.4C196.212 62.8 194.945 63.2 193.612 63.6C193.145 64.5333 192.578 65.4667 191.912 66.4C191.245 67.3333 190.478 68.3333 189.612 69.4C184.478 75.5333 179.178 78.6333 173.712 78.7C170.045 78.7 168.178 76.8333 168.112 73.1C168.112 71.3667 168.778 69.3333 170.112 67C171.378 64.6667 173.012 62 175.012 59C176.345 57.1333 177.612 55.4333 178.812 53.9C180.078 52.3 181.112 50.6333 181.912 48.9C182.845 46.9667 184.012 45.6333 185.412 44.9C186.812 44.1667 188.045 43.6667 189.112 43.4C189.578 43.2667 190.145 43.1667 190.812 43.1C191.478 43.0333 191.845 43.4 191.912 44.2C191.912 44.9333 191.278 46 190.012 47.4C188.745 48.8 186.945 50.5333 184.612 52.6C181.478 55.4 178.812 58.4 176.612 61.6C174.478 64.7333 173.245 67.5667 172.912 70.1C172.778 71.3667 173.078 72.5 173.812 73.5C174.478 74.4333 175.812 74.8333 177.812 74.7C179.678 74.5667 181.478 73.9 183.212 72.7C184.945 71.5 186.678 69.6333 188.412 67.1C188.745 66.6333 189.012 66.2333 189.212 65.9C189.478 65.5 189.678 65.1 189.812 64.7C188.345 65.3 187.145 65.6333 186.212 65.7C185.278 65.7667 184.445 65.7333 183.712 65.6C183.512 65.5333 183.245 65.4333 182.912 65.3C182.645 65.1 182.378 64.8333 182.112 64.5C181.845 64.1667 181.645 63.8 181.512 63.4C181.445 62.9333 181.478 62.4333 181.612 61.9C181.945 60.5 182.845 59.3 184.312 58.3C185.778 57.2333 187.378 56.5667 189.112 56.3C189.978 56.1667 190.845 56.1667 191.712 56.3C192.578 56.3667 193.312 56.6333 193.912 57.1C194.512 57.5 194.878 58.1 195.012 58.9C195.145 59.7 194.945 60.7667 194.412 62.1C197.078 61.3667 199.312 60.5333 201.112 59.6C202.912 58.6 204.378 57.9333 205.512 57.6C206.378 57.6 206.812 57.9 206.812 58.5C206.812 59.0333 205.745 60.5 203.612 62.9C201.745 65.3 200.745 67.5667 200.612 69.7C200.612 71.0333 200.878 72.1333 201.412 73C202.012 73.8 202.945 74.2667 204.212 74.4C205.145 74.4 206.312 74.3 207.712 74.1C209.178 73.9 210.778 73.5333 212.512 73C214.312 72.4667 216.212 71.7 218.212 70.7C220.212 69.6333 222.212 68.2667 224.212 66.6C224.278 66.5333 224.545 66.5 225.012 66.5C225.145 66.5 225.245 66.6667 225.312 67ZM190.812 62.9C191.745 60.9667 191.612 59.5333 190.412 58.6C189.745 58.0667 188.978 57.8667 188.112 58C187.312 58.0667 186.645 58.3667 186.112 58.9C185.578 59.4333 185.212 60 185.012 60.6C184.812 61.2 184.878 61.8333 185.212 62.5C185.678 63.5 186.512 63.9667 187.712 63.9C188.912 63.7667 189.945 63.4333 190.812 62.9ZM269.667 76.5C265.867 76.5 263.967 74.5 263.967 70.5C263.967 69.7667 264.101 68.9 264.367 67.9C264.634 66.9 264.934 66.1333 265.267 65.6C264.067 66.3333 262.767 66.9667 261.367 67.5C259.967 67.9667 258.567 68.4 257.167 68.8C255.767 69.2 254.367 69.5667 252.967 69.9C251.634 70.2333 250.367 70.6 249.167 71C248.567 71.7333 247.934 72.5 247.267 73.3C246.534 74.0333 245.867 74.7 245.267 75.3C244.601 75.9 244.034 76.4 243.567 76.8C243.101 77.2 242.801 77.4 242.667 77.4C242.601 77.4 242.367 77.2667 241.967 77C241.567 76.8 241.367 76.5667 241.367 76.3C241.367 75.8333 241.667 75.0667 242.267 74C242.867 72.9333 243.834 71.4667 245.167 69.6C246.234 68 247.067 66.7 247.667 65.7C248.267 64.7 248.734 63.8667 249.067 63.2C249.401 62.5333 249.701 61.9667 249.967 61.5C250.167 60.9667 250.501 60.4 250.967 59.8C251.234 59.4 251.767 59.0667 252.567 58.8C253.367 58.5333 253.934 58.3333 254.267 58.2C255.001 58.2 255.501 58.4 255.767 58.8C256.101 59.2 256.167 59.7 255.967 60.3C255.701 61.0333 255.001 62.0667 253.867 63.4C252.734 64.6667 251.634 66.3667 250.567 68.5C251.567 68.1667 252.734 67.8 254.067 67.4C255.467 67 256.901 66.5667 258.367 66.1C259.834 65.6333 261.267 65.1667 262.667 64.7C264.067 64.1667 265.301 63.6333 266.367 63.1C267.634 61.5 268.934 60.2 270.267 59.2C271.667 58.2 272.767 57.7 273.567 57.7C273.901 57.7 274.167 58.1333 274.367 59C274.367 59 273.334 60.2333 271.267 62.7C269.334 65.1 268.334 67.3667 268.267 69.5C268.267 71.9 269.934 73.2333 273.267 73.5C274.001 73.5667 275.034 73.5 276.367 73.3C277.767 73.1 279.367 72.7333 281.167 72.2C283.034 71.6 285.034 70.8333 287.167 69.9C289.301 68.9667 291.467 67.7667 293.667 66.3C293.801 66.3 293.967 66.3 294.167 66.3C294.367 66.2333 294.534 66.4 294.667 66.8C294.801 67 294.801 67.2 294.667 67.4C294.534 67.6 294.401 67.7667 294.267 67.9C289.201 70.9 284.634 73.1 280.567 74.5C276.567 75.8333 272.934 76.5 269.667 76.5ZM338.854 66.5C338.987 67.0333 338.854 67.4 338.454 67.6C333.854 70.4667 329.421 72.9333 325.154 75C320.954 77 317.287 78 314.154 78C310.554 78 308.654 75.3 308.454 69.9C307.854 70.2333 306.921 70.7667 305.654 71.5C304.454 72.1667 303.154 72.8667 301.754 73.6C300.421 74.3333 299.054 74.9667 297.654 75.5C296.321 76.1 295.221 76.4333 294.354 76.5C293.087 76.6333 291.954 76.4667 290.954 76C289.887 75.5333 289.221 74.5667 288.954 73.1C288.954 70.1667 291.687 66.5667 297.154 62.3C299.954 60.2333 302.621 58.6667 305.154 57.6C307.687 56.5333 309.821 56 311.554 56C314.021 55.9333 315.287 56.5333 315.354 57.8C315.354 59 314.921 59.9667 314.054 60.7C313.387 61.3 312.554 61.6 311.554 61.6C311.487 61.5333 311.421 61.4 311.354 61.2C311.287 61.0667 311.221 60.9333 311.154 60.8C311.087 60.6 310.987 60.3667 310.854 60.1C310.454 59.1 309.654 58.5667 308.454 58.5C305.854 58.5 302.821 59.9667 299.354 62.9C296.021 65.7 294.354 68.2333 294.354 70.5C294.354 71.0333 294.454 71.5333 294.654 72C294.854 72.4 295.221 72.6333 295.754 72.7C297.621 72.8333 299.454 72.5333 301.254 71.8C303.121 71.0667 305.087 70 307.154 68.6C308.021 68 309.521 66.5333 311.654 64.2C312.987 62.6 314.154 61.8333 315.154 61.9C315.954 61.9 316.354 62.2333 316.354 62.9C316.354 63.5 315.787 64.8 314.654 66.8C313.587 68.6667 313.054 70.0333 313.054 70.9C313.054 73.3667 314.254 74.6333 316.654 74.7C318.787 74.7 320.954 74.3667 323.154 73.7C325.354 73.0333 327.421 72.2333 329.354 71.3C331.287 70.3667 332.987 69.4667 334.454 68.6C335.987 67.6667 337.087 66.9667 337.754 66.5C337.954 66.3 338.154 66.1667 338.354 66.1C338.554 65.9667 338.721 66.1 338.854 66.5ZM413.939 66.2C414.006 66.5333 413.839 66.9 413.439 67.3C410.639 69.5667 408.006 71.3333 405.539 72.6C403.139 73.8 400.806 74.7 398.539 75.3C396.272 75.9 394.106 76.2667 392.039 76.4C389.972 76.5333 387.939 76.6 385.939 76.6C384.806 76.6 383.306 76.4 381.439 76C379.639 75.6667 377.472 75.0667 374.939 74.2C372.406 73.3333 370.439 72.7333 369.039 72.4C367.706 72 366.839 71.7667 366.439 71.7C363.839 71.7 360.439 73.1333 356.239 76C354.972 76.9333 353.739 77.8333 352.539 78.7C351.272 79.5667 349.972 80.4667 348.639 81.4L346.739 81.1C347.806 79.8333 348.839 78.7 349.839 77.7C350.772 76.7667 351.906 75.6 353.239 74.2C354.506 72.7333 356.072 70.9 357.939 68.7C359.739 66.5 362.106 63.5333 365.039 59.8C366.039 58.4667 366.772 57.4 367.239 56.6C367.772 55.7333 368.139 55.0333 368.339 54.5C368.606 53.9667 368.772 53.4667 368.839 53C368.972 52.5333 369.139 52 369.339 51.4C369.872 49.5333 370.672 48.0667 371.739 47C372.806 45.8667 373.806 45.0667 374.739 44.6C375.472 44.2667 376.206 44.2333 376.939 44.5C377.739 44.7667 378.106 45.4667 378.039 46.6C377.439 47.6667 376.539 49 375.339 50.6C374.206 52.2 372.906 53.9 371.439 55.7C369.972 57.5 368.472 59.3 366.939 61.1C365.472 62.8333 364.106 64.4333 362.839 65.9C361.572 67.3667 360.539 68.5667 359.739 69.5C358.872 70.4333 358.406 70.9333 358.339 71C360.606 69.8 362.906 68.5667 365.239 67.3C367.572 66.0333 369.939 64.7333 372.339 63.4C376.806 61.0667 380.706 59.3667 384.039 58.3C387.439 57.1667 390.306 56.5667 392.639 56.5C394.906 56.5 396.139 57.3667 396.339 59.1C396.339 60.5667 395.639 61.3 394.239 61.3C393.439 61.3 392.506 61.2 391.439 61C390.439 60.8 389.572 60.6333 388.839 60.5C384.706 60.5 380.506 61.4667 376.239 63.4C374.906 64.1333 373.739 64.8 372.739 65.4C371.739 66 370.906 66.6333 370.239 67.3C374.839 69.1667 378.806 70.4667 382.139 71.2C385.472 71.9333 388.206 72.4667 390.339 72.8C391.139 72.9333 392.172 73.0667 393.439 73.2C394.706 73.3333 396.272 73.2667 398.139 73C400.006 72.6667 402.139 72 404.539 71C406.939 69.9333 409.706 68.2667 412.839 66C413.039 65.8667 413.239 65.8 413.439 65.8C413.706 65.7333 413.872 65.8667 413.939 66.2ZM457.018 66.5C457.151 67.0333 457.018 67.4 456.618 67.6C452.018 70.4667 447.585 72.9333 443.318 75C439.118 77 435.451 78 432.318 78C428.718 78 426.818 75.3 426.618 69.9C426.018 70.2333 425.085 70.7667 423.818 71.5C422.618 72.1667 421.318 72.8667 419.918 73.6C418.585 74.3333 417.218 74.9667 415.818 75.5C414.485 76.1 413.385 76.4333 412.518 76.5C411.251 76.6333 410.118 76.4667 409.118 76C408.051 75.5333 407.385 74.5667 407.118 73.1C407.118 70.1667 409.851 66.5667 415.318 62.3C418.118 60.2333 420.785 58.6667 423.318 57.6C425.851 56.5333 427.985 56 429.718 56C432.185 55.9333 433.451 56.5333 433.518 57.8C433.518 59 433.085 59.9667 432.218 60.7C431.551 61.3 430.718 61.6 429.718 61.6C429.651 61.5333 429.585 61.4 429.518 61.2C429.451 61.0667 429.385 60.9333 429.318 60.8C429.251 60.6 429.151 60.3667 429.018 60.1C428.618 59.1 427.818 58.5667 426.618 58.5C424.018 58.5 420.985 59.9667 417.518 62.9C414.185 65.7 412.518 68.2333 412.518 70.5C412.518 71.0333 412.618 71.5333 412.818 72C413.018 72.4 413.385 72.6333 413.918 72.7C415.785 72.8333 417.618 72.5333 419.418 71.8C421.285 71.0667 423.251 70 425.318 68.6C426.185 68 427.685 66.5333 429.818 64.2C431.151 62.6 432.318 61.8333 433.318 61.9C434.118 61.9 434.518 62.2333 434.518 62.9C434.518 63.5 433.951 64.8 432.818 66.8C431.751 68.6667 431.218 70.0333 431.218 70.9C431.218 73.3667 432.418 74.6333 434.818 74.7C436.951 74.7 439.118 74.3667 441.318 73.7C443.518 73.0333 445.585 72.2333 447.518 71.3C449.451 70.3667 451.151 69.4667 452.618 68.6C454.151 67.6667 455.251 66.9667 455.918 66.5C456.118 66.3 456.318 66.1667 456.518 66.1C456.718 65.9667 456.885 66.1 457.018 66.5ZM481.975 38.5C481.975 38.5667 474.942 46.6333 460.875 62.7C462.142 62.0333 463.408 61.3667 464.675 60.7C465.942 60.0333 467.242 59.3333 468.575 58.6C471.775 57.2 474.675 56.4667 477.275 56.4C480.075 56.4 481.575 57.6333 481.775 60.1C481.775 61.7 480.442 63.9333 477.775 66.8C476.508 68.1333 475.108 69.3667 473.575 70.5C472.042 71.5667 470.308 72.6667 468.375 73.8C464.508 75.8 461.408 76.8333 459.075 76.9C458.542 76.9 458.108 76.8 457.775 76.6C457.442 76.4 457.108 76.1333 456.775 75.8C456.175 75.2 455.875 74.4333 455.875 73.5C455.875 71.6333 456.508 70.6333 457.775 70.5C458.442 70.5 458.875 70.7 459.075 71.1C459.275 71.3667 459.542 71.8333 459.875 72.5C460.342 73.5 461.375 74 462.975 74C465.042 74 467.975 72.4 471.775 69.2C475.642 66.2 477.575 63.5333 477.575 61.2C477.575 60.1333 476.375 59.5 473.975 59.3C471.708 59.3 469.408 60.0333 467.075 61.5C466.142 62.1 464.742 63.1333 462.875 64.6C461.075 66.0667 458.808 67.9667 456.075 70.3C452.608 73.2333 449.042 76.7 445.375 80.7C441.708 84.7667 437.875 89.4667 433.875 94.8C427.075 104.267 423.375 110.333 422.775 113V116.6C422.775 117.533 422.442 118.2 421.775 118.6C421.242 119 420.608 119.267 419.875 119.4C419.475 119.4 419.108 119.367 418.775 119.3C418.375 119.233 418.008 119.067 417.675 118.8C417.008 118.467 416.575 117.9 416.375 117.1C416.375 115.9 416.808 114.833 417.675 113.9C418.408 112.567 419.008 111.567 419.475 110.9C419.875 110.3 420.108 109.933 420.175 109.8C422.308 105.867 425.408 101.2 429.475 95.8C433.542 90.4 438.608 84.1667 444.675 77.1C447.542 73.7 451.808 68.8333 457.475 62.5C463.075 56.1667 470.242 48.2667 478.975 38.8C479.842 37.9333 480.575 37.4667 481.175 37.4C481.508 37.4 481.775 37.7667 481.975 38.5ZM559.873 67.5C559.94 67.7 559.907 67.9333 559.773 68.2C559.707 68.4 559.573 68.5 559.373 68.5C556.04 70.2333 553.207 71.6667 550.873 72.8C548.54 73.8667 546.507 74.7 544.773 75.3C543.107 75.9667 541.607 76.4333 540.273 76.7C539.007 77.0333 537.74 77.2 536.473 77.2C532.673 77.3333 530.707 75.4667 530.573 71.6C530.573 70.2667 530.74 68.9667 531.073 67.7C531.407 66.4333 531.94 65.1333 532.673 63.8C532.207 63.8 531.507 64.0333 530.573 64.5C529.707 64.9667 528.84 65.4333 527.973 65.9C524.84 67.3 521.973 68.9 519.373 70.7C516.84 72.4333 514.673 73.8333 512.873 74.9C509.74 76.6333 507.84 77.5 507.173 77.5C505.84 77.5 505.173 76.9 505.173 75.7C505.173 74.6333 506.073 72.9 507.873 70.5C509.007 69.1667 510.107 67.8667 511.173 66.6C512.24 65.2667 513.373 63.9 514.573 62.5C506.907 67.3 501.04 70.9 496.973 73.3C492.907 75.7 490.673 76.9333 490.273 77C489.207 77 488.673 76.5667 488.673 75.7C489.073 75.3 489.54 74.7667 490.073 74.1C490.54 73.5667 491.14 72.9333 491.873 72.2C492.54 71.4 493.34 70.5 494.273 69.5C496.207 67.4333 497.707 65.7 498.773 64.3C499.84 62.8333 500.273 61.8333 500.073 61.3C500.007 61.0333 499.773 60.9333 499.373 61C498.973 61 498.707 61.0667 498.573 61.2C498.373 61.2667 498.073 61.3667 497.673 61.5C497.273 61.5667 496.873 61.6667 496.473 61.8C496.073 61.8667 495.707 61.9 495.373 61.9C495.04 61.8333 494.84 61.6667 494.773 61.4C494.64 61.1333 494.84 60.7667 495.373 60.3C495.907 59.8333 496.573 59.3667 497.373 58.9C498.173 58.3667 498.973 57.9333 499.773 57.6C500.64 57.2 501.307 56.9667 501.773 56.9C502.907 56.9 503.807 57.1333 504.473 57.6C505.207 58.0667 505.373 59.0667 504.973 60.6C504.84 61.6667 504.173 62.9667 502.973 64.5C501.773 66.0333 500.507 67.6 499.173 69.2C503.773 66.4 508.473 63.6 513.273 60.8C515.673 59.4 517.44 58.7 518.573 58.7C520.307 58.7 521.173 59.3333 521.173 60.6C521.173 61.5333 520.107 63.2 517.973 65.6C516.707 67 515.673 68.2 514.873 69.2C514.073 70.2 513.473 71.0667 513.073 71.8C522.873 65.8667 529.107 62.2667 531.773 61C535.307 59.2667 537.907 58.3667 539.573 58.3C540.04 58.3 540.273 58.7 540.273 59.5C540.073 59.8333 539.84 60.2 539.573 60.6C539.307 60.9333 539.007 61.3667 538.673 61.9C538.407 62.4333 538.04 63.0667 537.573 63.8C535.84 66.5333 534.973 68.7667 534.973 70.5C534.973 73.1 536.207 74.4333 538.673 74.5C539.673 74.5 540.64 74.4333 541.573 74.3C542.573 74.1 543.773 73.7333 545.173 73.2C546.573 72.6667 548.34 71.9333 550.473 71C552.607 70 555.373 68.6667 558.773 67C558.907 66.9333 559.073 66.9 559.273 66.9C559.54 66.9 559.74 67.1 559.873 67.5ZM584.209 66.3C584.276 66.7667 584.176 67.1333 583.909 67.4C578.376 71 573.576 73.6333 569.509 75.3C565.443 77.0333 561.543 77.9333 557.809 78C553.209 78 550.876 75.6333 550.809 70.9C550.809 67.9667 552.509 64.5333 555.909 60.6C559.443 56.8667 562.509 54.9667 565.109 54.9C565.709 54.9 566.376 55.0667 567.109 55.4C567.843 55.6667 568.276 56.5 568.409 57.9C568.409 58.5 568.243 59.1 567.909 59.7C567.576 60.3 567.109 60.9333 566.509 61.6C565.976 62.2 565.343 62.8333 564.609 63.5C563.943 64.1 563.276 64.6667 562.609 65.2C561.609 66.1333 560.509 67.0333 559.309 67.9C558.109 68.7 556.743 69.5 555.209 70.3C555.076 71.1667 555.176 71.8 555.509 72.2C555.843 72.5333 556.376 72.9667 557.109 73.5C558.243 74.2333 559.476 74.6 560.809 74.6C563.009 74.6 566.009 74.0333 569.809 72.9C573.676 71.7 578.143 69.4 583.209 66C583.409 65.8 583.609 65.7333 583.809 65.8C584.076 65.8 584.209 65.9667 584.209 66.3ZM564.009 59C564.009 58.6667 563.576 58.4 562.709 58.2C561.576 58.2 560.076 59.2333 558.209 61.3C557.276 62.2333 556.576 63.2333 556.109 64.3C555.643 65.3667 555.409 66.2667 555.409 67C555.543 67 555.976 66.9 556.709 66.7C557.443 66.4333 558.043 66.1333 558.509 65.8C560.243 64.8 561.543 63.6667 562.409 62.4C563.343 61.0667 563.876 59.9333 564.009 59Z" fill="#F37021"/>
</svg>
